<svg width="192" height="155" viewBox="0 0 192 155" fill="none" xmlns="http://www.w3.org/2000/svg">
<g filter="url(#filter0_d)">
<rect x="5" y="1" width="181.268" height="144.771" rx="16" fill="url(#paint0_linear_english_icon)"/>
<mask id="mask0" mask-type="alpha" maskUnits="userSpaceOnUse" x="5" y="1" width="182" height="145">
<rect x="5" y="1" width="181.268" height="144.771" rx="16" fill="#F05C8C"/>
</mask>
<g mask="url(#mask0)">
<path fill-rule="evenodd" clip-rule="evenodd" d="M180.36 -99.2485C198.924 -100.636 221.842 -109.846 234.77 -96.4504C248.155 -82.5819 235.734 -59.304 237.44 -40.1052C238.632 -26.6921 244.617 -14.5208 243.242 -1.12526C241.554 15.3079 239.347 32.3501 228.702 44.9822C216.344 59.6471 199.419 71.3686 180.36 73.4949C160.225 75.7412 138.396 70.4424 123.49 56.72C109.185 43.5504 108.838 22.084 104.047 3.23889C99.6266 -14.1494 91.538 -31.5595 96.6789 -48.7485C101.874 -66.1186 116.032 -79.3679 131.555 -88.7353C146.16 -97.5495 163.348 -97.9769 180.36 -99.2485Z" fill="#F29DA4"/>
<path fill-rule="evenodd" clip-rule="evenodd" d="M24.3343 66.3757C42.8988 64.9881 65.8162 55.7782 78.7446 69.1738C92.1294 83.0423 79.7087 106.32 81.4149 125.519C82.6069 138.932 88.592 151.103 87.2162 164.499C85.5285 180.932 83.3212 197.974 72.6762 210.606C60.3182 225.271 43.3932 236.993 24.3343 239.119C4.1995 241.365 -17.6299 236.067 -32.5352 222.344C-46.8402 209.175 -47.1878 187.708 -51.9785 168.863C-56.3987 151.475 -64.4874 134.065 -59.3465 116.876C-54.1515 99.5056 -39.9931 86.2563 -24.4708 76.8889C-9.86518 68.0747 7.32281 67.6473 24.3343 66.3757Z" fill="#F29DA4"/>
</g>
<path d="M27.7448 105.604V108.532H31.7448V110.26H27.7448V113.3H32.2248V115.108H25.4888V103.812H32.2248V105.604H27.7448ZM39.1751 106.116C40.1991 106.116 41.0151 106.452 41.6231 107.124C42.2311 107.796 42.5351 108.74 42.5351 109.956V115.108H40.2951V110.212C40.2951 109.508 40.1138 108.964 39.7511 108.58C39.3884 108.186 38.8924 107.988 38.2631 107.988C37.6231 107.988 37.1111 108.196 36.7271 108.612C36.3431 109.028 36.1511 109.626 36.1511 110.404V115.108H33.8951V106.244H36.1511V108.02C36.3858 107.423 36.7698 106.959 37.3031 106.628C37.8471 106.287 38.4711 106.116 39.1751 106.116ZM47.9921 106.132C48.7388 106.132 49.3788 106.308 49.9121 106.66C50.4454 107.012 50.8241 107.487 51.0481 108.084V106.244H53.2881V115.14C53.2881 115.962 53.1228 116.698 52.7921 117.348C52.4721 118.01 51.9868 118.527 51.3361 118.9C50.6961 119.274 49.9174 119.46 49.0001 119.46C47.7201 119.46 46.6854 119.156 45.8961 118.548C45.1068 117.94 44.6268 117.114 44.4561 116.068H46.6801C46.8081 116.516 47.0534 116.863 47.4161 117.108C47.7894 117.364 48.2641 117.492 48.8401 117.492C49.5014 117.492 50.0348 117.295 50.4401 116.9C50.8454 116.516 51.0481 115.93 51.0481 115.14V113.252C50.8241 113.85 50.4454 114.33 49.9121 114.692C49.3788 115.044 48.7388 115.22 47.9921 115.22C47.2454 115.22 46.5734 115.039 45.9761 114.676C45.3788 114.314 44.9094 113.791 44.5681 113.108C44.2374 112.415 44.0721 111.604 44.0721 110.676C44.0721 109.748 44.2374 108.943 44.5681 108.26C44.9094 107.567 45.3788 107.039 45.9761 106.676C46.5734 106.314 47.2454 106.132 47.9921 106.132ZM48.6961 108.1C47.9921 108.1 47.4268 108.33 47.0001 108.788C46.5734 109.247 46.3601 109.876 46.3601 110.676C46.3601 111.476 46.5734 112.106 47.0001 112.564C47.4268 113.012 47.9921 113.236 48.6961 113.236C49.3788 113.236 49.9388 113.007 50.3761 112.548C50.8241 112.079 51.0481 111.455 51.0481 110.676C51.0481 109.887 50.8241 109.263 50.3761 108.804C49.9388 108.335 49.3788 108.1 48.6961 108.1ZM57.5886 103.268V115.108H55.3326V103.268H57.5886ZM59.3735 103.7C59.3735 103.338 59.5015 103.044 59.7575 102.82C60.0135 102.586 60.3495 102.468 60.7655 102.468C61.1815 102.468 61.5175 102.586 61.7735 102.82C62.0295 103.044 62.1575 103.338 62.1575 103.7C62.1575 104.052 62.0295 104.346 61.7735 104.58C61.5175 104.804 61.1815 104.916 60.7655 104.916C60.3495 104.916 60.0135 104.804 59.7575 104.58C59.5015 104.346 59.3735 104.052 59.3735 103.7ZM61.8855 106.244V115.108H59.6295V106.244H61.8855ZM66.9823 106.132C68.0597 106.132 68.9237 106.404 69.5743 106.948C70.225 107.492 70.6303 108.218 70.7903 109.124H68.6783C68.593 108.698 68.401 108.356 68.1023 108.1C67.8037 107.844 67.4143 107.716 66.9343 107.716C66.5503 107.716 66.2517 107.807 66.0383 107.988C65.825 108.17 65.7183 108.415 65.7183 108.724C65.7183 108.97 65.8037 109.167 65.9743 109.316C66.145 109.466 66.3583 109.583 66.6143 109.668C66.8703 109.754 67.2383 109.855 67.7183 109.972C68.3903 110.122 68.9343 110.282 69.3503 110.452C69.777 110.612 70.1397 110.874 70.4383 111.236C70.7477 111.588 70.9023 112.068 70.9023 112.676C70.9023 113.434 70.6037 114.047 70.0063 114.516C69.4197 114.986 68.625 115.22 67.6223 115.22C66.4703 115.22 65.5477 114.964 64.8543 114.452C64.161 113.93 63.7397 113.188 63.5903 112.228H65.7503C65.8037 112.666 65.9957 113.012 66.3263 113.268C66.657 113.514 67.089 113.636 67.6223 113.636C68.0063 113.636 68.2997 113.546 68.5023 113.364C68.705 113.172 68.8063 112.927 68.8063 112.628C68.8063 112.372 68.7157 112.164 68.5343 112.004C68.3637 111.844 68.145 111.722 67.8783 111.636C67.6223 111.551 67.2543 111.45 66.7743 111.332C66.113 111.183 65.5743 111.034 65.1583 110.884C64.753 110.724 64.401 110.474 64.1023 110.132C63.8143 109.791 63.6703 109.322 63.6703 108.724C63.6703 107.956 63.9637 107.332 64.5503 106.852C65.137 106.372 65.9477 106.132 66.9823 106.132ZM77.8626 106.116C78.8866 106.116 79.7026 106.452 80.3106 107.124C80.9186 107.796 81.2226 108.74 81.2226 109.956V115.108H78.9826V110.212C78.9826 109.508 78.8013 108.964 78.4386 108.58C78.0759 108.186 77.5799 107.988 76.9506 107.988C76.3106 107.988 75.7986 108.196 75.4146 108.612C75.0306 109.028 74.8386 109.626 74.8386 110.404V115.108H72.5826V103.268H74.8386V108.02C75.0733 107.423 75.4573 106.959 75.9906 106.628C76.5346 106.287 77.1586 106.116 77.8626 106.116Z" fill="white"/>
<path d="M37.832 40.2533H29.908L28.508 44.2293H24.336L31.616 24.6853H36.124L43.376 44.2293H39.204L37.832 40.2533ZM36.768 37.2573L33.856 28.9133L30.944 37.2573H36.768ZM51.5828 28.5213C52.8895 28.5213 54.0095 28.8293 54.9428 29.4453C55.8762 30.0613 56.5388 30.892 56.9308 31.9373V28.7173H60.8508V44.2293H56.9308V40.9813C56.5388 42.0266 55.8762 42.8666 54.9428 43.5013C54.0095 44.1173 52.8895 44.4253 51.5828 44.4253C50.2762 44.4253 49.1002 44.108 48.0548 43.4733C47.0095 42.8386 46.1882 41.924 45.5908 40.7293C45.0122 39.516 44.7228 38.0973 44.7228 36.4733C44.7228 34.8493 45.0122 33.44 45.5908 32.2453C46.1882 31.032 47.0095 30.108 48.0548 29.4733C49.1002 28.8386 50.2762 28.5213 51.5828 28.5213ZM52.8148 31.9653C51.5828 31.9653 50.5935 32.3666 49.8468 33.1693C49.1002 33.972 48.7268 35.0733 48.7268 36.4733C48.7268 37.8733 49.1002 38.9746 49.8468 39.7773C50.5935 40.5613 51.5828 40.9533 52.8148 40.9533C54.0095 40.9533 54.9895 40.552 55.7548 39.7493C56.5388 38.928 56.9308 37.836 56.9308 36.4733C56.9308 35.092 56.5388 34 55.7548 33.1973C54.9895 32.376 54.0095 31.9653 52.8148 31.9653Z" fill="white"/>
</g>
<defs>
<filter id="filter0_d" x="0" y="0" width="191.268" height="154.771" filterUnits="userSpaceOnUse" color-interpolation-filters="sRGB">
<feFlood flood-opacity="0" result="BackgroundImageFix"/>
<feColorMatrix in="SourceAlpha" type="matrix" values="0 0 0 0 0 0 0 0 0 0 0 0 0 0 0 0 0 0 127 0"/>
<feOffset dy="4"/>
<feGaussianBlur stdDeviation="2.5"/>
<feColorMatrix type="matrix" values="0 0 0 0 0 0 0 0 0 0 0 0 0 0 0 0 0 0 0.1 0"/>
<feBlend mode="normal" in2="BackgroundImageFix" result="effect1_dropShadow"/>
<feBlend mode="normal" in="SourceGraphic" in2="effect1_dropShadow" result="shape"/>
</filter>
<linearGradient id="paint0_linear_english_icon" x1="177.5" y1="146.229" x2="5.00001" y2="1.22932" gradientUnits="userSpaceOnUse">
<stop stop-color="#ED7685"/>
<stop offset="1" stop-color="#F19DA4"/>
</linearGradient>
</defs>
</svg>
