<svg width="192" height="155" viewBox="0 0 192 155" fill="none" xmlns="http://www.w3.org/2000/svg">
<g filter="url(#filter0_d)">
<rect x="5" y="1" width="181.268" height="144.771" rx="16" fill="url(#paint0_linear_english_icon)"/>
<mask id="mask0" mask-type="alpha" maskUnits="userSpaceOnUse" x="5" y="1" width="182" height="145">
<rect x="5" y="1" width="181.268" height="144.771" rx="16" fill="#F05C8C"/>
</mask>
<g mask="url(#mask0)">
<path fill-rule="evenodd" clip-rule="evenodd" d="M180.36 -99.2485C198.924 -100.636 221.842 -109.846 234.77 -96.4504C248.155 -82.5819 235.734 -59.304 237.44 -40.1052C238.632 -26.6921 244.617 -14.5208 243.242 -1.12526C241.554 15.3079 239.347 32.3501 228.702 44.9822C216.344 59.6471 199.419 71.3686 180.36 73.4949C160.225 75.7412 138.396 70.4424 123.49 56.72C109.185 43.5504 108.838 22.084 104.047 3.23889C99.6266 -14.1494 91.538 -31.5595 96.6789 -48.7485C101.874 -66.1186 116.032 -79.3679 131.555 -88.7353C146.16 -97.5495 163.348 -97.9769 180.36 -99.2485Z" fill="#F29DA4"/>
<path fill-rule="evenodd" clip-rule="evenodd" d="M24.3343 66.3757C42.8988 64.9881 65.8162 55.7782 78.7446 69.1738C92.1294 83.0423 79.7087 106.32 81.4149 125.519C82.6069 138.932 88.592 151.103 87.2162 164.499C85.5285 180.932 83.3212 197.974 72.6762 210.606C60.3182 225.271 43.3932 236.993 24.3343 239.119C4.1995 241.365 -17.6299 236.067 -32.5352 222.344C-46.8402 209.175 -47.1878 187.708 -51.9785 168.863C-56.3987 151.475 -64.4874 134.065 -59.3465 116.876C-54.1515 99.5056 -39.9931 86.2563 -24.4708 76.8889C-9.86518 68.0747 7.32281 67.6473 24.3343 66.3757Z" fill="#F29DA4"/>
</g>
<path d="M37.832 40.2533H29.908L28.508 44.2293H24.336L31.616 24.6853H36.124L43.376 44.2293H39.204L37.832 40.2533ZM36.768 37.2573L33.856 28.9133L30.944 37.2573H36.768ZM51.5828 28.5213C52.8895 28.5213 54.0095 28.8293 54.9428 29.4453C55.8762 30.0613 56.5388 30.892 56.9308 31.9373V28.7173H60.8508V44.2293H56.9308V40.9813C56.5388 42.0266 55.8762 42.8666 54.9428 43.5013C54.0095 44.1173 52.8895 44.4253 51.5828 44.4253C50.2762 44.4253 49.1002 44.108 48.0548 43.4733C47.0095 42.8386 46.1882 41.924 45.5908 40.7293C45.0122 39.516 44.7228 38.0973 44.7228 36.4733C44.7228 34.8493 45.0122 33.44 45.5908 32.2453C46.1882 31.032 47.0095 30.108 48.0548 29.4733C49.1002 28.8386 50.2762 28.5213 51.5828 28.5213ZM52.8148 31.9653C51.5828 31.9653 50.5935 32.3666 49.8468 33.1693C49.1002 33.972 48.7268 35.0733 48.7268 36.4733C48.7268 37.8733 49.1002 38.9746 49.8468 39.7773C50.5935 40.5613 51.5828 40.9533 52.8148 40.9533C54.0095 40.9533 54.9895 40.552 55.7548 39.7493C56.5388 38.928 56.9308 37.836 56.9308 36.4733C56.9308 35.092 56.5388 34 55.7548 33.1973C54.9895 32.376 54.0095 31.9653 52.8148 31.9653Z" fill="white"/>
</g>
<defs>
<filter id="filter0_d" x="0" y="0" width="191.268" height="154.771" filterUnits="userSpaceOnUse" color-interpolation-filters="sRGB">
<feFlood flood-opacity="0" result="BackgroundImageFix"/>
<feColorMatrix in="SourceAlpha" type="matrix" values="0 0 0 0 0 0 0 0 0 0 0 0 0 0 0 0 0 0 127 0"/>
<feOffset dy="4"/>
<feGaussianBlur stdDeviation="2.5"/>
<feColorMatrix type="matrix" values="0 0 0 0 0 0 0 0 0 0 0 0 0 0 0 0 0 0 0.1 0"/>
<feBlend mode="normal" in2="BackgroundImageFix" result="effect1_dropShadow"/>
<feBlend mode="normal" in="SourceGraphic" in2="effect1_dropShadow" result="shape"/>
</filter>
<linearGradient id="paint0_linear_english_icon" x1="177.5" y1="146.229" x2="5.00001" y2="1.22932" gradientUnits="userSpaceOnUse">
<stop stop-color="#ED7685"/>
<stop offset="1" stop-color="#F19DA4"/>
</linearGradient>
</defs>
</svg>
