<svg width="192" height="155" viewBox="0 0 192 155" fill="none" xmlns="http://www.w3.org/2000/svg">
<g filter="url(#filter0_d)">
<rect x="5" y="1" width="181.268" height="144.771" rx="16" fill="url(#paint0_linear_hindi_icon)"/>
<mask id="mask0" mask-type="alpha" maskUnits="userSpaceOnUse" x="5" y="1" width="182" height="145">
<rect x="5" y="1" width="181.268" height="144.771" rx="16" fill="#F05C8C"/>
</mask>
<g mask="url(#mask0)">
<path fill-rule="evenodd" clip-rule="evenodd" d="M180.36 -99.2485C198.924 -100.636 221.842 -109.846 234.77 -96.4504C248.155 -82.5819 235.734 -59.304 237.44 -40.1052C238.632 -26.6921 244.618 -14.5208 243.242 -1.12526C241.554 15.3079 239.347 32.3501 228.702 44.9822C216.344 59.6471 199.419 71.3686 180.36 73.4949C160.225 75.7412 138.396 70.4424 123.49 56.72C109.185 43.5504 108.838 22.084 104.047 3.23889C99.6268 -14.1494 91.5381 -31.5595 96.679 -48.7485C101.874 -66.1186 116.032 -79.3679 131.555 -88.7353C146.16 -97.5495 163.348 -97.9769 180.36 -99.2485Z" fill="#EF91FF"/>
<path fill-rule="evenodd" clip-rule="evenodd" d="M24.3343 66.3757C42.8988 64.9881 65.8162 55.7782 78.7446 69.1738C92.1294 83.0423 79.7087 106.32 81.4149 125.519C82.6069 138.932 88.592 151.103 87.2162 164.499C85.5285 180.932 83.3212 197.974 72.6762 210.606C60.3182 225.271 43.3932 236.993 24.3343 239.119C4.1995 241.365 -17.6299 236.067 -32.5352 222.344C-46.8402 209.175 -47.1878 187.708 -51.9785 168.863C-56.3987 151.475 -64.4874 134.065 -59.3465 116.876C-54.1515 99.5056 -39.9931 86.2563 -24.4708 76.8889C-9.86518 68.0747 7.32281 67.6473 24.3343 66.3757Z" fill="#EF91FF"/>
</g>
<path d="M34.8491 103.812V115.108H32.5771V110.196H27.7451V115.108H25.4891V103.812H27.7451V108.388H32.5771V103.812H34.8491ZM36.6393 103.7C36.6393 103.338 36.7673 103.044 37.0233 102.82C37.2793 102.586 37.6153 102.468 38.0313 102.468C38.4473 102.468 38.7833 102.586 39.0393 102.82C39.2953 103.044 39.4233 103.338 39.4233 103.7C39.4233 104.052 39.2953 104.346 39.0393 104.58C38.7833 104.804 38.4473 104.916 38.0313 104.916C37.6153 104.916 37.2793 104.804 37.0233 104.58C36.7673 104.346 36.6393 104.052 36.6393 103.7ZM39.1513 106.244V115.108H36.8953V106.244H39.1513ZM46.4722 106.116C47.4962 106.116 48.3122 106.452 48.9202 107.124C49.5282 107.796 49.8322 108.74 49.8322 109.956V115.108H47.5922V110.212C47.5922 109.508 47.4109 108.964 47.0482 108.58C46.6855 108.186 46.1895 107.988 45.5602 107.988C44.9202 107.988 44.4082 108.196 44.0242 108.612C43.6402 109.028 43.4482 109.626 43.4482 110.404V115.108H41.1922V106.244H43.4482V108.02C43.6829 107.423 44.0669 106.959 44.6002 106.628C45.1442 106.287 45.7682 106.116 46.4722 106.116ZM55.2892 106.132C56.0359 106.132 56.6705 106.308 57.1932 106.66C57.7265 107.012 58.1105 107.487 58.3452 108.084V103.268H60.5852V115.108H58.3452V113.252C58.1105 113.85 57.7265 114.33 57.1932 114.692C56.6705 115.044 56.0359 115.22 55.2892 115.22C54.5425 115.22 53.8705 115.039 53.2732 114.676C52.6759 114.314 52.2065 113.791 51.8652 113.108C51.5345 112.415 51.3692 111.604 51.3692 110.676C51.3692 109.748 51.5345 108.943 51.8652 108.26C52.2065 107.567 52.6759 107.039 53.2732 106.676C53.8705 106.314 54.5425 106.132 55.2892 106.132ZM55.9932 108.1C55.2892 108.1 54.7239 108.33 54.2972 108.788C53.8705 109.247 53.6572 109.876 53.6572 110.676C53.6572 111.476 53.8705 112.106 54.2972 112.564C54.7239 113.012 55.2892 113.236 55.9932 113.236C56.6759 113.236 57.2359 113.007 57.6732 112.548C58.1212 112.079 58.3452 111.455 58.3452 110.676C58.3452 109.887 58.1212 109.263 57.6732 108.804C57.2359 108.335 56.6759 108.1 55.9932 108.1ZM62.3737 103.7C62.3737 103.338 62.5017 103.044 62.7577 102.82C63.0137 102.586 63.3497 102.468 63.7657 102.468C64.1817 102.468 64.5177 102.586 64.7737 102.82C65.0297 103.044 65.1577 103.338 65.1577 103.7C65.1577 104.052 65.0297 104.346 64.7737 104.58C64.5177 104.804 64.1817 104.916 63.7657 104.916C63.3497 104.916 63.0137 104.804 62.7577 104.58C62.5017 104.346 62.3737 104.052 62.3737 103.7ZM64.8857 106.244V115.108H62.6297V106.244H64.8857Z" fill="white"/>
<path d="M35.8503 27.8295H38.2414V34.3235C37.6787 34.6075 37.0546 34.7486 36.4244 34.7343C35.7218 34.7228 35.0355 34.5207 34.4388 34.1497C34.1636 33.9104 33.8592 33.7069 33.5329 33.544C34.0695 33.027 34.4916 32.4031 34.772 31.7127C35.0523 31.0223 35.1846 30.2807 35.1603 29.536C35.1603 26.2232 33.0536 24.0006 29.8935 24.0006C28.9422 23.9867 28.0038 24.2226 27.172 24.6847C26.3403 25.1467 25.6443 25.8189 25.1534 26.634L25.006 26.8815L27.5762 29.7519L27.8342 29.2568C27.9938 28.8647 28.2661 28.5287 28.6168 28.2915C28.9675 28.0543 29.3807 27.9265 29.804 27.9243C30.8205 27.9243 31.4578 28.6722 31.4578 29.8731C31.4578 30.7421 31.1839 32.201 29.3511 32.201H28.0765V36.1195H29.9093C31.4525 36.1195 32.232 36.8147 32.232 38.1893C32.232 39.3164 31.6632 40.5173 30.0726 40.5173C28.2398 40.5173 27.2391 38.9372 26.9757 38.4105L26.7124 37.926L24 40.9965L24.1633 41.2441C24.7951 42.2338 25.6665 43.0481 26.6967 43.6115C27.7269 44.1749 28.8826 44.4693 30.0568 44.4674C33.5118 44.4674 35.9398 41.934 36.0241 38.2789C36.7462 38.5284 37.5275 38.5505 38.2625 38.3421V46H42.1441V27.8295H45.8572V46H49.7388V27.8295H52.7199V24.1428H35.8503V27.8295Z" fill="white"/>
</g>
<defs>
<filter id="filter0_d" x="0" y="0" width="191.268" height="154.771" filterUnits="userSpaceOnUse" color-interpolation-filters="sRGB">
<feFlood flood-opacity="0" result="BackgroundImageFix"/>
<feColorMatrix in="SourceAlpha" type="matrix" values="0 0 0 0 0 0 0 0 0 0 0 0 0 0 0 0 0 0 127 0"/>
<feOffset dy="4"/>
<feGaussianBlur stdDeviation="2.5"/>
<feColorMatrix type="matrix" values="0 0 0 0 0 0 0 0 0 0 0 0 0 0 0 0 0 0 0.1 0"/>
<feBlend mode="normal" in2="BackgroundImageFix" result="effect1_dropShadow"/>
<feBlend mode="normal" in="SourceGraphic" in2="effect1_dropShadow" result="shape"/>
</filter>
<linearGradient id="paint0_linear_hindi_icon" x1="186" y1="146" x2="5" y2="-4.5" gradientUnits="userSpaceOnUse">
<stop stop-color="#E543FF"/>
<stop offset="1" stop-color="#EF8CFF"/>
</linearGradient>
</defs>
</svg>
