<svg width="192" height="155" viewBox="0 0 192 155" fill="none" xmlns="http://www.w3.org/2000/svg">
<g filter="url(#filter0_d)">
<rect x="5" y="1" width="181.268" height="144.771" rx="16" fill="url(#paint0_linear_kannada_icon)"/>
<mask id="mask0" mask-type="alpha" maskUnits="userSpaceOnUse" x="5" y="1" width="182" height="145">
<rect x="5" y="1" width="181.268" height="144.771" rx="16" fill="#F05C8C"/>
</mask>
<g mask="url(#mask0)">
<path fill-rule="evenodd" clip-rule="evenodd" d="M180.36 -99.2485C198.924 -100.636 221.842 -109.846 234.77 -96.4504C248.155 -82.5819 235.734 -59.304 237.44 -40.1052C238.632 -26.6921 244.617 -14.5208 243.242 -1.12526C241.554 15.3079 239.347 32.3501 228.702 44.9822C216.344 59.6471 199.419 71.3686 180.36 73.4949C160.225 75.7412 138.396 70.4424 123.49 56.72C109.185 43.5504 108.838 22.084 104.047 3.23889C99.6266 -14.1494 91.538 -31.5595 96.6789 -48.7485C101.874 -66.1186 116.032 -79.3679 131.555 -88.7353C146.16 -97.5495 163.348 -97.9769 180.36 -99.2485Z" fill="#50C4C4"/>
<path fill-rule="evenodd" clip-rule="evenodd" d="M24.3343 66.3757C42.8988 64.9881 65.8162 55.7782 78.7446 69.1738C92.1294 83.0423 79.7087 106.32 81.4149 125.519C82.6069 138.932 88.592 151.103 87.2162 164.499C85.5285 180.932 83.3212 197.974 72.6762 210.606C60.3182 225.271 43.3932 236.993 24.3343 239.119C4.1995 241.365 -17.6299 236.067 -32.5352 222.344C-46.8402 209.175 -47.1878 187.708 -51.9785 168.863C-56.3987 151.475 -64.4874 134.065 -59.3465 116.876C-54.1515 99.5056 -39.9931 86.2563 -24.4708 76.8889C-9.86518 68.0747 7.32281 67.6473 24.3343 66.3757Z" fill="#50C4C4"/>
</g>
<path d="M32.0488 43.288C30.6408 43.288 29.4728 43.112 28.5448 42.76C27.6328 42.408 26.9528 41.952 26.5048 41.392C26.0728 40.816 25.8568 40.184 25.8568 39.496C25.8568 38.92 25.9448 38.432 26.1208 38.032C26.2968 37.616 26.6008 37.216 27.0328 36.832L25.3288 36.856V34.408H30.3448C30.6488 34.28 30.8888 34.128 31.0648 33.952C31.2568 33.76 31.3528 33.552 31.3528 33.328C31.3528 33.136 31.2968 32.952 31.1848 32.776H25.3048V29.752H32.5288C33.3928 29.752 34.0008 29.72 34.3528 29.656C34.7048 29.592 34.9608 29.504 35.1208 29.392C35.3448 29.264 35.4888 29.112 35.5528 28.936C35.6168 28.76 35.6488 28.544 35.6488 28.288C35.6488 27.84 35.5368 27.408 35.3128 26.992C35.0888 26.576 34.7688 26.128 34.3528 25.648L37.0168 24.088C37.7848 25.048 38.3048 25.896 38.5768 26.632C38.8648 27.368 39.0088 28.136 39.0088 28.936C39.0088 29.304 38.9368 29.744 38.7928 30.256C38.6648 30.752 38.3928 31.2 37.9768 31.6C37.5768 31.952 37.0968 32.224 36.5368 32.416C35.9768 32.608 35.2168 32.72 34.2568 32.752C34.3688 32.976 34.4248 33.176 34.4248 33.352C34.4248 33.768 34.3208 34.12 34.1128 34.408H38.8888V36.856L37.1848 36.832C38.0328 37.488 38.4568 38.36 38.4568 39.448C38.4568 40.136 38.2408 40.776 37.8088 41.368C37.3768 41.944 36.6888 42.408 35.7448 42.76C34.8168 43.112 33.5848 43.288 32.0488 43.288ZM32.1448 40.312C33.1688 40.312 33.8968 40.128 34.3288 39.76C34.7608 39.376 34.9768 38.928 34.9768 38.416C34.9768 37.84 34.7368 37.376 34.2568 37.024C33.7928 36.672 33.0888 36.496 32.1448 36.496C31.1848 36.496 30.4728 36.68 30.0088 37.048C29.5608 37.4 29.3368 37.856 29.3368 38.416C29.3368 38.976 29.5688 39.432 30.0328 39.784C30.4968 40.136 31.2008 40.312 32.1448 40.312ZM52.1781 43.288C50.9141 43.288 49.8661 43 49.0341 42.424C48.2021 41.848 47.3781 41.032 46.5621 39.976C46.2101 39.496 45.9221 39.152 45.6981 38.944C45.4901 38.736 45.2581 38.632 45.0021 38.632C44.6501 38.632 44.3781 38.744 44.1861 38.968C44.0101 39.192 43.9221 39.472 43.9221 39.808C43.9221 40.256 44.0101 40.672 44.1861 41.056C44.3621 41.424 44.6021 41.848 44.9061 42.328L41.8581 43.576C41.4581 43.048 41.1221 42.416 40.8501 41.68C40.5781 40.944 40.4421 40.28 40.4421 39.688C40.4421 38.488 40.8101 37.512 41.5461 36.76C42.2981 36.008 43.4021 35.632 44.8581 35.632C45.7221 35.632 46.4981 35.816 47.1861 36.184C47.8741 36.536 48.5861 37.2 49.3221 38.176C49.8501 38.864 50.3221 39.384 50.7381 39.736C51.1701 40.072 51.6421 40.24 52.1541 40.24C53.2901 40.24 53.8581 39.512 53.8581 38.056C53.8581 36.92 53.4821 35.888 52.7301 34.96C51.9781 34.032 50.9701 33.304 49.7061 32.776H40.4661V29.752H50.8581C51.7221 29.752 52.3301 29.72 52.6821 29.656C53.0341 29.592 53.2981 29.504 53.4741 29.392C53.6821 29.264 53.8181 29.112 53.8821 28.936C53.9461 28.76 53.9781 28.544 53.9781 28.288C53.9781 27.84 53.8661 27.408 53.6421 26.992C53.4181 26.576 53.0981 26.128 52.6821 25.648L55.3461 24.088C56.1141 25.048 56.6341 25.896 56.9061 26.632C57.1941 27.368 57.3381 28.136 57.3381 28.936C57.3381 29.304 57.2661 29.744 57.1221 30.256C56.9941 30.752 56.7141 31.2 56.2821 31.6C55.9941 31.856 55.6901 32.056 55.3701 32.2C55.0501 32.344 54.7061 32.456 54.3381 32.536C55.3301 33.288 56.0821 34.128 56.5941 35.056C57.1061 35.984 57.3621 37.024 57.3621 38.176C57.3621 39.888 56.9141 41.168 56.0181 42.016C55.1381 42.864 53.8581 43.288 52.1781 43.288ZM53.9428 44.32C54.9188 44.32 55.7428 44.552 56.4148 45.016C57.0868 45.496 57.7268 46.224 58.3348 47.2C58.8308 46.528 59.0788 45.768 59.0788 44.92C59.0788 44.312 59.0068 43.792 58.8628 43.36C58.7348 42.944 58.5588 42.544 58.3348 42.16L60.3988 41.104C61.1188 42.144 61.4788 43.408 61.4788 44.896C61.4788 45.808 61.2948 46.616 60.9268 47.32C60.5748 48.04 60.1028 48.656 59.5108 49.168C59.7188 49.424 59.9348 49.592 60.1588 49.672C60.3988 49.768 60.7108 49.816 61.0948 49.816C61.2388 49.816 61.4068 49.8 61.5988 49.768C61.8068 49.736 61.9668 49.696 62.0788 49.648L62.4148 51.736C62.2868 51.8 62.0788 51.864 61.7908 51.928C61.5188 51.992 61.2468 52.024 60.9748 52.024C60.1108 52.024 59.4468 51.88 58.9828 51.592C58.5188 51.304 58.0948 50.864 57.7108 50.272C56.7028 50.704 55.6388 50.92 54.5188 50.92C53.5108 50.92 52.7028 50.76 52.0948 50.44C51.4708 50.12 51.0148 49.696 50.7268 49.168C50.4388 48.64 50.2948 48.08 50.2948 47.488C50.2948 46.544 50.6308 45.776 51.3028 45.184C51.9748 44.608 52.8548 44.32 53.9428 44.32ZM52.7188 47.512C52.7188 47.816 52.8628 48.112 53.1508 48.4C53.4228 48.704 53.9748 48.856 54.8068 48.856C55.5108 48.856 56.1508 48.728 56.7268 48.472C55.9588 47.08 55.0948 46.384 54.1348 46.384C53.6708 46.384 53.3188 46.488 53.0788 46.696C52.8388 46.904 52.7188 47.176 52.7188 47.512ZM66.7337 43.288C65.3257 43.288 64.2057 42.832 63.3737 41.92C62.5417 41.008 62.1257 39.672 62.1257 37.912C62.1257 36.824 62.3257 35.848 62.7257 34.984C63.1417 34.104 63.7657 33.368 64.5977 32.776H62.1257V29.752H74.0537C74.9177 29.752 75.5257 29.72 75.8777 29.656C76.2297 29.592 76.4937 29.504 76.6697 29.392C76.8777 29.264 77.0137 29.112 77.0777 28.936C77.1577 28.76 77.1977 28.544 77.1977 28.288C77.1977 27.84 77.0777 27.408 76.8377 26.992C76.6137 26.576 76.2937 26.128 75.8777 25.648L78.5417 24.088C79.3257 25.048 79.8537 25.896 80.1257 26.632C80.3977 27.368 80.5337 28.136 80.5337 28.936C80.5337 29.304 80.4617 29.744 80.3177 30.256C80.1897 30.768 79.9177 31.216 79.5017 31.6C79.1337 31.92 78.7257 32.168 78.2777 32.344C78.7897 32.664 79.2057 33.112 79.5257 33.688C79.8457 34.248 80.0057 34.848 80.0057 35.488C80.0057 35.744 79.9817 35.984 79.9337 36.208C80.3497 36.928 80.5577 37.752 80.5577 38.68C80.5577 39.688 80.3177 40.536 79.8377 41.224C79.3577 41.912 78.7337 42.432 77.9657 42.784C77.1977 43.12 76.3737 43.288 75.4937 43.288C74.5337 43.288 73.7017 43.136 72.9977 42.832C72.2937 42.512 71.6617 42.04 71.1017 41.416C70.4297 42.136 69.7417 42.632 69.0377 42.904C68.3497 43.16 67.5817 43.288 66.7337 43.288ZM67.4537 40.24C68.0617 40.24 68.5417 40.024 68.8937 39.592C69.2457 39.16 69.4617 38.6 69.5417 37.912H72.6857C72.8777 39.464 73.6857 40.24 75.1097 40.24C75.5897 40.24 76.0457 40.136 76.4777 39.928C76.9097 39.704 77.1817 39.248 77.2937 38.56C77.0377 38.688 76.7657 38.784 76.4777 38.848C76.2057 38.912 75.9017 38.944 75.5657 38.944C75.0057 38.944 74.4697 38.848 73.9577 38.656C73.4617 38.448 73.0617 38.144 72.7577 37.744C72.4537 37.328 72.3017 36.824 72.3017 36.232C72.3017 35.352 72.5977 34.696 73.1897 34.264C73.7977 33.816 74.5737 33.592 75.5177 33.592C75.7577 33.592 75.9817 33.608 76.1897 33.64C75.7737 33.368 75.2137 33.16 74.5097 33.016C73.8057 32.856 72.9097 32.776 71.8217 32.776H71.1737C69.4297 32.776 68.0697 33.224 67.0937 34.12C66.1177 35 65.6297 36.208 65.6297 37.744C65.6297 38.608 65.7897 39.24 66.1097 39.64C66.4297 40.04 66.8777 40.24 67.4537 40.24ZM74.7977 36.136C74.7977 36.392 74.8937 36.576 75.0857 36.688C75.2937 36.784 75.5257 36.832 75.7817 36.832C76.0057 36.832 76.2217 36.792 76.4297 36.712C76.6377 36.616 76.8057 36.464 76.9337 36.256C76.8057 36.016 76.6297 35.832 76.4057 35.704C76.1977 35.56 75.9417 35.488 75.6377 35.488C75.3977 35.488 75.1977 35.544 75.0377 35.656C74.8777 35.752 74.7977 35.912 74.7977 36.136Z" fill="white"/>
</g>
<defs>
<filter id="filter0_d" x="0" y="0" width="191.268" height="154.771" filterUnits="userSpaceOnUse" color-interpolation-filters="sRGB">
<feFlood flood-opacity="0" result="BackgroundImageFix"/>
<feColorMatrix in="SourceAlpha" type="matrix" values="0 0 0 0 0 0 0 0 0 0 0 0 0 0 0 0 0 0 127 0"/>
<feOffset dy="4"/>
<feGaussianBlur stdDeviation="2.5"/>
<feColorMatrix type="matrix" values="0 0 0 0 0 0 0 0 0 0 0 0 0 0 0 0 0 0 0.1 0"/>
<feBlend mode="normal" in2="BackgroundImageFix" result="effect1_dropShadow"/>
<feBlend mode="normal" in="SourceGraphic" in2="effect1_dropShadow" result="shape"/>
</filter>
<linearGradient id="paint0_linear_kannada_icon" x1="177.5" y1="146.229" x2="5.00001" y2="1.22932" gradientUnits="userSpaceOnUse">
<stop stop-color="#0C9FA3"/>
<stop offset="1" stop-color="#5FCCCB"/>
</linearGradient>
</defs>
</svg>
