<svg width="192" height="155" viewBox="0 0 192 155" fill="none" xmlns="http://www.w3.org/2000/svg">
<g id="Group 9" filter="url(#filter0_d)">
<rect id="Rectangle 15" x="5" y="1" width="181.268" height="144.771" rx="16" fill="url(#paint0_linear_maths)"/>
<g id="Mask Group">
<mask id="mask0" mask-type="alpha" maskUnits="userSpaceOnUse" x="5" y="1" width="182" height="145">
<rect id="Rectangle 22" x="5" y="1" width="181.268" height="144.771" rx="16" fill="#F05C8C"/>
</mask>
<g mask="url(#mask0)">
<path id="Vector" fill-rule="evenodd" clip-rule="evenodd" d="M180.36 -99.2485C198.924 -100.636 221.842 -109.846 234.77 -96.4504C248.155 -82.5819 235.734 -59.304 237.44 -40.1052C238.632 -26.6921 244.617 -14.5208 243.242 -1.12526C241.554 15.3079 239.347 32.3501 228.702 44.9822C216.344 59.6471 199.419 71.3686 180.36 73.4949C160.225 75.7412 138.396 70.4424 123.49 56.72C109.185 43.5504 108.838 22.084 104.047 3.23889C99.6266 -14.1494 91.538 -31.5595 96.6789 -48.7485C101.874 -66.1186 116.032 -79.3679 131.555 -88.7353C146.16 -97.5495 163.348 -97.9769 180.36 -99.2485Z" fill="#FF78A3"/>
<path id="Vector_2" fill-rule="evenodd" clip-rule="evenodd" d="M24.3343 66.3757C42.8988 64.9881 65.8162 55.7782 78.7446 69.1738C92.1294 83.0423 79.7087 106.32 81.4149 125.519C82.6069 138.932 88.592 151.103 87.2163 164.499C85.5285 180.932 83.3212 197.974 72.6762 210.606C60.3182 225.271 43.3932 236.993 24.3343 239.119C4.1995 241.365 -17.6299 236.067 -32.5352 222.344C-46.8402 209.175 -47.1878 187.708 -51.9785 168.863C-56.3987 151.475 -64.4874 134.065 -59.3465 116.876C-54.1515 99.5056 -39.9931 86.2563 -24.4708 76.8889C-9.86518 68.0747 7.3228 67.6473 24.3343 66.3757Z" fill="#FF78A3"/>
</g>
</g>
<g id="Group">
<path id="Vector_3" d="M27.2609 20C25.4691 20 24 21.4581 24 23.2439V56.8546C24 58.6403 25.4691 60.0815 27.2609 60.0815H36.8227L27.3628 68.7771C27.2585 68.8745 27.1862 69.0012 27.1553 69.1405C27.1244 69.2797 27.1364 69.4251 27.1897 69.5574C27.243 69.6898 27.3351 69.8029 27.4539 69.8818C27.5727 69.9608 27.7127 70.002 27.8553 69.9999H64.4721C64.6589 69.9972 64.837 69.9207 64.9675 69.787C65.098 69.6534 65.1702 69.4734 65.1684 69.2866L65.1515 61.661L65.1345 35.6759C65.1345 35.6703 65.1345 35.6646 65.1345 35.659C65.1357 35.5606 65.1164 35.463 65.0778 35.3725C65.0391 35.2819 64.982 35.2005 64.9101 35.1334C64.8381 35.0662 64.7529 35.0148 64.66 34.9825C64.567 34.9502 64.4683 34.9376 64.3702 34.9457C64.2117 34.9584 64.0621 35.0242 63.9456 35.1325L53.9083 44.3716V23.2439C53.9083 21.4582 52.4391 20 50.6474 20H27.2609V20ZM27.2609 21.4096H50.6474C51.6877 21.4096 52.4986 22.2235 52.4986 23.2439V45.6623L50.6644 47.3437V44.3206C50.6644 43.4848 49.9686 42.7921 49.1358 42.7921H46.7751C45.9423 42.7921 45.2636 43.5 45.2636 44.3206V52.3199L38.3512 58.6719H27.2609C26.2206 58.6719 25.4266 57.8749 25.4266 56.8546V23.2439C25.4266 22.2235 26.2206 21.4096 27.2609 21.4096V21.4096ZM28.9083 23.6855C28.0091 23.6855 27.2609 24.4315 27.2609 25.3329V28.7296C27.2609 29.6309 28.0091 30.377 28.9083 30.377H49.017C49.9161 30.377 50.6644 29.6309 50.6644 28.7296V25.3329C50.6644 24.4315 49.9161 23.6855 49.017 23.6855H28.9083V23.6855ZM28.9083 25.0951H49.017C49.1647 25.0951 49.2547 25.1969 49.2547 25.3329V28.7296C49.2547 28.8656 49.1647 28.9504 49.017 28.9504H28.9083C28.7606 28.9504 28.6705 28.8656 28.6705 28.7296V25.3329C28.6705 25.1969 28.7606 25.0951 28.9083 25.0951V25.0951ZM28.7554 34.6739C27.944 34.6739 27.2609 35.3541 27.2609 36.1685V38.5462C27.2609 39.3606 27.944 40.0407 28.7554 40.0407H31.1671C31.9785 40.0407 32.6617 39.3606 32.6617 38.5462V36.1685C32.6617 35.3541 31.9785 34.6739 31.1671 34.6739H28.7554ZM37.7568 34.6739C36.9454 34.6739 36.2622 35.3541 36.2622 36.1685V38.5462C36.2622 39.3606 36.9454 40.0407 37.7568 40.0407H40.1685C40.9799 40.0407 41.663 39.3606 41.663 38.5462V36.1685C41.663 35.3541 40.9799 34.6739 40.1685 34.6739H37.7568ZM46.7581 34.6739C45.9467 34.6739 45.2636 35.3541 45.2636 36.1685V38.5462C45.2636 39.3606 45.9467 40.0407 46.7581 40.0407H49.1698C49.9812 40.0407 50.6644 39.3606 50.6644 38.5462V36.1685C50.6644 35.3541 49.9812 34.6739 49.1698 34.6739H46.7581ZM28.7554 36.0835H31.1671C31.2271 36.0835 31.252 36.1195 31.252 36.1685V38.5462C31.252 38.5952 31.2271 38.6311 31.1671 38.6311H28.7554C28.6955 38.6311 28.6705 38.5952 28.6705 38.5462V36.1685C28.6705 36.1194 28.6955 36.0835 28.7554 36.0835ZM37.7568 36.0835H40.1685C40.2284 36.0835 40.2534 36.1195 40.2534 36.1685V38.5462C40.2534 38.5951 40.2284 38.6311 40.1685 38.6311H37.7568C37.6968 38.6311 37.6719 38.5952 37.6719 38.5462V36.1685C37.6719 36.1195 37.6968 36.0835 37.7568 36.0835ZM46.7581 36.0835H49.1698C49.2298 36.0835 49.2547 36.1195 49.2547 36.1685V38.5462C49.2547 38.5951 49.2298 38.6311 49.1698 38.6311H46.7581C46.6982 38.6311 46.6732 38.5952 46.6732 38.5462V36.1685C46.6732 36.1195 46.6982 36.0835 46.7581 36.0835ZM63.7248 37.2554L63.7418 61.661L63.7588 68.5733H61.466V67.4355C61.4678 67.3339 61.4477 67.233 61.4071 67.1399C61.3664 67.0468 61.3061 66.9635 61.2303 66.8958C61.1546 66.8281 61.0651 66.7776 60.968 66.7476C60.8709 66.7176 60.7685 66.7089 60.6678 66.7221C60.4961 66.7454 60.3391 66.8309 60.2263 66.9624C60.1136 67.0939 60.0531 67.2623 60.0564 67.4355V68.5733H59.8695V66.4504C59.8714 66.3488 59.8513 66.248 59.8106 66.1548C59.7699 66.0617 59.7096 65.9785 59.6339 65.9108C59.5581 65.8431 59.4686 65.7925 59.3715 65.7626C59.2745 65.7326 59.1721 65.7239 59.0713 65.7371C58.8966 65.7565 58.7354 65.8404 58.6192 65.9723C58.503 66.1042 58.4402 66.2746 58.4429 66.4504V68.5733H58.2561V67.4355C58.2576 67.3355 58.2379 67.2363 58.1982 67.1445C58.1585 67.0527 58.0999 66.9704 58.026 66.9029C57.9522 66.8355 57.8648 66.7846 57.7698 66.7534C57.6748 66.7222 57.5743 66.7116 57.4748 66.7221C57.3001 66.7416 57.1389 66.8254 57.0227 66.9573C56.9066 67.0892 56.8437 67.2597 56.8464 67.4355V68.5733H54.4178V67.4355C54.4193 67.3355 54.3996 67.2363 54.3599 67.1445C54.3202 67.0527 54.2615 66.9704 54.1877 66.9029C54.1139 66.8355 54.0265 66.7846 53.9315 66.7534C53.8365 66.7222 53.736 66.7116 53.6365 66.7221C53.4618 66.7416 53.3006 66.8254 53.1844 66.9573C53.0682 67.0892 53.0054 67.2597 53.0081 67.4355V68.5733H52.8213V66.4504C52.8231 66.3488 52.803 66.248 52.7624 66.1548C52.7217 66.0617 52.6614 65.9785 52.5857 65.9108C52.5099 65.8431 52.4204 65.7925 52.3233 65.7626C52.2262 65.7326 52.1238 65.7239 52.0231 65.7371C51.8514 65.7604 51.6944 65.8459 51.5816 65.9774C51.4689 66.1089 51.4084 66.2772 51.4117 66.4504V68.5733H51.2248V67.4355C51.2267 67.3339 51.2066 67.233 51.1659 67.1399C51.1252 67.0468 51.065 66.9635 50.9892 66.8958C50.9134 66.8281 50.8239 66.7776 50.7269 66.7476C50.6298 66.7176 50.5274 66.7089 50.4266 66.7221C50.2519 66.7416 50.0907 66.8254 49.9745 66.9573C49.8583 67.0892 49.7955 67.2597 49.7982 67.4355V68.5733H47.3695V67.4355C47.3711 67.3355 47.3513 67.2363 47.3117 67.1445C47.272 67.0527 47.2133 66.9704 47.1395 66.9029C47.0656 66.8355 46.9783 66.7846 46.8833 66.7534C46.7883 66.7222 46.6877 66.7116 46.5883 66.7221C46.4136 66.7416 46.2524 66.8254 46.1362 66.9573C46.02 67.0892 45.9571 67.2597 45.9599 67.4355V68.5903H45.7731V66.4504C45.7746 66.3504 45.7549 66.2512 45.7152 66.1594C45.6755 66.0676 45.6168 65.9853 45.543 65.9179C45.4692 65.8504 45.3818 65.7995 45.2868 65.7683C45.1918 65.7372 45.0913 65.7265 44.9918 65.7371C44.8171 65.7565 44.6559 65.8404 44.5397 65.9723C44.4235 66.1042 44.3607 66.2746 44.3634 66.4504V68.5903H44.1766V67.4355C44.1784 67.3339 44.1583 67.233 44.1177 67.1399C44.077 67.0468 44.0167 66.9635 43.941 66.8958C43.8652 66.8281 43.7757 66.7776 43.6786 66.7476C43.5815 66.7176 43.4791 66.7089 43.3784 66.7221C43.2068 66.7454 43.0497 66.8309 42.937 66.9624C42.8242 67.0939 42.7637 67.2623 42.767 67.4355V68.5903H40.3213V67.4355C40.3228 67.3355 40.3031 67.2363 40.2634 67.1445C40.2238 67.0527 40.1651 66.9704 40.0912 66.9029C40.0174 66.8355 39.9301 66.7846 39.8351 66.7534C39.74 66.7222 39.6395 66.7116 39.5401 66.7221C39.3654 66.7416 39.2042 66.8254 39.088 66.9573C38.9718 67.0892 38.9089 67.2597 38.9117 67.4355V68.5903H38.7249V66.4504C38.7264 66.3504 38.7066 66.2512 38.667 66.1594C38.6273 66.0676 38.5686 65.9853 38.4948 65.9179C38.4209 65.8504 38.3336 65.7995 38.2386 65.7683C38.1436 65.7372 38.043 65.7265 37.9436 65.7371C37.7689 65.7565 37.6077 65.8404 37.4915 65.9723C37.3753 66.1042 37.3125 66.2746 37.3152 66.4504V68.5903H37.1284V67.4355C37.1299 67.3355 37.1102 67.2363 37.0705 67.1445C37.0308 67.0527 36.9722 66.9704 36.8983 66.9029C36.8245 66.8355 36.7371 66.7846 36.6421 66.7534C36.5471 66.7222 36.4466 66.7116 36.3471 66.7221C36.1724 66.7416 36.0112 66.8254 35.895 66.9573C35.7789 67.0892 35.716 67.2597 35.7187 67.4355V68.5903H29.6556L63.7248 37.2554ZM28.7554 42.7921C27.944 42.7921 27.2609 43.4553 27.2609 44.2697V46.6644C27.2609 47.4788 27.944 48.142 28.7554 48.142H31.1671C31.9785 48.142 32.6617 47.4788 32.6617 46.6644V44.2697C32.6617 43.4553 31.9785 42.7921 31.1671 42.7921H28.7554ZM37.7568 42.7921C36.9454 42.7921 36.2622 43.4553 36.2622 44.2697V46.6644C36.2622 47.4788 36.9454 48.142 37.7568 48.142H40.1685C40.9799 48.142 41.663 47.4788 41.663 46.6644V44.2697C41.663 43.4553 40.9799 42.7921 40.1685 42.7921H37.7568ZM28.7554 44.2017H31.1671C31.2271 44.2017 31.252 44.2208 31.252 44.2697V46.6644C31.252 46.7133 31.2271 46.7323 31.1671 46.7323H28.7554C28.6955 46.7323 28.6705 46.7133 28.6705 46.6644V44.2697C28.6705 44.2208 28.6955 44.2017 28.7554 44.2017ZM37.7568 44.2017H40.1685C40.2284 44.2017 40.2534 44.2208 40.2534 44.2697V46.6644C40.2534 46.7133 40.2284 46.7323 40.1685 46.7323H37.7568C37.6968 46.7323 37.6719 46.7133 37.6719 46.6644V44.2697C37.6719 44.2208 37.6968 44.2017 37.7568 44.2017ZM46.7751 44.2017H49.1358C49.2099 44.2017 49.2547 44.2581 49.2547 44.3206V48.6515L46.6732 51.0122V44.3206C46.6732 44.2429 46.701 44.2017 46.7751 44.2017ZM59.0543 46.6983C58.9097 46.7134 58.7733 46.7727 58.6637 46.8682L42.1386 62.0516C42.0354 62.148 41.9635 62.2731 41.9321 62.4107C41.9007 62.5484 41.9113 62.6923 41.9625 62.8239C42.0136 62.9555 42.1031 63.0688 42.2192 63.1491C42.3354 63.2294 42.4729 63.273 42.6141 63.2744H59.1562C59.2501 63.2753 59.3433 63.2574 59.4303 63.2219C59.5172 63.1864 59.5962 63.1339 59.6626 63.0675C59.729 63.001 59.7815 62.9221 59.8171 62.8351C59.8526 62.7482 59.8704 62.655 59.8695 62.5611L59.8525 59.1135V47.3947C59.8519 47.2945 59.83 47.1956 59.7883 47.1046C59.7466 47.0135 59.686 46.9323 59.6105 46.8665C59.535 46.8006 59.4464 46.7516 59.3505 46.7226C59.2546 46.6936 59.1536 46.6854 59.0543 46.6983V46.6983ZM58.4259 49.0081L58.4429 59.1304V61.8478L44.4314 61.8646L46.3675 60.0813H50.6474C52.4391 60.0813 53.9083 58.6402 53.9083 56.8544V53.152L58.4259 49.008V49.0081ZM28.7554 50.9103C27.944 50.9103 27.2609 51.5735 27.2609 52.3879V54.7826C27.2609 55.597 27.944 56.2602 28.7554 56.2602H31.1671C31.9785 56.2602 32.6617 55.597 32.6617 54.7826V52.3879C32.6617 51.5735 31.9785 50.9103 31.1671 50.9103H28.7554ZM37.7568 50.9103C36.9454 50.9103 36.2622 51.5735 36.2622 52.3879V54.7826C36.2622 55.597 36.9454 56.2602 37.7568 56.2602H40.1685C40.9799 56.2602 41.663 55.597 41.663 54.7826V52.3879C41.663 51.5735 40.9799 50.9103 40.1685 50.9103H37.7568ZM28.7554 52.3199H31.1671C31.2271 52.3199 31.252 52.339 31.252 52.3879V54.7826C31.252 54.8315 31.2271 54.8505 31.1671 54.8505H28.7554C28.6955 54.8505 28.6705 54.8315 28.6705 54.7826V52.3879C28.6705 52.339 28.6955 52.3199 28.7554 52.3199ZM37.7568 52.3199H40.1685C40.2284 52.3199 40.2534 52.339 40.2534 52.3879V54.7826C40.2534 54.8315 40.2284 54.8505 40.1685 54.8505H37.7568C37.6968 54.8505 37.6719 54.8315 37.6719 54.7826V52.3879C37.6719 52.339 37.6968 52.3199 37.7568 52.3199ZM52.4986 54.4599V56.8546C52.4986 57.8749 51.6877 58.6719 50.6474 58.6719H47.913L52.4986 54.4599Z" fill="white"/>
</g>
</g>
<defs>
<filter id="filter0_d" x="0" y="0" width="191.268" height="154.771" filterUnits="userSpaceOnUse" color-interpolation-filters="sRGB">
<feFlood flood-opacity="0" result="BackgroundImageFix"/>
<feColorMatrix in="SourceAlpha" type="matrix" values="0 0 0 0 0 0 0 0 0 0 0 0 0 0 0 0 0 0 127 0"/>
<feOffset dy="4"/>
<feGaussianBlur stdDeviation="2.5"/>
<feColorMatrix type="matrix" values="0 0 0 0 0 0 0 0 0 0 0 0 0 0 0 0 0 0 0.1 0"/>
<feBlend mode="normal" in2="BackgroundImageFix" result="effect1_dropShadow"/>
<feBlend mode="normal" in="SourceGraphic" in2="effect1_dropShadow" result="shape"/>
</filter>
<linearGradient id="paint0_linear_maths" x1="177" y1="143" x2="11.5" y2="1" gradientUnits="userSpaceOnUse">
<stop stop-color="#FF3F7D"/>
<stop offset="1" stop-color="#FF78A4"/>
</linearGradient>
</defs>
</svg>
