<svg width="192" height="155" viewBox="0 0 192 155" fill="none" xmlns="http://www.w3.org/2000/svg">
<g filter="url(#filter0_d)">
<rect x="5" y="1" width="181.268" height="144.771" rx="16" fill="url(#paint0_linear_science_icon)"/>
<mask id="mask0" mask-type="alpha" maskUnits="userSpaceOnUse" x="5" y="1" width="182" height="145">
<rect x="5" y="1" width="181.268" height="144.771" rx="16" fill="#F05C8C"/>
</mask>
<g mask="url(#mask0)">
<path fill-rule="evenodd" clip-rule="evenodd" d="M180.36 -99.2485C198.924 -100.636 221.842 -109.846 234.77 -96.4504C248.155 -82.5819 235.734 -59.304 237.44 -40.1052C238.632 -26.6921 244.617 -14.5208 243.242 -1.12526C241.554 15.3079 239.347 32.3501 228.702 44.9822C216.344 59.6471 199.419 71.3686 180.36 73.4949C160.225 75.7412 138.396 70.4424 123.49 56.72C109.185 43.5504 108.838 22.084 104.047 3.23889C99.6266 -14.1494 91.538 -31.5595 96.6789 -48.7485C101.874 -66.1186 116.032 -79.3679 131.555 -88.7353C146.16 -97.5495 163.348 -97.9769 180.36 -99.2485Z" fill="#FFC46A"/>
<path fill-rule="evenodd" clip-rule="evenodd" d="M24.3343 66.3757C42.8988 64.9881 65.8162 55.7782 78.7446 69.1738C92.1294 83.0423 79.7087 106.32 81.4149 125.519C82.6069 138.932 88.592 151.103 87.2162 164.499C85.5285 180.932 83.3212 197.974 72.6762 210.606C60.3182 225.271 43.3932 236.993 24.3343 239.119C4.1995 241.365 -17.6299 236.067 -32.5352 222.344C-46.8402 209.175 -47.1878 187.708 -51.9785 168.863C-56.3987 151.475 -64.4874 134.065 -59.3465 116.876C-54.1515 99.5056 -39.9931 86.2563 -24.4708 76.8889C-9.86518 68.0747 7.32281 67.6473 24.3343 66.3757Z" fill="#FFC46A"/>
</g>
<path d="M29.4251 115.22C28.6464 115.22 27.9424 115.087 27.3131 114.82C26.6944 114.554 26.2038 114.17 25.8411 113.668C25.4784 113.167 25.2918 112.575 25.2811 111.892H27.6811C27.7131 112.351 27.8731 112.714 28.1611 112.98C28.4598 113.247 28.8651 113.38 29.3771 113.38C29.8998 113.38 30.3104 113.258 30.6091 113.012C30.9078 112.756 31.0571 112.426 31.0571 112.02C31.0571 111.69 30.9558 111.418 30.7531 111.204C30.5504 110.991 30.2944 110.826 29.9851 110.708C29.6864 110.58 29.2704 110.442 28.7371 110.292C28.0118 110.079 27.4198 109.871 26.9611 109.668C26.5131 109.455 26.1238 109.14 25.7931 108.724C25.4731 108.298 25.3131 107.732 25.3131 107.028C25.3131 106.367 25.4784 105.791 25.8091 105.3C26.1398 104.81 26.6038 104.436 27.2011 104.18C27.7984 103.914 28.4811 103.78 29.2491 103.78C30.4011 103.78 31.3344 104.063 32.0491 104.628C32.7744 105.183 33.1744 105.962 33.2491 106.964H30.7851C30.7638 106.58 30.5984 106.266 30.2891 106.02C29.9904 105.764 29.5904 105.636 29.0891 105.636C28.6518 105.636 28.2998 105.748 28.0331 105.972C27.7771 106.196 27.6491 106.522 27.6491 106.948C27.6491 107.247 27.7451 107.498 27.9371 107.7C28.1398 107.892 28.3851 108.052 28.6731 108.18C28.9718 108.298 29.3878 108.436 29.9211 108.596C30.6464 108.81 31.2384 109.023 31.6971 109.236C32.1558 109.45 32.5504 109.77 32.8811 110.196C33.2118 110.623 33.3771 111.183 33.3771 111.876C33.3771 112.474 33.2224 113.028 32.9131 113.54C32.6038 114.052 32.1504 114.463 31.5531 114.772C30.9558 115.071 30.2464 115.22 29.4251 115.22ZM34.7431 110.676C34.7431 109.759 34.9298 108.959 35.3031 108.276C35.6764 107.583 36.1938 107.05 36.8551 106.676C37.5164 106.292 38.2738 106.1 39.1271 106.1C40.2258 106.1 41.1324 106.378 41.8471 106.932C42.5724 107.476 43.0578 108.244 43.3031 109.236H40.8871C40.7591 108.852 40.5404 108.554 40.2311 108.34C39.9324 108.116 39.5591 108.004 39.1111 108.004C38.4711 108.004 37.9644 108.239 37.5911 108.708C37.2178 109.167 37.0311 109.823 37.0311 110.676C37.0311 111.519 37.2178 112.175 37.5911 112.644C37.9644 113.103 38.4711 113.332 39.1111 113.332C40.0178 113.332 40.6098 112.927 40.8871 112.116H43.3031C43.0578 113.076 42.5724 113.839 41.8471 114.404C41.1218 114.97 40.2151 115.252 39.1271 115.252C38.2738 115.252 37.5164 115.066 36.8551 114.692C36.1938 114.308 35.6764 113.775 35.3031 113.092C34.9298 112.399 34.7431 111.594 34.7431 110.676ZM46.0801 105.188C45.6854 105.188 45.3548 105.066 45.0881 104.82C44.8321 104.564 44.7041 104.25 44.7041 103.876C44.7041 103.503 44.8321 103.194 45.0881 102.948C45.3548 102.692 45.6854 102.564 46.0801 102.564C46.4748 102.564 46.8001 102.692 47.0561 102.948C47.3228 103.194 47.4561 103.503 47.4561 103.876C47.4561 104.25 47.3228 104.564 47.0561 104.82C46.8001 105.066 46.4748 105.188 46.0801 105.188ZM47.1841 106.244V115.108H44.9441V106.244H47.1841ZM57.6372 110.484C57.6372 110.804 57.6159 111.092 57.5732 111.348H51.0932C51.1465 111.988 51.3705 112.49 51.7652 112.852C52.1599 113.215 52.6452 113.396 53.2212 113.396C54.0532 113.396 54.6452 113.039 54.9972 112.324H57.4132C57.1572 113.178 56.6665 113.882 55.9412 114.436C55.2159 114.98 54.3252 115.252 53.2692 115.252C52.4159 115.252 51.6479 115.066 50.9652 114.692C50.2932 114.308 49.7652 113.77 49.3812 113.076C49.0079 112.383 48.8212 111.583 48.8212 110.676C48.8212 109.759 49.0079 108.954 49.3812 108.26C49.7545 107.567 50.2772 107.034 50.9492 106.66C51.6212 106.287 52.3945 106.1 53.2692 106.1C54.1119 106.1 54.8639 106.282 55.5252 106.644C56.1972 107.007 56.7145 107.524 57.0772 108.196C57.4505 108.858 57.6372 109.62 57.6372 110.484ZM55.3172 109.844C55.3065 109.268 55.0985 108.81 54.6932 108.468C54.2879 108.116 53.7919 107.94 53.2052 107.94C52.6505 107.94 52.1812 108.111 51.7972 108.452C51.4239 108.783 51.1945 109.247 51.1092 109.844H55.3172ZM64.1842 106.116C65.2402 106.116 66.0935 106.452 66.7442 107.124C67.3949 107.786 67.7202 108.714 67.7202 109.908V115.108H65.4802V110.212C65.4802 109.508 65.3042 108.97 64.9522 108.596C64.6002 108.212 64.1202 108.02 63.5122 108.02C62.8935 108.02 62.4029 108.212 62.0402 108.596C61.6882 108.97 61.5122 109.508 61.5122 110.212V115.108H59.2722V106.244H61.5122V107.348C61.8109 106.964 62.1895 106.666 62.6482 106.452C63.1175 106.228 63.6295 106.116 64.1842 106.116ZM69.2743 110.676C69.2743 109.759 69.461 108.959 69.8343 108.276C70.2077 107.583 70.725 107.05 71.3863 106.676C72.0477 106.292 72.805 106.1 73.6583 106.1C74.757 106.1 75.6637 106.378 76.3783 106.932C77.1037 107.476 77.589 108.244 77.8343 109.236H75.4183C75.2903 108.852 75.0717 108.554 74.7623 108.34C74.4637 108.116 74.0903 108.004 73.6423 108.004C73.0023 108.004 72.4957 108.239 72.1223 108.708C71.749 109.167 71.5623 109.823 71.5623 110.676C71.5623 111.519 71.749 112.175 72.1223 112.644C72.4957 113.103 73.0023 113.332 73.6423 113.332C74.549 113.332 75.141 112.927 75.4183 112.116H77.8343C77.589 113.076 77.1037 113.839 76.3783 114.404C75.653 114.97 74.7463 115.252 73.6583 115.252C72.805 115.252 72.0477 115.066 71.3863 114.692C70.725 114.308 70.2077 113.775 69.8343 113.092C69.461 112.399 69.2743 111.594 69.2743 110.676ZM87.7153 110.484C87.7153 110.804 87.694 111.092 87.6513 111.348H81.1713C81.2247 111.988 81.4487 112.49 81.8433 112.852C82.238 113.215 82.7233 113.396 83.2993 113.396C84.1313 113.396 84.7233 113.039 85.0753 112.324H87.4913C87.2353 113.178 86.7447 113.882 86.0193 114.436C85.294 114.98 84.4033 115.252 83.3473 115.252C82.494 115.252 81.726 115.066 81.0433 114.692C80.3713 114.308 79.8433 113.77 79.4593 113.076C79.086 112.383 78.8993 111.583 78.8993 110.676C78.8993 109.759 79.086 108.954 79.4593 108.26C79.8327 107.567 80.3553 107.034 81.0273 106.66C81.6993 106.287 82.4727 106.1 83.3473 106.1C84.19 106.1 84.942 106.282 85.6033 106.644C86.2753 107.007 86.7927 107.524 87.1553 108.196C87.5287 108.858 87.7153 109.62 87.7153 110.484ZM85.3953 109.844C85.3847 109.268 85.1767 108.81 84.7713 108.468C84.366 108.116 83.87 107.94 83.2833 107.94C82.7287 107.94 82.2593 108.111 81.8753 108.452C81.502 108.783 81.2727 109.247 81.1873 109.844H85.3953Z" fill="white"/>
<path d="M47.0658 38.1667C45.912 38.1667 44.7842 38.5088 43.8249 39.1498C42.8656 39.7907 42.118 40.7018 41.6765 41.7677C41.2349 42.8336 41.1194 44.0065 41.3445 45.138C41.5696 46.2696 42.1252 47.309 42.941 48.1248C43.7568 48.9406 44.7962 49.4962 45.9277 49.7212C47.0593 49.9463 48.2322 49.8308 49.2981 49.3893C50.364 48.9478 51.275 48.2001 51.916 47.2408C52.557 46.2815 52.8991 45.1537 52.8991 44C52.8991 42.4529 52.2845 40.9692 51.1905 39.8752C50.0966 38.7812 48.6129 38.1667 47.0658 38.1667ZM47.0658 48.1667C46.2417 48.1667 45.4361 47.9223 44.7509 47.4644C44.0657 47.0066 43.5316 46.3559 43.2163 45.5945C42.9009 44.8331 42.8184 43.9954 42.9792 43.1871C43.1399 42.3789 43.5368 41.6364 44.1195 41.0537C44.7022 40.471 45.4446 40.0742 46.2529 39.9134C47.0611 39.7526 47.8989 39.8351 48.6603 40.1505C49.4216 40.4659 50.0724 40.9999 50.5302 41.6851C50.9881 42.3703 51.2324 43.1759 51.2324 44C51.2324 45.1051 50.7934 46.1649 50.012 46.9463C49.2306 47.7277 48.1708 48.1667 47.0658 48.1667Z" fill="white"/>
<path d="M68.7324 31.5C66.9324 28.375 62.0074 27.5917 55.7574 28.9333C55.5074 28.1 55.2241 27.3667 54.9241 26.6417C55.4752 26.2176 55.8799 25.6317 56.0814 24.9662C56.283 24.3006 56.2714 23.5887 56.0481 22.9301C55.8249 22.2715 55.4013 21.6991 54.8367 21.2933C54.272 20.8874 53.5945 20.6683 52.8991 20.6667C52.3861 20.6686 51.8808 20.7914 51.4241 21.025C50.8695 20.4137 50.1982 19.9195 49.4497 19.5718C48.7012 19.224 47.8906 19.0296 47.0658 19C43.4658 19 40.3241 22.8667 38.3658 28.9333C32.1324 27.5917 27.2158 28.3833 25.3991 31.5C23.5824 34.6167 25.3991 39.275 29.6574 44C29.0991 44.6167 28.5741 45.2333 28.1074 45.8417C27.7713 45.7301 27.4199 45.6711 27.0658 45.6667C26.1817 45.6667 25.3339 46.0179 24.7087 46.643C24.0836 47.2681 23.7324 48.1159 23.7324 49C23.7365 49.5041 23.8548 50.0008 24.0785 50.4526C24.3023 50.9044 24.6256 51.2996 25.0241 51.6083C24.752 52.4066 24.6449 53.2518 24.7094 54.0927C24.7738 54.9335 25.0085 55.7526 25.3991 56.5C26.6408 58.65 29.3658 59.6917 32.9824 59.6917C34.7883 59.6722 36.5871 59.4627 38.3491 59.0667C40.3241 65.1333 43.4658 69 47.0658 69C50.6658 69 53.8158 65.1333 55.7741 59.05C56.7698 59.2694 57.7769 59.4335 58.7908 59.5417C58.9396 60.3475 59.3801 61.0703 60.028 61.5719C60.676 62.0736 61.486 62.319 62.3035 62.2613C63.1209 62.2036 63.8884 61.8467 64.4594 61.259C65.0305 60.6712 65.365 59.8938 65.3991 59.075C66.7884 58.6546 67.9748 57.7382 68.7324 56.5C70.5324 53.3833 68.7324 48.7333 64.4824 44C68.7324 39.2667 70.5158 34.6167 68.7324 31.5ZM54.5658 24C54.5658 24.3296 54.468 24.6519 54.2849 24.926C54.1017 25.2 53.8414 25.4137 53.5369 25.5398C53.2323 25.6659 52.8972 25.699 52.5739 25.6346C52.2506 25.5703 51.9537 25.4116 51.7206 25.1785C51.4875 24.9454 51.3288 24.6485 51.2644 24.3252C51.2001 24.0018 51.2331 23.6667 51.3593 23.3622C51.4854 23.0577 51.6991 22.7974 51.9731 22.6142C52.2472 22.4311 52.5695 22.3333 52.8991 22.3333C53.3411 22.3333 53.765 22.5089 54.0776 22.8215C54.3902 23.134 54.5658 23.558 54.5658 24ZM47.0658 20.6667C48.247 20.7241 49.3579 21.2452 50.1574 22.1167C49.7702 22.6682 49.5635 23.3261 49.5658 24C49.5658 24.8841 49.9169 25.7319 50.5421 26.357C51.1672 26.9821 52.015 27.3333 52.8991 27.3333C53.0585 27.329 53.2173 27.3123 53.3741 27.2833C53.6408 27.9333 53.8908 28.6167 54.1241 29.325C51.7079 29.967 49.3474 30.8031 47.0658 31.825C44.7808 30.8043 42.4176 29.9683 39.9991 29.325C41.6991 24.075 44.2574 20.6667 47.0658 20.6667ZM56.2324 44C56.2324 45.7667 56.1491 47.4917 55.9908 49.1583C54.6324 50.1167 53.1741 51.0583 51.6491 51.9417C50.1241 52.825 48.5824 53.6083 47.0658 54.3083C45.5324 53.6083 43.9991 52.8167 42.4824 51.9417C40.9658 51.0667 39.4991 50.1167 38.1408 49.1583C37.9824 47.4917 37.8991 45.7667 37.8991 44C37.8991 42.2333 37.9824 40.5083 38.1408 38.8417C39.5158 37.8667 40.9658 36.9333 42.4824 36.0583C43.9991 35.1833 45.5491 34.3917 47.0658 33.6917C48.5824 34.3917 50.1241 35.175 51.6491 36.0583C53.1741 36.9417 54.6324 37.8833 55.9991 38.85C56.1491 40.525 56.2324 42.25 56.2324 44ZM57.7574 40.15C59.3041 41.3357 60.7712 42.6218 62.1491 44C60.7788 45.3749 59.3172 46.6556 57.7741 47.8333C57.8574 46.5833 57.8991 45.3333 57.8991 44C57.8991 42.6667 57.8408 41.4167 57.7574 40.15ZM55.7408 51.3583C55.4868 53.2809 55.1082 55.1849 54.6074 57.0583C52.7285 56.5613 50.8854 55.9376 49.0908 55.1917C50.2019 54.6361 51.3324 54.0333 52.4824 53.3833C53.6324 52.7333 54.7185 52.0583 55.7408 51.3583ZM45.0574 55.1833C43.269 55.9279 41.4347 56.557 39.5658 57.0667C39.0658 55.1902 38.6872 53.2835 38.4324 51.3583C39.4769 52.0472 40.563 52.7222 41.6908 53.3833C42.7741 54 43.9158 54.625 45.0574 55.1833ZM36.3574 47.8333C34.8138 46.6531 33.3495 45.3726 31.9741 44C33.3487 42.6265 34.813 41.3459 36.3574 40.1667C36.2741 41.4167 36.2324 42.6667 36.2324 44.0083C36.2324 45.35 36.2741 46.5833 36.3574 47.8333ZM38.3908 36.65C38.6585 34.7211 39.051 32.8115 39.5658 30.9333C41.4409 31.4373 43.2809 32.0636 45.0741 32.8083C43.9491 33.3583 42.8241 33.9667 41.6908 34.6167C40.5574 35.2667 39.4408 35.9417 38.3908 36.65ZM52.4824 34.6167C51.3491 33.9667 50.2241 33.3583 49.0991 32.8083C50.8778 32.0652 52.704 31.4416 54.5658 30.9417C55.0723 32.8147 55.4564 34.7187 55.7158 36.6417C54.6991 35.9472 53.6213 35.2722 52.4824 34.6167ZM26.8574 32.3333C28.2658 29.9 32.4991 29.3917 37.8908 30.5417C37.2463 32.966 36.7949 35.4377 36.5408 37.9333C34.5145 39.3988 32.6059 41.0204 30.8324 42.7833C27.1324 38.6917 25.4574 34.7667 26.8574 32.3333ZM27.0658 47.3333C27.3954 47.3333 27.7176 47.4311 27.9917 47.6142C28.2658 47.7973 28.4794 48.0577 28.6056 48.3622C28.7317 48.6667 28.7647 49.0019 28.7004 49.3252C28.6361 49.6485 28.4774 49.9454 28.2443 50.1785C28.0112 50.4116 27.7142 50.5703 27.3909 50.6346C27.0676 50.6989 26.7325 50.6659 26.4279 50.5398C26.1234 50.4137 25.8631 50.2 25.68 49.926C25.4968 49.6519 25.3991 49.3296 25.3991 49C25.3991 48.558 25.5747 48.134 25.8872 47.8215C26.1998 47.5089 26.6237 47.3333 27.0658 47.3333ZM26.8574 55.6667C26.3247 54.6195 26.2201 53.4062 26.5658 52.2833C26.7308 52.3132 26.898 52.3299 27.0658 52.3333C27.7127 52.3383 28.347 52.1549 28.8915 51.8055C29.436 51.4561 29.867 50.9559 30.1321 50.3657C30.3971 49.7756 30.4847 49.121 30.3841 48.482C30.2836 47.8429 29.9992 47.2469 29.5658 46.7667C29.9658 46.25 30.3991 45.7333 30.8658 45.2167C32.6378 46.9869 34.5496 48.6116 36.5824 50.075C36.8257 52.567 37.2659 55.0358 37.8991 57.4583C32.4991 58.6083 28.2658 58.1 26.8574 55.6667ZM47.0658 67.3333C44.2574 67.3333 41.6991 63.925 39.9991 58.675C42.4257 58.0317 44.7971 57.1957 47.0908 56.175C49.3711 57.1932 51.7284 58.0291 54.1408 58.675C52.4408 63.9083 49.8741 67.3333 47.0658 67.3333ZM62.0658 60.6667C61.7361 60.6667 61.4139 60.5689 61.1398 60.3858C60.8657 60.2026 60.6521 59.9423 60.526 59.6378C60.3998 59.3333 60.3668 58.9981 60.4311 58.6748C60.4954 58.3515 60.6542 58.0546 60.8872 57.8215C61.1203 57.5884 61.4173 57.4297 61.7406 57.3654C62.0639 57.301 62.399 57.3341 62.7036 57.4602C63.0081 57.5863 63.2684 57.8 63.4515 58.074C63.6347 58.3481 63.7324 58.6704 63.7324 59C63.7324 59.442 63.5568 59.866 63.2443 60.1785C62.9317 60.4911 62.5078 60.6667 62.0658 60.6667ZM67.2741 55.6667C66.7419 56.5035 65.9344 57.1283 64.9908 57.4333C64.6832 56.8726 64.2208 56.4122 63.6588 56.1071C63.0967 55.8019 62.4588 55.6649 61.821 55.7124C61.1832 55.7598 60.5726 55.9897 60.0619 56.3746C59.5512 56.7596 59.162 57.2833 58.9408 57.8833C58.1074 57.7917 57.1741 57.6417 56.2408 57.45C56.8852 55.0312 57.3366 52.5652 57.5908 50.075C59.6236 48.6116 61.5353 46.9869 63.3074 45.2167C66.9991 49.3167 68.6741 53.2333 67.2741 55.6667ZM63.3074 42.7833C61.527 41.0074 59.6069 39.3772 57.5658 37.9083C57.3177 35.424 56.8718 32.9634 56.2324 30.55C61.6408 29.3917 65.8824 29.9 67.2908 32.3333C68.6991 34.7667 66.9991 38.6833 63.3074 42.7833Z" fill="white"/>
</g>
<defs>
<filter id="filter0_d" x="0" y="0" width="191.268" height="154.771" filterUnits="userSpaceOnUse" color-interpolation-filters="sRGB">
<feFlood flood-opacity="0" result="BackgroundImageFix"/>
<feColorMatrix in="SourceAlpha" type="matrix" values="0 0 0 0 0 0 0 0 0 0 0 0 0 0 0 0 0 0 127 0"/>
<feOffset dy="4"/>
<feGaussianBlur stdDeviation="2.5"/>
<feColorMatrix type="matrix" values="0 0 0 0 0 0 0 0 0 0 0 0 0 0 0 0 0 0 0.1 0"/>
<feBlend mode="normal" in2="BackgroundImageFix" result="effect1_dropShadow"/>
<feBlend mode="normal" in="SourceGraphic" in2="effect1_dropShadow" result="shape"/>
</filter>
<linearGradient id="paint0_linear_science_icon" x1="4.73248" y1="0.999998" x2="186.732" y2="146" gradientUnits="userSpaceOnUse">
<stop stop-color="#FFC670"/>
<stop offset="1" stop-color="#FFB23B"/>
</linearGradient>
</defs>
</svg>
