<svg width="192" height="155" viewBox="0 0 192 155" fill="none" xmlns="http://www.w3.org/2000/svg">
<g filter="url(#filter0_d)">
<rect x="5" y="1" width="181.268" height="144.771" rx="16" fill="url(#paint0_linear_science_icon)"/>
<mask id="mask0" mask-type="alpha" maskUnits="userSpaceOnUse" x="5" y="1" width="182" height="145">
<rect x="5" y="1" width="181.268" height="144.771" rx="16" fill="#F05C8C"/>
</mask>
<g mask="url(#mask0)">
<path fill-rule="evenodd" clip-rule="evenodd" d="M180.36 -99.2485C198.924 -100.636 221.842 -109.846 234.77 -96.4504C248.155 -82.5819 235.734 -59.304 237.44 -40.1052C238.632 -26.6921 244.617 -14.5208 243.242 -1.12526C241.554 15.3079 239.347 32.3501 228.702 44.9822C216.344 59.6471 199.419 71.3686 180.36 73.4949C160.225 75.7412 138.396 70.4424 123.49 56.72C109.185 43.5504 108.838 22.084 104.047 3.23889C99.6266 -14.1494 91.538 -31.5595 96.6789 -48.7485C101.874 -66.1186 116.032 -79.3679 131.555 -88.7353C146.16 -97.5495 163.348 -97.9769 180.36 -99.2485Z" fill="#FFC46A"/>
<path fill-rule="evenodd" clip-rule="evenodd" d="M24.3343 66.3757C42.8988 64.9881 65.8162 55.7782 78.7446 69.1738C92.1294 83.0423 79.7087 106.32 81.4149 125.519C82.6069 138.932 88.592 151.103 87.2162 164.499C85.5285 180.932 83.3212 197.974 72.6762 210.606C60.3182 225.271 43.3932 236.993 24.3343 239.119C4.1995 241.365 -17.6299 236.067 -32.5352 222.344C-46.8402 209.175 -47.1878 187.708 -51.9785 168.863C-56.3987 151.475 -64.4874 134.065 -59.3465 116.876C-54.1515 99.5056 -39.9931 86.2563 -24.4708 76.8889C-9.86518 68.0747 7.32281 67.6473 24.3343 66.3757Z" fill="#FFC46A"/>
</g>
<path d="M47.0658 38.1667C45.912 38.1667 44.7842 38.5088 43.8249 39.1498C42.8656 39.7907 42.118 40.7018 41.6765 41.7677C41.2349 42.8336 41.1194 44.0065 41.3445 45.138C41.5696 46.2696 42.1252 47.309 42.941 48.1248C43.7568 48.9406 44.7962 49.4962 45.9277 49.7212C47.0593 49.9463 48.2322 49.8308 49.2981 49.3893C50.364 48.9478 51.275 48.2001 51.916 47.2408C52.557 46.2815 52.8991 45.1537 52.8991 44C52.8991 42.4529 52.2845 40.9692 51.1905 39.8752C50.0966 38.7812 48.6129 38.1667 47.0658 38.1667ZM47.0658 48.1667C46.2417 48.1667 45.4361 47.9223 44.7509 47.4644C44.0657 47.0066 43.5316 46.3559 43.2163 45.5945C42.9009 44.8331 42.8184 43.9954 42.9792 43.1871C43.1399 42.3789 43.5368 41.6364 44.1195 41.0537C44.7022 40.471 45.4446 40.0742 46.2529 39.9134C47.0611 39.7526 47.8989 39.8351 48.6603 40.1505C49.4216 40.4659 50.0724 40.9999 50.5302 41.6851C50.9881 42.3703 51.2324 43.1759 51.2324 44C51.2324 45.1051 50.7934 46.1649 50.012 46.9463C49.2306 47.7277 48.1708 48.1667 47.0658 48.1667Z" fill="white"/>
<path d="M68.7324 31.5C66.9324 28.375 62.0074 27.5917 55.7574 28.9333C55.5074 28.1 55.2241 27.3667 54.9241 26.6417C55.4752 26.2176 55.8799 25.6317 56.0814 24.9662C56.283 24.3006 56.2714 23.5887 56.0481 22.9301C55.8249 22.2715 55.4013 21.6991 54.8367 21.2933C54.272 20.8874 53.5945 20.6683 52.8991 20.6667C52.3861 20.6686 51.8808 20.7914 51.4241 21.025C50.8695 20.4137 50.1982 19.9195 49.4497 19.5718C48.7012 19.224 47.8906 19.0296 47.0658 19C43.4658 19 40.3241 22.8667 38.3658 28.9333C32.1324 27.5917 27.2158 28.3833 25.3991 31.5C23.5824 34.6167 25.3991 39.275 29.6574 44C29.0991 44.6167 28.5741 45.2333 28.1074 45.8417C27.7713 45.7301 27.4199 45.6711 27.0658 45.6667C26.1817 45.6667 25.3339 46.0179 24.7087 46.643C24.0836 47.2681 23.7324 48.1159 23.7324 49C23.7365 49.5041 23.8548 50.0008 24.0785 50.4526C24.3023 50.9044 24.6256 51.2996 25.0241 51.6083C24.752 52.4066 24.6449 53.2518 24.7094 54.0927C24.7738 54.9335 25.0085 55.7526 25.3991 56.5C26.6408 58.65 29.3658 59.6917 32.9824 59.6917C34.7883 59.6722 36.5871 59.4627 38.3491 59.0667C40.3241 65.1333 43.4658 69 47.0658 69C50.6658 69 53.8158 65.1333 55.7741 59.05C56.7698 59.2694 57.7769 59.4335 58.7908 59.5417C58.9396 60.3475 59.3801 61.0703 60.028 61.5719C60.676 62.0736 61.486 62.319 62.3035 62.2613C63.1209 62.2036 63.8884 61.8467 64.4594 61.259C65.0305 60.6712 65.365 59.8938 65.3991 59.075C66.7884 58.6546 67.9748 57.7382 68.7324 56.5C70.5324 53.3833 68.7324 48.7333 64.4824 44C68.7324 39.2667 70.5158 34.6167 68.7324 31.5ZM54.5658 24C54.5658 24.3296 54.468 24.6519 54.2849 24.926C54.1017 25.2 53.8414 25.4137 53.5369 25.5398C53.2323 25.6659 52.8972 25.699 52.5739 25.6346C52.2506 25.5703 51.9537 25.4116 51.7206 25.1785C51.4875 24.9454 51.3288 24.6485 51.2644 24.3252C51.2001 24.0018 51.2331 23.6667 51.3593 23.3622C51.4854 23.0577 51.6991 22.7974 51.9731 22.6142C52.2472 22.4311 52.5695 22.3333 52.8991 22.3333C53.3411 22.3333 53.765 22.5089 54.0776 22.8215C54.3902 23.134 54.5658 23.558 54.5658 24ZM47.0658 20.6667C48.247 20.7241 49.3579 21.2452 50.1574 22.1167C49.7702 22.6682 49.5635 23.3261 49.5658 24C49.5658 24.8841 49.9169 25.7319 50.5421 26.357C51.1672 26.9821 52.015 27.3333 52.8991 27.3333C53.0585 27.329 53.2173 27.3123 53.3741 27.2833C53.6408 27.9333 53.8908 28.6167 54.1241 29.325C51.7079 29.967 49.3474 30.8031 47.0658 31.825C44.7808 30.8043 42.4176 29.9683 39.9991 29.325C41.6991 24.075 44.2574 20.6667 47.0658 20.6667ZM56.2324 44C56.2324 45.7667 56.1491 47.4917 55.9908 49.1583C54.6324 50.1167 53.1741 51.0583 51.6491 51.9417C50.1241 52.825 48.5824 53.6083 47.0658 54.3083C45.5324 53.6083 43.9991 52.8167 42.4824 51.9417C40.9658 51.0667 39.4991 50.1167 38.1408 49.1583C37.9824 47.4917 37.8991 45.7667 37.8991 44C37.8991 42.2333 37.9824 40.5083 38.1408 38.8417C39.5158 37.8667 40.9658 36.9333 42.4824 36.0583C43.9991 35.1833 45.5491 34.3917 47.0658 33.6917C48.5824 34.3917 50.1241 35.175 51.6491 36.0583C53.1741 36.9417 54.6324 37.8833 55.9991 38.85C56.1491 40.525 56.2324 42.25 56.2324 44ZM57.7574 40.15C59.3041 41.3357 60.7712 42.6218 62.1491 44C60.7788 45.3749 59.3172 46.6556 57.7741 47.8333C57.8574 46.5833 57.8991 45.3333 57.8991 44C57.8991 42.6667 57.8408 41.4167 57.7574 40.15ZM55.7408 51.3583C55.4868 53.2809 55.1082 55.1849 54.6074 57.0583C52.7285 56.5613 50.8854 55.9376 49.0908 55.1917C50.2019 54.6361 51.3324 54.0333 52.4824 53.3833C53.6324 52.7333 54.7185 52.0583 55.7408 51.3583ZM45.0574 55.1833C43.269 55.9279 41.4347 56.557 39.5658 57.0667C39.0658 55.1902 38.6872 53.2835 38.4324 51.3583C39.4769 52.0472 40.563 52.7222 41.6908 53.3833C42.7741 54 43.9158 54.625 45.0574 55.1833ZM36.3574 47.8333C34.8138 46.6531 33.3495 45.3726 31.9741 44C33.3487 42.6265 34.813 41.3459 36.3574 40.1667C36.2741 41.4167 36.2324 42.6667 36.2324 44.0083C36.2324 45.35 36.2741 46.5833 36.3574 47.8333ZM38.3908 36.65C38.6585 34.7211 39.051 32.8115 39.5658 30.9333C41.4409 31.4373 43.2809 32.0636 45.0741 32.8083C43.9491 33.3583 42.8241 33.9667 41.6908 34.6167C40.5574 35.2667 39.4408 35.9417 38.3908 36.65ZM52.4824 34.6167C51.3491 33.9667 50.2241 33.3583 49.0991 32.8083C50.8778 32.0652 52.704 31.4416 54.5658 30.9417C55.0723 32.8147 55.4564 34.7187 55.7158 36.6417C54.6991 35.9472 53.6213 35.2722 52.4824 34.6167ZM26.8574 32.3333C28.2658 29.9 32.4991 29.3917 37.8908 30.5417C37.2463 32.966 36.7949 35.4377 36.5408 37.9333C34.5145 39.3988 32.6059 41.0204 30.8324 42.7833C27.1324 38.6917 25.4574 34.7667 26.8574 32.3333ZM27.0658 47.3333C27.3954 47.3333 27.7176 47.4311 27.9917 47.6142C28.2658 47.7973 28.4794 48.0577 28.6056 48.3622C28.7317 48.6667 28.7647 49.0019 28.7004 49.3252C28.6361 49.6485 28.4774 49.9454 28.2443 50.1785C28.0112 50.4116 27.7142 50.5703 27.3909 50.6346C27.0676 50.6989 26.7325 50.6659 26.4279 50.5398C26.1234 50.4137 25.8631 50.2 25.68 49.926C25.4968 49.6519 25.3991 49.3296 25.3991 49C25.3991 48.558 25.5747 48.134 25.8872 47.8215C26.1998 47.5089 26.6237 47.3333 27.0658 47.3333ZM26.8574 55.6667C26.3247 54.6195 26.2201 53.4062 26.5658 52.2833C26.7308 52.3132 26.898 52.3299 27.0658 52.3333C27.7127 52.3383 28.347 52.1549 28.8915 51.8055C29.436 51.4561 29.867 50.9559 30.1321 50.3657C30.3971 49.7756 30.4847 49.121 30.3841 48.482C30.2836 47.8429 29.9992 47.2469 29.5658 46.7667C29.9658 46.25 30.3991 45.7333 30.8658 45.2167C32.6378 46.9869 34.5496 48.6116 36.5824 50.075C36.8257 52.567 37.2659 55.0358 37.8991 57.4583C32.4991 58.6083 28.2658 58.1 26.8574 55.6667ZM47.0658 67.3333C44.2574 67.3333 41.6991 63.925 39.9991 58.675C42.4257 58.0317 44.7971 57.1957 47.0908 56.175C49.3711 57.1932 51.7284 58.0291 54.1408 58.675C52.4408 63.9083 49.8741 67.3333 47.0658 67.3333ZM62.0658 60.6667C61.7361 60.6667 61.4139 60.5689 61.1398 60.3858C60.8657 60.2026 60.6521 59.9423 60.526 59.6378C60.3998 59.3333 60.3668 58.9981 60.4311 58.6748C60.4954 58.3515 60.6542 58.0546 60.8872 57.8215C61.1203 57.5884 61.4173 57.4297 61.7406 57.3654C62.0639 57.301 62.399 57.3341 62.7036 57.4602C63.0081 57.5863 63.2684 57.8 63.4515 58.074C63.6347 58.3481 63.7324 58.6704 63.7324 59C63.7324 59.442 63.5568 59.866 63.2443 60.1785C62.9317 60.4911 62.5078 60.6667 62.0658 60.6667ZM67.2741 55.6667C66.7419 56.5035 65.9344 57.1283 64.9908 57.4333C64.6832 56.8726 64.2208 56.4122 63.6588 56.1071C63.0967 55.8019 62.4588 55.6649 61.821 55.7124C61.1832 55.7598 60.5726 55.9897 60.0619 56.3746C59.5512 56.7596 59.162 57.2833 58.9408 57.8833C58.1074 57.7917 57.1741 57.6417 56.2408 57.45C56.8852 55.0312 57.3366 52.5652 57.5908 50.075C59.6236 48.6116 61.5353 46.9869 63.3074 45.2167C66.9991 49.3167 68.6741 53.2333 67.2741 55.6667ZM63.3074 42.7833C61.527 41.0074 59.6069 39.3772 57.5658 37.9083C57.3177 35.424 56.8718 32.9634 56.2324 30.55C61.6408 29.3917 65.8824 29.9 67.2908 32.3333C68.6991 34.7667 66.9991 38.6833 63.3074 42.7833Z" fill="white"/>
</g>
<defs>
<filter id="filter0_d" x="0" y="0" width="191.268" height="154.771" filterUnits="userSpaceOnUse" color-interpolation-filters="sRGB">
<feFlood flood-opacity="0" result="BackgroundImageFix"/>
<feColorMatrix in="SourceAlpha" type="matrix" values="0 0 0 0 0 0 0 0 0 0 0 0 0 0 0 0 0 0 127 0"/>
<feOffset dy="4"/>
<feGaussianBlur stdDeviation="2.5"/>
<feColorMatrix type="matrix" values="0 0 0 0 0 0 0 0 0 0 0 0 0 0 0 0 0 0 0.1 0"/>
<feBlend mode="normal" in2="BackgroundImageFix" result="effect1_dropShadow"/>
<feBlend mode="normal" in="SourceGraphic" in2="effect1_dropShadow" result="shape"/>
</filter>
<linearGradient id="paint0_linear_science_icon" x1="4.73248" y1="0.999998" x2="186.732" y2="146" gradientUnits="userSpaceOnUse">
<stop stop-color="#FFC670"/>
<stop offset="1" stop-color="#FFB23B"/>
</linearGradient>
</defs>
</svg>
