<svg width="192" height="155" viewBox="0 0 192 155" fill="none" xmlns="http://www.w3.org/2000/svg">
<g filter="url(#filter0_d)">
<rect x="5" y="1" width="181.268" height="144.771" rx="16" fill="url(#paint0_linear_social_science_icon)"/>
<mask id="mask0" mask-type="alpha" maskUnits="userSpaceOnUse" x="5" y="1" width="182" height="145">
<rect x="5" y="1" width="181.268" height="144.771" rx="16" fill="#F05C8C"/>
</mask>
<g mask="url(#mask0)">
<path fill-rule="evenodd" clip-rule="evenodd" d="M180.36 -99.2485C198.924 -100.636 221.842 -109.846 234.77 -96.4504C248.155 -82.5819 235.734 -59.304 237.44 -40.1052C238.632 -26.6921 244.617 -14.5208 243.242 -1.12526C241.554 15.3079 239.347 32.3501 228.702 44.9822C216.344 59.6471 199.419 71.3686 180.36 73.4949C160.225 75.7412 138.396 70.4424 123.49 56.72C109.185 43.5504 108.838 22.084 104.047 3.23889C99.6266 -14.1494 91.538 -31.5595 96.6789 -48.7485C101.874 -66.1186 116.032 -79.3679 131.555 -88.7353C146.16 -97.5495 163.348 -97.9769 180.36 -99.2485Z" fill="#FFA88D"/>
<path fill-rule="evenodd" clip-rule="evenodd" d="M24.3343 66.3757C42.8988 64.9881 65.8162 55.7782 78.7446 69.1738C92.1294 83.0423 79.7087 106.32 81.4149 125.519C82.6069 138.932 88.592 151.103 87.2162 164.499C85.5285 180.932 83.3212 197.974 72.6762 210.606C60.3182 225.271 43.3932 236.993 24.3343 239.119C4.1995 241.365 -17.6299 236.067 -32.5352 222.344C-46.8402 209.175 -47.1878 187.708 -51.9785 168.863C-56.3987 151.475 -64.4874 134.065 -59.3465 116.876C-54.1515 99.5056 -39.9931 86.2563 -24.4708 76.8889C-9.86518 68.0747 7.32281 67.6473 24.3343 66.3757Z" fill="#FFA88D"/>
</g>
<path d="M40.1977 31.9688L40.1977 31.9688L40.1995 31.9706C40.3317 32.0961 40.4988 32.1636 40.6737 32.1636C40.7821 32.1636 40.9054 32.1389 41.0012 32.0741L42.208 31.3739C42.208 31.3739 42.2081 31.3738 42.2081 31.3738C42.4291 31.2465 42.5568 31.0112 42.5434 30.7567C42.53 30.5023 42.3759 30.2806 42.1473 30.1796C42.1472 30.1796 42.1471 30.1796 42.1471 30.1795L41.7136 29.9856L41.7136 29.9856L41.7132 29.9854C41.2778 29.7934 40.778 29.9603 40.5415 30.3694L40.5415 30.3694L40.5413 30.3698L40.0904 31.1574C40.0903 31.1575 40.0903 31.1575 40.0903 31.1575C39.9363 31.4255 39.9834 31.7545 40.1977 31.9688Z" fill="white" stroke="white" stroke-width="0.2"/>
<path d="M25.0974 46.914L25.0974 46.914L36.1294 57.64L36.0954 57.7341C36.0954 57.7341 36.0954 57.7341 36.0954 57.7341C38.1444 58.4744 40.2625 58.8419 42.375 58.8419C45.0502 58.8419 47.7194 58.2505 50.2102 57.0855L50.2104 57.0854C54.676 54.9846 58.0514 51.2762 59.7274 46.6385L59.7275 46.6383C60.4104 44.7388 60.7836 42.7585 60.8238 40.7607C60.8927 37.6435 60.1521 34.5325 58.6943 31.7602L58.6942 31.7601C57.2248 28.9762 55.0608 26.5998 52.4316 24.8949C51.2492 24.1257 49.9692 23.4886 48.6261 23.0064C47.5813 22.6276 46.5022 22.3463 45.4175 22.1627L45.4174 22.1627C40.1421 21.2729 34.7464 22.7253 30.6023 26.1404C28.8171 27.6099 27.3476 29.3779 26.2282 31.3927C25.7459 32.2541 25.3326 33.1725 24.9941 34.1077L24.9941 34.1078C23.5017 38.2521 23.5361 42.7983 25.0974 46.914ZM31.4602 27.174L31.4603 27.1739C34.5594 24.614 38.4133 23.2462 42.3579 23.2462C43.3 23.2462 44.2476 23.3256 45.1953 23.4902L45.1957 23.4903C46.2005 23.6606 47.2051 23.9217 48.1756 24.2735L48.1757 24.2736C49.4189 24.722 50.6108 25.3123 51.706 26.0273L51.7062 26.0275C56.6325 29.2228 59.6126 34.8592 59.4877 40.7392C59.448 42.5952 59.1075 44.4284 58.4717 46.188C56.9165 50.4848 53.7836 53.9241 49.6458 55.871C45.5079 57.8123 40.8597 58.0279 36.5572 56.4783C31.8518 54.7755 28.1342 51.1203 26.3577 46.4377L26.2642 46.4732L26.3577 46.4377C24.9104 42.6237 24.8763 38.4066 26.2611 34.5641C26.5791 33.6953 26.9652 32.8438 27.4079 32.0435C28.4408 30.1764 29.8085 28.5362 31.4602 27.174Z" fill="white" stroke="white" stroke-width="0.2"/>
<path d="M34.8548 53.209L34.8548 53.209L34.857 53.2104C34.9684 53.2759 35.0885 53.3098 35.2103 53.3098C35.432 53.3098 35.6528 53.196 35.7801 52.995L35.7807 52.994C35.9746 52.6798 35.8818 52.2639 35.5656 52.0687C34.358 51.3203 33.2636 50.3961 32.3166 49.33C32.0744 49.0545 31.6456 49.0278 31.3702 49.2758C31.0949 49.5181 31.0683 49.9468 31.3164 50.2222C32.3448 51.3826 33.5395 52.3877 34.8548 53.209Z" fill="white" stroke="white" stroke-width="0.2"/>
<path d="M30.6094 46.9766L30.6093 46.9763C30.3825 46.5907 30.1728 46.194 29.9858 45.7918C29.8314 45.4563 29.4292 45.3085 29.0932 45.4692C28.7579 45.624 28.6104 46.0264 28.7716 46.3623L28.8617 46.319L28.7714 46.3619C28.9779 46.7979 29.2019 47.2287 29.4491 47.6483C29.5708 47.8577 29.7988 47.9776 30.0264 47.9776C30.1424 47.9776 30.2535 47.9436 30.3556 47.9016L30.356 47.9024L30.3679 47.8955C30.6898 47.7077 30.7971 47.2982 30.6094 46.9766Z" fill="white" stroke="white" stroke-width="0.2"/>
<path d="M39.3034 49.5505L39.3038 49.5498L39.965 48.4612C39.9651 48.4609 39.9653 48.4606 39.9655 48.4603C40.0198 48.3661 40.0467 48.267 40.0376 48.1664L40.0373 48.1634L40.0373 48.1634L39.8375 44.8521L39.8374 44.851C39.828 44.6563 39.7098 44.4898 39.5274 44.4131L39.5265 44.4127L37.2208 43.4139C37.2206 43.4138 37.2205 43.4138 37.2203 43.4137C37.0202 43.3287 36.8333 43.2019 36.6768 43.0515C36.6768 43.0514 36.6767 43.0514 36.6767 43.0514L34.8844 41.3447L34.8843 41.3446C34.4864 40.9648 34.275 40.4336 34.3112 39.8785C34.3112 39.8785 34.3112 39.8785 34.3112 39.8785L34.4996 36.9726L34.4996 36.9721C34.5419 36.3691 34.8735 35.8201 35.3926 35.5062L35.3927 35.5062L39.5367 33.0061C39.5369 33.006 39.537 33.0059 39.5371 33.0058C39.9598 32.7463 40.4607 32.6741 40.9423 32.7941C41.0017 32.8074 41.0572 32.828 41.1128 32.8624L43.9099 34.4258C44.3585 34.5605 44.7403 34.8667 44.9736 35.2735L39.3034 49.5505ZM39.3034 49.5505C39.1171 49.863 39.0201 50.2191 39.0382 50.5882C39.0382 50.5883 39.0382 50.5885 39.0382 50.5886L39.1694 53.7273C39.1694 53.7274 39.1694 53.7274 39.1695 53.7275M39.3034 49.5505L39.1695 53.7275M50.8832 38.5669L50.8831 38.5669L50.8836 38.5699C50.8889 38.6016 50.8956 38.642 50.8959 38.6837L51.0722 42.6589C51.1324 42.8396 51.2877 42.9733 51.4749 43.0063C51.475 43.0063 51.4752 43.0063 51.4754 43.0064L50.8832 38.5669ZM50.8832 38.5669L50.882 38.5614M50.8832 38.5669L50.882 38.5614M50.882 38.5614C50.7314 37.8925 50.2259 37.3683 49.5647 37.1863M50.882 38.5614L49.5647 37.1863M40.2402 34.1589L40.2402 34.1588L36.0954 36.6594L36.0952 36.6595C35.9533 36.7446 35.8615 36.8972 35.8466 37.0666L35.6583 39.9712C35.6583 39.9712 35.6583 39.9712 35.6583 39.9713C35.6487 40.1248 35.7063 40.2729 35.816 40.3778C35.816 40.3779 35.816 40.3779 35.816 40.3779L37.6085 42.0848L37.6103 42.0864L37.6103 42.0865C37.6513 42.1275 37.7032 42.1611 37.7571 42.1857L40.0625 43.1843C40.7081 43.4619 41.1367 44.0718 41.179 44.7773L41.3787 48.0882C41.3788 48.0882 41.3788 48.0883 41.3788 48.0883C41.4029 48.4683 41.3123 48.8368 41.1132 49.1627L40.2402 34.1589ZM40.2402 34.1589L40.2429 34.1572M40.2402 34.1589L40.2429 34.1572M40.2429 34.1572C40.3225 34.1056 40.4118 34.0819 40.5025 34.0819C40.5251 34.0819 40.5441 34.0819 40.5678 34.0844L43.3405 35.6323C43.3961 35.6667 43.4516 35.6872 43.5109 35.7005C43.6418 35.7336 43.7572 35.8236 43.8303 35.9451C43.8305 35.9454 43.8306 35.9456 43.8308 35.9458L44.789 37.6057L44.789 37.6057M40.2429 34.1572L44.789 37.6057M44.789 37.6057C45.0354 38.0324 45.4322 38.34 45.9073 38.4675M44.789 37.6057L45.9073 38.4675M39.1695 53.7275C39.1997 54.5544 39.7617 55.2426 40.5633 55.4476L39.1695 53.7275ZM49.5647 37.1863C49.5049 37.1648 49.4422 37.1589 49.3859 37.1588L49.5647 37.1863ZM45.9073 38.4675C45.967 38.489 46.0296 38.4949 46.0858 38.4949L45.9073 38.4675ZM45.9328 36.9348L44.9738 35.2737L49.3857 37.1588L46.1743 37.1532C46.0726 37.109 45.9877 37.031 45.933 36.9352L45.9328 36.9348ZM43.4615 55.3815L45.4533 53.1117L40.5634 55.4476L41.8058 55.7667C41.8061 55.7668 41.8065 55.7669 41.8068 55.767C41.9592 55.8095 42.1165 55.8275 42.2666 55.8275C42.6527 55.8275 43.0262 55.7069 43.3449 55.4847C43.3846 55.4581 43.4259 55.4239 43.4615 55.3815ZM40.451 50.2531L41.1131 49.1629L48.1104 48.1358C47.7304 48.377 47.4527 48.7451 47.326 49.1737L46.7608 51.0689L46.7607 51.0693C46.7129 51.2318 46.5837 51.3651 46.4181 51.4124L46.4168 51.4128L45.1836 51.7839L45.1826 51.7842C44.9932 51.8434 44.8061 51.9272 44.6411 52.049C44.6017 52.0755 44.5609 52.1093 44.5257 52.1513L42.5168 54.4327C42.4057 54.4928 42.2728 54.5098 42.1428 54.4774C42.1427 54.4773 42.1426 54.4773 42.1424 54.4773L40.8989 54.1578C40.8988 54.1578 40.8988 54.1578 40.8987 54.1578C40.678 54.1001 40.5206 53.9088 40.5111 53.6795L40.3798 50.5395L40.3798 50.539C40.3749 50.4379 40.3991 50.338 40.4508 50.2533L40.451 50.2531ZM50.9471 46.3321L48.1104 48.1357L46.0859 38.4949L49.2976 38.5006C49.4334 38.5585 49.5352 38.6697 49.5833 38.8125L49.7596 42.7875C49.7598 42.8293 49.7666 42.8697 49.7719 42.9015L49.7724 42.9044L49.7722 42.9044L49.7735 42.9101C49.9423 43.6517 50.5336 44.2072 51.2816 44.3282C51.4456 44.3573 51.5782 44.4526 51.6547 44.6008C51.7312 44.749 51.7315 44.9155 51.6594 45.0648C51.6594 45.0649 51.6593 45.0651 51.6593 45.0652L51.1346 46.1259C51.0918 46.2114 51.0304 46.2782 50.9473 46.332C50.9473 46.332 50.9472 46.3321 50.9471 46.3321Z" fill="white" stroke="white" stroke-width="0.2"/>
<path d="M25.5988 47.3476L25.5988 47.3476L25.6026 47.3483C25.6371 47.354 25.6842 47.361 25.7275 47.361C25.9079 47.361 26.0894 47.2877 26.2179 47.1459C26.2181 47.1458 26.2182 47.1456 26.2184 47.1454L27.0453 46.2558L27.0455 46.256L27.0501 46.2502C27.0757 46.2182 27.1005 46.181 27.1224 46.1481L27.1237 46.1462L27.1238 46.1462L27.1263 46.1421L28.5127 43.8315L29.9675 41.5893L29.9677 41.5891C30.1021 41.3807 30.1087 41.1126 29.9879 40.8979C29.9879 40.8979 29.9879 40.8979 29.9879 40.8978L28.7676 38.7183L28.1836 36.161L27.4821 31.627C27.482 31.6268 27.482 31.6266 27.482 31.6264C27.4411 31.3423 27.2186 31.1223 26.9394 31.0691L26.9394 31.0691L26.9371 31.0687C26.656 31.0218 26.3749 31.1557 26.2342 31.4034L26.2339 31.4039C25.7515 32.2654 25.3383 33.1838 24.9997 34.1191L24.9997 34.1193C23.5074 38.2633 23.5417 42.8092 25.1028 46.9248C25.1839 47.1472 25.3728 47.301 25.5988 47.3476ZM26.0007 45.42C24.9126 41.8893 24.9976 38.081 26.2611 34.5811C26.334 34.3805 26.4093 34.1823 26.4884 33.9851L26.8606 36.3876C26.8607 36.3936 26.861 36.4014 26.8618 36.4096C26.8627 36.4187 26.8647 36.4334 26.8706 36.4497L27.4794 39.1181C27.4921 39.1813 27.5122 39.244 27.5481 39.3022L28.6194 41.2115L27.3824 43.1195C27.3784 43.1247 27.3753 43.1295 27.3729 43.1334L27.3721 43.1343L27.3658 43.1449L26.0128 45.4073L26.0007 45.42ZM27.3676 43.1434C27.3676 43.1433 27.3678 43.143 27.3681 43.1425L27.3679 43.1429C27.3677 43.1433 27.3676 43.1434 27.3676 43.1434Z" fill="white" stroke="white" stroke-width="0.2"/>
<path d="M44.1608 26.8302C44.2105 26.8228 44.2538 26.8084 44.2955 26.7878L47.0236 25.5918C47.2799 25.5068 47.4842 25.3015 47.5679 25.0447C47.6647 24.7545 47.6006 24.4316 47.3995 24.2046L45.847 22.4351L45.847 22.4351L45.8456 22.4336C45.7119 22.2872 45.5324 22.1838 45.3372 22.1512L45.3371 22.1512C40.1937 21.3016 34.9014 22.6908 30.8089 25.9625C30.5885 26.1376 30.4731 26.4088 30.4859 26.6847L30.4859 26.6847L30.4861 26.687C30.5054 26.9637 30.6534 27.2152 30.8859 27.3638L30.8863 27.364C31.0774 27.485 31.3118 27.5244 31.529 27.4763L34.5415 27.3971L35.6721 27.9848L35.6721 27.9848L35.6735 27.9855C35.801 28.0493 35.9361 28.0817 36.0722 28.0817C36.2327 28.0817 36.3881 28.037 36.5132 27.9582L38.0757 27.0001C38.1227 26.9731 38.1623 26.9401 38.1948 26.913L38.1972 26.911L38.1972 26.9111L38.2012 26.9075L39.4094 25.7845C39.4114 25.7981 39.4138 25.8119 39.4166 25.8258M44.1608 26.8302C44.0925 26.8425 44.0243 26.8486 43.9506 26.8486H43.9467L43.9467 26.8485L40.7553 26.7229L40.7521 26.7228L40.7522 26.7227C40.6676 26.7167 40.5828 26.7042 40.4961 26.671L39.9722 26.4831C39.6802 26.3793 39.4744 26.1269 39.4166 25.8258M44.1608 26.8302C44.1614 26.83 44.162 26.8299 44.1626 26.8298L44.1447 26.7314L44.1589 26.8304C44.1595 26.8303 44.1602 26.8302 44.1608 26.8302ZM39.4166 25.8258C39.4166 25.8259 39.4166 25.8261 39.4167 25.8262L39.5147 25.8066L39.4165 25.8254C39.4165 25.8255 39.4166 25.8257 39.4166 25.8258ZM34.5596 27.3071L34.5593 27.2966L34.5596 27.3071ZM32.896 26.1027C36.4381 23.7619 40.7438 22.7984 44.9499 23.4506L45.9546 24.5937L43.8803 25.5002L41.2905 25.396C41.4709 25.1559 41.5178 24.8368 41.3997 24.5522C41.2583 24.2116 40.917 23.9911 40.5471 24.0169C40.547 24.0169 40.5469 24.017 40.5468 24.017L39.5484 24.0797L39.5484 24.0796L39.5442 24.0801C39.4251 24.0926 39.3101 24.1242 39.2006 24.1819C39.1469 24.2089 39.0989 24.243 39.0572 24.2844L37.3416 25.875L36.051 26.6679L35.0283 26.1348C35.0283 26.1348 35.0282 26.1348 35.0282 26.1348C34.905 26.07 34.7691 26.0377 34.6335 26.0377C34.5719 26.0377 34.5097 26.0437 34.4375 26.0609L32.896 26.1027Z" fill="white" stroke="white" stroke-width="0.2"/>
<path d="M56.9589 46.1064L56.9589 46.1064C56.7106 45.9472 56.5495 45.6789 56.5362 45.3883C56.5362 45.3879 56.5362 45.3876 56.5362 45.3872L56.3712 42.845L55.9815 41.0937L55.8389 41.0626L55.7708 41.7041C55.7708 41.7043 55.7708 41.7045 55.7708 41.7046C55.7512 41.912 55.6544 42.1035 55.5152 42.2491L55.5145 42.2498L53.5279 44.2878L56.9589 46.1064ZM56.9589 46.1064L56.9625 46.1086M56.9589 46.1064L56.9625 46.1086M56.9625 46.1086C57.1131 46.1964 57.2844 46.2478 57.4582 46.2478C57.5648 46.2478 57.6847 46.2311 57.775 46.1814C58.0079 46.0909 58.1898 45.908 58.2852 45.6824L60.7082 41.0929C60.7287 41.0583 60.7422 41.0244 60.7529 40.9976L60.7538 40.9954L60.7543 40.9956L60.7571 40.9858C60.781 40.9022 60.8008 40.8124 60.8009 40.7137C60.8581 37.6946 60.1579 34.6643 58.7747 31.961C57.3856 29.246 55.3307 26.8984 52.8336 25.1762L52.8335 25.1762C52.5458 24.9779 52.1747 24.9586 51.8678 25.1245C51.5583 25.2861 51.3802 25.6078 51.3866 25.9568L51.3866 25.9577L51.419 27.1468L50.5629 27.5273L49.4236 26.514L49.423 26.5134C49.1678 26.2902 48.8095 26.2191 48.4884 26.341C48.4883 26.341 48.4882 26.341 48.4881 26.3411L45.6633 27.3968C45.6632 27.3968 45.6631 27.3969 45.663 27.3969C45.2578 27.545 45.0159 27.9617 45.0733 28.3889L45.0733 28.3894L45.1721 29.1003M56.9625 46.1086L45.1721 29.1003M45.1721 29.1003L43.0635 29.1491L43.0633 29.1491C42.8085 29.1555 42.5644 29.2639 42.3965 29.4576C42.232 29.6474 42.1414 29.8965 42.1669 30.1545L42.17 30.1916L41.7022 29.9856C41.7021 29.9856 41.702 29.9856 41.7019 29.9855C41.272 29.7932 40.7665 29.9604 40.53 30.3694L40.5298 30.3698L39.571 32.0477C39.571 32.0478 39.5709 32.0479 39.5708 32.048C39.4547 32.2482 39.4236 32.4852 39.4742 32.7133L39.4744 32.7142L39.6171 33.3307C39.6171 33.3307 39.6172 33.3307 39.6172 33.3307L39.6172 33.3308L39.7146 33.3082M45.1721 29.1003L42.036 34.2745L42.036 34.2745L42.037 34.2739L44.0121 33.1259M39.7146 33.3082C39.7831 33.6051 40.0115 33.8391 40.3083 33.9191L41.5586 34.2445M39.7146 33.3082L39.5719 32.6916M39.7146 33.3082L39.5719 32.6916M41.5586 34.2445L41.5316 34.3408C41.5319 34.3409 41.5323 34.341 41.5326 34.341L41.5334 34.3413L41.5586 34.2445ZM41.5586 34.2445C41.7013 34.2845 41.8555 34.2616 41.9868 34.1874L43.9906 33.0228M43.9906 33.0228L43.979 33.1221L44.0121 33.1259M43.9906 33.0228L45.0183 33.1426L44.0121 33.1259M43.9906 33.0228L44.0409 33.1092L44.0121 33.1259M39.5719 32.6916C39.5262 32.4861 39.5547 32.2749 39.6575 32.0979L39.5719 32.6916ZM55.6699 39.6502L55.6699 39.6503L56.5261 39.8387C56.5261 39.8387 56.5262 39.8387 56.5262 39.8387L56.5263 39.8387L56.5048 39.9364L55.6699 39.6502ZM55.6699 39.6502L55.6663 39.6496M55.6699 39.6502L55.6663 39.6496M55.6663 39.6496C55.5986 39.6373 55.5355 39.6308 55.4715 39.6308C55.2796 39.6308 55.0936 39.6886 54.9281 39.8093C54.7165 39.9572 54.5757 40.1943 54.5499 40.457C54.5499 40.4572 54.5498 40.4574 54.5498 40.4576L54.4452 41.4214L52.713 43.2032L51.1855 42.9504L50.7608 38.1164L51.3085 36.965L51.309 36.9641C51.4297 36.7036 51.4304 36.4147 51.302 36.158L51.3015 36.157C51.1746 35.9095 50.9451 35.7234 50.6682 35.6653C50.6681 35.6653 50.668 35.6652 50.6678 35.6652L49.2593 35.3585L47.9943 34.8995L46.7543 33.7544L46.0431 32.4112C46.0431 32.4111 46.043 32.411 46.043 32.4109C45.9022 32.1424 45.6338 31.9566 45.3319 31.9243C45.3317 31.9243 45.3316 31.9243 45.3314 31.9242L44.037 31.776C43.8369 31.7503 43.6388 31.7958 43.4682 31.8906L43.4682 31.8906L43.4667 31.8914L41.6068 32.9671L40.8662 32.7756L40.8198 32.5707L41.5148 31.3635L42.2885 31.7039C42.2886 31.704 42.2887 31.704 42.2887 31.704C42.5904 31.8387 42.9304 31.7996 43.1981 31.6084C43.4658 31.4171 43.614 31.1035 43.5821 30.7758L43.5569 30.477M55.6663 39.6496L43.5569 30.477M43.5569 30.477L45.6885 30.4281L45.6886 30.4281C45.958 30.4217 46.2009 30.2996 46.3725 30.1026C46.5459 29.9035 46.6228 29.6402 46.5844 29.3776C46.5844 29.3775 46.5844 29.3774 46.5844 29.3773L46.4644 28.5323L48.7306 27.6798L49.8843 28.7072L49.8846 28.7075C50.1595 28.9504 50.5438 29.008 50.8762 28.861L50.8764 28.8609L52.2352 28.2557L52.2357 28.2555C52.5738 28.1024 52.7924 27.7635 52.7797 27.3907C52.7797 27.3905 52.7797 27.3904 52.7797 27.3902L52.7626 26.7708C57.0592 30.052 59.5474 35.146 59.4766 40.5846L57.7753 43.8113L57.7066 42.7248C57.7063 42.6782 57.6998 42.6258 57.6865 42.578L57.2304 40.537L43.5569 30.477ZM45.7899 34.695L47.1471 35.9438C47.2403 36.0365 47.3509 36.0937 47.4597 36.136L47.4597 36.1361L47.4619 36.1368L48.8321 36.6335L48.832 36.6336L48.8345 36.6344C48.8702 36.6463 48.9148 36.6593 48.9558 36.6663L49.8748 36.8621L49.507 37.6375C49.4237 37.8045 49.3983 37.9955 49.4291 38.1793L49.8851 43.4122C49.8857 43.4457 49.8918 43.475 49.8964 43.4969C49.8971 43.5004 49.8978 43.5038 49.8985 43.507L49.8984 43.507L49.899 43.5096C49.9824 43.8751 50.2774 44.1501 50.6475 44.2139L50.6481 44.214L52.7148 44.5566L52.7164 44.5568C53.0151 44.6013 53.316 44.5061 53.5278 44.2879L45.7899 34.695Z" fill="white" stroke="white" stroke-width="0.2"/>
<path d="M35.2447 60.56L35.2446 60.56C34.2468 60.1987 33.2661 59.7629 32.3369 59.2638M35.2447 60.56L32.9208 58.171L32.9685 58.083C32.9684 58.083 32.9684 58.083 32.9683 58.083C32.6444 57.9076 32.2362 58.0362 32.0622 58.3574C31.8874 58.68 32.0082 59.0892 32.3369 59.2638M35.2447 60.56C36.7874 61.1163 38.3933 61.5006 40.0111 61.69L35.2447 60.56ZM32.3369 59.2638L32.3842 59.1757L32.3373 59.2641C32.3372 59.264 32.337 59.2639 32.3369 59.2638ZM61.3832 47.2328L61.3832 47.2328C62.1275 45.1705 62.5308 43.0175 62.5762 40.8477V40.8477C62.7239 33.9572 59.23 27.3502 53.4588 23.6011L53.4587 23.6011C52.1749 22.7661 50.7832 22.073 49.3234 21.5505L49.3229 21.5503C48.3859 21.2096 47.4201 20.9425 46.4483 20.7436C46.4483 20.7436 46.4483 20.7436 46.4483 20.7436L46.4683 20.6456C46.16 20.5828 45.9602 20.2803 46.023 19.972C46.0858 19.6637 46.3884 19.4639 46.6967 19.5267L61.3832 47.2328ZM61.3832 47.2328C58.7872 54.4357 52.186 59.5997 44.5569 60.3893L61.3832 47.2328ZM49.7849 20.2889C48.7816 19.9278 47.755 19.6352 46.7164 19.4286L62.562 47.655C63.3556 45.4627 63.7837 43.1791 63.8294 40.8727L63.9294 40.8747C63.9294 40.8747 63.9294 40.8747 63.9294 40.8746C64.0039 37.261 63.1493 33.6533 61.4573 30.4414L61.4573 30.4413C59.7538 27.2122 57.2417 24.4591 54.1959 22.4801C52.8247 21.5851 51.3391 20.851 49.785 20.289L49.7849 20.2889Z" fill="white" stroke="white" stroke-width="0.2"/>
<path d="M34.7136 61.5704L34.7137 61.5705C34.7877 61.5974 34.8678 61.6107 34.942 61.6107C35.217 61.6107 35.4721 61.4428 35.5726 61.1683L35.5727 61.1678L36.9541 57.3318C36.9542 57.3317 36.9542 57.3316 36.9542 57.3315C37.0818 56.9821 36.8999 56.5999 36.552 56.4728C36.2025 56.3451 35.8201 56.527 35.693 56.8749L35.6928 56.8754L34.3114 60.7114C34.3114 60.7115 34.3114 60.7115 34.3113 60.7116C34.1838 61.0611 34.3657 61.4433 34.7136 61.5704Z" fill="white" stroke="white" stroke-width="0.2"/>
<path d="M48.1696 24.2677L48.1698 24.2678C48.2438 24.2947 48.3239 24.3081 48.398 24.3081C48.6725 24.3081 48.9342 24.1348 49.0289 23.8647C49.029 23.8646 49.029 23.8644 49.0291 23.8643L50.4102 20.0291C50.4102 20.029 50.4103 20.029 50.4103 20.0289C50.5378 19.6794 50.3559 19.2972 50.0081 19.1701C49.6585 19.0424 49.2762 19.2243 49.1491 19.5723L49.1489 19.5727L47.7675 23.4087C47.7674 23.4088 47.7674 23.4089 47.7674 23.4089C47.6398 23.7584 47.8217 24.1406 48.1696 24.2677Z" fill="white" stroke="white" stroke-width="0.2"/>
<path d="M34.0685 69.3293H50.6531C51.0287 69.3293 51.324 69.027 51.324 68.6584V66.7973C51.324 64.938 49.812 63.426 47.9528 63.426H36.7688C34.9095 63.426 33.3976 64.938 33.3976 66.7973V68.6584C33.3976 69.0276 33.6992 69.3293 34.0685 69.3293ZM49.9822 66.7973V67.9875H34.7394V66.7973C34.7394 65.6764 35.648 64.7678 36.7688 64.7678H47.9528C49.0736 64.7678 49.9822 65.6764 49.9822 66.7973Z" fill="white" stroke="white" stroke-width="0.2"/>
<path d="M40.1716 60.3552L40.1716 60.3552L40.1706 60.3551C39.9837 60.3351 39.79 60.3946 39.6484 60.5224C39.5007 60.6503 39.4205 60.832 39.4205 61.0255V64.0969C39.4205 64.4661 39.7222 64.7678 40.0914 64.7678H44.6301C45.0057 64.7678 45.301 64.4655 45.301 64.0969V61.054C45.301 60.8657 45.2204 60.6847 45.0797 60.5574C44.9386 60.4297 44.7505 60.3693 44.5626 60.3894C43.1084 60.537 41.6258 60.5257 40.1716 60.3552ZM43.9592 61.7896V63.426H40.7623V61.7679C41.8212 61.854 42.8947 61.8644 43.9592 61.7896Z" fill="white" stroke="white" stroke-width="0.2"/>
<path d="M33.2488 112.02C33.2488 112.596 33.1048 113.13 32.8168 113.62C32.5288 114.1 32.1022 114.49 31.5368 114.788C30.9715 115.076 30.2835 115.22 29.4728 115.22C28.6728 115.22 27.9582 115.087 27.3288 114.82C26.6995 114.543 26.1928 114.148 25.8088 113.636C25.4355 113.124 25.2222 112.527 25.1688 111.844H27.5688C27.6222 112.303 27.8035 112.687 28.1128 112.996C28.4328 113.295 28.8542 113.444 29.3768 113.444C29.8462 113.444 30.2035 113.322 30.4488 113.076C30.7048 112.82 30.8328 112.495 30.8328 112.1C30.8328 111.748 30.7315 111.46 30.5288 111.236C30.3262 111.002 30.0702 110.815 29.7608 110.676C29.4515 110.538 29.0248 110.378 28.4808 110.196C27.7768 109.962 27.2008 109.732 26.7528 109.508C26.3048 109.274 25.9208 108.938 25.6008 108.5C25.2915 108.063 25.1368 107.492 25.1368 106.788C25.1368 105.818 25.4835 105.055 26.1768 104.5C26.8808 103.935 27.8088 103.652 28.9608 103.652C30.1555 103.652 31.1048 103.94 31.8088 104.516C32.5235 105.092 32.9288 105.86 33.0248 106.82H30.5928C30.5288 106.415 30.3582 106.084 30.0808 105.828C29.8035 105.562 29.4248 105.428 28.9448 105.428C28.5288 105.428 28.1928 105.54 27.9368 105.764C27.6808 105.978 27.5528 106.292 27.5528 106.708C27.5528 107.039 27.6488 107.316 27.8408 107.54C28.0435 107.754 28.2942 107.93 28.5928 108.068C28.9022 108.207 29.3182 108.362 29.8408 108.532C30.5662 108.788 31.1528 109.028 31.6008 109.252C32.0595 109.476 32.4488 109.812 32.7688 110.26C33.0888 110.708 33.2488 111.295 33.2488 112.02ZM39.0067 106.132C39.8707 106.132 40.6441 106.314 41.3267 106.676C42.0201 107.039 42.5641 107.567 42.9587 108.26C43.3534 108.943 43.5507 109.748 43.5507 110.676C43.5507 111.604 43.3534 112.41 42.9587 113.092C42.5641 113.775 42.0201 114.303 41.3267 114.676C40.6441 115.039 39.8707 115.22 39.0067 115.22C38.1427 115.22 37.3641 115.039 36.6707 114.676C35.9881 114.303 35.4494 113.775 35.0547 113.092C34.6601 112.41 34.4627 111.604 34.4627 110.676C34.4627 109.748 34.6601 108.943 35.0547 108.26C35.4494 107.567 35.9881 107.039 36.6707 106.676C37.3641 106.314 38.1427 106.132 39.0067 106.132ZM39.0067 108.084C38.3774 108.084 37.8441 108.308 37.4067 108.756C36.9694 109.194 36.7507 109.834 36.7507 110.676C36.7507 111.519 36.9694 112.164 37.4067 112.612C37.8441 113.05 38.3774 113.268 39.0067 113.268C39.6361 113.268 40.1694 113.05 40.6067 112.612C41.0441 112.164 41.2627 111.519 41.2627 110.676C41.2627 109.834 41.0441 109.194 40.6067 108.756C40.1694 108.308 39.6361 108.084 39.0067 108.084ZM49.1291 106.132C50.2704 106.132 51.2198 106.442 51.9771 107.06C52.7451 107.679 53.2251 108.522 53.4171 109.588H51.0331C50.9371 109.119 50.7184 108.751 50.3771 108.484C50.0358 108.207 49.6038 108.068 49.0811 108.068C48.4838 108.068 47.9824 108.292 47.5771 108.74C47.1824 109.178 46.9851 109.823 46.9851 110.676C46.9851 111.53 47.1824 112.18 47.5771 112.628C47.9824 113.066 48.4838 113.284 49.0811 113.284C49.6038 113.284 50.0358 113.151 50.3771 112.884C50.7184 112.607 50.9371 112.234 51.0331 111.764H53.4171C53.2251 112.831 52.7451 113.674 51.9771 114.292C51.2198 114.911 50.2704 115.22 49.1291 115.22C48.2651 115.22 47.4971 115.039 46.8251 114.676C46.1531 114.303 45.6304 113.775 45.2571 113.092C44.8838 112.41 44.6971 111.604 44.6971 110.676C44.6971 109.748 44.8838 108.943 45.2571 108.26C45.6304 107.567 46.1531 107.039 46.8251 106.676C47.4971 106.314 48.2651 106.132 49.1291 106.132ZM54.7641 103.7C54.7641 103.338 54.8921 103.044 55.1481 102.82C55.4041 102.586 55.7401 102.468 56.1561 102.468C56.5721 102.468 56.9081 102.586 57.1641 102.82C57.4201 103.044 57.5481 103.338 57.5481 103.7C57.5481 104.052 57.4201 104.346 57.1641 104.58C56.9081 104.804 56.5721 104.916 56.1561 104.916C55.7401 104.916 55.4041 104.804 55.1481 104.58C54.8921 104.346 54.7641 104.052 54.7641 103.7ZM57.2761 106.244V115.108H55.0201V106.244H57.2761ZM62.789 106.132C63.5356 106.132 64.1756 106.308 64.709 106.66C65.2423 107.012 65.621 107.487 65.845 108.084V106.244H68.085V115.108H65.845V113.252C65.621 113.85 65.2423 114.33 64.709 114.692C64.1756 115.044 63.5356 115.22 62.789 115.22C62.0423 115.22 61.3703 115.039 60.773 114.676C60.1756 114.314 59.7063 113.791 59.365 113.108C59.0343 112.415 58.869 111.604 58.869 110.676C58.869 109.748 59.0343 108.943 59.365 108.26C59.7063 107.567 60.1756 107.039 60.773 106.676C61.3703 106.314 62.0423 106.132 62.789 106.132ZM63.493 108.1C62.789 108.1 62.2236 108.33 61.797 108.788C61.3703 109.247 61.157 109.876 61.157 110.676C61.157 111.476 61.3703 112.106 61.797 112.564C62.2236 113.012 62.789 113.236 63.493 113.236C64.1756 113.236 64.7356 113.007 65.173 112.548C65.621 112.079 65.845 111.455 65.845 110.676C65.845 109.887 65.621 109.263 65.173 108.804C64.7356 108.335 64.1756 108.1 63.493 108.1ZM72.3855 103.268V115.108H70.1295V103.268H72.3855ZM85.6707 112.02C85.6707 112.596 85.5267 113.13 85.2387 113.62C84.9507 114.1 84.5241 114.49 83.9587 114.788C83.3934 115.076 82.7054 115.22 81.8947 115.22C81.0947 115.22 80.3801 115.087 79.7507 114.82C79.1214 114.543 78.6147 114.148 78.2307 113.636C77.8574 113.124 77.6441 112.527 77.5907 111.844H79.9907C80.0441 112.303 80.2254 112.687 80.5347 112.996C80.8547 113.295 81.2761 113.444 81.7987 113.444C82.2681 113.444 82.6254 113.322 82.8707 113.076C83.1267 112.82 83.2547 112.495 83.2547 112.1C83.2547 111.748 83.1534 111.46 82.9507 111.236C82.7481 111.002 82.4921 110.815 82.1827 110.676C81.8734 110.538 81.4467 110.378 80.9027 110.196C80.1987 109.962 79.6227 109.732 79.1747 109.508C78.7267 109.274 78.3427 108.938 78.0227 108.5C77.7134 108.063 77.5587 107.492 77.5587 106.788C77.5587 105.818 77.9054 105.055 78.5987 104.5C79.3027 103.935 80.2307 103.652 81.3827 103.652C82.5774 103.652 83.5267 103.94 84.2307 104.516C84.9454 105.092 85.3507 105.86 85.4467 106.82H83.0147C82.9507 106.415 82.7801 106.084 82.5027 105.828C82.2254 105.562 81.8467 105.428 81.3667 105.428C80.9507 105.428 80.6147 105.54 80.3587 105.764C80.1027 105.978 79.9747 106.292 79.9747 106.708C79.9747 107.039 80.0707 107.316 80.2627 107.54C80.4654 107.754 80.7161 107.93 81.0147 108.068C81.3241 108.207 81.7401 108.362 82.2627 108.532C82.9881 108.788 83.5747 109.028 84.0227 109.252C84.4814 109.476 84.8707 109.812 85.1907 110.26C85.5107 110.708 85.6707 111.295 85.6707 112.02ZM91.3166 106.132C92.4579 106.132 93.4073 106.442 94.1646 107.06C94.9326 107.679 95.4126 108.522 95.6046 109.588H93.2206C93.1246 109.119 92.9059 108.751 92.5646 108.484C92.2233 108.207 91.7913 108.068 91.2686 108.068C90.6713 108.068 90.1699 108.292 89.7646 108.74C89.3699 109.178 89.1726 109.823 89.1726 110.676C89.1726 111.53 89.3699 112.18 89.7646 112.628C90.1699 113.066 90.6713 113.284 91.2686 113.284C91.7913 113.284 92.2233 113.151 92.5646 112.884C92.9059 112.607 93.1246 112.234 93.2206 111.764H95.6046C95.4126 112.831 94.9326 113.674 94.1646 114.292C93.4073 114.911 92.4579 115.22 91.3166 115.22C90.4526 115.22 89.6846 115.039 89.0126 114.676C88.3406 114.303 87.8179 113.775 87.4446 113.092C87.0713 112.41 86.8846 111.604 86.8846 110.676C86.8846 109.748 87.0713 108.943 87.4446 108.26C87.8179 107.567 88.3406 107.039 89.0126 106.676C89.6846 106.314 90.4526 106.132 91.3166 106.132ZM96.9516 103.7C96.9516 103.338 97.0796 103.044 97.3356 102.82C97.5916 102.586 97.9276 102.468 98.3436 102.468C98.7596 102.468 99.0956 102.586 99.3516 102.82C99.6076 103.044 99.7356 103.338 99.7356 103.7C99.7356 104.052 99.6076 104.346 99.3516 104.58C99.0956 104.804 98.7596 104.916 98.3436 104.916C97.9276 104.916 97.5916 104.804 97.3356 104.58C97.0796 104.346 96.9516 104.052 96.9516 103.7ZM99.4636 106.244V115.108H97.2076V106.244H99.4636ZM109.84 110.34C109.84 110.564 109.814 110.82 109.76 111.108H103.264C103.296 111.898 103.51 112.479 103.904 112.852C104.299 113.226 104.79 113.412 105.376 113.412C105.899 113.412 106.331 113.284 106.672 113.028C107.024 112.772 107.248 112.426 107.344 111.988H109.728C109.611 112.607 109.36 113.162 108.976 113.652C108.592 114.143 108.096 114.527 107.488 114.804C106.891 115.082 106.224 115.22 105.488 115.22C104.624 115.22 103.856 115.039 103.184 114.676C102.512 114.303 101.99 113.775 101.616 113.092C101.243 112.41 101.056 111.604 101.056 110.676C101.056 109.748 101.243 108.943 101.616 108.26C101.99 107.567 102.512 107.039 103.184 106.676C103.856 106.314 104.624 106.132 105.488 106.132C106.363 106.132 107.126 106.314 107.776 106.676C108.438 107.039 108.944 107.54 109.296 108.18C109.659 108.81 109.84 109.53 109.84 110.34ZM107.568 110.116C107.6 109.391 107.408 108.842 106.992 108.468C106.587 108.095 106.086 107.908 105.488 107.908C104.88 107.908 104.368 108.095 103.952 108.468C103.536 108.842 103.307 109.391 103.264 110.116H107.568ZM116.722 106.116C117.746 106.116 118.562 106.452 119.17 107.124C119.778 107.796 120.082 108.74 120.082 109.956V115.108H117.842V110.212C117.842 109.508 117.661 108.964 117.298 108.58C116.935 108.186 116.439 107.988 115.81 107.988C115.17 107.988 114.658 108.196 114.274 108.612C113.89 109.028 113.698 109.626 113.698 110.404V115.108H111.442V106.244H113.698V108.02C113.933 107.423 114.317 106.959 114.85 106.628C115.394 106.287 116.018 106.116 116.722 106.116ZM126.051 106.132C127.192 106.132 128.142 106.442 128.899 107.06C129.667 107.679 130.147 108.522 130.339 109.588H127.955C127.859 109.119 127.64 108.751 127.299 108.484C126.958 108.207 126.526 108.068 126.003 108.068C125.406 108.068 124.904 108.292 124.499 108.74C124.104 109.178 123.907 109.823 123.907 110.676C123.907 111.53 124.104 112.18 124.499 112.628C124.904 113.066 125.406 113.284 126.003 113.284C126.526 113.284 126.958 113.151 127.299 112.884C127.64 112.607 127.859 112.234 127.955 111.764H130.339C130.147 112.831 129.667 113.674 128.899 114.292C128.142 114.911 127.192 115.22 126.051 115.22C125.187 115.22 124.419 115.039 123.747 114.676C123.075 114.303 122.552 113.775 122.179 113.092C121.806 112.41 121.619 111.604 121.619 110.676C121.619 109.748 121.806 108.943 122.179 108.26C122.552 107.567 123.075 107.039 123.747 106.676C124.419 106.314 125.187 106.132 126.051 106.132ZM140.278 110.34C140.278 110.564 140.251 110.82 140.198 111.108H133.702C133.734 111.898 133.947 112.479 134.342 112.852C134.737 113.226 135.227 113.412 135.814 113.412C136.337 113.412 136.769 113.284 137.11 113.028C137.462 112.772 137.686 112.426 137.782 111.988H140.166C140.049 112.607 139.798 113.162 139.414 113.652C139.03 114.143 138.534 114.527 137.926 114.804C137.329 115.082 136.662 115.22 135.926 115.22C135.062 115.22 134.294 115.039 133.622 114.676C132.95 114.303 132.427 113.775 132.054 113.092C131.681 112.41 131.494 111.604 131.494 110.676C131.494 109.748 131.681 108.943 132.054 108.26C132.427 107.567 132.95 107.039 133.622 106.676C134.294 106.314 135.062 106.132 135.926 106.132C136.801 106.132 137.563 106.314 138.214 106.676C138.875 107.039 139.382 107.54 139.734 108.18C140.097 108.81 140.278 109.53 140.278 110.34ZM138.006 110.116C138.038 109.391 137.846 108.842 137.43 108.468C137.025 108.095 136.523 107.908 135.926 107.908C135.318 107.908 134.806 108.095 134.39 108.468C133.974 108.842 133.745 109.391 133.702 110.116H138.006ZM144.935 106.132C146.013 106.132 146.877 106.404 147.527 106.948C148.178 107.492 148.583 108.218 148.743 109.124H146.631C146.546 108.698 146.354 108.356 146.055 108.1C145.757 107.844 145.367 107.716 144.887 107.716C144.503 107.716 144.205 107.807 143.991 107.988C143.778 108.17 143.671 108.415 143.671 108.724C143.671 108.97 143.757 109.167 143.927 109.316C144.098 109.466 144.311 109.583 144.567 109.668C144.823 109.754 145.191 109.855 145.671 109.972C146.343 110.122 146.887 110.282 147.303 110.452C147.73 110.612 148.093 110.874 148.391 111.236C148.701 111.588 148.855 112.068 148.855 112.676C148.855 113.434 148.557 114.047 147.959 114.516C147.373 114.986 146.578 115.22 145.575 115.22C144.423 115.22 143.501 114.964 142.807 114.452C142.114 113.93 141.693 113.188 141.543 112.228H143.703C143.757 112.666 143.949 113.012 144.279 113.268C144.61 113.514 145.042 113.636 145.575 113.636C145.959 113.636 146.253 113.546 146.455 113.364C146.658 113.172 146.759 112.927 146.759 112.628C146.759 112.372 146.669 112.164 146.487 112.004C146.317 111.844 146.098 111.722 145.831 111.636C145.575 111.551 145.207 111.45 144.727 111.332C144.066 111.183 143.527 111.034 143.111 110.884C142.706 110.724 142.354 110.474 142.055 110.132C141.767 109.791 141.623 109.322 141.623 108.724C141.623 107.956 141.917 107.332 142.503 106.852C143.09 106.372 143.901 106.132 144.935 106.132Z" fill="white"/>
</g>
<defs>
<filter id="filter0_d" x="0" y="0" width="191.268" height="154.771" filterUnits="userSpaceOnUse" color-interpolation-filters="sRGB">
<feFlood flood-opacity="0" result="BackgroundImageFix"/>
<feColorMatrix in="SourceAlpha" type="matrix" values="0 0 0 0 0 0 0 0 0 0 0 0 0 0 0 0 0 0 127 0"/>
<feOffset dy="4"/>
<feGaussianBlur stdDeviation="2.5"/>
<feColorMatrix type="matrix" values="0 0 0 0 0 0 0 0 0 0 0 0 0 0 0 0 0 0 0.1 0"/>
<feBlend mode="normal" in2="BackgroundImageFix" result="effect1_dropShadow"/>
<feBlend mode="normal" in="SourceGraphic" in2="effect1_dropShadow" result="shape"/>
</filter>
<linearGradient id="paint0_linear_social_science_icon" x1="177.5" y1="146.229" x2="5.00001" y2="1.22932" gradientUnits="userSpaceOnUse">
<stop stop-color="#FF8058"/>
<stop offset="1" stop-color="#FFA589"/>
</linearGradient>
</defs>
</svg>
