<svg width="311" height="250" viewBox="0 0 311 250" fill="none" xmlns="http://www.w3.org/2000/svg">
<g filter="url(#filter0_d)">
<rect x="5" y="1" width="300.504" height="240" rx="16" fill="url(#paint0_linear_1634)"/>
<mask id="mask0" mask-type="alpha" maskUnits="userSpaceOnUse" x="5" y="1" width="301" height="240">
<rect x="5" y="1" width="300.504" height="240" rx="16" fill="#F05C8C"/>
</mask>
<g mask="url(#mask0)">
<path fill-rule="evenodd" clip-rule="evenodd" d="M295.71 -165.191C326.486 -167.491 364.479 -182.759 385.911 -160.552C408.101 -137.561 387.509 -98.9713 390.338 -67.1436C392.314 -44.9075 402.236 -24.7299 399.956 -2.52293C397.158 24.7198 393.498 52.9723 375.851 73.9137C355.364 98.2251 327.306 117.657 295.71 121.182C262.331 124.906 226.142 116.121 201.432 93.3726C177.718 71.5401 177.141 35.9532 169.199 4.71193C161.871 -24.1143 148.462 -52.9766 156.985 -81.4725C165.597 -110.268 189.069 -132.233 214.801 -147.762C239.015 -162.375 267.509 -163.083 295.71 -165.191Z" fill="#EF91FF"/>
<path fill-rule="evenodd" clip-rule="evenodd" d="M37.0523 109.379C67.8284 107.079 105.821 91.811 127.253 114.018C149.443 137.009 128.852 175.599 131.68 207.427C133.656 229.663 143.578 249.841 141.298 272.048C138.5 299.29 134.84 327.543 117.193 348.484C96.7062 372.796 68.648 392.227 37.0523 395.752C3.67293 399.476 -32.5157 390.692 -57.2257 367.943C-80.9404 346.111 -81.5167 310.524 -89.4585 279.282C-96.7865 250.456 -110.196 221.594 -101.673 193.098C-93.061 164.302 -69.5892 142.337 -43.8565 126.808C-19.6434 112.196 8.85072 111.487 37.0523 109.379Z" fill="#EF91FF"/>
</g>
<path d="M49.317 186.056V188.744H42.189V193.28H47.901V195.872H42.189V203H38.805V186.056H49.317ZM57.7459 189.536C59.0419 189.536 60.2019 189.808 61.2259 190.352C62.2659 190.896 63.0819 191.688 63.6739 192.728C64.2659 193.752 64.5619 194.96 64.5619 196.352C64.5619 197.744 64.2659 198.952 63.6739 199.976C63.0819 201 62.2659 201.792 61.2259 202.352C60.2019 202.896 59.0419 203.168 57.7459 203.168C56.4499 203.168 55.2819 202.896 54.2419 202.352C53.2179 201.792 52.4099 201 51.8179 199.976C51.2259 198.952 50.9299 197.744 50.9299 196.352C50.9299 194.96 51.2259 193.752 51.8179 192.728C52.4099 191.688 53.2179 190.896 54.2419 190.352C55.2819 189.808 56.4499 189.536 57.7459 189.536ZM57.7459 192.464C56.8019 192.464 56.0019 192.8 55.3459 193.472C54.6899 194.128 54.3619 195.088 54.3619 196.352C54.3619 197.616 54.6899 198.584 55.3459 199.256C56.0019 199.912 56.8019 200.24 57.7459 200.24C58.6899 200.24 59.4899 199.912 60.1459 199.256C60.8019 198.584 61.1299 197.616 61.1299 196.352C61.1299 195.088 60.8019 194.128 60.1459 193.472C59.4899 192.8 58.6899 192.464 57.7459 192.464ZM70.3375 192.248C70.8335 191.4 71.4895 190.736 72.3055 190.256C73.1215 189.76 74.0335 189.512 75.0415 189.512V193.136H74.0575C71.5775 193.136 70.3375 194.288 70.3375 196.592V203H66.9535V189.704H70.3375V192.248ZM93.8344 189.512C95.4504 189.512 96.7224 190.016 97.6504 191.024C98.5944 192.016 99.0664 193.432 99.0664 195.272V203H95.7064V195.656C95.7064 194.632 95.4424 193.848 94.9144 193.304C94.4024 192.744 93.6904 192.464 92.7784 192.464C91.8344 192.464 91.0824 192.76 90.5224 193.352C89.9624 193.944 89.6824 194.808 89.6824 195.944V203H86.3224V195.656C86.3224 194.632 86.0584 193.848 85.5304 193.304C85.0184 192.744 84.3064 192.464 83.3944 192.464C82.4504 192.464 81.6984 192.76 81.1384 193.352C80.5784 193.944 80.2984 194.808 80.2984 195.944V203H76.9144V189.704H80.2984V192.224C80.6504 191.36 81.2024 190.696 81.9544 190.232C82.7224 189.752 83.6104 189.512 84.6184 189.512C85.6904 189.512 86.6184 189.768 87.4024 190.28C88.2024 190.792 88.8024 191.528 89.2024 192.488C89.6184 191.576 90.2344 190.856 91.0504 190.328C91.8824 189.784 92.8104 189.512 93.8344 189.512ZM114.759 189.704V203H111.375V200.312C111.023 201.208 110.439 201.912 109.623 202.424C108.823 202.92 107.895 203.168 106.839 203.168C105.303 203.168 104.079 202.664 103.167 201.656C102.255 200.648 101.799 199.24 101.799 197.432V189.704H105.159V197.048C105.159 198.104 105.431 198.928 105.975 199.52C106.519 200.096 107.255 200.384 108.183 200.384C109.159 200.384 109.935 200.072 110.511 199.448C111.087 198.824 111.375 197.928 111.375 196.76V189.704H114.759ZM121.22 185.24V203H117.836V185.24H121.22ZM129.49 189.536C130.61 189.536 131.57 189.8 132.37 190.328C133.17 190.856 133.738 191.568 134.074 192.464V189.704H137.434V203H134.074V200.216C133.738 201.112 133.17 201.832 132.37 202.376C131.57 202.904 130.61 203.168 129.49 203.168C128.37 203.168 127.362 202.896 126.466 202.352C125.57 201.808 124.866 201.024 124.354 200C123.858 198.96 123.61 197.744 123.61 196.352C123.61 194.96 123.858 193.752 124.354 192.728C124.866 191.688 125.57 190.896 126.466 190.352C127.362 189.808 128.37 189.536 129.49 189.536ZM130.546 192.488C129.49 192.488 128.642 192.832 128.002 193.52C127.362 194.208 127.042 195.152 127.042 196.352C127.042 197.552 127.362 198.496 128.002 199.184C128.642 199.856 129.49 200.192 130.546 200.192C131.57 200.192 132.41 199.848 133.066 199.16C133.738 198.456 134.074 197.52 134.074 196.352C134.074 195.168 133.738 194.232 133.066 193.544C132.41 192.84 131.57 192.488 130.546 192.488ZM145.084 189.536C146.7 189.536 147.996 189.944 148.972 190.76C149.948 191.576 150.556 192.664 150.796 194.024H147.628C147.5 193.384 147.212 192.872 146.764 192.488C146.316 192.104 145.732 191.912 145.012 191.912C144.436 191.912 143.988 192.048 143.668 192.32C143.348 192.592 143.188 192.96 143.188 193.424C143.188 193.792 143.316 194.088 143.572 194.312C143.828 194.536 144.148 194.712 144.532 194.84C144.916 194.968 145.468 195.12 146.188 195.296C147.196 195.52 148.012 195.76 148.636 196.016C149.276 196.256 149.82 196.648 150.268 197.192C150.732 197.72 150.964 198.44 150.964 199.352C150.964 200.488 150.516 201.408 149.62 202.112C148.74 202.816 147.548 203.168 146.044 203.168C144.316 203.168 142.932 202.784 141.892 202.016C140.852 201.232 140.22 200.12 139.996 198.68H143.236C143.316 199.336 143.604 199.856 144.1 200.24C144.596 200.608 145.244 200.792 146.044 200.792C146.62 200.792 147.06 200.656 147.364 200.384C147.668 200.096 147.82 199.728 147.82 199.28C147.82 198.896 147.684 198.584 147.412 198.344C147.156 198.104 146.828 197.92 146.428 197.792C146.044 197.664 145.492 197.512 144.772 197.336C143.78 197.112 142.972 196.888 142.348 196.664C141.74 196.424 141.212 196.048 140.764 195.536C140.332 195.024 140.116 194.32 140.116 193.424C140.116 192.272 140.556 191.336 141.436 190.616C142.316 189.896 143.532 189.536 145.084 189.536Z" fill="white"/>
<path d="M115.697 38.2215H75.4827L59.6976 93.7897C59.2202 95.2708 57.8657 96.2961 56.3104 96.3498C56.2665 96.3498 56.2242 96.3509 56.1825 96.3509C54.6782 96.3509 53.3178 95.4355 52.7552 94.0312L46.3018 77.8983H40.1884C38.1496 77.8984 36.4981 76.2458 36.4981 74.2075C36.4981 72.1691 38.1513 70.5166 40.1884 70.5166H48.8011C50.3086 70.5166 51.6679 71.4352 52.2284 72.8373L55.8046 81.7773L69.2773 33.4022C69.7679 31.8754 71.1882 30.8403 72.7914 30.8403H115.697C117.737 30.8403 119.388 32.493 119.388 34.5306C119.388 36.5683 117.735 38.2215 115.697 38.2215ZM117.686 87.8165L103.137 71.475L117.001 56.0854C117.246 55.8151 117.306 55.426 117.16 55.0925C117.011 54.7596 116.681 54.5449 116.316 54.5449H107.546C107.278 54.5449 107.025 54.6618 106.847 54.8646L97.5407 65.6557L88.3062 54.868C88.1317 54.6629 87.8755 54.5449 87.6052 54.5449H78.4339C78.0703 54.5449 77.7407 54.7585 77.5934 55.0894C77.4429 55.4212 77.5044 55.8097 77.7466 56.0806L91.4556 71.4752L77.022 87.8202C76.7809 88.0926 76.7236 88.4806 76.8708 88.8102C77.022 89.142 77.3516 89.353 77.7126 89.353H86.8032C87.0769 89.353 87.3362 89.2322 87.5109 89.0212L97.1442 77.4616L107.006 89.0301C107.183 89.2364 107.439 89.3541 107.709 89.3541H116.999C117.364 89.3541 117.693 89.142 117.841 88.8102C117.989 88.4768 117.93 88.0889 117.686 87.8165Z" fill="white"/>
</g>
<defs>
<filter id="filter0_d" x="0" y="0" width="310.504" height="250" filterUnits="userSpaceOnUse" color-interpolation-filters="sRGB">
<feFlood flood-opacity="0" result="BackgroundImageFix"/>
<feColorMatrix in="SourceAlpha" type="matrix" values="0 0 0 0 0 0 0 0 0 0 0 0 0 0 0 0 0 0 127 0"/>
<feOffset dy="4"/>
<feGaussianBlur stdDeviation="2.5"/>
<feColorMatrix type="matrix" values="0 0 0 0 0 0 0 0 0 0 0 0 0 0 0 0 0 0 0.1 0"/>
<feBlend mode="normal" in2="BackgroundImageFix" result="effect1_dropShadow"/>
<feBlend mode="normal" in="SourceGraphic" in2="effect1_dropShadow" result="shape"/>
</filter>
<linearGradient id="paint0_linear_1634" x1="305.061" y1="241.38" x2="4.99999" y2="-8.11785" gradientUnits="userSpaceOnUse">
<stop stop-color="#E543FF"/>
<stop offset="1" stop-color="#EF8CFF"/>
</linearGradient>
</defs>
</svg>
