<svg width="311" height="250" viewBox="0 0 311 250" fill="none" xmlns="http://www.w3.org/2000/svg">
<g filter="url(#filter0_d)">
<rect x="5.0083" y="1" width="300.504" height="240" rx="16" fill="url(#paint0_linear_1633)"/>
<mask id="mask0" mask-type="alpha" maskUnits="userSpaceOnUse" x="5" y="1" width="301" height="240">
<rect x="5.0083" y="1" width="300.504" height="240" rx="16" fill="#F05C8C"/>
</mask>
<g mask="url(#mask0)">
<path fill-rule="evenodd" clip-rule="evenodd" d="M295.719 -165.191C326.495 -167.491 364.487 -182.759 385.92 -160.552C408.109 -137.561 387.518 -98.9713 390.346 -67.1436C392.323 -44.9075 402.245 -24.7299 399.964 -2.52293C397.166 24.7198 393.507 52.9723 375.859 73.9137C355.372 98.2251 327.314 117.657 295.719 121.182C262.339 124.906 226.151 116.121 201.441 93.3726C177.726 71.5401 177.15 35.9532 169.208 4.71193C161.88 -24.1143 148.47 -52.9766 156.993 -81.4725C165.605 -110.268 189.077 -132.233 214.81 -147.762C239.023 -162.375 267.517 -163.083 295.719 -165.191Z" fill="#FFC46A"/>
<path fill-rule="evenodd" clip-rule="evenodd" d="M37.0606 109.379C67.8367 107.079 105.829 91.811 127.262 114.018C149.451 137.009 128.86 175.599 131.688 207.427C133.665 229.663 143.587 249.841 141.306 272.048C138.508 299.29 134.849 327.543 117.202 348.484C96.7144 372.796 68.6563 392.227 37.0606 395.752C3.6812 399.476 -32.5074 390.692 -57.2174 367.943C-80.9321 346.111 -81.5084 310.524 -89.4503 279.282C-96.7782 250.456 -110.188 221.594 -101.665 193.098C-93.0527 164.302 -69.5809 142.337 -43.8483 126.808C-19.6351 112.196 8.85899 111.487 37.0606 109.379Z" fill="#FFC46A"/>
</g>
<path d="M42.1971 197.712V204H38.8131V187.056H44.9811C46.9811 187.056 48.4851 187.536 49.4931 188.496C50.5171 189.456 51.0291 190.76 51.0291 192.408C51.0291 194.024 50.5011 195.312 49.4451 196.272C48.4051 197.232 46.9171 197.712 44.9811 197.712H42.1971ZM44.6211 195C46.6051 195 47.5971 194.136 47.5971 192.408C47.5971 191.56 47.3651 190.912 46.9011 190.464C46.4371 190.016 45.6771 189.792 44.6211 189.792H42.1971V195H44.6211ZM58.4352 190.536C59.5552 190.536 60.5152 190.8 61.3152 191.328C62.1152 191.856 62.6832 192.568 63.0192 193.464V190.704H66.3792V204H63.0192V201.216C62.6832 202.112 62.1152 202.832 61.3152 203.376C60.5152 203.904 59.5552 204.168 58.4352 204.168C57.3152 204.168 56.3072 203.896 55.4112 203.352C54.5152 202.808 53.8112 202.024 53.2992 201C52.8032 199.96 52.5552 198.744 52.5552 197.352C52.5552 195.96 52.8032 194.752 53.2992 193.728C53.8112 192.688 54.5152 191.896 55.4112 191.352C56.3072 190.808 57.3152 190.536 58.4352 190.536ZM59.4912 193.488C58.4352 193.488 57.5872 193.832 56.9472 194.52C56.3072 195.208 55.9872 196.152 55.9872 197.352C55.9872 198.552 56.3072 199.496 56.9472 200.184C57.5872 200.856 58.4352 201.192 59.4912 201.192C60.5152 201.192 61.3552 200.848 62.0112 200.16C62.6832 199.456 63.0192 198.52 63.0192 197.352C63.0192 196.168 62.6832 195.232 62.0112 194.544C61.3552 193.84 60.5152 193.488 59.4912 193.488ZM74.0299 190.536C75.6459 190.536 76.9419 190.944 77.9179 191.76C78.8939 192.576 79.5019 193.664 79.7419 195.024H76.5739C76.4459 194.384 76.1579 193.872 75.7099 193.488C75.2619 193.104 74.6779 192.912 73.9579 192.912C73.3819 192.912 72.9339 193.048 72.6139 193.32C72.2939 193.592 72.1339 193.96 72.1339 194.424C72.1339 194.792 72.2619 195.088 72.5179 195.312C72.7739 195.536 73.0939 195.712 73.4779 195.84C73.8619 195.968 74.4139 196.12 75.1339 196.296C76.1419 196.52 76.9579 196.76 77.5819 197.016C78.2219 197.256 78.7659 197.648 79.2139 198.192C79.6779 198.72 79.9099 199.44 79.9099 200.352C79.9099 201.488 79.4619 202.408 78.5659 203.112C77.6859 203.816 76.4939 204.168 74.9899 204.168C73.2619 204.168 71.8779 203.784 70.8379 203.016C69.7979 202.232 69.1659 201.12 68.9419 199.68H72.1819C72.2619 200.336 72.5499 200.856 73.0459 201.24C73.5419 201.608 74.1899 201.792 74.9899 201.792C75.5659 201.792 76.0059 201.656 76.3099 201.384C76.6139 201.096 76.7659 200.728 76.7659 200.28C76.7659 199.896 76.6299 199.584 76.3579 199.344C76.1019 199.104 75.7739 198.92 75.3739 198.792C74.9899 198.664 74.4379 198.512 73.7179 198.336C72.7259 198.112 71.9179 197.888 71.2939 197.664C70.6859 197.424 70.1579 197.048 69.7099 196.536C69.2779 196.024 69.0619 195.32 69.0619 194.424C69.0619 193.272 69.5019 192.336 70.3819 191.616C71.2619 190.896 72.4779 190.536 74.0299 190.536ZM89.5343 201.096V204H87.7583C86.2703 204 85.1263 203.64 84.3263 202.92C83.5423 202.2 83.1503 201 83.1503 199.32V193.56H81.3023V190.704H83.1503V187.416H86.5343V190.704H89.5103V193.56H86.5343V199.368C86.5343 200.008 86.6623 200.456 86.9183 200.712C87.1743 200.968 87.6063 201.096 88.2143 201.096H89.5343ZM110.852 187.056L105.116 198.072V204H101.708V198.072L95.9479 187.056H99.8359L103.436 194.472L107.036 187.056H110.852ZM125.169 196.848C125.169 197.184 125.129 197.568 125.049 198H115.305C115.353 199.184 115.673 200.056 116.265 200.616C116.857 201.176 117.593 201.456 118.473 201.456C119.257 201.456 119.905 201.264 120.417 200.88C120.945 200.496 121.281 199.976 121.425 199.32H125.001C124.825 200.248 124.449 201.08 123.873 201.816C123.297 202.552 122.553 203.128 121.641 203.544C120.745 203.96 119.745 204.168 118.641 204.168C117.345 204.168 116.193 203.896 115.185 203.352C114.177 202.792 113.393 202 112.833 200.976C112.273 199.952 111.993 198.744 111.993 197.352C111.993 195.96 112.273 194.752 112.833 193.728C113.393 192.688 114.177 191.896 115.185 191.352C116.193 190.808 117.345 190.536 118.641 190.536C119.953 190.536 121.097 190.808 122.073 191.352C123.065 191.896 123.825 192.648 124.353 193.608C124.897 194.552 125.169 195.632 125.169 196.848ZM121.761 196.512C121.809 195.424 121.521 194.6 120.897 194.04C120.289 193.48 119.537 193.2 118.641 193.2C117.729 193.2 116.961 193.48 116.337 194.04C115.713 194.6 115.369 195.424 115.305 196.512H121.761ZM132.779 190.536C133.899 190.536 134.859 190.8 135.659 191.328C136.459 191.856 137.027 192.568 137.363 193.464V190.704H140.723V204H137.363V201.216C137.027 202.112 136.459 202.832 135.659 203.376C134.859 203.904 133.899 204.168 132.779 204.168C131.659 204.168 130.651 203.896 129.755 203.352C128.859 202.808 128.155 202.024 127.643 201C127.147 199.96 126.899 198.744 126.899 197.352C126.899 195.96 127.147 194.752 127.643 193.728C128.155 192.688 128.859 191.896 129.755 191.352C130.651 190.808 131.659 190.536 132.779 190.536ZM133.835 193.488C132.779 193.488 131.931 193.832 131.291 194.52C130.651 195.208 130.331 196.152 130.331 197.352C130.331 198.552 130.651 199.496 131.291 200.184C131.931 200.856 132.779 201.192 133.835 201.192C134.859 201.192 135.699 200.848 136.355 200.16C137.027 199.456 137.363 198.52 137.363 197.352C137.363 196.168 137.027 195.232 136.355 194.544C135.699 193.84 134.859 193.488 133.835 193.488ZM147.174 193.248C147.67 192.4 148.326 191.736 149.142 191.256C149.958 190.76 150.87 190.512 151.878 190.512V194.136H150.894C148.414 194.136 147.174 195.288 147.174 197.592V204H143.79V190.704H147.174V193.248Z" fill="white"/>
<path d="M104.871 43.6331H63.7648C62.5018 43.6331 61.4684 42.5997 61.4684 41.3367C61.4684 40.0736 62.5018 39.0403 63.7648 39.0403H104.871C106.134 39.0403 107.167 40.0736 107.167 41.3367C107.167 42.5997 106.145 43.6331 104.871 43.6331Z" fill="white"/>
<path d="M122.714 114.111H45.9217C40.7318 114.111 36.5063 109.885 36.5063 104.695V48.4556C36.5063 43.2657 40.7318 39.0403 45.9217 39.0403H54.9582C56.2212 39.0403 57.2546 40.0736 57.2546 41.3367C57.2546 42.5997 56.2212 43.6331 54.9582 43.6331H45.9217C43.2579 43.6331 41.0992 45.7918 41.0992 48.4556V104.695C41.0992 107.348 43.2579 109.518 45.9217 109.518H122.714C125.378 109.518 127.537 107.359 127.537 104.695V48.4556C127.537 45.8032 125.378 43.6331 122.714 43.6331H113.678C112.415 43.6331 111.382 42.5997 111.382 41.3367C111.382 40.0736 112.415 39.0403 113.678 39.0403H122.714C127.904 39.0403 132.13 43.2657 132.13 48.4556V104.695C132.13 109.885 127.904 114.111 122.714 114.111Z" fill="white"/>
<path d="M59.356 51.4408C55.6587 51.4408 52.6504 48.4325 52.6504 44.7353V37.9263C52.6504 34.2291 55.6587 31.2208 59.356 31.2208C63.0532 31.2208 66.0616 34.2291 66.0616 37.9263V44.7353C66.0616 48.444 63.0532 51.4408 59.356 51.4408ZM59.356 35.8251C58.1963 35.8251 57.2433 36.7666 57.2433 37.9378V44.7467C57.2433 45.9064 58.1848 46.8595 59.356 46.8595C60.5272 46.8595 61.4687 45.9179 61.4687 44.7467V37.9378C61.4687 36.7666 60.5157 35.8251 59.356 35.8251Z" fill="white"/>
<path d="M109.281 51.4408C105.583 51.4408 102.575 48.4325 102.575 44.7353V37.9263C102.575 34.2291 105.583 31.2208 109.281 31.2208C112.978 31.2208 115.986 34.2291 115.986 37.9263V44.7353C115.975 48.444 112.978 51.4408 109.281 51.4408ZM109.281 35.8251C108.121 35.8251 107.168 36.7666 107.168 37.9378V44.7467C107.168 45.9064 108.109 46.8595 109.281 46.8595C110.452 46.8595 111.393 45.9179 111.393 44.7467V37.9378C111.382 36.7666 110.44 35.8251 109.281 35.8251Z" fill="white"/>
<path d="M129.833 57.1359H38.8029C38.1714 57.1359 37.6547 56.6192 37.6547 55.9877C37.6547 55.3562 38.1714 54.8395 38.8029 54.8395H129.833C130.465 54.8395 130.982 55.3562 130.982 55.9877C130.982 56.6192 130.465 57.1359 129.833 57.1359Z" fill="white"/>
<path d="M79.7164 95.7023L79.7163 95.7024L79.7256 95.7113C80.045 96.0147 80.4542 96.1818 80.8852 96.1818C81.2994 96.1818 81.7323 96.0176 82.0512 95.6706C82.6855 95.0268 82.6826 93.9934 82.0425 93.3533L71.465 82.7758L82.0425 72.1983C82.6856 71.5553 82.6856 70.5153 82.0425 69.8723C81.3994 69.2292 80.3595 69.2292 79.7164 69.8723L80.0687 70.2246L79.7164 69.8723L67.9702 81.6185L67.97 81.6184L67.9607 81.6282C67.6739 81.9309 67.4907 82.3384 67.4907 82.7873C67.4907 83.225 67.6548 83.6407 67.9702 83.9561L79.7164 95.7023Z" fill="white" stroke="white"/>
<path d="M69.1389 84.4356H98.4988C99.4065 84.4356 100.147 83.6951 100.147 82.7874C100.147 81.8797 99.4065 81.1392 98.4988 81.1392H69.1389C68.2313 81.1392 67.4907 81.8797 67.4907 82.7874C67.4907 83.6951 68.2313 84.4356 69.1389 84.4356Z" fill="white" stroke="white"/>
</g>
<defs>
<filter id="filter0_d" x="0.00830078" y="0" width="310.504" height="250" filterUnits="userSpaceOnUse" color-interpolation-filters="sRGB">
<feFlood flood-opacity="0" result="BackgroundImageFix"/>
<feColorMatrix in="SourceAlpha" type="matrix" values="0 0 0 0 0 0 0 0 0 0 0 0 0 0 0 0 0 0 127 0"/>
<feOffset dy="4"/>
<feGaussianBlur stdDeviation="2.5"/>
<feColorMatrix type="matrix" values="0 0 0 0 0 0 0 0 0 0 0 0 0 0 0 0 0 0 0.1 0"/>
<feBlend mode="normal" in2="BackgroundImageFix" result="effect1_dropShadow"/>
<feBlend mode="normal" in="SourceGraphic" in2="effect1_dropShadow" result="shape"/>
</filter>
<linearGradient id="paint0_linear_1633" x1="306.283" y1="241.76" x2="4.56478" y2="1.38016" gradientUnits="userSpaceOnUse">
<stop stop-color="#FFB33D"/>
<stop offset="1" stop-color="#FFC56D"/>
</linearGradient>
</defs>
</svg>
