<svg width="311" height="250" viewBox="0 0 311 250" fill="none" xmlns="http://www.w3.org/2000/svg">
<g filter="url(#filter0_d)">
<rect x="5" y="1" width="300.504" height="240" rx="16" fill="url(#paint0_linear)"/>
<mask id="mask0" mask-type="alpha" maskUnits="userSpaceOnUse" x="5" y="1" width="301" height="240">
<rect x="5" y="1" width="300.504" height="240" rx="16" fill="#F05C8C"/>
</mask>
<g mask="url(#mask0)">
<path fill-rule="evenodd" clip-rule="evenodd" d="M295.71 -165.191C326.486 -167.491 364.479 -182.759 385.911 -160.552C408.101 -137.561 387.509 -98.9713 390.338 -67.1436C392.314 -44.9075 402.236 -24.7299 399.956 -2.52293C397.158 24.7198 393.498 52.9723 375.851 73.9137C355.364 98.2251 327.306 117.657 295.71 121.182C262.331 124.906 226.142 116.121 201.432 93.3726C177.718 71.5401 177.141 35.9532 169.199 4.71193C161.871 -24.1143 148.462 -52.9767 156.985 -81.4725C165.597 -110.268 189.069 -132.233 214.801 -147.762C239.015 -162.375 267.509 -163.083 295.71 -165.191Z" fill="#FF78A3"/>
<path fill-rule="evenodd" clip-rule="evenodd" d="M37.0523 109.379C67.8284 107.079 105.821 91.811 127.253 114.018C149.443 137.009 128.852 175.599 131.68 207.427C133.656 229.663 143.578 249.841 141.298 272.048C138.5 299.29 134.84 327.543 117.193 348.484C96.7062 372.796 68.648 392.227 37.0523 395.752C3.67293 399.476 -32.5157 390.692 -57.2257 367.943C-80.9404 346.111 -81.5167 310.524 -89.4585 279.282C-96.7865 250.456 -110.196 221.594 -101.673 193.098C-93.061 164.302 -69.5892 142.337 -43.8565 126.808C-19.6434 112.196 8.85072 111.487 37.0523 109.379Z" fill="#FF78A3"/>
</g>
<path d="M53.157 203H49.773L42.189 191.48V203H38.805V186.056H42.189L49.773 197.672V186.056H53.157V203ZM63.8751 185.888C65.9871 185.888 67.7391 186.432 69.1311 187.52C70.5231 188.608 71.4431 190.088 71.8911 191.96H68.3391C67.9711 191.048 67.3951 190.328 66.6111 189.8C65.8431 189.272 64.9151 189.008 63.8271 189.008C62.9311 189.008 62.1231 189.232 61.4031 189.68C60.6831 190.128 60.1231 190.768 59.7231 191.6C59.3231 192.432 59.1231 193.408 59.1231 194.528C59.1231 195.632 59.3231 196.6 59.7231 197.432C60.1231 198.264 60.6831 198.904 61.4031 199.352C62.1231 199.8 62.9311 200.024 63.8271 200.024C64.9151 200.024 65.8431 199.76 66.6111 199.232C67.3951 198.704 67.9711 197.984 68.3391 197.072H71.8911C71.4431 198.944 70.5231 200.424 69.1311 201.512C67.7391 202.6 65.9871 203.144 63.8751 203.144C62.2591 203.144 60.8271 202.784 59.5791 202.064C58.3471 201.328 57.3871 200.304 56.6991 198.992C56.0271 197.68 55.6911 196.192 55.6911 194.528C55.6911 192.848 56.0271 191.352 56.6991 190.04C57.3871 188.728 58.3471 187.712 59.5791 186.992C60.8111 186.256 62.2431 185.888 63.8751 185.888ZM77.814 188.744V193.136H83.814V195.728H77.814V200.288H84.534V203H74.43V186.056H84.534V188.744H77.814ZM95.8714 203L91.9114 196.4H90.4234V203H87.0394V186.056H93.4954C95.4634 186.056 96.9594 186.536 97.9834 187.496C99.0234 188.456 99.5434 189.72 99.5434 191.288C99.5434 192.568 99.1834 193.64 98.4634 194.504C97.7594 195.368 96.7354 195.944 95.3914 196.232L99.6154 203H95.8714ZM90.4234 194.072H93.2074C95.1434 194.072 96.1114 193.216 96.1114 191.504C96.1114 190.688 95.8714 190.056 95.3914 189.608C94.9274 189.144 94.1994 188.912 93.2074 188.912H90.4234V194.072ZM113.348 186.056V188.744H108.668V203H105.284V188.744H100.628V186.056H113.348ZM129.894 194.264C130.918 194.472 131.734 194.96 132.342 195.728C132.966 196.48 133.278 197.368 133.278 198.392C133.278 199.816 132.798 200.944 131.838 201.776C130.894 202.592 129.518 203 127.71 203H120.438V186.056H127.566C129.278 186.056 130.59 186.432 131.502 187.184C132.43 187.936 132.894 188.992 132.894 190.352C132.894 191.408 132.614 192.272 132.054 192.944C131.51 193.616 130.79 194.056 129.894 194.264ZM123.822 193.16H126.87C127.718 193.16 128.358 192.976 128.79 192.608C129.238 192.224 129.462 191.68 129.462 190.976C129.462 190.272 129.246 189.728 128.814 189.344C128.382 188.96 127.718 188.768 126.822 188.768H123.822V193.16ZM127.038 200.24C127.934 200.24 128.622 200.048 129.102 199.664C129.582 199.264 129.822 198.688 129.822 197.936C129.822 197.184 129.574 196.608 129.078 196.208C128.598 195.792 127.91 195.584 127.014 195.584H123.822V200.24H127.038ZM141.793 189.536C143.089 189.536 144.249 189.808 145.273 190.352C146.313 190.896 147.129 191.688 147.721 192.728C148.313 193.752 148.609 194.96 148.609 196.352C148.609 197.744 148.313 198.952 147.721 199.976C147.129 201 146.313 201.792 145.273 202.352C144.249 202.896 143.089 203.168 141.793 203.168C140.497 203.168 139.329 202.896 138.289 202.352C137.265 201.792 136.457 201 135.865 199.976C135.273 198.952 134.977 197.744 134.977 196.352C134.977 194.96 135.273 193.752 135.865 192.728C136.457 191.688 137.265 190.896 138.289 190.352C139.329 189.808 140.497 189.536 141.793 189.536ZM141.793 192.464C140.849 192.464 140.049 192.8 139.393 193.472C138.737 194.128 138.409 195.088 138.409 196.352C138.409 197.616 138.737 198.584 139.393 199.256C140.049 199.912 140.849 200.24 141.793 200.24C142.737 200.24 143.537 199.912 144.193 199.256C144.849 198.584 145.177 197.616 145.177 196.352C145.177 195.088 144.849 194.128 144.193 193.472C143.537 192.8 142.737 192.464 141.793 192.464ZM157.144 189.536C158.44 189.536 159.6 189.808 160.624 190.352C161.664 190.896 162.48 191.688 163.072 192.728C163.664 193.752 163.96 194.96 163.96 196.352C163.96 197.744 163.664 198.952 163.072 199.976C162.48 201 161.664 201.792 160.624 202.352C159.6 202.896 158.44 203.168 157.144 203.168C155.848 203.168 154.68 202.896 153.64 202.352C152.616 201.792 151.808 201 151.216 199.976C150.624 198.952 150.328 197.744 150.328 196.352C150.328 194.96 150.624 193.752 151.216 192.728C151.808 191.688 152.616 190.896 153.64 190.352C154.68 189.808 155.848 189.536 157.144 189.536ZM157.144 192.464C156.2 192.464 155.4 192.8 154.744 193.472C154.088 194.128 153.76 195.088 153.76 196.352C153.76 197.616 154.088 198.584 154.744 199.256C155.4 199.912 156.2 200.24 157.144 200.24C158.088 200.24 158.888 199.912 159.544 199.256C160.2 198.584 160.528 197.616 160.528 196.352C160.528 195.088 160.2 194.128 159.544 193.472C158.888 192.8 158.088 192.464 157.144 192.464ZM174.128 203L169.736 197.192V203H166.352V185.24H169.736V195.224L174.104 189.704H178.112L172.52 196.328L178.256 203H174.128ZM184.483 189.536C186.099 189.536 187.395 189.944 188.371 190.76C189.347 191.576 189.955 192.664 190.195 194.024H187.027C186.899 193.384 186.611 192.872 186.163 192.488C185.715 192.104 185.131 191.912 184.411 191.912C183.835 191.912 183.387 192.048 183.067 192.32C182.747 192.592 182.587 192.96 182.587 193.424C182.587 193.792 182.715 194.088 182.971 194.312C183.227 194.536 183.547 194.712 183.931 194.84C184.315 194.968 184.867 195.12 185.587 195.296C186.595 195.52 187.411 195.76 188.035 196.016C188.675 196.256 189.219 196.648 189.667 197.192C190.131 197.72 190.363 198.44 190.363 199.352C190.363 200.488 189.915 201.408 189.019 202.112C188.139 202.816 186.947 203.168 185.443 203.168C183.715 203.168 182.331 202.784 181.291 202.016C180.251 201.232 179.619 200.12 179.395 198.68H182.635C182.715 199.336 183.003 199.856 183.499 200.24C183.995 200.608 184.643 200.792 185.443 200.792C186.019 200.792 186.459 200.656 186.763 200.384C187.067 200.096 187.219 199.728 187.219 199.28C187.219 198.896 187.083 198.584 186.811 198.344C186.555 198.104 186.227 197.92 185.827 197.792C185.443 197.664 184.891 197.512 184.171 197.336C183.179 197.112 182.371 196.888 181.747 196.664C181.139 196.424 180.611 196.048 180.163 195.536C179.731 195.024 179.515 194.32 179.515 193.424C179.515 192.272 179.955 191.336 180.835 190.616C181.715 189.896 182.931 189.536 184.483 189.536Z" fill="white"/>
<path d="M101.152 30.8403H44.787C40.1452 30.8403 36.4981 34.4874 36.4981 39.1293V95.4943C36.4981 96.4889 37.1612 97.1521 38.1559 97.1521C39.1505 97.1521 39.8137 96.4889 39.8137 95.4943V39.1293C39.8137 36.311 41.9688 34.1559 44.787 34.1559H99.4942V100.468H43.1293C39.4821 100.468 36.4981 103.452 36.4981 107.099C36.4981 110.746 39.4821 113.73 43.1293 113.73H101.152C102.147 113.73 102.81 113.067 102.81 112.072C102.81 111.078 102.147 110.414 101.152 110.414H43.1293C41.3057 110.414 39.8137 108.922 39.8137 107.099C39.8137 105.275 41.3057 103.783 43.1293 103.783H101.152C102.147 103.783 102.81 103.12 102.81 102.125V32.4981C102.81 31.5034 102.147 30.8403 101.152 30.8403Z" fill="white"/>
<path d="M101.152 105.441H44.7871C43.7924 105.441 43.1293 106.104 43.1293 107.099C43.1293 108.093 43.7924 108.757 44.7871 108.757H101.152C102.147 108.757 102.81 108.093 102.81 107.099C102.81 106.104 102.147 105.441 101.152 105.441Z" fill="white"/>
<path d="M46.4449 97.152V37.4714C46.4449 36.4767 45.7818 35.8136 44.7871 35.8136C43.7924 35.8136 43.1293 36.4767 43.1293 37.4714V97.152C43.1293 98.1467 43.7924 98.8098 44.7871 98.8098C45.7818 98.8098 46.4449 98.1467 46.4449 97.152Z" fill="white"/>
<path d="M58.0494 65.6536C58.0494 70.627 60.5361 75.2688 64.6806 78.0871V87.2049C64.6806 88.1996 65.3437 88.8627 66.3384 88.8627H79.6008C80.5954 88.8627 81.2586 88.1996 81.2586 87.2049V78.0871C88.0555 73.4452 89.8791 64.1616 85.403 57.3646C80.927 50.5677 71.4776 48.7441 64.6806 53.2202C60.5361 56.0384 58.0494 60.6802 58.0494 65.6536ZM77.943 85.5471H67.9962V78.916H77.943V85.5471ZM72.9696 54.0491C79.435 54.0491 84.5741 59.1882 84.5741 65.6536C84.5741 69.7981 82.419 73.611 78.9376 75.6004H74.6274V67.9745L79.1034 63.4985C79.7665 62.8354 79.7665 61.8407 79.1034 61.1776C78.4403 60.5144 77.4456 60.5144 76.7825 61.1776L72.9696 64.9905L69.1567 61.1776C68.4935 60.5144 67.4989 60.5144 66.8357 61.1776C66.1726 61.8407 66.1726 62.8354 66.8357 63.4985L71.3118 67.9745V75.6004H67.0015C61.5308 72.2848 59.7072 65.1563 62.857 59.6856C65.0122 56.2042 68.8251 54.0491 72.9696 54.0491Z" fill="white"/>
<path d="M74.6274 47.4182V44.1026C74.6274 43.1079 73.9642 42.4448 72.9696 42.4448C71.9749 42.4448 71.3118 43.1079 71.3118 44.1026V47.4182C71.3118 48.4129 71.9749 49.076 72.9696 49.076C73.9642 49.076 74.6274 48.4129 74.6274 47.4182Z" fill="white"/>
<path d="M51.4182 65.6539C50.4236 65.6539 49.7604 66.317 49.7604 67.3117C49.7604 68.3064 50.4236 68.9695 51.4182 68.9695H54.7338C55.7285 68.9695 56.3916 68.3064 56.3916 67.3117C56.3916 66.317 55.7285 65.6539 54.7338 65.6539H51.4182Z" fill="white"/>
<path d="M94.5209 68.9695C95.5156 68.9695 96.1787 68.3064 96.1787 67.3117C96.1787 66.317 95.5156 65.6539 94.5209 65.6539H91.2053C90.2107 65.6539 89.5475 66.317 89.5475 67.3117C89.5475 68.3064 90.2107 68.9695 91.2053 68.9695H94.5209Z" fill="white"/>
<path d="M57.5521 49.5733C56.889 48.9102 55.8943 48.9102 55.2312 49.5733C54.568 50.2364 54.568 51.2311 55.2312 51.8942L57.5521 54.2152C58.2152 54.8783 59.2099 54.8783 59.873 54.2152C60.5361 53.552 60.5361 52.5574 59.873 51.8942L57.5521 49.5733Z" fill="white"/>
<path d="M90.045 49.5733L87.7241 51.8942C87.061 52.5574 87.061 53.552 87.7241 54.2152C88.3872 54.8783 89.3819 54.8783 90.045 54.2152L92.3659 51.8942C93.029 51.2311 93.029 50.2364 92.3659 49.5733C91.7028 48.9102 90.7081 48.9102 90.045 49.5733Z" fill="white"/>
<path d="M85.5689 78.2528C84.9058 78.9159 84.9058 79.9106 85.5689 80.5737L87.8898 82.8947C88.5529 83.5578 89.5476 83.5578 90.2107 82.8947C90.8738 82.2315 90.8738 81.2369 90.2107 80.5737L87.8898 78.2528C87.2267 77.5897 86.232 77.5897 85.5689 78.2528Z" fill="white"/>
<path d="M58.0495 78.2528L55.7286 80.5737C55.0655 81.2369 55.0655 82.2315 55.7286 82.8947C56.3917 83.5578 57.3864 83.5578 58.0495 82.8947L60.3704 80.5737C61.0335 79.9106 61.0335 78.9159 60.3704 78.2528C59.7073 77.5897 58.7126 77.5897 58.0495 78.2528Z" fill="white"/>
</g>
<defs>
<filter id="filter0_d" x="0" y="0" width="310.504" height="250" filterUnits="userSpaceOnUse" color-interpolation-filters="sRGB">
<feFlood flood-opacity="0" result="BackgroundImageFix"/>
<feColorMatrix in="SourceAlpha" type="matrix" values="0 0 0 0 0 0 0 0 0 0 0 0 0 0 0 0 0 0 127 0"/>
<feOffset dy="4"/>
<feGaussianBlur stdDeviation="2.5"/>
<feColorMatrix type="matrix" values="0 0 0 0 0 0 0 0 0 0 0 0 0 0 0 0 0 0 0.1 0"/>
<feBlend mode="normal" in2="BackgroundImageFix" result="effect1_dropShadow"/>
<feBlend mode="normal" in="SourceGraphic" in2="effect1_dropShadow" result="shape"/>
</filter>
<linearGradient id="paint0_linear" x1="290.141" y1="236.407" x2="15.7756" y2="1.00002" gradientUnits="userSpaceOnUse">
<stop stop-color="#FF3F7D"/>
<stop offset="1" stop-color="#FF78A4"/>
</linearGradient>
</defs>
</svg>
