<svg width="312" height="250" viewBox="0 0 312 250" fill="none" xmlns="http://www.w3.org/2000/svg">
<g filter="url(#filter0_d)">
<rect x="5.50415" y="1" width="300.504" height="240" rx="16" fill="url(#paint0_linear_1631)"/>
<mask id="mask0" mask-type="alpha" maskUnits="userSpaceOnUse" x="5" y="1" width="302" height="240">
<rect x="5.50415" y="1" width="300.504" height="240" rx="16" fill="#F05C8C"/>
</mask>
<g mask="url(#mask0)">
<path fill-rule="evenodd" clip-rule="evenodd" d="M296.214 -165.191C326.991 -167.491 364.983 -182.759 386.415 -160.552C408.605 -137.561 388.014 -98.9713 390.842 -67.1436C392.818 -44.9075 402.74 -24.7299 400.46 -2.52293C397.662 24.7198 394.003 52.9723 376.355 73.9137C355.868 98.2251 327.81 117.657 296.214 121.182C262.835 124.906 226.646 116.121 201.936 93.3726C178.222 71.5401 177.645 35.9532 169.704 4.71193C162.376 -24.1143 148.966 -52.9766 157.489 -81.4725C166.101 -110.268 189.573 -132.233 215.306 -147.762C239.519 -162.375 268.013 -163.083 296.214 -165.191Z" fill="#A67BFF"/>
<path fill-rule="evenodd" clip-rule="evenodd" d="M37.5564 109.379C68.3326 107.079 106.325 91.811 127.757 114.018C149.947 137.009 129.356 175.599 132.184 207.427C134.16 229.663 144.082 249.841 141.802 272.048C139.004 299.29 135.345 327.543 117.697 348.484C97.2103 372.796 69.1521 392.227 37.5564 395.752C4.17705 399.476 -32.0115 390.692 -56.7216 367.943C-80.4363 346.111 -81.0125 310.524 -88.9544 279.282C-96.2824 250.456 -109.692 221.594 -101.169 193.098C-92.5568 164.302 -69.0851 142.337 -43.3524 126.808C-19.1393 112.196 9.35484 111.487 37.5564 109.379Z" fill="#A67BFF"/>
</g>
<path d="M57.5732 186.248V203H54.2132V191.312L49.9172 203H46.9892L42.6932 191.36V203H39.3092V186.248H43.4132L48.5012 198.848L53.4932 186.248H57.5732ZM60.2533 185.888C60.2533 185.344 60.4453 184.904 60.8293 184.568C61.2133 184.216 61.7173 184.04 62.3413 184.04C62.9653 184.04 63.4693 184.216 63.8533 184.568C64.2373 184.904 64.4293 185.344 64.4293 185.888C64.4293 186.416 64.2373 186.856 63.8533 187.208C63.4693 187.544 62.9653 187.712 62.3413 187.712C61.7173 187.712 61.2133 187.544 60.8293 187.208C60.4453 186.856 60.2533 186.416 60.2533 185.888ZM64.0213 189.704V203H60.6373V189.704H64.0213ZM75.0026 189.512C76.5386 189.512 77.7626 190.016 78.6746 191.024C79.5866 192.032 80.0426 193.448 80.0426 195.272V203H76.6826V195.656C76.6826 194.6 76.4106 193.784 75.8666 193.208C75.3226 192.616 74.5786 192.32 73.6346 192.32C72.6746 192.32 71.9066 192.632 71.3306 193.256C70.7546 193.88 70.4666 194.776 70.4666 195.944V203H67.0826V189.704H70.4666V192.368C70.8186 191.472 71.3946 190.776 72.1946 190.28C73.0106 189.768 73.9466 189.512 75.0026 189.512ZM88.2281 189.536C89.3481 189.536 90.3001 189.8 91.0841 190.328C91.8841 190.856 92.4601 191.568 92.8121 192.464V185.24H96.1721V203H92.8121V200.216C92.4601 201.112 91.8841 201.832 91.0841 202.376C90.3001 202.904 89.3481 203.168 88.2281 203.168C87.1081 203.168 86.1001 202.896 85.2041 202.352C84.3081 201.808 83.6041 201.024 83.0921 200C82.5961 198.96 82.3481 197.744 82.3481 196.352C82.3481 194.96 82.5961 193.752 83.0921 192.728C83.6041 191.688 84.3081 190.896 85.2041 190.352C86.1001 189.808 87.1081 189.536 88.2281 189.536ZM89.2841 192.488C88.2281 192.488 87.3801 192.832 86.7401 193.52C86.1001 194.208 85.7801 195.152 85.7801 196.352C85.7801 197.552 86.1001 198.496 86.7401 199.184C87.3801 199.856 88.2281 200.192 89.2841 200.192C90.3081 200.192 91.1481 199.848 91.8041 199.16C92.4761 198.456 92.8121 197.52 92.8121 196.352C92.8121 195.168 92.4761 194.232 91.8041 193.544C91.1481 192.84 90.3081 192.488 89.2841 192.488ZM122.729 186.248V203H119.369V191.312L115.073 203H112.145L107.849 191.36V203H104.465V186.248H108.569L113.657 198.848L118.649 186.248H122.729ZM131.002 189.536C132.122 189.536 133.082 189.8 133.882 190.328C134.682 190.856 135.25 191.568 135.586 192.464V189.704H138.946V203H135.586V200.216C135.25 201.112 134.682 201.832 133.882 202.376C133.082 202.904 132.122 203.168 131.002 203.168C129.882 203.168 128.874 202.896 127.978 202.352C127.082 201.808 126.378 201.024 125.866 200C125.37 198.96 125.122 197.744 125.122 196.352C125.122 194.96 125.37 193.752 125.866 192.728C126.378 191.688 127.082 190.896 127.978 190.352C128.874 189.808 129.882 189.536 131.002 189.536ZM132.058 192.488C131.002 192.488 130.154 192.832 129.514 193.52C128.874 194.208 128.554 195.152 128.554 196.352C128.554 197.552 128.874 198.496 129.514 199.184C130.154 199.856 131.002 200.192 132.058 200.192C133.082 200.192 133.922 199.848 134.578 199.16C135.25 198.456 135.586 197.52 135.586 196.352C135.586 195.168 135.25 194.232 134.578 193.544C133.922 192.84 133.082 192.488 132.058 192.488ZM149.956 189.536C151.076 189.536 152.084 189.808 152.98 190.352C153.876 190.896 154.572 191.688 155.068 192.728C155.58 193.752 155.836 194.96 155.836 196.352C155.836 197.744 155.58 198.96 155.068 200C154.572 201.024 153.876 201.808 152.98 202.352C152.084 202.896 151.076 203.168 149.956 203.168C148.836 203.168 147.876 202.904 147.076 202.376C146.292 201.832 145.732 201.112 145.396 200.216V209.336H142.012V189.704H145.396V192.464C145.732 191.568 146.292 190.856 147.076 190.328C147.876 189.8 148.836 189.536 149.956 189.536ZM148.9 192.488C147.876 192.488 147.028 192.84 146.356 193.544C145.7 194.232 145.372 195.168 145.372 196.352C145.372 197.52 145.7 198.456 146.356 199.16C147.028 199.848 147.876 200.192 148.9 200.192C149.956 200.192 150.804 199.856 151.444 199.184C152.084 198.496 152.404 197.552 152.404 196.352C152.404 195.152 152.084 194.208 151.444 193.52C150.804 192.832 149.956 192.488 148.9 192.488ZM162.815 189.536C164.431 189.536 165.727 189.944 166.703 190.76C167.679 191.576 168.287 192.664 168.527 194.024H165.359C165.231 193.384 164.943 192.872 164.495 192.488C164.047 192.104 163.463 191.912 162.743 191.912C162.167 191.912 161.719 192.048 161.399 192.32C161.079 192.592 160.919 192.96 160.919 193.424C160.919 193.792 161.047 194.088 161.303 194.312C161.559 194.536 161.879 194.712 162.263 194.84C162.647 194.968 163.199 195.12 163.919 195.296C164.927 195.52 165.743 195.76 166.367 196.016C167.007 196.256 167.551 196.648 167.999 197.192C168.463 197.72 168.695 198.44 168.695 199.352C168.695 200.488 168.247 201.408 167.351 202.112C166.471 202.816 165.279 203.168 163.775 203.168C162.047 203.168 160.663 202.784 159.623 202.016C158.583 201.232 157.951 200.12 157.727 198.68H160.967C161.047 199.336 161.335 199.856 161.831 200.24C162.327 200.608 162.975 200.792 163.775 200.792C164.351 200.792 164.791 200.656 165.095 200.384C165.399 200.096 165.551 199.728 165.551 199.28C165.551 198.896 165.415 198.584 165.143 198.344C164.887 198.104 164.559 197.92 164.159 197.792C163.775 197.664 163.223 197.512 162.503 197.336C161.511 197.112 160.703 196.888 160.079 196.664C159.471 196.424 158.943 196.048 158.495 195.536C158.063 195.024 157.847 194.32 157.847 193.424C157.847 192.272 158.287 191.336 159.167 190.616C160.047 189.896 161.263 189.536 162.815 189.536Z" fill="white"/>
<path d="M94.2469 72.9074C94.158 72.5517 94.069 72.2848 93.9801 72.107V72.018C93.8912 71.7512 93.7133 71.5733 93.6243 71.3065V71.2176C93.4465 71.0397 93.2686 70.7729 93.0907 70.595C93.0907 70.595 93.0907 70.595 93.0018 70.5061L92.9129 70.4172C93.0907 69.8835 93.2686 69.261 93.2686 68.7273C93.2686 66.5928 91.7567 64.7252 89.7111 64.2805C89.4443 62.7685 88.466 61.4345 87.043 60.8119C86.3315 59.211 84.7306 58.2327 82.9519 58.2327C81.7067 58.2327 80.5505 58.7664 79.7501 59.5668C78.9497 58.7664 77.7935 58.2327 76.5484 58.2327C74.7696 58.2327 73.1687 59.3 72.4572 60.8119C71.0342 61.4345 70.0559 62.7685 69.7891 64.2805C67.7436 64.7252 66.2316 66.5039 66.2316 68.7273C66.2316 69.3499 66.3206 69.8835 66.5874 70.4172L66.4984 70.5061C66.4984 70.5061 66.4984 70.5061 66.4095 70.595C66.2316 70.7729 66.0537 70.9508 65.8759 71.2176V71.3065C65.698 71.5733 65.6091 71.7512 65.5201 72.018V72.107C65.4312 72.3738 65.3422 72.6406 65.2533 72.9074C65.2533 72.9074 65.2533 72.9074 65.2533 72.9963C65.1644 73.2632 65.1644 73.6189 65.1644 73.8857C65.1644 74.864 65.5201 75.8423 66.1427 76.6428C65.7869 77.2653 65.698 77.9768 65.698 78.6883C65.698 80.7339 67.0321 82.5126 68.8997 83.0463C68.9887 83.1352 69.0776 83.3131 69.1666 83.402C69.1666 83.491 69.2555 83.491 69.2555 83.5799C69.4334 83.7578 69.5223 83.9356 69.7002 84.1135C69.7891 84.2025 69.7891 84.2025 69.8781 84.2914C69.967 84.3803 70.1449 84.5582 70.2338 84.6471C70.3227 84.7361 70.4117 84.7361 70.5006 84.825C70.6785 84.914 70.9453 85.0918 71.1232 85.1808C71.2121 85.1808 71.301 85.2697 71.301 85.2697C71.4789 85.3586 71.6568 85.3587 71.8347 85.4476C71.9236 85.4476 72.0126 85.4476 72.1015 85.5365C72.3683 85.6255 72.6351 85.6255 72.9019 85.6255C73.1687 85.6255 73.5245 85.6255 73.7913 85.5365C74.5917 86.1591 75.57 86.5148 76.6373 86.5148C77.8824 86.5148 79.0386 85.9812 79.839 85.1808C80.6395 85.9812 81.7957 86.5148 83.0408 86.5148C84.108 86.5148 85.0864 86.1591 85.8868 85.5365C86.1536 85.6255 86.5094 85.6255 86.7762 85.6255C87.043 85.6255 87.3098 85.6255 87.5766 85.5365C87.6655 85.5365 87.7545 85.5365 87.8434 85.4476C88.0213 85.3587 88.1992 85.3586 88.377 85.2697C88.466 85.2697 88.5549 85.1808 88.5549 85.1808C88.8217 85.0918 88.9996 85.0029 89.1775 84.825C89.2664 84.7361 89.3554 84.7361 89.4443 84.6471C89.6222 84.5582 89.7111 84.4693 89.8 84.2914C89.889 84.2025 89.889 84.2025 89.9779 84.1135C90.1558 83.9356 90.3337 83.7578 90.4226 83.5799C90.4226 83.491 90.5115 83.491 90.5115 83.402C90.6005 83.3131 90.6894 83.1352 90.7784 83.0463C92.646 82.5126 93.9801 80.7339 93.9801 78.6883C93.9801 77.9768 93.8022 77.2653 93.5354 76.6428C94.158 75.8423 94.5137 74.864 94.5137 73.8857C94.3358 73.53 94.3358 73.1742 94.2469 72.9074ZM76.4594 83.6688C75.9258 83.6688 75.3922 83.402 75.0364 82.9573C74.7696 82.6905 74.4139 82.5126 73.9692 82.5126C73.7913 82.5126 73.6134 82.5126 73.4355 82.6016C73.1687 82.6905 72.9909 82.7795 72.7241 82.7795C72.6351 82.7795 72.4572 82.7795 72.3683 82.7795H72.2794C72.1904 82.7795 72.1015 82.7795 72.1015 82.6905C72.0126 82.6905 72.0125 82.6905 71.9236 82.6016C71.8347 82.6016 71.8347 82.5126 71.7457 82.5126L71.6568 82.4237C71.5679 82.4237 71.5679 82.3348 71.4789 82.3348L71.39 82.2458C71.3011 82.1569 71.2121 82.068 71.2121 81.979C71.2121 81.979 71.2121 81.8901 71.1232 81.8901C71.1232 81.8011 71.0342 81.8011 71.0342 81.7122C71.0342 81.6233 71.0342 81.6233 70.9453 81.5343C70.8564 81.3565 70.8564 81.0896 70.8564 80.9118C70.8564 79.8445 71.6568 79.0441 72.7241 79.0441C73.4355 79.0441 74.0581 78.4215 74.0581 77.71C74.0581 76.9985 73.4355 76.376 72.7241 76.376C70.6785 76.376 68.9887 77.71 68.3661 79.5777C68.1882 79.3109 68.0993 78.9551 68.0993 78.5994C68.0993 78.1547 68.2772 77.6211 68.6329 77.3543C68.8997 77.0875 68.9887 76.7317 68.9887 76.287C68.9887 75.9313 68.7219 75.5755 68.4551 75.3087C67.9214 74.953 67.6546 74.4193 67.6546 73.7968C67.6546 73.6189 67.6546 73.441 67.7436 73.3521V73.2632C67.8325 73.0853 67.8325 72.9963 67.9214 72.9074C68.0104 72.8185 68.0993 72.6406 68.1882 72.5517L68.2772 72.4627C68.3661 72.3738 68.544 72.2848 68.6329 72.1959C68.8997 72.107 69.1666 72.018 69.4334 72.018C70.5006 72.018 71.301 72.8185 71.301 73.8857C71.301 74.5972 71.9236 75.2198 72.6351 75.2198C73.3466 75.2198 73.9692 74.5972 73.9692 73.8857C73.9692 71.3955 71.9236 69.3499 69.4334 69.3499C69.2555 69.3499 68.9887 69.3499 68.8108 69.4388C68.7219 69.261 68.7219 69.0831 68.7219 68.9052C68.7219 68.1048 69.2555 67.3933 70.0559 67.1265C70.7674 68.6384 72.3683 69.7057 74.147 69.7057C74.8585 69.7057 75.4811 69.0831 75.4811 68.3716C75.4811 67.6601 74.8585 67.0375 74.147 67.0375C73.0798 67.0375 72.2794 66.2371 72.2794 65.1698C72.2794 64.2805 72.813 63.569 73.7024 63.3911C74.147 63.3022 74.5028 62.9464 74.6807 62.5017C74.9475 61.7013 75.659 61.1677 76.4594 61.1677C77.2599 61.1677 77.9714 61.7013 78.2382 62.5017C76.4594 63.1243 75.1254 64.8141 75.1254 66.7707C75.1254 67.4822 75.7479 68.1048 76.4594 68.1048C77.1709 68.1048 77.7935 67.4822 77.7935 66.7707C77.7935 66.2371 77.9714 65.7924 78.3271 65.4367V78.5105C77.9714 78.1547 77.7935 77.71 77.7935 77.1764C77.7935 76.4649 77.1709 75.8423 76.4594 75.8423C75.7479 75.8423 75.1254 76.4649 75.1254 77.1764C75.1254 79.222 76.4594 80.9118 78.3271 81.4454V81.979C78.3271 82.8684 77.4377 83.6688 76.4594 83.6688ZM90.8673 75.3087C90.6005 75.5755 90.3337 75.8423 90.3337 76.287C90.3337 76.6428 90.4226 77.0875 90.6894 77.3543C91.0452 77.71 91.223 78.1547 91.223 78.5994C91.223 78.9551 91.1341 79.3109 90.9562 79.5777C90.4226 77.71 88.6439 76.376 86.5983 76.376C85.8868 76.376 85.2642 76.9985 85.2642 77.71C85.2642 78.4215 85.8868 79.0441 86.5983 79.0441C87.6655 79.0441 88.466 79.8445 88.466 80.9118C88.466 81.0896 88.377 81.3565 88.377 81.5343C88.377 81.6233 88.377 81.6233 88.2881 81.7122C88.2881 81.8011 88.1992 81.8011 88.1992 81.8901C88.1992 81.8901 88.1992 81.979 88.1102 81.979C88.0213 82.068 88.0213 82.1569 87.9324 82.2458L87.8434 82.3348C87.7545 82.3348 87.7545 82.4237 87.6655 82.4237L87.5766 82.5126C87.4877 82.5126 87.4877 82.6016 87.3987 82.6016C87.3987 82.6016 87.3098 82.6016 87.2209 82.6905C87.1319 82.6905 87.043 82.7795 87.043 82.7795H86.954C86.8651 82.7795 86.6872 82.7795 86.5983 82.7795C86.3315 82.7795 86.0647 82.6905 85.8868 82.6016C85.3532 82.3348 84.7306 82.5126 84.3749 82.9573C84.0191 83.402 83.4855 83.6688 82.9519 83.6688C81.8846 83.6688 81.0842 82.8684 81.0842 81.8011V76.376C82.9519 75.8423 84.2859 74.0636 84.2859 72.107C84.2859 71.3955 83.6634 70.7729 82.9519 70.7729C82.2404 70.7729 81.6178 71.3955 81.6178 72.107C81.6178 72.6406 81.4399 73.0853 81.0842 73.441V62.7685C81.0842 61.7013 81.8846 60.9009 82.9519 60.9009C83.7523 60.9009 84.5527 61.4345 84.7306 62.2349C84.8195 62.6796 85.2642 63.0353 85.7089 63.1243C86.5094 63.3022 87.1319 64.1026 87.1319 64.903C87.1319 65.9703 86.3315 66.7707 85.2642 66.7707C84.5527 66.7707 83.9302 67.3933 83.9302 68.1048C83.9302 68.8163 84.5527 69.4388 85.2642 69.4388C87.043 69.4388 88.5549 68.3716 89.3554 66.8597C90.0669 67.1265 90.6894 67.838 90.6894 68.6384C90.6894 68.8163 90.6894 68.9942 90.6005 69.172C90.4226 69.172 90.1558 69.0831 89.9779 69.0831C87.4877 69.0831 85.4421 71.1287 85.4421 73.6189C85.4421 74.3304 86.0647 74.953 86.7762 74.953C87.4877 74.953 88.1102 74.3304 88.1102 73.6189C88.1102 72.5517 88.9107 71.7512 89.9779 71.7512C90.2447 71.7512 90.5115 71.8402 90.7784 71.9291C90.9562 72.018 91.0452 72.107 91.1341 72.1959L91.223 72.2848C91.312 72.3738 91.4898 72.4627 91.4898 72.6406C91.5788 72.7295 91.6677 72.9074 91.6677 72.9963V73.0853C91.6677 73.2632 91.7567 73.441 91.7567 73.53C91.6677 74.4193 91.4009 74.953 90.8673 75.3087Z" fill="white"/>
<path d="M116.304 67.5715C114.169 67.5715 112.39 68.9945 111.768 70.9511H103.408C103.141 65.348 100.828 60.2786 97.3598 56.3653L103.23 50.4955C103.941 50.8512 104.653 51.118 105.453 51.118C106.698 51.118 107.854 50.5844 108.744 49.695C109.633 48.8057 110.167 47.6495 110.167 46.4044C110.167 45.1592 109.633 44.003 108.744 43.1137C107.854 42.2243 106.698 41.6907 105.453 41.6907C104.208 41.6907 103.052 42.2243 102.162 43.1137C101.273 44.003 100.739 45.1592 100.739 46.4044C100.739 47.2048 100.917 47.9163 101.362 48.6278L95.5811 54.4977C91.6678 51.0291 86.5984 48.8057 80.9953 48.4499V40.0898C82.952 39.4672 84.375 37.6885 84.375 35.554C84.375 32.9748 82.2405 30.8403 79.6613 30.8403C77.0821 30.8403 74.9476 32.9748 74.9476 35.554C74.9476 37.6885 76.3706 39.4672 78.3272 40.0898V48.4499C72.7242 48.7167 67.6547 51.0291 63.7415 54.4977L57.8716 48.6278C58.2274 47.9163 58.4942 47.2048 58.4942 46.4044C58.4942 45.1592 57.9605 44.003 57.0712 43.1137C56.1818 42.2243 55.0256 41.6907 53.7805 41.6907C52.5354 41.6907 51.3792 42.2243 50.4898 43.1137C49.6004 44.003 49.0668 45.1592 49.0668 46.4044C49.0668 47.6495 49.6004 48.8057 50.4898 49.695C51.3792 50.5844 52.5354 51.118 53.7805 51.118C54.5809 51.118 55.2924 50.9402 56.0039 50.4955L61.8738 56.3653C58.4052 60.2786 56.1818 65.348 55.826 70.9511H47.4659C46.8434 68.9945 45.0646 67.5715 42.9301 67.5715C40.3509 67.5715 38.2164 69.706 38.2164 72.2851C38.2164 74.8643 40.3509 76.9988 42.9301 76.9988C45.0646 76.9988 46.8434 75.5758 47.4659 73.6192H55.826C56.0929 79.2223 58.4052 84.2917 61.8738 88.205L56.0039 94.0748C55.2924 93.7191 54.5809 93.4523 53.7805 93.4523C52.5354 93.4523 51.3792 93.9859 50.4898 94.8753C49.6004 95.7646 49.0668 96.9208 49.0668 98.1659C49.0668 99.4111 49.6004 100.567 50.4898 101.457C51.3792 102.346 52.5354 102.88 53.7805 102.88C55.0256 102.88 56.1818 102.346 57.0712 101.457C57.9605 100.567 58.4942 99.4111 58.4942 98.1659C58.4942 97.3655 58.3163 96.654 57.8716 95.9425L63.7415 90.0726C67.6547 93.5412 72.7242 95.7646 78.3272 96.1204V104.48C76.3706 105.103 74.9476 106.882 74.9476 109.016C74.9476 111.596 77.0821 113.73 79.6613 113.73C82.2405 113.73 84.375 111.596 84.375 109.016C84.375 106.882 82.952 105.103 80.9953 104.48V96.1204C86.5984 95.8536 91.6678 93.5412 95.5811 90.0726L101.451 95.9425C101.095 96.654 100.828 97.3655 100.828 98.1659C100.828 99.4111 101.362 100.567 102.251 101.457C103.141 102.346 104.297 102.88 105.542 102.88C106.787 102.88 107.943 102.346 108.833 101.457C109.722 100.567 110.256 99.4111 110.256 98.1659C110.256 96.9208 109.722 95.7646 108.833 94.8753C107.943 93.9859 106.787 93.4523 105.542 93.4523C104.742 93.4523 104.03 93.6301 103.319 94.0748L97.4488 88.205C100.917 84.2917 103.141 79.2223 103.497 73.6192H111.857C112.479 75.5758 114.258 76.9988 116.392 76.9988C118.972 76.9988 121.106 74.8643 121.106 72.2851C121.106 69.706 118.883 67.5715 116.304 67.5715ZM104.119 44.8924C104.475 44.5367 105.008 44.2699 105.542 44.2699C106.076 44.2699 106.609 44.4477 106.965 44.8924C107.766 45.6929 107.766 47.0269 106.965 47.8274C106.165 48.6278 104.831 48.6278 104.119 47.8274C103.319 47.0269 103.319 45.6929 104.119 44.8924ZM77.6157 35.6429C77.6157 34.4867 78.5051 33.5974 79.6613 33.5974C80.8175 33.5974 81.7068 34.4867 81.7068 35.6429C81.7068 36.7991 80.8175 37.6885 79.6613 37.6885C78.5051 37.6885 77.6157 36.7991 77.6157 35.6429ZM52.2685 47.8274C51.4681 47.0269 51.4681 45.6929 52.2685 44.8924C52.6243 44.5367 53.1579 44.2699 53.6915 44.2699C54.2252 44.2699 54.7588 44.4477 55.1145 44.8924C55.915 45.6929 55.915 47.0269 55.1145 47.7384C54.403 48.6278 53.069 48.6278 52.2685 47.8274ZM43.0191 74.3307C41.8629 74.3307 40.9735 73.4413 40.9735 72.2851C40.9735 71.129 41.8629 70.2396 43.0191 70.2396C44.1752 70.2396 45.0646 71.129 45.0646 72.2851C45.0646 73.4413 44.1752 74.3307 43.0191 74.3307ZM55.2035 99.6779C54.403 100.478 53.069 100.478 52.3575 99.6779C51.557 98.8774 51.557 97.5434 52.3575 96.7429C52.7132 96.3872 53.2469 96.1204 53.7805 96.1204C54.3141 96.1204 54.8477 96.2983 55.2035 96.7429C56.0039 97.5434 56.0039 98.8774 55.2035 99.6779ZM81.7068 108.927C81.7068 110.084 80.8175 110.973 79.6613 110.973C78.5051 110.973 77.6157 110.084 77.6157 108.927C77.6157 107.771 78.5051 106.882 79.6613 106.882C80.8175 106.882 81.7068 107.771 81.7068 108.927ZM107.054 96.7429C107.854 97.5434 107.854 98.8774 107.054 99.6779C106.254 100.478 104.92 100.478 104.208 99.6779C103.408 98.8774 103.408 97.5434 104.208 96.8319C104.564 96.4761 105.097 96.2093 105.631 96.2093C106.076 96.1204 106.609 96.3872 107.054 96.7429ZM79.6613 93.4523C68.0105 93.4523 58.4942 83.936 58.4942 72.2851C58.4942 60.6343 68.0105 51.118 79.6613 51.118C91.3121 51.118 100.828 60.6343 100.828 72.2851C100.828 83.936 91.3121 93.4523 79.6613 93.4523ZM116.304 74.3307C115.147 74.3307 114.258 73.4413 114.258 72.2851C114.258 71.129 115.147 70.2396 116.304 70.2396C117.46 70.2396 118.349 71.129 118.349 72.2851C118.349 73.4413 117.46 74.3307 116.304 74.3307Z" fill="white"/>
</g>
<defs>
<filter id="filter0_d" x="0.50415" y="0" width="310.504" height="250" filterUnits="userSpaceOnUse" color-interpolation-filters="sRGB">
<feFlood flood-opacity="0" result="BackgroundImageFix"/>
<feColorMatrix in="SourceAlpha" type="matrix" values="0 0 0 0 0 0 0 0 0 0 0 0 0 0 0 0 0 0 127 0"/>
<feOffset dy="4"/>
<feGaussianBlur stdDeviation="2.5"/>
<feColorMatrix type="matrix" values="0 0 0 0 0 0 0 0 0 0 0 0 0 0 0 0 0 0 0.1 0"/>
<feBlend mode="normal" in2="BackgroundImageFix" result="effect1_dropShadow"/>
<feBlend mode="normal" in="SourceGraphic" in2="effect1_dropShadow" result="shape"/>
</filter>
<linearGradient id="paint0_linear_1631" x1="299.319" y1="239.722" x2="5.06067" y2="1" gradientUnits="userSpaceOnUse">
<stop stop-color="#8F4FFF"/>
<stop offset="1" stop-color="#A471FF"/>
</linearGradient>
</defs>
</svg>
