<svg width="312" height="250" viewBox="0 0 312 250" fill="none" xmlns="http://www.w3.org/2000/svg">
<g filter="url(#filter0_d)">
<rect x="5.5" y="1" width="300.504" height="240" rx="16" fill="url(#paint0_linear_1632)"/>
<mask id="mask0" mask-type="alpha" maskUnits="userSpaceOnUse" x="5" y="1" width="302" height="240">
<rect x="5.5" y="1" width="300.504" height="240" rx="16" fill="#F05C8C"/>
</mask>
<g mask="url(#mask0)">
<path fill-rule="evenodd" clip-rule="evenodd" d="M296.21 -165.191C326.986 -167.491 364.979 -182.759 386.411 -160.552C408.601 -137.561 388.009 -98.9713 390.838 -67.1436C392.814 -44.9075 402.736 -24.7299 400.456 -2.52293C397.658 24.7198 393.998 52.9723 376.351 73.9137C355.864 98.2251 327.806 117.657 296.21 121.182C262.831 124.906 226.642 116.121 201.932 93.3726C178.218 71.5401 177.641 35.9532 169.699 4.71193C162.371 -24.1143 148.962 -52.9766 157.485 -81.4725C166.097 -110.268 189.569 -132.233 215.301 -147.762C239.515 -162.375 268.009 -163.083 296.21 -165.191Z" fill="#FFA88D"/>
<path fill-rule="evenodd" clip-rule="evenodd" d="M37.5523 109.379C68.3284 107.079 106.321 91.811 127.753 114.018C149.943 137.009 129.352 175.599 132.18 207.427C134.156 229.663 144.078 249.841 141.798 272.048C139 299.29 135.34 327.543 117.693 348.484C97.2061 372.796 69.148 392.227 37.5523 395.752C4.1729 399.476 -32.0157 390.692 -56.7257 367.943C-80.4404 346.111 -81.0167 310.524 -88.9586 279.282C-96.2865 250.456 -109.696 221.594 -101.173 193.098C-92.561 164.302 -69.0892 142.337 -43.3566 126.808C-19.1434 112.196 9.35069 111.487 37.5523 109.379Z" fill="#FFA88D"/>
</g>
<path fill-rule="evenodd" clip-rule="evenodd" d="M80.1007 108.19C60.4829 108.19 44.5766 92.2844 44.5766 72.6657C44.5766 53.7171 59.4132 38.2342 78.1007 37.1969C79.2035 37.1357 80.1007 36.2461 80.1007 35.1416V33.2209C80.1007 32.1163 79.2038 31.2159 78.1005 31.2683C56.1384 32.3117 38.6559 50.446 38.6559 72.6657C38.6559 95.5558 57.2095 114.11 80.1007 114.11C102.32 114.11 120.455 96.627 121.498 74.6658C121.55 73.5625 120.65 72.6657 119.545 72.6657H117.625C116.52 72.6657 115.631 73.5628 115.569 74.6656C114.532 93.3531 99.0482 108.19 80.1007 108.19Z" fill="white"/>
<path fill-rule="evenodd" clip-rule="evenodd" d="M68.2596 84.007C68.2596 84.2832 68.4835 84.507 68.7596 84.507H78.8939C79.3394 84.507 79.5624 83.9685 79.2475 83.6535L69.1132 73.5192C68.7982 73.2042 68.2596 73.4273 68.2596 73.8728V84.007Z" fill="white"/>
<path d="M108.289 32.635L72.7713 68.1528C71.9902 68.9339 71.9902 70.2002 72.7713 70.9812L81.7842 79.9941C82.5652 80.7752 83.8315 80.7752 84.6126 79.9941L120.13 44.4763C120.911 43.6953 120.911 42.4289 120.13 41.6479L111.117 32.635C110.336 31.8539 109.07 31.8539 108.289 32.635Z" fill="white"/>
<path fill-rule="evenodd" clip-rule="evenodd" d="M115.625 66.745L105.491 76.8792C104.861 77.5092 105.307 78.5863 106.198 78.5863H130.973C131.864 78.5863 132.31 77.5092 131.68 76.8793L119.293 64.4913C118.902 64.1007 118.269 64.1007 117.879 64.4912L115.625 66.745Z" fill="white"/>
<path d="M48.1367 203L44.1767 196.4H42.6887V203H39.3047V186.056H45.7607C47.7287 186.056 49.2247 186.536 50.2487 187.496C51.2887 188.456 51.8087 189.72 51.8087 191.288C51.8087 192.568 51.4487 193.64 50.7287 194.504C50.0247 195.368 49.0007 195.944 47.6567 196.232L51.8807 203H48.1367ZM42.6887 194.072H45.4727C47.4087 194.072 48.3767 193.216 48.3767 191.504C48.3767 190.688 48.1367 190.056 47.6567 189.608C47.1927 189.144 46.4647 188.912 45.4727 188.912H42.6887V194.072ZM66.5977 195.848C66.5977 196.184 66.5577 196.568 66.4777 197H56.7337C56.7817 198.184 57.1017 199.056 57.6937 199.616C58.2857 200.176 59.0217 200.456 59.9017 200.456C60.6857 200.456 61.3337 200.264 61.8457 199.88C62.3737 199.496 62.7097 198.976 62.8537 198.32H66.4297C66.2537 199.248 65.8777 200.08 65.3017 200.816C64.7257 201.552 63.9817 202.128 63.0697 202.544C62.1737 202.96 61.1737 203.168 60.0697 203.168C58.7737 203.168 57.6217 202.896 56.6137 202.352C55.6057 201.792 54.8217 201 54.2617 199.976C53.7017 198.952 53.4217 197.744 53.4217 196.352C53.4217 194.96 53.7017 193.752 54.2617 192.728C54.8217 191.688 55.6057 190.896 56.6137 190.352C57.6217 189.808 58.7737 189.536 60.0697 189.536C61.3817 189.536 62.5257 189.808 63.5017 190.352C64.4937 190.896 65.2537 191.648 65.7817 192.608C66.3257 193.552 66.5977 194.632 66.5977 195.848ZM63.1897 195.512C63.2377 194.424 62.9497 193.6 62.3257 193.04C61.7177 192.48 60.9657 192.2 60.0697 192.2C59.1577 192.2 58.3897 192.48 57.7657 193.04C57.1417 193.6 56.7977 194.424 56.7337 195.512H63.1897ZM74.784 199.616L78.144 189.704H81.744L76.824 203H72.696L67.776 189.704H71.4L74.784 199.616ZM83.241 185.888C83.241 185.344 83.433 184.904 83.817 184.568C84.201 184.216 84.705 184.04 85.329 184.04C85.953 184.04 86.457 184.216 86.841 184.568C87.225 184.904 87.417 185.344 87.417 185.888C87.417 186.416 87.225 186.856 86.841 187.208C86.457 187.544 85.953 187.712 85.329 187.712C84.705 187.712 84.201 187.544 83.817 187.208C83.433 186.856 83.241 186.416 83.241 185.888ZM87.009 189.704V203H83.625V189.704H87.009ZM94.6543 189.536C96.2703 189.536 97.5663 189.944 98.5423 190.76C99.5183 191.576 100.126 192.664 100.366 194.024H97.1983C97.0703 193.384 96.7823 192.872 96.3343 192.488C95.8863 192.104 95.3023 191.912 94.5823 191.912C94.0063 191.912 93.5583 192.048 93.2383 192.32C92.9183 192.592 92.7583 192.96 92.7583 193.424C92.7583 193.792 92.8863 194.088 93.1423 194.312C93.3983 194.536 93.7183 194.712 94.1023 194.84C94.4863 194.968 95.0383 195.12 95.7583 195.296C96.7663 195.52 97.5823 195.76 98.2063 196.016C98.8463 196.256 99.3903 196.648 99.8383 197.192C100.302 197.72 100.534 198.44 100.534 199.352C100.534 200.488 100.086 201.408 99.1903 202.112C98.3103 202.816 97.1183 203.168 95.6143 203.168C93.8863 203.168 92.5023 202.784 91.4623 202.016C90.4223 201.232 89.7903 200.12 89.5663 198.68H92.8063C92.8863 199.336 93.1743 199.856 93.6703 200.24C94.1663 200.608 94.8143 200.792 95.6143 200.792C96.1903 200.792 96.6303 200.656 96.9343 200.384C97.2383 200.096 97.3903 199.728 97.3903 199.28C97.3903 198.896 97.2543 198.584 96.9823 198.344C96.7263 198.104 96.3983 197.92 95.9983 197.792C95.6143 197.664 95.0623 197.512 94.3423 197.336C93.3503 197.112 92.5423 196.888 91.9183 196.664C91.3103 196.424 90.7823 196.048 90.3343 195.536C89.9023 195.024 89.6863 194.32 89.6863 193.424C89.6863 192.272 90.1263 191.336 91.0063 190.616C91.8863 189.896 93.1023 189.536 94.6543 189.536ZM102.671 185.888C102.671 185.344 102.863 184.904 103.247 184.568C103.631 184.216 104.135 184.04 104.759 184.04C105.383 184.04 105.887 184.216 106.271 184.568C106.655 184.904 106.847 185.344 106.847 185.888C106.847 186.416 106.655 186.856 106.271 187.208C105.887 187.544 105.383 187.712 104.759 187.712C104.135 187.712 103.631 187.544 103.247 187.208C102.863 186.856 102.671 186.416 102.671 185.888ZM106.439 189.704V203H103.055V189.704H106.439ZM115.644 189.536C116.94 189.536 118.1 189.808 119.124 190.352C120.164 190.896 120.98 191.688 121.572 192.728C122.164 193.752 122.46 194.96 122.46 196.352C122.46 197.744 122.164 198.952 121.572 199.976C120.98 201 120.164 201.792 119.124 202.352C118.1 202.896 116.94 203.168 115.644 203.168C114.348 203.168 113.18 202.896 112.14 202.352C111.116 201.792 110.308 201 109.716 199.976C109.124 198.952 108.828 197.744 108.828 196.352C108.828 194.96 109.124 193.752 109.716 192.728C110.308 191.688 111.116 190.896 112.14 190.352C113.18 189.808 114.348 189.536 115.644 189.536ZM115.644 192.464C114.7 192.464 113.9 192.8 113.244 193.472C112.588 194.128 112.26 195.088 112.26 196.352C112.26 197.616 112.588 198.584 113.244 199.256C113.9 199.912 114.7 200.24 115.644 200.24C116.588 200.24 117.388 199.912 118.044 199.256C118.7 198.584 119.028 197.616 119.028 196.352C119.028 195.088 118.7 194.128 118.044 193.472C117.388 192.8 116.588 192.464 115.644 192.464ZM132.772 189.512C134.308 189.512 135.532 190.016 136.444 191.024C137.356 192.032 137.812 193.448 137.812 195.272V203H134.452V195.656C134.452 194.6 134.18 193.784 133.636 193.208C133.092 192.616 132.348 192.32 131.404 192.32C130.444 192.32 129.676 192.632 129.1 193.256C128.524 193.88 128.236 194.776 128.236 195.944V203H124.852V189.704H128.236V192.368C128.588 191.472 129.164 190.776 129.964 190.28C130.78 189.768 131.716 189.512 132.772 189.512ZM160.368 203H156.984L149.4 191.48V203H146.016V186.056H149.4L156.984 197.672V186.056H160.368V203ZM169.574 189.536C170.87 189.536 172.03 189.808 173.054 190.352C174.094 190.896 174.91 191.688 175.502 192.728C176.094 193.752 176.39 194.96 176.39 196.352C176.39 197.744 176.094 198.952 175.502 199.976C174.91 201 174.094 201.792 173.054 202.352C172.03 202.896 170.87 203.168 169.574 203.168C168.278 203.168 167.11 202.896 166.07 202.352C165.046 201.792 164.238 201 163.646 199.976C163.054 198.952 162.758 197.744 162.758 196.352C162.758 194.96 163.054 193.752 163.646 192.728C164.238 191.688 165.046 190.896 166.07 190.352C167.11 189.808 168.278 189.536 169.574 189.536ZM169.574 192.464C168.63 192.464 167.83 192.8 167.174 193.472C166.518 194.128 166.19 195.088 166.19 196.352C166.19 197.616 166.518 198.584 167.174 199.256C167.83 199.912 168.63 200.24 169.574 200.24C170.518 200.24 171.318 199.912 171.974 199.256C172.63 198.584 172.958 197.616 172.958 196.352C172.958 195.088 172.63 194.128 171.974 193.472C171.318 192.8 170.518 192.464 169.574 192.464ZM185.885 200.096V203H184.109C182.621 203 181.477 202.64 180.677 201.92C179.893 201.2 179.501 200 179.501 198.32V192.56H177.653V189.704H179.501V186.416H182.885V189.704H185.861V192.56H182.885V198.368C182.885 199.008 183.013 199.456 183.269 199.712C183.525 199.968 183.957 200.096 184.565 200.096H185.885ZM200.824 195.848C200.824 196.184 200.784 196.568 200.704 197H190.96C191.008 198.184 191.328 199.056 191.92 199.616C192.512 200.176 193.248 200.456 194.128 200.456C194.912 200.456 195.56 200.264 196.072 199.88C196.6 199.496 196.936 198.976 197.08 198.32H200.656C200.48 199.248 200.104 200.08 199.528 200.816C198.952 201.552 198.208 202.128 197.296 202.544C196.4 202.96 195.4 203.168 194.296 203.168C193 203.168 191.848 202.896 190.84 202.352C189.832 201.792 189.048 201 188.488 199.976C187.928 198.952 187.648 197.744 187.648 196.352C187.648 194.96 187.928 193.752 188.488 192.728C189.048 191.688 189.832 190.896 190.84 190.352C191.848 189.808 193 189.536 194.296 189.536C195.608 189.536 196.752 189.808 197.728 190.352C198.72 190.896 199.48 191.648 200.008 192.608C200.552 193.552 200.824 194.632 200.824 195.848ZM197.416 195.512C197.464 194.424 197.176 193.6 196.552 193.04C195.944 192.48 195.192 192.2 194.296 192.2C193.384 192.2 192.616 192.48 191.992 193.04C191.368 193.6 191.024 194.424 190.96 195.512H197.416ZM207.811 189.536C209.427 189.536 210.723 189.944 211.699 190.76C212.675 191.576 213.283 192.664 213.523 194.024H210.355C210.227 193.384 209.939 192.872 209.491 192.488C209.043 192.104 208.459 191.912 207.739 191.912C207.163 191.912 206.715 192.048 206.395 192.32C206.075 192.592 205.915 192.96 205.915 193.424C205.915 193.792 206.043 194.088 206.299 194.312C206.555 194.536 206.875 194.712 207.259 194.84C207.643 194.968 208.195 195.12 208.915 195.296C209.923 195.52 210.739 195.76 211.363 196.016C212.003 196.256 212.547 196.648 212.995 197.192C213.459 197.72 213.691 198.44 213.691 199.352C213.691 200.488 213.243 201.408 212.347 202.112C211.467 202.816 210.275 203.168 208.771 203.168C207.043 203.168 205.659 202.784 204.619 202.016C203.579 201.232 202.947 200.12 202.723 198.68H205.963C206.043 199.336 206.331 199.856 206.827 200.24C207.323 200.608 207.971 200.792 208.771 200.792C209.347 200.792 209.787 200.656 210.091 200.384C210.395 200.096 210.547 199.728 210.547 199.28C210.547 198.896 210.411 198.584 210.139 198.344C209.883 198.104 209.555 197.92 209.155 197.792C208.771 197.664 208.219 197.512 207.499 197.336C206.507 197.112 205.699 196.888 205.075 196.664C204.467 196.424 203.939 196.048 203.491 195.536C203.059 195.024 202.843 194.32 202.843 193.424C202.843 192.272 203.283 191.336 204.163 190.616C205.043 189.896 206.259 189.536 207.811 189.536Z" fill="white"/>
</g>
<defs>
<filter id="filter0_d" x="0.5" y="0" width="310.504" height="250" filterUnits="userSpaceOnUse" color-interpolation-filters="sRGB">
<feFlood flood-opacity="0" result="BackgroundImageFix"/>
<feColorMatrix in="SourceAlpha" type="matrix" values="0 0 0 0 0 0 0 0 0 0 0 0 0 0 0 0 0 0 127 0"/>
<feOffset dy="4"/>
<feGaussianBlur stdDeviation="2.5"/>
<feColorMatrix type="matrix" values="0 0 0 0 0 0 0 0 0 0 0 0 0 0 0 0 0 0 0.1 0"/>
<feBlend mode="normal" in2="BackgroundImageFix" result="effect1_dropShadow"/>
<feBlend mode="normal" in="SourceGraphic" in2="effect1_dropShadow" result="shape"/>
</filter>
<linearGradient id="paint0_linear_1632" x1="291.469" y1="241.76" x2="5.50001" y2="1.38017" gradientUnits="userSpaceOnUse">
<stop stop-color="#FF8058"/>
<stop offset="1" stop-color="#FFA589"/>
</linearGradient>
</defs>
</svg>
