<svg width="240" height="224" viewBox="0 0 240 224" fill="none" xmlns="http://www.w3.org/2000/svg">
<g clip-path="url(#clip0)">
<rect width="240" height="224" rx="10" fill="url(#paint0_linear)"/>
<path opacity="0.5" fill-rule="evenodd" clip-rule="evenodd" d="M155.703 76.1274C176.092 98.0204 219.475 87.3607 233.768 113.497C247.453 138.52 232.554 168.889 219.069 191.997C205.821 214.702 186.834 241.977 159.793 240.275C131.215 238.477 116.959 202.224 93.4785 184.096C82.5894 175.689 71.7704 168.685 59.4646 162.819C33.5213 150.453 -8.93549 158.141 -18.0735 130.921C-26.4141 106.076 20.5506 100.673 31.0172 78.0805C42.802 52.6429 23.3574 13.6187 44.5562 -4.266C65.1467 -21.6375 102.654 -19.0785 126.089 -2.1282C149.416 14.7447 136.014 54.9847 155.703 76.1274Z" fill="#45CAFF"/>
<path d="M25 174.12C23.784 174.12 22.672 173.88 21.664 173.4C20.672 172.904 19.816 172.256 19.096 171.456C18.376 170.64 17.816 169.712 17.416 168.672C17.032 167.632 16.84 166.568 16.84 165.48C16.84 164.344 17.048 163.256 17.464 162.216C17.88 161.176 18.448 160.256 19.168 159.456C19.904 158.656 20.768 158.024 21.76 157.56C22.768 157.08 23.864 156.84 25.048 156.84C26.264 156.84 27.368 157.096 28.36 157.608C29.368 158.104 30.224 158.76 30.928 159.576C31.648 160.392 32.2 161.32 32.584 162.36C32.984 163.384 33.184 164.432 33.184 165.504C33.184 166.64 32.976 167.728 32.56 168.768C32.16 169.808 31.592 170.728 30.856 171.528C30.12 172.312 29.248 172.944 28.24 173.424C27.248 173.888 26.168 174.12 25 174.12ZM19.576 165.48C19.576 166.28 19.704 167.056 19.96 167.808C20.216 168.56 20.576 169.224 21.04 169.8C21.52 170.376 22.096 170.84 22.768 171.192C23.44 171.528 24.192 171.696 25.024 171.696C25.888 171.696 26.648 171.52 27.304 171.168C27.976 170.8 28.544 170.32 29.008 169.728C29.472 169.136 29.824 168.472 30.064 167.736C30.304 167 30.424 166.248 30.424 165.48C30.424 164.664 30.296 163.888 30.04 163.152C29.784 162.4 29.416 161.744 28.936 161.184C28.472 160.608 27.904 160.152 27.232 159.816C26.576 159.464 25.84 159.288 25.024 159.288C24.16 159.288 23.392 159.472 22.72 159.84C22.048 160.192 21.48 160.656 21.016 161.232C20.552 161.808 20.192 162.472 19.936 163.224C19.696 163.96 19.576 164.712 19.576 165.48ZM39.1589 174L34.3589 161.448H37.0709L40.6709 171.768L44.2949 161.448H46.7909L41.9909 174H39.1589ZM53.9283 174.24C52.9523 174.24 52.0643 174.072 51.2643 173.736C50.4643 173.384 49.7763 172.912 49.2003 172.32C48.6403 171.728 48.2003 171.04 47.8803 170.256C47.5763 169.472 47.4243 168.64 47.4243 167.76C47.4243 166.88 47.5763 166.048 47.8803 165.264C48.2003 164.464 48.6403 163.768 49.2003 163.176C49.7763 162.568 50.4643 162.096 51.2643 161.76C52.0643 161.408 52.9603 161.232 53.9523 161.232C54.9283 161.232 55.8083 161.408 56.5923 161.76C57.3923 162.112 58.0723 162.584 58.6323 163.176C59.1923 163.752 59.6163 164.432 59.9043 165.216C60.2083 165.984 60.3603 166.792 60.3603 167.64C60.3603 167.832 60.3523 168.016 60.3363 168.192C60.3203 168.352 60.3043 168.488 60.2883 168.6H50.2323C50.2803 169.16 50.4083 169.664 50.6163 170.112C50.8403 170.56 51.1203 170.952 51.4563 171.288C51.8083 171.608 52.2003 171.856 52.6323 172.032C53.0803 172.208 53.5443 172.296 54.0243 172.296C54.3763 172.296 54.7203 172.256 55.0563 172.176C55.4083 172.08 55.7283 171.952 56.0163 171.792C56.3043 171.616 56.5603 171.408 56.7843 171.168C57.0083 170.928 57.1843 170.664 57.3123 170.376L59.5683 171.024C59.1363 171.968 58.4163 172.744 57.4083 173.352C56.4163 173.944 55.2563 174.24 53.9283 174.24ZM57.7443 166.776C57.6963 166.248 57.5603 165.76 57.3363 165.312C57.1283 164.864 56.8563 164.488 56.5203 164.184C56.1843 163.864 55.7923 163.616 55.3443 163.44C54.8963 163.264 54.4243 163.176 53.9283 163.176C53.4323 163.176 52.9603 163.264 52.5123 163.44C52.0803 163.616 51.6963 163.864 51.3603 164.184C51.0243 164.488 50.7523 164.864 50.5443 165.312C50.3363 165.76 50.2083 166.248 50.1603 166.776H57.7443ZM69.5697 163.728C68.5457 163.76 67.6337 164 66.8337 164.448C66.0497 164.88 65.4897 165.504 65.1537 166.32V174H62.5137V161.448H64.9617V164.256C65.3937 163.392 65.9537 162.704 66.6417 162.192C67.3457 161.664 68.0977 161.376 68.8977 161.328C69.0577 161.328 69.1857 161.328 69.2817 161.328C69.3937 161.328 69.4897 161.336 69.5697 161.352V163.728ZM74.6622 174.24C74.0542 174.24 73.4862 174.144 72.9582 173.952C72.4462 173.744 71.9982 173.464 71.6142 173.112C71.2462 172.76 70.9502 172.344 70.7262 171.864C70.5182 171.384 70.4142 170.864 70.4142 170.304C70.4142 169.712 70.5422 169.176 70.7982 168.696C71.0542 168.216 71.4142 167.8 71.8782 167.448C72.3582 167.096 72.9182 166.824 73.5582 166.632C74.2142 166.44 74.9342 166.344 75.7182 166.344C76.3102 166.344 76.8942 166.4 77.4702 166.512C78.0462 166.608 78.5662 166.744 79.0302 166.92V166.056C79.0302 165.128 78.7662 164.408 78.2382 163.896C77.7102 163.368 76.9502 163.104 75.9582 163.104C75.2862 163.104 74.6222 163.232 73.9662 163.488C73.3262 163.728 72.6622 164.08 71.9742 164.544L71.1582 162.864C72.7742 161.776 74.4542 161.232 76.1982 161.232C77.9262 161.232 79.2702 161.672 80.2302 162.552C81.1902 163.432 81.6702 164.696 81.6702 166.344V170.88C81.6702 171.44 81.9022 171.728 82.3662 171.744V174C82.1102 174.048 81.8862 174.08 81.6942 174.096C81.5182 174.112 81.3422 174.12 81.1662 174.12C80.6542 174.12 80.2542 173.992 79.9662 173.736C79.6942 173.48 79.5262 173.152 79.4622 172.752L79.3902 171.96C78.8302 172.696 78.1342 173.264 77.3022 173.664C76.4862 174.048 75.6062 174.24 74.6622 174.24ZM75.3822 172.296C76.0222 172.296 76.6222 172.184 77.1822 171.96C77.7582 171.72 78.2062 171.392 78.5262 170.976C78.8622 170.688 79.0302 170.384 79.0302 170.064V168.408C78.5822 168.232 78.1022 168.096 77.5902 168C77.0942 167.904 76.6062 167.856 76.1262 167.856C75.1822 167.856 74.4062 168.064 73.7982 168.48C73.2062 168.88 72.9102 169.416 72.9102 170.088C72.9102 170.712 73.1422 171.24 73.6062 171.672C74.0702 172.088 74.6622 172.296 75.3822 172.296ZM84.8971 156.48H87.5371V170.376C87.5371 170.84 87.6571 171.208 87.8971 171.48C88.1371 171.736 88.4731 171.864 88.9051 171.864C89.0811 171.864 89.2811 171.832 89.5051 171.768C89.7451 171.704 89.9691 171.632 90.1771 171.552L90.5611 173.616C90.1771 173.792 89.7211 173.928 89.1931 174.024C88.6651 174.136 88.1931 174.192 87.7771 174.192C86.8651 174.192 86.1531 173.944 85.6411 173.448C85.1451 172.952 84.8971 172.248 84.8971 171.336V156.48ZM92.1158 156.48H94.7558V170.376C94.7558 170.84 94.8758 171.208 95.1158 171.48C95.3558 171.736 95.6918 171.864 96.1238 171.864C96.2998 171.864 96.4998 171.832 96.7238 171.768C96.9638 171.704 97.1878 171.632 97.3958 171.552L97.7798 173.616C97.3958 173.792 96.9398 173.928 96.4118 174.024C95.8838 174.136 95.4118 174.192 94.9958 174.192C94.0838 174.192 93.3718 173.944 92.8598 173.448C92.3638 172.952 92.1158 172.248 92.1158 171.336V156.48ZM22.144 202.24C21.136 202.24 20.128 202.08 19.12 201.76C18.128 201.424 17.272 200.952 16.552 200.344L17.608 198.664C18.36 199.208 19.104 199.624 19.84 199.912C20.576 200.184 21.328 200.32 22.096 200.32C22.88 200.32 23.496 200.168 23.944 199.864C24.408 199.56 24.64 199.128 24.64 198.568C24.64 198.04 24.384 197.656 23.872 197.416C23.36 197.176 22.56 196.912 21.472 196.624C20.688 196.416 20.016 196.216 19.456 196.024C18.896 195.832 18.44 195.608 18.088 195.352C17.736 195.096 17.48 194.8 17.32 194.464C17.16 194.128 17.08 193.72 17.08 193.24C17.08 192.6 17.2 192.032 17.44 191.536C17.696 191.04 18.04 190.624 18.472 190.288C18.92 189.936 19.44 189.672 20.032 189.496C20.624 189.32 21.264 189.232 21.952 189.232C22.896 189.232 23.776 189.376 24.592 189.664C25.408 189.952 26.136 190.368 26.776 190.912L25.648 192.496C24.48 191.568 23.24 191.104 21.928 191.104C21.256 191.104 20.688 191.248 20.224 191.536C19.776 191.808 19.552 192.248 19.552 192.856C19.552 193.112 19.6 193.328 19.696 193.504C19.792 193.68 19.944 193.832 20.152 193.96C20.376 194.088 20.656 194.208 20.992 194.32C21.344 194.416 21.776 194.528 22.288 194.656C23.136 194.864 23.864 195.072 24.472 195.28C25.096 195.488 25.608 195.736 26.008 196.024C26.408 196.296 26.704 196.624 26.896 197.008C27.088 197.376 27.184 197.824 27.184 198.352C27.184 199.552 26.728 200.504 25.816 201.208C24.92 201.896 23.696 202.24 22.144 202.24ZM28.6743 195.712C28.6743 194.832 28.8263 194 29.1303 193.216C29.4343 192.432 29.8663 191.744 30.4263 191.152C31.0023 190.56 31.6903 190.096 32.4903 189.76C33.2903 189.408 34.1863 189.232 35.1783 189.232C36.4743 189.232 37.5863 189.52 38.5143 190.096C39.4583 190.656 40.1623 191.408 40.6263 192.352L38.0583 193.168C37.7543 192.64 37.3463 192.232 36.8343 191.944C36.3223 191.64 35.7543 191.488 35.1303 191.488C34.6023 191.488 34.1063 191.592 33.6423 191.8C33.1943 192.008 32.8023 192.304 32.4663 192.688C32.1303 193.056 31.8663 193.496 31.6743 194.008C31.4823 194.52 31.3863 195.088 31.3863 195.712C31.3863 196.32 31.4823 196.888 31.6743 197.416C31.8823 197.928 32.1543 198.376 32.4903 198.76C32.8423 199.144 33.2423 199.448 33.6903 199.672C34.1543 199.88 34.6423 199.984 35.1543 199.984C35.4743 199.984 35.7943 199.944 36.1143 199.864C36.4343 199.768 36.7223 199.64 36.9783 199.48C37.2503 199.32 37.4823 199.136 37.6743 198.928C37.8823 198.72 38.0343 198.496 38.1303 198.256L40.7223 199.024C40.3063 199.968 39.6103 200.744 38.6343 201.352C37.6583 201.944 36.5063 202.24 35.1783 202.24C34.2023 202.24 33.3143 202.064 32.5143 201.712C31.7143 201.36 31.0263 200.888 30.4503 200.296C29.8903 199.688 29.4503 198.992 29.1303 198.208C28.8263 197.424 28.6743 196.592 28.6743 195.712ZM48.4193 202.24C47.4273 202.24 46.5313 202.064 45.7313 201.712C44.9473 201.36 44.2753 200.888 43.7153 200.296C43.1553 199.704 42.7233 199.016 42.4193 198.232C42.1153 197.432 41.9633 196.6 41.9633 195.736C41.9633 194.872 42.1153 194.048 42.4193 193.264C42.7233 192.464 43.1553 191.768 43.7153 191.176C44.2913 190.584 44.9713 190.112 45.7553 189.76C46.5553 189.408 47.4433 189.232 48.4193 189.232C49.3953 189.232 50.2753 189.408 51.0593 189.76C51.8593 190.112 52.5393 190.584 53.0993 191.176C53.6753 191.768 54.1153 192.464 54.4193 193.264C54.7233 194.048 54.8753 194.872 54.8753 195.736C54.8753 196.6 54.7233 197.432 54.4193 198.232C54.1153 199.016 53.6753 199.704 53.0993 200.296C52.5393 200.888 51.8593 201.36 51.0593 201.712C50.2753 202.064 49.3953 202.24 48.4193 202.24ZM44.6753 195.76C44.6753 196.368 44.7713 196.928 44.9633 197.44C45.1553 197.952 45.4193 198.4 45.7553 198.784C46.0913 199.152 46.4833 199.448 46.9313 199.672C47.3953 199.88 47.8913 199.984 48.4193 199.984C48.9473 199.984 49.4353 199.88 49.8833 199.672C50.3473 199.448 50.7473 199.144 51.0833 198.76C51.4193 198.376 51.6833 197.928 51.8753 197.416C52.0673 196.904 52.1633 196.344 52.1633 195.736C52.1633 195.144 52.0673 194.592 51.8753 194.08C51.6833 193.552 51.4193 193.096 51.0833 192.712C50.7473 192.328 50.3473 192.032 49.8833 191.824C49.4353 191.6 48.9473 191.488 48.4193 191.488C47.9073 191.488 47.4193 191.6 46.9553 191.824C46.5073 192.048 46.1153 192.352 45.7793 192.736C45.4433 193.12 45.1713 193.576 44.9633 194.104C44.7713 194.616 44.6753 195.168 44.6753 195.76ZM64.2728 191.728C63.2488 191.76 62.3368 192 61.5368 192.448C60.7528 192.88 60.1928 193.504 59.8568 194.32V202H57.2168V189.448H59.6648V192.256C60.0968 191.392 60.6568 190.704 61.3448 190.192C62.0488 189.664 62.8008 189.376 63.6008 189.328C63.7608 189.328 63.8888 189.328 63.9848 189.328C64.0968 189.328 64.1928 189.336 64.2728 189.352V191.728ZM71.2486 202.24C70.2726 202.24 69.3846 202.072 68.5846 201.736C67.7846 201.384 67.0966 200.912 66.5206 200.32C65.9606 199.728 65.5206 199.04 65.2006 198.256C64.8966 197.472 64.7446 196.64 64.7446 195.76C64.7446 194.88 64.8966 194.048 65.2006 193.264C65.5206 192.464 65.9606 191.768 66.5206 191.176C67.0966 190.568 67.7846 190.096 68.5846 189.76C69.3846 189.408 70.2806 189.232 71.2726 189.232C72.2486 189.232 73.1286 189.408 73.9126 189.76C74.7126 190.112 75.3926 190.584 75.9526 191.176C76.5126 191.752 76.9366 192.432 77.2246 193.216C77.5286 193.984 77.6806 194.792 77.6806 195.64C77.6806 195.832 77.6726 196.016 77.6566 196.192C77.6406 196.352 77.6246 196.488 77.6086 196.6H67.5526C67.6006 197.16 67.7286 197.664 67.9366 198.112C68.1606 198.56 68.4406 198.952 68.7766 199.288C69.1286 199.608 69.5206 199.856 69.9526 200.032C70.4006 200.208 70.8646 200.296 71.3446 200.296C71.6966 200.296 72.0406 200.256 72.3766 200.176C72.7286 200.08 73.0486 199.952 73.3366 199.792C73.6246 199.616 73.8806 199.408 74.1046 199.168C74.3286 198.928 74.5046 198.664 74.6326 198.376L76.8886 199.024C76.4566 199.968 75.7366 200.744 74.7286 201.352C73.7366 201.944 72.5766 202.24 71.2486 202.24ZM75.0646 194.776C75.0166 194.248 74.8806 193.76 74.6566 193.312C74.4486 192.864 74.1766 192.488 73.8406 192.184C73.5046 191.864 73.1126 191.616 72.6646 191.44C72.2166 191.264 71.7446 191.176 71.2486 191.176C70.7526 191.176 70.2806 191.264 69.8326 191.44C69.4006 191.616 69.0166 191.864 68.6806 192.184C68.3446 192.488 68.0726 192.864 67.8646 193.312C67.6566 193.76 67.5286 194.248 67.4806 194.776H75.0646Z" fill="white"/>
<path d="M26.0825 58.355V80.0011L36.5698 68.8423L47.0526 80.0011V58.355C43.8726 59.8939 40.328 60.7745 36.5698 60.7745C32.8072 60.7745 29.2581 59.8939 26.0825 58.355Z" fill="white"/>
<path d="M36.5743 16C25.2064 16 16 25.2108 16 36.5698C16 47.9333 25.2064 57.1441 36.5743 57.1441C47.9377 57.1441 57.1441 47.9333 57.1441 36.5698C57.1441 25.2108 47.9333 16 36.5743 16ZM44.2463 48.3914L36.5698 44.353L28.8845 48.3914L30.3522 39.8343L24.1434 33.7857L32.7316 32.5359L36.5698 24.7572L40.4125 32.5359L48.9962 33.7857L42.783 39.8343L44.2463 48.3914Z" fill="white"/>
</g>
<defs>
<linearGradient id="paint0_linear" x1="240" y1="8.54492e-06" x2="78.27" y2="270.753" gradientUnits="userSpaceOnUse">
<stop stop-color="#54CEFF"/>
<stop offset="1" stop-color="#92E4FF"/>
</linearGradient>
<clipPath id="clip0">
<rect width="240" height="224" rx="10" fill="white"/>
</clipPath>
</defs>
</svg>
