<svg width="240" height="224" viewBox="0 0 240 224" fill="none" xmlns="http://www.w3.org/2000/svg">
<g clip-path="url(#clip0)">
<rect width="240" height="224" rx="10" fill="url(#paint1_linear)"/>
<path opacity="0.5" fill-rule="evenodd" clip-rule="evenodd" d="M155.703 76.1274C176.092 98.0204 219.475 87.3607 233.768 113.497C247.453 138.52 232.554 168.889 219.069 191.997C205.821 214.702 186.834 241.977 159.793 240.275C131.215 238.477 116.959 202.224 93.4785 184.096C82.5894 175.689 71.7704 168.685 59.4646 162.819C33.5213 150.453 -8.93549 158.141 -18.0735 130.921C-26.4141 106.076 20.5506 100.673 31.0172 78.0805C42.802 52.6429 23.3574 13.6187 44.5562 -4.266C65.1467 -21.6375 102.654 -19.0785 126.089 -2.1282C149.416 14.7447 136.014 54.9847 155.703 76.1274Z" fill="#10A1A5"/>
<path d="M30.424 159.336H24.76V174H22.048V159.336H16.36V156.96H30.424V159.336ZM35.3189 174.24C34.3429 174.24 33.4549 174.072 32.6549 173.736C31.8549 173.384 31.1669 172.912 30.5909 172.32C30.0309 171.728 29.5909 171.04 29.2709 170.256C28.9669 169.472 28.8149 168.64 28.8149 167.76C28.8149 166.88 28.9669 166.048 29.2709 165.264C29.5909 164.464 30.0309 163.768 30.5909 163.176C31.1669 162.568 31.8549 162.096 32.6549 161.76C33.4549 161.408 34.3509 161.232 35.3429 161.232C36.3189 161.232 37.1989 161.408 37.9829 161.76C38.7829 162.112 39.4629 162.584 40.0229 163.176C40.5829 163.752 41.0069 164.432 41.2949 165.216C41.5989 165.984 41.7509 166.792 41.7509 167.64C41.7509 167.832 41.7429 168.016 41.7269 168.192C41.7109 168.352 41.6949 168.488 41.6789 168.6H31.6229C31.6709 169.16 31.7989 169.664 32.0069 170.112C32.2309 170.56 32.5109 170.952 32.8469 171.288C33.1989 171.608 33.5909 171.856 34.0229 172.032C34.4709 172.208 34.9349 172.296 35.4149 172.296C35.7669 172.296 36.1109 172.256 36.4469 172.176C36.7989 172.08 37.1189 171.952 37.4069 171.792C37.6949 171.616 37.9509 171.408 38.1749 171.168C38.3989 170.928 38.5749 170.664 38.7029 170.376L40.9589 171.024C40.5269 171.968 39.8069 172.744 38.7989 173.352C37.8069 173.944 36.6469 174.24 35.3189 174.24ZM39.1349 166.776C39.0869 166.248 38.9509 165.76 38.7269 165.312C38.5189 164.864 38.2469 164.488 37.9109 164.184C37.5749 163.864 37.1829 163.616 36.7349 163.44C36.2869 163.264 35.8149 163.176 35.3189 163.176C34.8229 163.176 34.3509 163.264 33.9029 163.44C33.4709 163.616 33.0869 163.864 32.7509 164.184C32.4149 164.488 32.1429 164.864 31.9349 165.312C31.7269 165.76 31.5989 166.248 31.5509 166.776H39.1349ZM48.4643 174.24C47.4563 174.24 46.4483 174.08 45.4403 173.76C44.4483 173.424 43.5923 172.952 42.8723 172.344L43.9283 170.664C44.6803 171.208 45.4243 171.624 46.1603 171.912C46.8963 172.184 47.6483 172.32 48.4163 172.32C49.2003 172.32 49.8163 172.168 50.2643 171.864C50.7283 171.56 50.9603 171.128 50.9603 170.568C50.9603 170.04 50.7043 169.656 50.1923 169.416C49.6803 169.176 48.8803 168.912 47.7923 168.624C47.0083 168.416 46.3363 168.216 45.7763 168.024C45.2163 167.832 44.7603 167.608 44.4083 167.352C44.0563 167.096 43.8003 166.8 43.6403 166.464C43.4803 166.128 43.4003 165.72 43.4003 165.24C43.4003 164.6 43.5203 164.032 43.7603 163.536C44.0163 163.04 44.3603 162.624 44.7923 162.288C45.2403 161.936 45.7603 161.672 46.3523 161.496C46.9443 161.32 47.5843 161.232 48.2723 161.232C49.2163 161.232 50.0963 161.376 50.9123 161.664C51.7283 161.952 52.4563 162.368 53.0963 162.912L51.9683 164.496C50.8003 163.568 49.5603 163.104 48.2483 163.104C47.5763 163.104 47.0083 163.248 46.5443 163.536C46.0963 163.808 45.8723 164.248 45.8723 164.856C45.8723 165.112 45.9203 165.328 46.0163 165.504C46.1123 165.68 46.2643 165.832 46.4723 165.96C46.6963 166.088 46.9763 166.208 47.3123 166.32C47.6643 166.416 48.0963 166.528 48.6083 166.656C49.4563 166.864 50.1843 167.072 50.7923 167.28C51.4163 167.488 51.9283 167.736 52.3283 168.024C52.7283 168.296 53.0243 168.624 53.2163 169.008C53.4083 169.376 53.5043 169.824 53.5043 170.352C53.5043 171.552 53.0483 172.504 52.1363 173.208C51.2403 173.896 50.0163 174.24 48.4643 174.24ZM62.7946 173.352C62.4586 173.512 61.9946 173.696 61.4026 173.904C60.8106 174.096 60.1786 174.192 59.5066 174.192C59.0906 174.192 58.6986 174.136 58.3306 174.024C57.9626 173.912 57.6346 173.744 57.3466 173.52C57.0746 173.296 56.8586 173.008 56.6986 172.656C56.5386 172.288 56.4586 171.848 56.4586 171.336V163.488H54.8026V161.448H56.4586V157.32H59.0986V161.448H61.8346V163.488H59.0986V170.496C59.1306 170.944 59.2666 171.272 59.5066 171.48C59.7626 171.672 60.0746 171.768 60.4426 171.768C60.8106 171.768 61.1626 171.704 61.4986 171.576C61.8346 171.448 62.0826 171.344 62.2426 171.264L62.7946 173.352ZM22.936 184.96H25.288L32.008 202H29.176L27.376 197.368H20.8L19.024 202H16.168L22.936 184.96ZM26.848 195.376L24.112 188.056L21.28 195.376H26.848ZM40.3883 201.352C40.0523 201.512 39.5883 201.696 38.9963 201.904C38.4043 202.096 37.7723 202.192 37.1003 202.192C36.6843 202.192 36.2923 202.136 35.9243 202.024C35.5563 201.912 35.2283 201.744 34.9403 201.52C34.6683 201.296 34.4523 201.008 34.2923 200.656C34.1323 200.288 34.0523 199.848 34.0523 199.336V191.488H32.3963V189.448H34.0523V185.32H36.6923V189.448H39.4283V191.488H36.6923V198.496C36.7243 198.944 36.8603 199.272 37.1003 199.48C37.3563 199.672 37.6683 199.768 38.0363 199.768C38.4043 199.768 38.7563 199.704 39.0923 199.576C39.4283 199.448 39.6763 199.344 39.8363 199.264L40.3883 201.352ZM49.2008 201.352C48.8648 201.512 48.4008 201.696 47.8088 201.904C47.2168 202.096 46.5848 202.192 45.9128 202.192C45.4968 202.192 45.1048 202.136 44.7368 202.024C44.3688 201.912 44.0408 201.744 43.7528 201.52C43.4808 201.296 43.2648 201.008 43.1048 200.656C42.9448 200.288 42.8648 199.848 42.8648 199.336V191.488H41.2088V189.448H42.8648V185.32H45.5048V189.448H48.2408V191.488H45.5048V198.496C45.5368 198.944 45.6728 199.272 45.9128 199.48C46.1688 199.672 46.4808 199.768 46.8488 199.768C47.2168 199.768 47.5688 199.704 47.9048 199.576C48.2408 199.448 48.4888 199.344 48.6488 199.264L49.2008 201.352ZM56.4126 202.24C55.4366 202.24 54.5486 202.072 53.7486 201.736C52.9486 201.384 52.2606 200.912 51.6846 200.32C51.1246 199.728 50.6846 199.04 50.3646 198.256C50.0606 197.472 49.9086 196.64 49.9086 195.76C49.9086 194.88 50.0606 194.048 50.3646 193.264C50.6846 192.464 51.1246 191.768 51.6846 191.176C52.2606 190.568 52.9486 190.096 53.7486 189.76C54.5486 189.408 55.4446 189.232 56.4366 189.232C57.4126 189.232 58.2926 189.408 59.0766 189.76C59.8766 190.112 60.5566 190.584 61.1166 191.176C61.6766 191.752 62.1006 192.432 62.3886 193.216C62.6926 193.984 62.8446 194.792 62.8446 195.64C62.8446 195.832 62.8366 196.016 62.8206 196.192C62.8046 196.352 62.7886 196.488 62.7726 196.6H52.7166C52.7646 197.16 52.8926 197.664 53.1006 198.112C53.3246 198.56 53.6046 198.952 53.9406 199.288C54.2926 199.608 54.6846 199.856 55.1166 200.032C55.5646 200.208 56.0286 200.296 56.5086 200.296C56.8606 200.296 57.2046 200.256 57.5406 200.176C57.8926 200.08 58.2126 199.952 58.5006 199.792C58.7886 199.616 59.0446 199.408 59.2686 199.168C59.4926 198.928 59.6686 198.664 59.7966 198.376L62.0526 199.024C61.6206 199.968 60.9006 200.744 59.8926 201.352C58.9006 201.944 57.7406 202.24 56.4126 202.24ZM60.2286 194.776C60.1806 194.248 60.0446 193.76 59.8206 193.312C59.6126 192.864 59.3406 192.488 59.0046 192.184C58.6686 191.864 58.2766 191.616 57.8286 191.44C57.3806 191.264 56.9086 191.176 56.4126 191.176C55.9166 191.176 55.4446 191.264 54.9966 191.44C54.5646 191.616 54.1806 191.864 53.8446 192.184C53.5086 192.488 53.2366 192.864 53.0286 193.312C52.8206 193.76 52.6926 194.248 52.6446 194.776H60.2286ZM84.1981 202H81.5581V194.968C81.5581 193.8 81.3661 192.944 80.9821 192.4C80.5981 191.856 80.0381 191.584 79.3021 191.584C78.5501 191.584 77.8621 191.864 77.2381 192.424C76.6301 192.968 76.1901 193.68 75.9181 194.56V202H73.2781V194.968C73.2781 193.784 73.0861 192.928 72.7021 192.4C72.3181 191.856 71.7661 191.584 71.0461 191.584C70.2941 191.584 69.6061 191.856 68.9821 192.4C68.3581 192.944 67.9101 193.656 67.6381 194.536V202H64.9981V189.448H67.3981V191.968C67.8941 191.088 68.5421 190.416 69.3421 189.952C70.1581 189.472 71.0861 189.232 72.1261 189.232C73.1661 189.232 73.9821 189.504 74.5741 190.048C75.1821 190.592 75.5581 191.272 75.7021 192.088C76.2301 191.16 76.8941 190.456 77.6941 189.976C78.4941 189.48 79.4061 189.232 80.4301 189.232C81.1661 189.232 81.7741 189.376 82.2541 189.664C82.7501 189.936 83.1421 190.304 83.4301 190.768C83.7181 191.232 83.9181 191.776 84.0301 192.4C84.1421 193.008 84.1981 193.656 84.1981 194.344V202ZM94.3683 202.24C93.3603 202.24 92.4723 202 91.7043 201.52C90.9363 201.04 90.3283 200.416 89.8803 199.648V207.112H87.2402V189.448H89.5683V191.704C90.0483 190.952 90.6643 190.352 91.4163 189.904C92.1843 189.456 93.0483 189.232 94.0083 189.232C94.8723 189.232 95.6643 189.408 96.3843 189.76C97.1043 190.112 97.7283 190.584 98.2563 191.176C98.7843 191.768 99.1923 192.456 99.4803 193.24C99.7843 194.024 99.9363 194.848 99.9363 195.712C99.9363 196.624 99.8003 197.48 99.5283 198.28C99.2563 199.064 98.8723 199.752 98.3763 200.344C97.8803 200.92 97.2883 201.384 96.6003 201.736C95.9283 202.072 95.1843 202.24 94.3683 202.24ZM93.5043 199.984C94.0643 199.984 94.5683 199.864 95.0163 199.624C95.4803 199.384 95.8723 199.064 96.1923 198.664C96.5283 198.264 96.7843 197.808 96.9603 197.296C97.1363 196.784 97.2243 196.256 97.2243 195.712C97.2243 195.136 97.1203 194.592 96.9123 194.08C96.7203 193.568 96.4483 193.12 96.0963 192.736C95.7603 192.352 95.3523 192.048 94.8723 191.824C94.3923 191.6 93.8723 191.488 93.3123 191.488C92.9763 191.488 92.6243 191.552 92.2563 191.68C91.8883 191.808 91.5443 191.984 91.2243 192.208C90.9043 192.432 90.6243 192.696 90.3843 193C90.1443 193.288 89.9763 193.608 89.8803 193.96V197.248C90.0403 197.632 90.2483 197.992 90.5043 198.328C90.7603 198.664 91.0403 198.952 91.3443 199.192C91.6643 199.432 92.0082 199.624 92.3763 199.768C92.7443 199.912 93.1203 199.984 93.5043 199.984ZM109.131 201.352C108.795 201.512 108.331 201.696 107.739 201.904C107.147 202.096 106.515 202.192 105.843 202.192C105.427 202.192 105.035 202.136 104.667 202.024C104.299 201.912 103.971 201.744 103.683 201.52C103.411 201.296 103.195 201.008 103.035 200.656C102.875 200.288 102.795 199.848 102.795 199.336V191.488H101.139V189.448H102.795V185.32H105.435V189.448H108.171V191.488H105.435V198.496C105.467 198.944 105.603 199.272 105.843 199.48C106.099 199.672 106.411 199.768 106.779 199.768C107.147 199.768 107.499 199.704 107.835 199.576C108.171 199.448 108.419 199.344 108.579 199.264L109.131 201.352ZM115.519 202.24C114.511 202.24 113.503 202.08 112.495 201.76C111.503 201.424 110.647 200.952 109.927 200.344L110.983 198.664C111.735 199.208 112.479 199.624 113.215 199.912C113.951 200.184 114.703 200.32 115.471 200.32C116.255 200.32 116.871 200.168 117.319 199.864C117.783 199.56 118.015 199.128 118.015 198.568C118.015 198.04 117.759 197.656 117.247 197.416C116.735 197.176 115.935 196.912 114.847 196.624C114.063 196.416 113.391 196.216 112.831 196.024C112.271 195.832 111.815 195.608 111.463 195.352C111.111 195.096 110.855 194.8 110.695 194.464C110.535 194.128 110.455 193.72 110.455 193.24C110.455 192.6 110.575 192.032 110.815 191.536C111.071 191.04 111.415 190.624 111.847 190.288C112.295 189.936 112.815 189.672 113.407 189.496C113.999 189.32 114.639 189.232 115.327 189.232C116.271 189.232 117.151 189.376 117.967 189.664C118.783 189.952 119.511 190.368 120.151 190.912L119.023 192.496C117.855 191.568 116.615 191.104 115.303 191.104C114.631 191.104 114.063 191.248 113.599 191.536C113.151 191.808 112.927 192.248 112.927 192.856C112.927 193.112 112.975 193.328 113.071 193.504C113.167 193.68 113.319 193.832 113.527 193.96C113.751 194.088 114.031 194.208 114.367 194.32C114.719 194.416 115.151 194.528 115.663 194.656C116.511 194.864 117.239 195.072 117.847 195.28C118.471 195.488 118.983 195.736 119.383 196.024C119.783 196.296 120.079 196.624 120.271 197.008C120.463 197.376 120.559 197.824 120.559 198.352C120.559 199.552 120.103 200.504 119.191 201.208C118.295 201.896 117.071 202.24 115.519 202.24Z" fill="white"/>
<path fill-rule="evenodd" clip-rule="evenodd" d="M21.503 21.036H23.4317V25.9891C23.4317 29.5483 26.3438 32.4604 29.903 32.4604H47.5477C51.107 32.4604 54.0191 29.5483 54.0191 25.9891V21.036H55.9477C58.9746 21.036 61.4507 23.5122 61.4507 26.539V74.497C61.4507 77.5238 58.9746 80 55.9477 80H21.503C18.4762 80 16 77.5238 16 74.497V26.539C16 23.5122 18.4762 21.036 21.503 21.036ZM29.903 16H47.5477C49.4851 16 51.0711 17.5852 51.0711 19.5226V25.9891C51.0711 27.9273 49.4851 29.5125 47.5477 29.5125H29.903C27.9648 29.5125 26.3796 27.9273 26.3796 25.9891V19.5226C26.3796 17.5852 27.9648 16 29.903 16ZM21.8346 37.4096H55.6162V49.4485H21.8346V37.4096ZM21.8346 54.3617H55.6162V57.6787H21.8346V54.3617ZM21.8346 63.1451H55.6162V66.462H21.8346V63.1451ZM21.8346 71.9276H55.6162V75.2445H21.8346V71.9276Z" fill="white"/>
</g>
<defs>
<linearGradient id="paint1_linear" x1="240" y1="0" x2="78.27" y2="270.753" gradientUnits="userSpaceOnUse">
<stop stop-color="#059BA0"/>
<stop offset="1" stop-color="#63CECD"/>
</linearGradient>
<clipPath id="clip0">
<rect width="240" height="224" rx="10" fill="white"/>
</clipPath>
</defs>
</svg>
