<svg width="240" height="224" viewBox="0 0 240 224" fill="none" xmlns="http://www.w3.org/2000/svg">
<g clip-path="url(#clip0)">
<rect width="240" height="224" rx="10" fill="url(#paint3_linear)"/>
<path opacity="0.5" fill-rule="evenodd" clip-rule="evenodd" d="M155.703 76.1274C176.092 98.0204 219.475 87.3607 233.768 113.497C247.453 138.52 232.554 168.889 219.069 191.997C205.821 214.702 186.834 241.977 159.793 240.275C131.215 238.477 116.959 202.224 93.4785 184.096C82.5894 175.689 71.7704 168.685 59.4646 162.819C33.5213 150.453 -8.93549 158.141 -18.0735 130.921C-26.4141 106.076 20.5506 100.673 31.0172 78.0805C42.802 52.6429 23.3574 13.6187 44.5562 -4.266C65.1467 -21.6375 102.654 -19.0785 126.089 -2.1282C149.416 14.7447 136.014 54.9847 155.703 76.1274Z" fill="#FEA721"/>
<path d="M30.424 159.336H24.76V174H22.048V159.336H16.36V156.96H30.424V159.336ZM35.2709 174.24C34.2789 174.24 33.3829 174.064 32.5829 173.712C31.7989 173.36 31.1269 172.888 30.5669 172.296C30.0069 171.704 29.5749 171.016 29.2709 170.232C28.9669 169.432 28.8149 168.6 28.8149 167.736C28.8149 166.872 28.9669 166.048 29.2709 165.264C29.5749 164.464 30.0069 163.768 30.5669 163.176C31.1429 162.584 31.8229 162.112 32.6069 161.76C33.4069 161.408 34.2949 161.232 35.2709 161.232C36.2469 161.232 37.1269 161.408 37.9109 161.76C38.7109 162.112 39.3909 162.584 39.9509 163.176C40.5269 163.768 40.9669 164.464 41.2709 165.264C41.5749 166.048 41.7269 166.872 41.7269 167.736C41.7269 168.6 41.5749 169.432 41.2709 170.232C40.9669 171.016 40.5269 171.704 39.9509 172.296C39.3909 172.888 38.7109 173.36 37.9109 173.712C37.1269 174.064 36.2469 174.24 35.2709 174.24ZM31.5269 167.76C31.5269 168.368 31.6229 168.928 31.8149 169.44C32.0069 169.952 32.2709 170.4 32.6069 170.784C32.9429 171.152 33.3349 171.448 33.7829 171.672C34.2469 171.88 34.7429 171.984 35.2709 171.984C35.7989 171.984 36.2869 171.88 36.7349 171.672C37.1989 171.448 37.5989 171.144 37.9349 170.76C38.2709 170.376 38.5349 169.928 38.7269 169.416C38.9189 168.904 39.0149 168.344 39.0149 167.736C39.0149 167.144 38.9189 166.592 38.7269 166.08C38.5349 165.552 38.2709 165.096 37.9349 164.712C37.5989 164.328 37.1989 164.032 36.7349 163.824C36.2869 163.6 35.7989 163.488 35.2709 163.488C34.7589 163.488 34.2709 163.6 33.8069 163.824C33.3589 164.048 32.9669 164.352 32.6309 164.736C32.2949 165.12 32.0229 165.576 31.8149 166.104C31.6229 166.616 31.5269 167.168 31.5269 167.76ZM51.1964 174.24C50.1884 174.24 49.3004 174 48.5324 173.52C47.7644 173.04 47.1564 172.416 46.7084 171.648V179.112H44.0684V161.448H46.3964V163.704C46.8764 162.952 47.4924 162.352 48.2444 161.904C49.0124 161.456 49.8764 161.232 50.8364 161.232C51.7004 161.232 52.4924 161.408 53.2124 161.76C53.9324 162.112 54.5564 162.584 55.0844 163.176C55.6124 163.768 56.0204 164.456 56.3084 165.24C56.6124 166.024 56.7644 166.848 56.7644 167.712C56.7644 168.624 56.6284 169.48 56.3564 170.28C56.0844 171.064 55.7004 171.752 55.2044 172.344C54.7084 172.92 54.1164 173.384 53.4284 173.736C52.7564 174.072 52.0124 174.24 51.1964 174.24ZM50.3324 171.984C50.8924 171.984 51.3964 171.864 51.8444 171.624C52.3084 171.384 52.7004 171.064 53.0204 170.664C53.3564 170.264 53.6124 169.808 53.7884 169.296C53.9644 168.784 54.0524 168.256 54.0524 167.712C54.0524 167.136 53.9484 166.592 53.7404 166.08C53.5484 165.568 53.2764 165.12 52.9244 164.736C52.5884 164.352 52.1804 164.048 51.7004 163.824C51.2204 163.6 50.7004 163.488 50.1404 163.488C49.8044 163.488 49.4524 163.552 49.0844 163.68C48.7164 163.808 48.3724 163.984 48.0524 164.208C47.7324 164.432 47.4524 164.696 47.2124 165C46.9724 165.288 46.8044 165.608 46.7084 165.96V169.248C46.8684 169.632 47.0764 169.992 47.3324 170.328C47.5884 170.664 47.8684 170.952 48.1724 171.192C48.4924 171.432 48.8364 171.624 49.2044 171.768C49.5724 171.912 49.9484 171.984 50.3324 171.984ZM59.1387 174V161.448H61.7787V174H59.1387ZM59.1387 159.384V156.48H61.7787V159.384H59.1387ZM64.1352 167.712C64.1352 166.832 64.2872 166 64.5912 165.216C64.8952 164.432 65.3272 163.744 65.8872 163.152C66.4632 162.56 67.1512 162.096 67.9512 161.76C68.7512 161.408 69.6472 161.232 70.6392 161.232C71.9352 161.232 73.0472 161.52 73.9752 162.096C74.9192 162.656 75.6232 163.408 76.0872 164.352L73.5192 165.168C73.2152 164.64 72.8072 164.232 72.2952 163.944C71.7832 163.64 71.2152 163.488 70.5912 163.488C70.0632 163.488 69.5672 163.592 69.1032 163.8C68.6552 164.008 68.2632 164.304 67.9272 164.688C67.5912 165.056 67.3272 165.496 67.1352 166.008C66.9432 166.52 66.8472 167.088 66.8472 167.712C66.8472 168.32 66.9432 168.888 67.1352 169.416C67.3432 169.928 67.6152 170.376 67.9512 170.76C68.3032 171.144 68.7032 171.448 69.1512 171.672C69.6152 171.88 70.1032 171.984 70.6152 171.984C70.9352 171.984 71.2552 171.944 71.5752 171.864C71.8952 171.768 72.1832 171.64 72.4392 171.48C72.7112 171.32 72.9432 171.136 73.1352 170.928C73.3432 170.72 73.4952 170.496 73.5912 170.256L76.1832 171.024C75.7672 171.968 75.0712 172.744 74.0952 173.352C73.1192 173.944 71.9672 174.24 70.6392 174.24C69.6632 174.24 68.7752 174.064 67.9752 173.712C67.1752 173.36 66.4872 172.888 65.9112 172.296C65.3512 171.688 64.9112 170.992 64.5912 170.208C64.2872 169.424 64.1352 168.592 64.1352 167.712ZM82.9174 174.24C81.9094 174.24 80.9014 174.08 79.8934 173.76C78.9014 173.424 78.0454 172.952 77.3254 172.344L78.3814 170.664C79.1334 171.208 79.8774 171.624 80.6134 171.912C81.3494 172.184 82.1014 172.32 82.8694 172.32C83.6534 172.32 84.2694 172.168 84.7174 171.864C85.1814 171.56 85.4134 171.128 85.4134 170.568C85.4134 170.04 85.1574 169.656 84.6454 169.416C84.1334 169.176 83.3334 168.912 82.2454 168.624C81.4614 168.416 80.7894 168.216 80.2294 168.024C79.6694 167.832 79.2134 167.608 78.8614 167.352C78.5094 167.096 78.2534 166.8 78.0934 166.464C77.9334 166.128 77.8534 165.72 77.8534 165.24C77.8534 164.6 77.9734 164.032 78.2134 163.536C78.4694 163.04 78.8134 162.624 79.2454 162.288C79.6934 161.936 80.2134 161.672 80.8054 161.496C81.3974 161.32 82.0374 161.232 82.7254 161.232C83.6694 161.232 84.5494 161.376 85.3654 161.664C86.1814 161.952 86.9094 162.368 87.5494 162.912L86.4214 164.496C85.2534 163.568 84.0134 163.104 82.7014 163.104C82.0294 163.104 81.4614 163.248 80.9974 163.536C80.5494 163.808 80.3254 164.248 80.3254 164.856C80.3254 165.112 80.3734 165.328 80.4694 165.504C80.5654 165.68 80.7174 165.832 80.9254 165.96C81.1494 166.088 81.4294 166.208 81.7654 166.32C82.1174 166.416 82.5494 166.528 83.0614 166.656C83.9094 166.864 84.6374 167.072 85.2454 167.28C85.8694 167.488 86.3814 167.736 86.7814 168.024C87.1814 168.296 87.4774 168.624 87.6694 169.008C87.8614 169.376 87.9574 169.824 87.9574 170.352C87.9574 171.552 87.5014 172.504 86.5894 173.208C85.6934 173.896 84.4694 174.24 82.9174 174.24ZM17.92 202V184.96H25.072C25.84 184.96 26.544 185.12 27.184 185.44C27.84 185.76 28.4 186.184 28.864 186.712C29.328 187.224 29.688 187.816 29.944 188.488C30.216 189.144 30.352 189.816 30.352 190.504C30.352 191.224 30.224 191.92 29.968 192.592C29.728 193.248 29.384 193.84 28.936 194.368C28.488 194.88 27.944 195.296 27.304 195.616C26.68 195.92 25.984 196.072 25.216 196.072H20.608V202H17.92ZM20.608 193.696H25.048C25.432 193.696 25.776 193.616 26.08 193.456C26.4 193.296 26.672 193.072 26.896 192.784C27.12 192.496 27.296 192.16 27.424 191.776C27.552 191.392 27.616 190.968 27.616 190.504C27.616 190.024 27.544 189.592 27.4 189.208C27.256 188.824 27.056 188.496 26.8 188.224C26.544 187.936 26.248 187.72 25.912 187.576C25.592 187.416 25.256 187.336 24.904 187.336H20.608V193.696ZM39.5931 191.728C38.5691 191.76 37.6571 192 36.8571 192.448C36.0731 192.88 35.5131 193.504 35.1771 194.32V202H32.5371V189.448H34.9851V192.256C35.4171 191.392 35.9771 190.704 36.6651 190.192C37.3691 189.664 38.1211 189.376 38.9211 189.328C39.0811 189.328 39.2091 189.328 39.3051 189.328C39.4171 189.328 39.5131 189.336 39.5931 189.352V191.728ZM44.6856 202.24C44.0776 202.24 43.5096 202.144 42.9816 201.952C42.4696 201.744 42.0216 201.464 41.6376 201.112C41.2696 200.76 40.9736 200.344 40.7496 199.864C40.5416 199.384 40.4376 198.864 40.4376 198.304C40.4376 197.712 40.5656 197.176 40.8216 196.696C41.0776 196.216 41.4376 195.8 41.9016 195.448C42.3816 195.096 42.9416 194.824 43.5816 194.632C44.2376 194.44 44.9576 194.344 45.7416 194.344C46.3336 194.344 46.9176 194.4 47.4936 194.512C48.0696 194.608 48.5896 194.744 49.0536 194.92V194.056C49.0536 193.128 48.7896 192.408 48.2616 191.896C47.7336 191.368 46.9736 191.104 45.9816 191.104C45.3096 191.104 44.6456 191.232 43.9896 191.488C43.3496 191.728 42.6856 192.08 41.9976 192.544L41.1816 190.864C42.7976 189.776 44.4776 189.232 46.2216 189.232C47.9496 189.232 49.2936 189.672 50.2536 190.552C51.2136 191.432 51.6936 192.696 51.6936 194.344V198.88C51.6936 199.44 51.9256 199.728 52.3896 199.744V202C52.1336 202.048 51.9096 202.08 51.7176 202.096C51.5416 202.112 51.3656 202.12 51.1896 202.12C50.6776 202.12 50.2776 201.992 49.9896 201.736C49.7176 201.48 49.5496 201.152 49.4856 200.752L49.4136 199.96C48.8536 200.696 48.1576 201.264 47.3256 201.664C46.5096 202.048 45.6296 202.24 44.6856 202.24ZM45.4056 200.296C46.0456 200.296 46.6456 200.184 47.2056 199.96C47.7816 199.72 48.2296 199.392 48.5496 198.976C48.8856 198.688 49.0536 198.384 49.0536 198.064V196.408C48.6056 196.232 48.1256 196.096 47.6136 196C47.1176 195.904 46.6296 195.856 46.1496 195.856C45.2056 195.856 44.4296 196.064 43.8216 196.48C43.2296 196.88 42.9336 197.416 42.9336 198.088C42.9336 198.712 43.1656 199.24 43.6296 199.672C44.0936 200.088 44.6856 200.296 45.4056 200.296ZM54.0805 195.712C54.0805 194.832 54.2325 194 54.5365 193.216C54.8405 192.432 55.2725 191.744 55.8325 191.152C56.4085 190.56 57.0965 190.096 57.8965 189.76C58.6965 189.408 59.5925 189.232 60.5845 189.232C61.8805 189.232 62.9925 189.52 63.9205 190.096C64.8645 190.656 65.5685 191.408 66.0325 192.352L63.4645 193.168C63.1605 192.64 62.7525 192.232 62.2405 191.944C61.7285 191.64 61.1605 191.488 60.5365 191.488C60.0085 191.488 59.5125 191.592 59.0485 191.8C58.6005 192.008 58.2085 192.304 57.8725 192.688C57.5365 193.056 57.2725 193.496 57.0805 194.008C56.8885 194.52 56.7925 195.088 56.7925 195.712C56.7925 196.32 56.8885 196.888 57.0805 197.416C57.2885 197.928 57.5605 198.376 57.8965 198.76C58.2485 199.144 58.6485 199.448 59.0965 199.672C59.5605 199.88 60.0485 199.984 60.5605 199.984C60.8805 199.984 61.2005 199.944 61.5205 199.864C61.8405 199.768 62.1285 199.64 62.3845 199.48C62.6565 199.32 62.8885 199.136 63.0805 198.928C63.2885 198.72 63.4405 198.496 63.5365 198.256L66.1285 199.024C65.7125 199.968 65.0165 200.744 64.0405 201.352C63.0645 201.944 61.9125 202.24 60.5845 202.24C59.6085 202.24 58.7205 202.064 57.9205 201.712C57.1205 201.36 56.4325 200.888 55.8565 200.296C55.2965 199.688 54.8565 198.992 54.5365 198.208C54.2325 197.424 54.0805 196.592 54.0805 195.712ZM75.2868 201.352C74.9508 201.512 74.4868 201.696 73.8948 201.904C73.3028 202.096 72.6708 202.192 71.9988 202.192C71.5828 202.192 71.1908 202.136 70.8228 202.024C70.4548 201.912 70.1268 201.744 69.8388 201.52C69.5668 201.296 69.3508 201.008 69.1908 200.656C69.0308 200.288 68.9508 199.848 68.9508 199.336V191.488H67.2948V189.448H68.9508V185.32H71.5908V189.448H74.3268V191.488H71.5908V198.496C71.6228 198.944 71.7588 199.272 71.9988 199.48C72.2548 199.672 72.5668 199.768 72.9348 199.768C73.3028 199.768 73.6548 199.704 73.9908 199.576C74.3268 199.448 74.5748 199.344 74.7348 199.264L75.2868 201.352ZM77.1152 202V189.448H79.7553V202H77.1152ZM77.1152 187.384V184.48H79.7553V187.384H77.1152ZM82.1118 195.712C82.1118 194.832 82.2638 194 82.5678 193.216C82.8718 192.432 83.3038 191.744 83.8638 191.152C84.4398 190.56 85.1278 190.096 85.9278 189.76C86.7278 189.408 87.6238 189.232 88.6158 189.232C89.9118 189.232 91.0238 189.52 91.9518 190.096C92.8958 190.656 93.5998 191.408 94.0638 192.352L91.4958 193.168C91.1918 192.64 90.7838 192.232 90.2718 191.944C89.7598 191.64 89.1918 191.488 88.5678 191.488C88.0398 191.488 87.5438 191.592 87.0798 191.8C86.6318 192.008 86.2398 192.304 85.9038 192.688C85.5678 193.056 85.3038 193.496 85.1118 194.008C84.9198 194.52 84.8238 195.088 84.8238 195.712C84.8238 196.32 84.9198 196.888 85.1118 197.416C85.3198 197.928 85.5918 198.376 85.9278 198.76C86.2798 199.144 86.6798 199.448 87.1278 199.672C87.5918 199.88 88.0798 199.984 88.5918 199.984C88.9118 199.984 89.2318 199.944 89.5518 199.864C89.8718 199.768 90.1598 199.64 90.4158 199.48C90.6878 199.32 90.9198 199.136 91.1118 198.928C91.3198 198.72 91.4718 198.496 91.5678 198.256L94.1598 199.024C93.7438 199.968 93.0478 200.744 92.0718 201.352C91.0958 201.944 89.9438 202.24 88.6158 202.24C87.6398 202.24 86.7518 202.064 85.9518 201.712C85.1518 201.36 84.4638 200.888 83.8878 200.296C83.3278 199.688 82.8878 198.992 82.5678 198.208C82.2638 197.424 82.1118 196.592 82.1118 195.712ZM101.905 202.24C100.929 202.24 100.041 202.072 99.2408 201.736C98.4408 201.384 97.7528 200.912 97.1768 200.32C96.6168 199.728 96.1768 199.04 95.8568 198.256C95.5528 197.472 95.4008 196.64 95.4008 195.76C95.4008 194.88 95.5528 194.048 95.8568 193.264C96.1768 192.464 96.6168 191.768 97.1768 191.176C97.7528 190.568 98.4408 190.096 99.2408 189.76C100.041 189.408 100.937 189.232 101.929 189.232C102.905 189.232 103.785 189.408 104.569 189.76C105.369 190.112 106.049 190.584 106.609 191.176C107.169 191.752 107.593 192.432 107.881 193.216C108.185 193.984 108.337 194.792 108.337 195.64C108.337 195.832 108.329 196.016 108.313 196.192C108.297 196.352 108.281 196.488 108.265 196.6H98.2088C98.2568 197.16 98.3848 197.664 98.5928 198.112C98.8168 198.56 99.0968 198.952 99.4328 199.288C99.7848 199.608 100.177 199.856 100.609 200.032C101.057 200.208 101.521 200.296 102.001 200.296C102.353 200.296 102.697 200.256 103.033 200.176C103.385 200.08 103.705 199.952 103.993 199.792C104.281 199.616 104.537 199.408 104.761 199.168C104.985 198.928 105.161 198.664 105.289 198.376L107.545 199.024C107.113 199.968 106.393 200.744 105.385 201.352C104.393 201.944 103.233 202.24 101.905 202.24ZM105.721 194.776C105.673 194.248 105.537 193.76 105.313 193.312C105.105 192.864 104.833 192.488 104.497 192.184C104.161 191.864 103.769 191.616 103.321 191.44C102.873 191.264 102.401 191.176 101.905 191.176C101.409 191.176 100.937 191.264 100.489 191.44C100.057 191.616 99.6728 191.864 99.3368 192.184C99.0008 192.488 98.7288 192.864 98.5208 193.312C98.3128 193.76 98.1848 194.248 98.1368 194.776H105.721ZM115.602 202.24C114.754 202.24 113.97 202.072 113.25 201.736C112.53 201.384 111.906 200.912 111.378 200.32C110.85 199.728 110.434 199.04 110.13 198.256C109.842 197.456 109.698 196.6 109.698 195.688C109.698 194.808 109.834 193.984 110.106 193.216C110.394 192.432 110.786 191.744 111.282 191.152C111.794 190.56 112.386 190.096 113.058 189.76C113.746 189.408 114.498 189.232 115.314 189.232C116.322 189.232 117.21 189.48 117.978 189.976C118.746 190.456 119.346 191.072 119.778 191.824V184.48H122.418V198.88C122.418 199.184 122.466 199.4 122.562 199.528C122.674 199.656 122.866 199.728 123.138 199.744V202C122.866 202.048 122.642 202.08 122.466 202.096C122.306 202.112 122.17 202.12 122.058 202.12C121.53 202.12 121.098 201.984 120.762 201.712C120.426 201.44 120.242 201.088 120.21 200.656L120.162 199.72C119.698 200.504 119.066 201.12 118.266 201.568C117.466 202.016 116.578 202.24 115.602 202.24ZM116.25 199.984C116.634 199.984 117.018 199.92 117.402 199.792C117.786 199.664 118.138 199.488 118.458 199.264C118.778 199.04 119.05 198.776 119.274 198.472C119.514 198.168 119.682 197.84 119.778 197.488V194.2C119.634 193.8 119.426 193.432 119.154 193.096C118.898 192.76 118.602 192.472 118.266 192.232C117.93 191.992 117.57 191.808 117.186 191.68C116.818 191.552 116.442 191.488 116.058 191.488C115.53 191.488 115.042 191.608 114.594 191.848C114.162 192.088 113.786 192.408 113.466 192.808C113.146 193.208 112.89 193.664 112.698 194.176C112.522 194.688 112.434 195.216 112.434 195.76C112.434 196.336 112.53 196.88 112.722 197.392C112.93 197.904 113.21 198.352 113.562 198.736C113.914 199.12 114.314 199.424 114.762 199.648C115.226 199.872 115.722 199.984 116.25 199.984Z" fill="white"/>
<path d="M17.7164 62.5455H33.4545V78.2836L17.7164 62.5455ZM62.5455 18.9091V77.0909C62.5455 77.8624 62.239 78.6024 61.6934 79.1479C61.1478 79.6935 60.4079 80 59.6364 80H39.2727V59.6364C39.2727 58.8648 38.9662 58.1249 38.4207 57.5793C37.8751 57.0338 37.1352 56.7273 36.3636 56.7273H16V18.9091C16 18.1376 16.3065 17.3976 16.8521 16.8521C17.3976 16.3065 18.1376 16 18.9091 16H59.6364C60.4079 16 61.1478 16.3065 61.6934 16.8521C62.239 17.3976 62.5455 18.1376 62.5455 18.9091ZM50.0655 28.48C49.795 28.2073 49.4733 27.9909 49.1188 27.8432C48.7643 27.6955 48.384 27.6195 48 27.6195C47.616 27.6195 47.2357 27.6955 46.8812 27.8432C46.5267 27.9909 46.205 28.2073 45.9345 28.48L36.3636 38.08L32.6109 34.2982C32.3397 34.0269 32.0177 33.8118 31.6633 33.665C31.3089 33.5182 30.929 33.4426 30.5455 33.4426C29.7708 33.4426 29.0278 33.7504 28.48 34.2982C28.2088 34.5694 27.9936 34.8914 27.8468 35.2458C27.7 35.6002 27.6245 35.98 27.6245 36.3636C27.6245 37.1383 27.9322 37.8813 28.48 38.4291L34.2982 44.2473C34.5686 44.5199 34.8904 44.7364 35.2449 44.884C35.5994 45.0317 35.9796 45.1078 36.3636 45.1078C36.7477 45.1078 37.1279 45.0317 37.4824 44.884C37.8369 44.7364 38.1587 44.5199 38.4291 44.2473L50.0655 32.6109C50.3381 32.3405 50.5545 32.0187 50.7022 31.6642C50.8499 31.3097 50.926 30.9295 50.926 30.5455C50.926 30.1614 50.8499 29.7812 50.7022 29.4267C50.5545 29.0722 50.3381 28.7504 50.0655 28.48Z" fill="white"/>
</g>
<defs>
<linearGradient id="paint3_linear" x1="240" y1="8.54492e-06" x2="78.27" y2="270.753" gradientUnits="userSpaceOnUse">
<stop stop-color="#FFB138"/>
<stop offset="1" stop-color="#FFC977"/>
</linearGradient>
<clipPath id="clip0">
<rect width="240" height="224" rx="10" fill="white"/>
</clipPath>
</defs>
</svg>
