<svg width="250" height="234" viewBox="0 0 250 234" fill="none" xmlns="http://www.w3.org/2000/svg">
<g filter="url(#filter0_dsss)">
<rect x="5" y="3" width="240" height="224" rx="16" fill="white"/>
<path d="M35.3711 129.96L40.5071 143.712L45.6191 129.96H48.4751L41.7791 147H39.2351L32.5151 129.96H35.3711ZM50.2207 132.384V129.48H52.8607V132.384H50.2207ZM50.2207 147V134.448H52.8607V147H50.2207ZM61.7212 147.24C60.4252 147.24 59.2892 146.944 58.3132 146.352C57.3372 145.76 56.5772 144.976 56.0332 144C55.4892 143.008 55.2172 141.928 55.2172 140.76C55.2172 139.576 55.4892 138.488 56.0332 137.496C56.5772 136.504 57.3372 135.712 58.3132 135.12C59.2892 134.528 60.4332 134.232 61.7452 134.232C63.0572 134.232 64.1932 134.536 65.1532 135.144C66.1132 135.736 66.8492 136.52 67.3612 137.496C67.8892 138.472 68.1532 139.52 68.1532 140.64C68.1532 141.04 68.1292 141.36 68.0812 141.6H58.0252C58.0732 142.336 58.2732 142.984 58.6252 143.544C58.9932 144.088 59.4492 144.52 59.9932 144.84C60.5532 145.144 61.1612 145.296 61.8172 145.296C62.5212 145.296 63.1852 145.12 63.8092 144.768C64.4332 144.416 64.8652 143.952 65.1052 143.376L67.3612 144.024C66.9292 144.968 66.2092 145.744 65.2012 146.352C64.2092 146.944 63.0492 147.24 61.7212 147.24ZM57.9532 139.848H65.5372C65.4732 139.128 65.2652 138.496 64.9132 137.952C64.5612 137.392 64.1052 136.96 63.5452 136.656C63.0012 136.336 62.3932 136.176 61.7212 136.176C61.0652 136.176 60.4572 136.336 59.8972 136.656C59.3532 136.96 58.9052 137.392 58.5532 137.952C58.2012 138.496 58.0012 139.128 57.9532 139.848ZM85.6031 134.448H88.1231L82.8431 147H80.5871L78.3311 141.336L76.0751 147H73.8191L68.5151 134.448H71.0351L75.0671 144.432L76.8431 139.8L74.6831 134.472H76.9151L78.3311 138.384L79.7231 134.472H81.9551L79.8191 139.8L81.5951 144.432L85.6031 134.448ZM94.335 140.736C94.335 139.536 94.575 138.448 95.055 137.472C95.551 136.48 96.223 135.696 97.071 135.12C97.919 134.528 98.895 134.232 99.999 134.232C100.959 134.232 101.823 134.48 102.591 134.976C103.375 135.472 103.983 136.088 104.415 136.824V129.48H107.055V144.024C107.055 144.328 107.111 144.544 107.223 144.672C107.335 144.8 107.519 144.872 107.775 144.888V147C107.279 147.08 106.895 147.12 106.623 147.12C106.127 147.12 105.703 146.984 105.351 146.712C105.015 146.424 104.839 146.072 104.823 145.656L104.799 144.72C104.319 145.52 103.671 146.144 102.855 146.592C102.039 147.024 101.191 147.24 100.311 147.24C99.159 147.24 98.127 146.944 97.215 146.352C96.319 145.76 95.615 144.976 95.103 144C94.591 143.008 94.335 141.92 94.335 140.736ZM104.415 142.488V139.2C104.223 138.688 103.935 138.232 103.551 137.832C103.167 137.416 102.727 137.088 102.231 136.848C101.751 136.608 101.271 136.488 100.791 136.488C100.039 136.488 99.383 136.696 98.823 137.112C98.279 137.512 97.847 138.04 97.527 138.696C97.223 139.352 97.071 140.048 97.071 140.784C97.071 141.552 97.239 142.256 97.575 142.896C97.927 143.536 98.399 144.048 98.991 144.432C99.583 144.8 100.247 144.984 100.983 144.984C101.431 144.984 101.895 144.88 102.375 144.672C102.871 144.448 103.303 144.152 103.671 143.784C104.039 143.4 104.287 142.968 104.415 142.488ZM109.496 143.328C109.496 142.528 109.72 141.832 110.168 141.24C110.616 140.632 111.24 140.168 112.04 139.848C112.856 139.512 113.792 139.344 114.848 139.344C115.408 139.344 115.976 139.392 116.552 139.488C117.144 139.568 117.664 139.688 118.112 139.848V139.056C118.112 138.176 117.848 137.488 117.32 136.992C116.792 136.496 116.032 136.248 115.04 136.248C114.352 136.248 113.688 136.368 113.048 136.608C112.408 136.848 111.744 137.2 111.056 137.664L110.168 135.888C111 135.344 111.832 134.936 112.664 134.664C113.512 134.376 114.4 134.232 115.328 134.232C117.008 134.232 118.328 134.68 119.288 135.576C120.264 136.456 120.752 137.712 120.752 139.344V144.024C120.752 144.328 120.8 144.544 120.896 144.672C121.008 144.8 121.192 144.872 121.448 144.888V147C121.208 147.048 120.992 147.08 120.8 147.096C120.608 147.112 120.448 147.12 120.32 147.12C119.744 147.12 119.312 146.984 119.024 146.712C118.752 146.424 118.592 146.104 118.544 145.752L118.472 145.032C117.928 145.736 117.232 146.28 116.384 146.664C115.536 147.048 114.68 147.24 113.816 147.24C112.984 147.24 112.24 147.072 111.584 146.736C110.928 146.384 110.416 145.912 110.048 145.32C109.68 144.728 109.496 144.064 109.496 143.328ZM117.488 144.096C117.904 143.68 118.112 143.288 118.112 142.92V141.48C117.168 141.128 116.208 140.952 115.232 140.952C114.272 140.952 113.488 141.152 112.88 141.552C112.288 141.936 111.992 142.456 111.992 143.112C111.992 143.656 112.208 144.16 112.64 144.624C113.088 145.072 113.728 145.296 114.56 145.296C115.12 145.296 115.664 145.184 116.192 144.96C116.72 144.736 117.152 144.448 117.488 144.096ZM128.419 147.24C127.363 147.24 126.363 147.064 125.419 146.712C124.475 146.36 123.667 145.848 122.995 145.176L123.979 143.4C124.699 144.04 125.419 144.504 126.139 144.792C126.859 145.08 127.587 145.224 128.323 145.224C129.059 145.224 129.659 145.088 130.123 144.816C130.587 144.528 130.819 144.112 130.819 143.568C130.819 143.184 130.699 142.888 130.459 142.68C130.219 142.472 129.867 142.304 129.403 142.176C128.955 142.048 128.411 141.888 127.771 141.696C126.875 141.424 126.123 141.144 125.515 140.856C124.907 140.552 124.451 140.184 124.147 139.752C123.843 139.32 123.691 138.768 123.691 138.096C123.691 136.88 124.147 135.936 125.059 135.264C125.971 134.576 127.163 134.232 128.635 134.232C129.547 134.232 130.387 134.376 131.155 134.664C131.939 134.936 132.627 135.368 133.219 135.96L132.091 137.712C131.003 136.72 129.803 136.224 128.491 136.224C127.915 136.224 127.379 136.336 126.883 136.56C126.403 136.784 126.163 137.2 126.163 137.808C126.163 138.32 126.379 138.688 126.811 138.912C127.243 139.136 127.883 139.376 128.731 139.632C129.691 139.92 130.515 140.208 131.203 140.496C131.907 140.768 132.443 141.128 132.811 141.576C133.195 142.008 133.387 142.608 133.387 143.376C133.387 144.592 132.931 145.544 132.019 146.232C131.107 146.904 129.907 147.24 128.419 147.24ZM147 147H144.36V139.968C144.36 138.832 144.152 137.984 143.736 137.424C143.32 136.864 142.736 136.584 141.984 136.584C141.504 136.584 141.016 136.712 140.52 136.968C140.04 137.224 139.608 137.576 139.224 138.024C138.84 138.456 138.56 138.96 138.384 139.536V147H135.744V129.48H138.384V136.968C138.864 136.104 139.52 135.432 140.352 134.952C141.184 134.472 142.08 134.232 143.04 134.232C144.08 134.232 144.888 134.472 145.464 134.952C146.04 135.416 146.44 136.04 146.664 136.824C146.888 137.592 147 138.432 147 139.344V147ZM156.832 147.24C155.872 147.24 155 147.016 154.216 146.568C153.432 146.104 152.824 145.488 152.392 144.72V147H150.064V129.48H152.704V136.824C153.2 136.024 153.816 135.392 154.552 134.928C155.304 134.464 156.184 134.232 157.192 134.232C158.312 134.232 159.288 134.536 160.12 135.144C160.952 135.752 161.6 136.56 162.064 137.568C162.528 138.56 162.76 139.632 162.76 140.784C162.76 141.968 162.496 143.048 161.968 144.024C161.456 145 160.752 145.784 159.856 146.376C158.96 146.952 157.952 147.24 156.832 147.24ZM156.136 144.984C156.904 144.984 157.584 144.792 158.176 144.408C158.768 144.008 159.224 143.488 159.544 142.848C159.88 142.208 160.048 141.52 160.048 140.784C160.048 140.032 159.888 139.328 159.568 138.672C159.264 138.016 158.832 137.488 158.272 137.088C157.712 136.688 157.064 136.488 156.328 136.488C155.528 136.488 154.808 136.752 154.168 137.28C153.528 137.808 153.04 138.448 152.704 139.2V142.512C152.832 142.992 153.08 143.416 153.448 143.784C153.816 144.152 154.24 144.448 154.72 144.672C155.216 144.88 155.688 144.984 156.136 144.984ZM170.775 147.24C169.463 147.24 168.319 146.944 167.343 146.352C166.383 145.744 165.639 144.952 165.111 143.976C164.583 142.984 164.319 141.904 164.319 140.736C164.319 139.568 164.583 138.496 165.111 137.52C165.655 136.528 166.407 135.736 167.367 135.144C168.343 134.536 169.479 134.232 170.775 134.232C172.071 134.232 173.199 134.536 174.159 135.144C175.135 135.736 175.887 136.528 176.415 137.52C176.959 138.496 177.231 139.568 177.231 140.736C177.231 141.904 176.967 142.984 176.439 143.976C175.911 144.952 175.159 145.744 174.183 146.352C173.223 146.944 172.087 147.24 170.775 147.24ZM167.031 140.76C167.031 141.56 167.199 142.28 167.535 142.92C167.871 143.56 168.319 144.064 168.879 144.432C169.439 144.8 170.071 144.984 170.775 144.984C171.463 144.984 172.087 144.8 172.647 144.432C173.223 144.048 173.679 143.536 174.015 142.896C174.351 142.256 174.519 141.536 174.519 140.736C174.519 139.936 174.351 139.216 174.015 138.576C173.679 137.936 173.223 137.432 172.647 137.064C172.087 136.68 171.463 136.488 170.775 136.488C170.087 136.488 169.455 136.68 168.879 137.064C168.319 137.432 167.871 137.944 167.535 138.6C167.199 139.24 167.031 139.96 167.031 140.76ZM178.66 143.328C178.66 142.528 178.884 141.832 179.332 141.24C179.78 140.632 180.404 140.168 181.204 139.848C182.02 139.512 182.956 139.344 184.012 139.344C184.572 139.344 185.14 139.392 185.716 139.488C186.308 139.568 186.828 139.688 187.276 139.848V139.056C187.276 138.176 187.012 137.488 186.484 136.992C185.956 136.496 185.196 136.248 184.204 136.248C183.516 136.248 182.852 136.368 182.212 136.608C181.572 136.848 180.908 137.2 180.22 137.664L179.332 135.888C180.164 135.344 180.996 134.936 181.828 134.664C182.676 134.376 183.564 134.232 184.492 134.232C186.172 134.232 187.492 134.68 188.452 135.576C189.428 136.456 189.916 137.712 189.916 139.344V144.024C189.916 144.328 189.964 144.544 190.06 144.672C190.172 144.8 190.356 144.872 190.612 144.888V147C190.372 147.048 190.156 147.08 189.964 147.096C189.772 147.112 189.612 147.12 189.484 147.12C188.908 147.12 188.476 146.984 188.188 146.712C187.916 146.424 187.756 146.104 187.708 145.752L187.636 145.032C187.092 145.736 186.396 146.28 185.548 146.664C184.7 147.048 183.844 147.24 182.98 147.24C182.148 147.24 181.404 147.072 180.748 146.736C180.092 146.384 179.58 145.912 179.212 145.32C178.844 144.728 178.66 144.064 178.66 143.328ZM186.652 144.096C187.068 143.68 187.276 143.288 187.276 142.92V141.48C186.332 141.128 185.372 140.952 184.396 140.952C183.436 140.952 182.652 141.152 182.044 141.552C181.452 141.936 181.156 142.456 181.156 143.112C181.156 143.656 181.372 144.16 181.804 144.624C182.252 145.072 182.892 145.296 183.724 145.296C184.284 145.296 184.828 145.184 185.356 144.96C185.884 144.736 186.316 144.448 186.652 144.096ZM200.175 136.728C199.151 136.76 198.239 137 197.439 137.448C196.655 137.88 196.095 138.504 195.759 139.32V147H193.119V134.448H195.567V137.256C195.999 136.392 196.567 135.704 197.271 135.192C197.975 134.664 198.719 134.376 199.503 134.328C199.647 134.328 199.775 134.328 199.887 134.328C199.999 134.328 200.095 134.336 200.175 134.352V136.728ZM201.14 140.736C201.14 139.536 201.38 138.448 201.86 137.472C202.356 136.48 203.028 135.696 203.876 135.12C204.724 134.528 205.7 134.232 206.804 134.232C207.764 134.232 208.628 134.48 209.396 134.976C210.18 135.472 210.788 136.088 211.22 136.824V129.48H213.86V144.024C213.86 144.328 213.916 144.544 214.028 144.672C214.14 144.8 214.324 144.872 214.58 144.888V147C214.084 147.08 213.7 147.12 213.428 147.12C212.932 147.12 212.508 146.984 212.156 146.712C211.82 146.424 211.644 146.072 211.628 145.656L211.604 144.72C211.124 145.52 210.476 146.144 209.66 146.592C208.844 147.024 207.996 147.24 207.116 147.24C205.964 147.24 204.932 146.944 204.02 146.352C203.124 145.76 202.42 144.976 201.908 144C201.396 143.008 201.14 141.92 201.14 140.736ZM211.22 142.488V139.2C211.028 138.688 210.74 138.232 210.356 137.832C209.972 137.416 209.532 137.088 209.036 136.848C208.556 136.608 208.076 136.488 207.596 136.488C206.844 136.488 206.188 136.696 205.628 137.112C205.084 137.512 204.652 138.04 204.332 138.696C204.028 139.352 203.876 140.048 203.876 140.784C203.876 141.552 204.044 142.256 204.38 142.896C204.732 143.536 205.204 144.048 205.796 144.432C206.388 144.8 207.052 144.984 207.788 144.984C208.236 144.984 208.7 144.88 209.18 144.672C209.676 144.448 210.108 144.152 210.476 143.784C210.844 143.4 211.092 142.968 211.22 142.488Z" fill="url(#paint0_linear_dash)"/>
<path fill-rule="evenodd" clip-rule="evenodd" d="M141 98.4966V83.5016C141 78.2778 137.3 75 132.064 75H117.936C112.7 75 109 78.2605 109 83.5016V98.4966C109 103.738 112.7 107 117.936 107H132.064C137.3 107 141 103.738 141 98.4966Z" stroke="url(#paint1_linear_dash)" stroke-width="2.5" stroke-linecap="round" stroke-linejoin="round"/>
<path d="M132.068 91H117.932" stroke="url(#paint2_linear)" stroke-width="2.5" stroke-linecap="round" stroke-linejoin="round"/>
<path d="M125.557 84.517L132.068 91.0001L125.557 97.4831" stroke="url(#paint3_linear)" stroke-width="2.5" stroke-linecap="round" stroke-linejoin="round"/>
</g>
<defs>
<filter id="filter0_dsss" x="0" y="0" width="250" height="234" filterUnits="userSpaceOnUse" color-interpolation-filters="sRGB">
<feFlood flood-opacity="0" result="BackgroundImageFix"/>
<feColorMatrix in="SourceAlpha" type="matrix" values="0 0 0 0 0 0 0 0 0 0 0 0 0 0 0 0 0 0 127 0"/>
<feOffset dy="2"/>
<feGaussianBlur stdDeviation="2.5"/>
<feColorMatrix type="matrix" values="0 0 0 0 0 0 0 0 0 0 0 0 0 0 0 0 0 0 0.1 0"/>
<feBlend mode="normal" in2="BackgroundImageFix" result="effect1_dropShadow"/>
<feBlend mode="normal" in="SourceGraphic" in2="effect1_dropShadow" result="shape"/>
</filter>
<linearGradient id="paint0_linear_dash" x1="207.1" y1="155.101" x2="188.308" y2="82.5584" gradientUnits="userSpaceOnUse">
<stop stop-color="#FF8058"/>
<stop offset="1" stop-color="#FFA589"/>
</linearGradient>
<linearGradient id="paint1_linear_dash" x1="141.101" y1="76.5478" x2="117.052" y2="112.371" gradientUnits="userSpaceOnUse">
<stop stop-color="#FF8058"/>
<stop offset="1" stop-color="#FFA589"/>
</linearGradient>
<linearGradient id="paint2_linear" x1="132.112" y1="90.2188" x2="131.883" y2="93.0091" gradientUnits="userSpaceOnUse">
<stop stop-color="#FF8058"/>
<stop offset="1" stop-color="#FFA589"/>
</linearGradient>
<linearGradient id="paint3_linear" x1="132.089" y1="85.1442" x2="121.989" y2="92.6984" gradientUnits="userSpaceOnUse">
<stop stop-color="#FF8058"/>
<stop offset="1" stop-color="#FFA589"/>
</linearGradient>
</defs>
</svg>
