<svg width="32" height="32" viewBox="0 0 32 32" fill="none" xmlns="http://www.w3.org/2000/svg">
<rect width="32" height="32" rx="5" fill="url(#paint0_linear)"/>
<path d="M17.8083 22.7338H14.6477V28.1786H17.8083V22.7338Z" fill="#FFB381"/>
<path d="M14.6477 24.5008C15.1074 24.8744 15.639 25.0899 16.228 25.0899C16.817 25.0899 17.3485 24.8744 17.8083 24.5008V22.7338H14.6477V24.5008Z" fill="#FFB381"/>
<path d="M21.5578 12.62C21.3423 10.2496 17.7795 9.21521 15.955 9.22958C13.915 9.24394 11.1136 10.1777 10.8981 12.62C10.7688 14.0854 10.6826 15.5651 10.7113 17.0448C10.7257 18.3808 10.6251 19.9037 11.0561 21.1823C11.7026 23.1648 14.2023 23.6389 15.9406 24.1417C16.0412 24.1704 16.1418 24.1848 16.228 24.1704C16.3142 24.1848 16.4147 24.1704 16.5153 24.1417C18.2536 23.6532 20.6097 23.1935 21.3567 21.3115C21.8451 20.0904 21.7158 18.5676 21.7446 17.2746C21.7877 15.7231 21.7015 14.1572 21.5578 12.62Z" fill="#FFB381"/>
<path d="M24.7615 32C24.6322 31.1955 24.3017 30.4485 23.9569 29.802C23.4685 28.8825 22.9657 28.2073 22.1755 27.8194C20.3367 26.9144 18.3541 26.6127 16.4434 26.1673C16.3572 26.153 16.2854 26.153 16.2136 26.153C16.1417 26.1386 16.0699 26.1386 15.9837 26.1673C14.073 26.5983 12.0905 26.9144 10.2516 27.8194C9.46146 28.2073 8.95864 28.8682 8.47019 29.802C8.13977 30.4341 7.79498 31.1955 7.68005 32H24.7615Z" fill="#341908"/>
<path d="M11.3866 16.973C11.3148 16.8006 11.2429 16.6426 11.1567 16.4845C11.1424 16.4558 11.1136 16.3983 11.1136 16.3696C11.128 16.384 11.1424 16.4271 11.1711 16.5133C11.1424 16.4414 11.1136 16.3552 11.0705 16.2834C10.8981 16.0679 10.8981 16.0535 11.0418 16.2547C10.8838 16.0392 10.6108 15.8524 10.3379 15.8381C10.3091 15.8237 10.2804 15.8093 10.2373 15.8093C9.82068 15.7088 9.40406 15.8668 9.11673 16.1828C8.51336 16.8724 8.68575 17.9212 9.2173 18.5964C9.44716 18.8837 9.86378 19.0704 10.2229 19.0561C10.7114 19.0417 11.0993 18.74 11.3148 18.3234C11.5446 17.8924 11.559 17.4183 11.3866 16.973Z" fill="#FFB381"/>
<path d="M21.3424 16.3696C21.3568 16.3409 21.3568 16.3552 21.3424 16.3696V16.3696Z" fill="#FFB381"/>
<path d="M21.1413 18.309C21.3712 18.7256 21.7591 19.0273 22.2331 19.0417C22.5923 19.0561 23.0089 18.8693 23.2388 18.582C23.756 17.9068 23.9427 16.858 23.3393 16.1685C23.0664 15.8524 22.6354 15.68 22.2188 15.7949C22.1901 15.8093 22.1613 15.8093 22.1182 15.8237C21.8453 15.838 21.5723 16.0248 21.4143 16.2403C21.5723 16.0392 21.5579 16.0535 21.3855 16.269C21.3568 16.3409 21.3137 16.4127 21.285 16.4989C21.3137 16.4271 21.3281 16.384 21.3424 16.3552C21.3281 16.384 21.3137 16.4414 21.2993 16.4702C21.2131 16.6282 21.1413 16.7862 21.0695 16.9586C20.8827 17.4183 20.9115 17.8924 21.1413 18.309Z" fill="#FFB381"/>
<path d="M15.2654 15.4071C16.0269 16.4414 16.6877 18.2947 15.3373 19.1279C15.2223 19.1997 15.2223 19.329 15.2942 19.4296C15.5959 19.8031 16.0125 20.2916 16.5297 20.1766C16.6015 20.1623 16.6159 20.0617 16.5728 20.0186C16.2423 19.7025 15.8545 19.5158 15.5671 19.1566C15.5528 19.2572 15.5384 19.3578 15.524 19.4583C17.0181 18.3952 16.4004 16.4702 15.4378 15.2634C15.366 15.1628 15.1936 15.3065 15.2654 15.4071Z" fill="#D1722E"/>
<path d="M12.3634 15.7088C12.6938 15.4502 13.1679 15.2778 13.5702 15.2347C13.7138 15.2203 13.8287 15.3352 13.9868 15.3783C14.2597 15.4502 14.389 15.2347 14.4178 14.9904C14.4896 14.2865 13.7713 14.1285 13.2254 14.2434C12.7513 14.344 12.2485 14.8037 11.9468 15.1628C11.7313 15.4502 12.0473 15.953 12.3634 15.7088Z" fill="#D1722E"/>
<path d="M13.4696 18.3952C13.8266 18.3952 14.1161 17.9321 14.1161 17.3609C14.1161 16.7896 13.8266 16.3265 13.4696 16.3265C13.1126 16.3265 12.8231 16.7896 12.8231 17.3609C12.8231 17.9321 13.1126 18.3952 13.4696 18.3952Z" fill="#3C1E05"/>
<path d="M19.9344 15.7088C19.6039 15.4502 19.1299 15.2778 18.7276 15.2347C18.5839 15.2203 18.469 15.3352 18.311 15.3783C18.038 15.4502 17.9087 15.2347 17.88 14.9904C17.8082 14.2865 18.5265 14.1285 19.0724 14.2434C19.5465 14.344 20.0493 14.8037 20.351 15.1628C20.5665 15.4502 20.2648 15.953 19.9344 15.7088Z" fill="#D1722E"/>
<path d="M19.1873 18.3952C19.5443 18.3952 19.8337 17.9321 19.8337 17.3609C19.8337 16.7896 19.5443 16.3265 19.1873 16.3265C18.8302 16.3265 18.5408 16.7896 18.5408 17.3609C18.5408 17.9321 18.8302 18.3952 19.1873 18.3952Z" fill="#3C1E05"/>
<path d="M14.777 20.8806C14.777 20.8806 16.4578 21.8431 17.9375 20.8806C17.9375 20.8806 16.2567 23.1791 14.777 20.8806Z" fill="white"/>
<path d="M18.9144 26.7276L17.7938 25.4778L16.2423 26.1817V26.2104L16.2279 26.1817L14.6763 25.4778L13.5558 26.7276L14.5902 29.3997L16.2423 27.0868L17.8944 29.3997L18.9144 26.7276Z" fill="#794824"/>
<path d="M22.7932 9.38761C22.1755 9.20085 21.3854 9.31578 20.8538 9.20085C20.3797 9.08592 20.1068 8.23832 19.8625 7.8217C18.3541 5.17832 14.1017 6.60057 12.9237 8.99973C12.7369 9.22959 12.5789 9.47381 12.464 9.7324C11.3721 9.63184 10.3521 11.011 9.99297 12.031C9.41832 13.6975 9.86368 15.7806 10.7831 17.2316C10.9842 17.5476 11.5733 17.3465 11.4296 16.9586C10.9986 15.8524 10.9699 14.2434 11.3147 13.1085C11.444 12.7062 11.6595 12.3327 11.8893 11.9879C12.1192 11.6287 12.0617 11.6575 12.2485 11.8155C12.3059 12.0597 12.3921 12.3039 12.5214 12.5482C13.3403 14.1859 15.5096 14.2578 17.0037 13.7118C17.8225 13.4101 18.2823 13.2952 18.8856 13.7837C19.4603 14.2578 19.9918 14.7031 20.6958 14.9904C20.9687 15.1054 21.2704 15.1197 21.5434 15.0623C21.529 15.7375 21.4141 16.3983 21.1986 16.9442C21.0406 17.3321 21.6296 17.5332 21.8451 17.2172C22.4628 16.2403 22.8651 14.9761 22.8794 13.7549C23.0231 13.3527 23.1524 12.9361 23.3535 12.6918C23.7989 12.1459 24.158 11.6718 24.2442 10.9392C24.3017 10.1203 23.4685 9.58874 22.7932 9.38761Z" fill="#D1722E"/>
<defs>
<linearGradient id="paint0_linear" x1="16" y1="48" x2="16" y2="-16" gradientUnits="userSpaceOnUse">
<stop stop-color="#4470F9"/>
<stop offset="1" stop-color="#B5C7FF"/>
</linearGradient>
</defs>
</svg>
