<svg width="34" height="35" viewBox="0 0 34 35" fill="none" xmlns="http://www.w3.org/2000/svg">
<g opacity="0.5">
<path d="M18.2728 10.8324C18.2181 10.0665 17.5616 9.40998 16.741 9.40998H14.9356V7.82343C14.9356 6.34629 13.732 5.08798 12.2548 5.08798C11.9266 5.08798 11.7077 5.30682 11.7077 5.63507V8.15168L10.5589 9.40998C10.1759 9.46469 9.79294 9.57411 9.46468 9.73824C9.24585 9.35527 8.86289 9.13644 8.42521 9.13644H7.49516C6.72924 9.13644 6.12744 9.73824 6.12744 10.5042V16.9598C6.12744 17.7257 6.72924 18.3275 7.49516 18.3275H8.42521C8.86289 18.3275 9.24585 18.054 9.46468 17.7257C9.90235 17.9446 10.34 18.054 10.8324 18.054H15.7015C16.5221 18.054 17.1786 17.3975 17.1786 16.5768C17.1786 16.3033 17.1239 16.0845 17.0145 15.8656C17.2881 15.6468 17.4522 15.3733 17.5616 14.9903C17.6163 14.6073 17.5616 14.2791 17.3975 13.9508C17.7257 13.6773 17.9446 13.2943 17.9446 12.9114C17.9446 12.6378 17.8898 12.3643 17.7804 12.0907C17.8351 12.036 17.8898 11.9813 17.9446 11.9813C18.1087 11.653 18.2728 11.2701 18.2728 10.8324ZM8.42521 17.1239C8.42521 17.1786 8.37051 17.1786 8.37051 17.1786H7.44045C7.27633 17.1786 7.16691 17.0692 7.16691 16.9051V10.4495C7.16691 10.2853 7.27633 10.1759 7.44045 10.1759H8.37051C8.42521 10.1759 8.42521 10.2306 8.42521 10.2306C8.42521 12.3096 8.42521 15.1544 8.42521 17.1239ZM17.0692 11.1607C17.0145 11.2154 16.9051 11.2701 16.7957 11.2701H16.4127C16.0845 11.2701 15.8656 11.4889 15.8656 11.8172C15.8656 12.1454 16.0845 12.3643 16.4127 12.3643C16.5221 12.3643 16.6315 12.419 16.6863 12.4737C16.741 12.5284 16.7957 12.6378 16.7957 12.7472C16.7957 12.9661 16.5768 13.1302 16.358 13.1302H16.0297C15.7015 13.1302 15.4827 13.349 15.4827 13.6773C15.4827 14.0055 15.7015 14.2244 16.0297 14.2244C16.1392 14.2244 16.2486 14.2791 16.358 14.3885C16.4127 14.4432 16.4674 14.5526 16.4127 14.7167C16.358 14.8809 16.1939 15.045 15.975 15.045H15.6468C15.3185 15.045 15.0997 15.2638 15.0997 15.5921C15.0997 15.9203 15.3185 16.1392 15.6468 16.1392C15.8656 16.1392 16.0297 16.3033 16.0297 16.5221C16.0297 16.741 15.8656 16.9051 15.6468 16.9051H10.7777C10.34 16.9051 9.90235 16.7957 9.5741 16.5221V10.8871C10.4494 10.2853 10.8324 10.723 11.2154 10.34L12.6925 8.75348C12.8019 8.64406 12.8566 8.53464 12.8566 8.37051V6.29158C13.4584 6.51041 13.8961 7.11221 13.8961 7.82343V9.95707C13.8961 10.2853 14.1149 10.5042 14.4432 10.5042H16.7957C17.0145 10.5042 17.2333 10.6683 17.2333 10.8871C17.1786 10.9965 17.1239 11.106 17.0692 11.1607Z" fill="black"/>
<path d="M24.9472 12.4736C24.9472 5.5803 19.3669 0 12.4736 0C5.5803 0 0 5.5803 0 12.4736C0 16.1938 1.64127 19.5311 4.21258 21.8288L0.547089 32.1141C0.382962 32.6065 0.875342 33.0442 1.31301 32.7706L4.97851 30.6917L6.51036 34.6307C6.67448 35.1231 7.3857 35.0684 7.54982 34.6307L11.0512 24.8925C11.5436 24.9472 12.036 25.002 12.4736 25.002C12.8019 25.002 13.1301 25.002 13.4584 24.9472L16.905 34.6307C17.0692 35.1231 17.7257 35.1231 17.9445 34.6307L19.4764 30.6917L23.1419 32.7706C23.6342 33.0442 24.1813 32.4971 23.9078 32.0047L20.4064 22.1024C23.1966 19.8593 24.9472 16.4127 24.9472 12.4736ZM9.90231 24.7284L7.00274 32.88L5.74443 29.7069C5.63501 29.3787 5.25205 29.2692 4.97851 29.4334L2.02423 31.1293L5.08793 22.5948C6.45565 23.5795 8.15162 24.3454 9.90231 24.7284ZM22.4306 31.1293L19.4764 29.4334C19.3122 29.3787 19.1481 29.324 19.0387 29.3787C18.8746 29.4334 18.7651 29.5428 18.7104 29.7069L17.4521 32.88L14.5526 24.7831C16.2485 24.5096 17.9445 23.8531 19.4764 22.8136L22.4306 31.1293ZM12.4736 23.9078C6.23681 23.9078 1.09418 18.8199 1.09418 12.5283C1.09418 6.1821 6.1821 1.09418 12.4736 1.09418C18.7651 1.09418 23.8531 6.1821 23.8531 12.4736C23.8531 18.8199 18.6557 23.9078 12.4736 23.9078Z" fill="black"/>
<path d="M12.4736 2.62569C7.00271 2.62569 2.57129 7.0571 2.57129 12.528C2.57129 17.9989 7.00271 22.4303 12.4736 22.4303C17.9445 22.4303 22.3759 17.9989 22.3759 12.528C22.3759 7.0571 17.9445 2.62569 12.4736 2.62569ZM12.4736 21.2814C7.6045 21.2814 3.66547 17.3424 3.66547 12.4733C3.66547 7.6589 7.6045 3.71986 12.4736 3.71986C17.3427 3.71986 21.2817 7.6589 21.2817 12.528C21.2817 17.3424 17.3427 21.2814 12.4736 21.2814Z" fill="black"/>
</g>
</svg>
