<svg width="30" height="37" viewBox="0 0 30 37" fill="none" xmlns="http://www.w3.org/2000/svg">
<g opacity="0.5">
<circle cx="14.7994" cy="9.69958" r="8.69958" stroke="black" stroke-width="2" stroke-linecap="round" stroke-linejoin="round"/>
<path fill-rule="evenodd" clip-rule="evenodd" d="M1.00003 30.499C0.997692 29.8874 1.13447 29.2833 1.40001 28.7324C2.2333 27.0658 4.58319 26.1826 6.53309 25.7826C7.93936 25.4825 9.36506 25.282 10.7996 25.1826C13.4554 24.9493 16.1266 24.9493 18.7825 25.1826C20.2169 25.2831 21.6425 25.4836 23.049 25.7826C24.9989 26.1826 27.3487 26.9825 28.182 28.7324C28.7161 29.8555 28.7161 31.1592 28.182 32.2823C27.3487 34.0322 24.9989 34.8321 23.049 35.2154C21.6443 35.528 20.2181 35.7341 18.7825 35.8321C16.6208 36.0153 14.4491 36.0487 12.2828 35.9321C11.7828 35.9321 11.2995 35.9321 10.7996 35.8321C9.36929 35.7353 7.94854 35.5292 6.54976 35.2154C4.58319 34.8321 2.24997 34.0322 1.40001 32.2823C1.13582 31.7249 0.999184 31.1158 1.00003 30.499Z" stroke="black" stroke-width="2" stroke-linecap="round" stroke-linejoin="round"/>
</g>
</svg>
