<svg width="32" height="27" viewBox="0 0 32 27" fill="none" xmlns="http://www.w3.org/2000/svg">
<g opacity="0.5">
<path d="M6.80344 25.3203V26.3278C6.80344 26.4732 6.74566 26.6127 6.64281 26.7156C6.53996 26.8184 6.40047 26.8762 6.25502 26.8762C6.10957 26.8762 5.97008 26.8184 5.86723 26.7156C5.76438 26.6127 5.7066 26.4732 5.7066 26.3278V25.3203C5.7066 25.1749 5.76438 25.0354 5.86723 24.9326C5.97008 24.8297 6.10957 24.7719 6.25502 24.7719C6.40047 24.7719 6.53996 24.8297 6.64281 24.9326C6.74566 25.0354 6.80344 25.1749 6.80344 25.3203ZM10.5327 4.74207H12.5448C12.6903 4.74207 12.8298 4.68429 12.9326 4.58144C13.0355 4.47859 13.0932 4.3391 13.0932 4.19365C13.0932 4.0482 13.0355 3.90871 12.9326 3.80586C12.8298 3.70301 12.6903 3.64523 12.5448 3.64523H10.5305C10.385 3.64523 10.2455 3.70301 10.1427 3.80586C10.0398 3.90871 9.98207 4.0482 9.98207 4.19365C9.98207 4.3391 10.0398 4.47859 10.1427 4.58144C10.2455 4.68429 10.385 4.74207 10.5305 4.74207H10.5327ZM9.53566 6.79589H13.5424C13.6878 6.79589 13.8273 6.73811 13.9302 6.63526C14.033 6.53242 14.0908 6.39292 14.0908 6.24748C14.0908 6.10203 14.033 5.96253 13.9302 5.85968C13.8273 5.75684 13.6878 5.69906 13.5424 5.69906H9.53346C9.38801 5.69906 9.24852 5.75684 9.14567 5.85968C9.04282 5.96253 8.98504 6.10203 8.98504 6.24748C8.98504 6.39292 9.04282 6.53242 9.14567 6.63526C9.24852 6.73811 9.38801 6.79589 9.53346 6.79589H9.53566ZM9.53566 8.84972H13.5424C13.6878 8.84972 13.8273 8.79194 13.9302 8.68909C14.033 8.58624 14.0908 8.44675 14.0908 8.3013C14.0908 8.15585 14.033 8.01636 13.9302 7.91351C13.8273 7.81066 13.6878 7.75288 13.5424 7.75288H9.53346C9.38801 7.75288 9.24852 7.81066 9.14567 7.91351C9.04282 8.01636 8.98504 8.15585 8.98504 8.3013C8.98504 8.44675 9.04282 8.58624 9.14567 8.68909C9.24852 8.79194 9.38801 8.84972 9.53346 8.84972H9.53566ZM31.4033 20.5041C31.202 21.312 30.9996 22.1373 30.8899 22.8865H31.0704C31.2158 22.8865 31.3553 22.9443 31.4582 23.0471C31.561 23.1499 31.6188 23.2894 31.6188 23.4349V26.3278C31.6188 26.4732 31.561 26.6127 31.4582 26.7156C31.3553 26.8184 31.2158 26.8762 31.0704 26.8762C30.9249 26.8762 30.7854 26.8184 30.6826 26.7156C30.5797 26.6127 30.522 26.4732 30.522 26.3278V23.9833H24.3248V26.3278C24.3248 26.4732 24.2671 26.6127 24.1642 26.7156C24.0614 26.8184 23.9219 26.8762 23.7764 26.8762C23.631 26.8762 23.4915 26.8184 23.3886 26.7156C23.2858 26.6127 23.228 26.4732 23.228 26.3278V23.4349C23.228 23.2894 23.2858 23.1499 23.3886 23.0471C23.4915 22.9443 23.631 22.8865 23.7764 22.8865H24.7027C24.0496 21.9251 23.6416 20.8186 23.5143 19.6634H8.48763C8.36016 20.8187 7.95197 21.9252 7.29866 22.8865H8.22494C8.37039 22.8865 8.50988 22.9443 8.61273 23.0471C8.71557 23.1499 8.77335 23.2894 8.77335 23.4349V26.3278C8.77335 26.4732 8.71557 26.6127 8.61273 26.7156C8.50988 26.8184 8.37039 26.8762 8.22494 26.8762C8.07949 26.8762 7.93999 26.8184 7.83715 26.7156C7.7343 26.6127 7.67652 26.4732 7.67652 26.3278V23.9833H1.47995V26.3278C1.47995 26.4732 1.42217 26.6127 1.31932 26.7156C1.21647 26.8184 1.07698 26.8762 0.931528 26.8762C0.786079 26.8762 0.646587 26.8184 0.543738 26.7156C0.44089 26.6127 0.38311 26.4732 0.38311 26.3278V23.4349C0.38311 23.2894 0.44089 23.1499 0.543738 23.0471C0.646587 22.9443 0.786079 22.8865 0.931528 22.8865H1.11196C1.00227 22.1373 0.799908 21.312 0.598639 20.5041C0.344516 19.5726 0.149079 18.626 0.0134768 17.6699C-0.232214 15.524 2.94861 12.0634 4.07177 10.9962V1.69945C4.07177 1.554 4.12955 1.4145 4.2324 1.31166C4.33525 1.20881 4.47474 1.15103 4.62019 1.15103H6.70417C11.3268 -1.06842 14.9639 0.509928 16.001 1.06767C17.038 0.509379 20.6735 -1.07116 25.2955 1.15103H27.3795C27.525 1.15103 27.6645 1.20881 27.7673 1.31166C27.8702 1.4145 27.9279 1.554 27.9279 1.69945V10.9962C29.0522 12.0634 32.2347 15.5234 31.9862 17.6699C31.8514 18.6259 31.6566 19.5725 31.4033 20.5041ZM26.8333 2.24786H25.7293V14.2982L26.8333 15.3951V2.24786ZM16.5494 2.01588V15.5892C17.9852 15.2416 19.4526 15.041 20.929 14.9904H20.9702C20.8944 14.8311 20.8419 14.6617 20.8144 14.4875C20.7798 14.2238 20.8 13.9559 20.8736 13.7003C20.9472 13.4448 21.0727 13.2072 21.2422 13.0023C21.3875 12.8126 21.5689 12.6535 21.7759 12.5342C21.983 12.415 22.2117 12.3379 22.4487 12.3075C22.7027 12.2753 22.9606 12.2942 23.2071 12.3631C23.4537 12.4321 23.684 12.5496 23.8845 12.7089C24.1186 12.891 24.3846 13.1109 24.6347 13.3226V2.04605C20.5841 0.18691 17.4416 1.54205 16.5494 2.01588ZM7.3694 2.04605V13.3232C7.61948 13.1115 7.88547 12.8916 8.11964 12.7095C8.32009 12.5502 8.55038 12.4326 8.79695 12.3637C9.04353 12.2947 9.3014 12.2758 9.5554 12.308C9.79242 12.3385 10.0211 12.4155 10.2282 12.5348C10.4352 12.6541 10.6166 12.8131 10.7619 13.0029C10.9314 13.2077 11.0569 13.4454 11.1305 13.7009C11.2041 13.9564 11.2243 14.2243 11.1897 14.488C11.1622 14.6622 11.1097 14.8316 11.0339 14.9909H11.0751C12.5507 15.0415 14.0174 15.242 15.4525 15.5892V2.01588C14.5625 1.5426 11.42 0.186361 7.3694 2.04605ZM5.1686 2.24786V15.3945L6.27257 14.2977V2.24786H5.1686ZM5.86455 22.8865C6.25996 22.5212 7.45057 21.2028 7.46702 18.5468C7.49477 17.8897 7.67972 17.2487 8.00636 16.6778C8.333 16.1069 8.79179 15.6226 9.34426 15.2657C9.70688 15.0571 9.97782 14.7198 10.1033 14.3207C10.1133 14.2019 10.0991 14.0822 10.0614 13.9691C10.0237 13.8559 9.96327 13.7517 9.8839 13.6626C9.76677 13.5154 9.59673 13.4197 9.41007 13.3961C9.30025 13.3827 9.18885 13.392 9.08275 13.4233C8.97664 13.4546 8.87807 13.5073 8.7931 13.5782C8.15748 14.0718 7.23614 14.8944 7.19446 14.9311L4.31581 17.7884C4.26532 17.8418 4.20461 17.8844 4.13729 17.9139C4.06998 17.9433 3.99744 17.959 3.92397 17.9598C3.8505 17.9607 3.7776 17.9468 3.70961 17.919C3.64162 17.8911 3.57991 17.8499 3.52816 17.7977C3.47641 17.7456 3.43566 17.6836 3.40835 17.6153C3.38103 17.5471 3.3677 17.4741 3.36914 17.4007C3.37059 17.3272 3.38678 17.2548 3.41676 17.1877C3.44673 17.1206 3.48988 17.0603 3.54364 17.0102L4.07287 16.4848V12.5543C2.6733 14.0652 0.970466 16.3932 1.10373 17.5449C1.23502 18.4539 1.42165 19.3541 1.66257 20.2404C1.89621 21.1119 2.08095 21.9959 2.21592 22.8881L5.86455 22.8865ZM23.438 18.5666V18.554C23.4137 18.0883 23.2811 17.6348 23.0508 17.2293C22.8205 16.8239 22.4989 16.4777 22.1114 16.2183C20.7574 15.7888 17.3534 16.5018 16.1392 16.8177C16.1337 16.8177 16.1287 16.8177 16.1233 16.8177C16.0416 16.8221 15.9598 16.8221 15.8781 16.8177C15.8732 16.8177 15.8677 16.8177 15.8628 16.8177C14.648 16.5018 11.2412 15.7883 9.89048 16.2183C9.50232 16.4769 9.18014 16.823 8.94977 17.2286C8.71939 17.6342 8.58723 18.0881 8.56386 18.554V18.5666H23.438ZM30.8965 17.5443C31.0298 16.3927 29.327 14.0652 27.9274 12.5537V16.4826L28.4566 17.008C28.5104 17.0581 28.5535 17.1184 28.5835 17.1855C28.6135 17.2526 28.6297 17.325 28.6311 17.3985C28.6326 17.4719 28.6192 17.5449 28.5919 17.6132C28.5646 17.6814 28.5239 17.7434 28.4721 17.7955C28.4203 17.8477 28.3586 17.8889 28.2907 17.9168C28.2227 17.9446 28.1498 17.9585 28.0763 17.9576C28.0028 17.9568 27.9303 17.9411 27.863 17.9117C27.7957 17.8822 27.7349 17.8396 27.6844 17.7862L24.8058 14.9289C24.7641 14.8911 23.8428 14.069 23.2072 13.576C23.1222 13.5051 23.0236 13.4524 22.9175 13.4211C22.8114 13.3898 22.7 13.3805 22.5902 13.3939C22.4035 13.4175 22.2335 13.5132 22.1164 13.6604C22.037 13.7495 21.9766 13.8537 21.9389 13.9669C21.9012 14.08 21.8869 14.1997 21.897 14.3185C22.0224 14.7176 22.2934 15.0549 22.656 15.2635C23.2085 15.6204 23.6673 16.1047 23.9939 16.6756C24.3205 17.2465 24.5055 17.8875 24.5332 18.5446C24.5497 21.1995 25.7474 22.524 26.1357 22.8843H29.7843C29.92 21.9933 30.1053 21.1107 30.3393 20.2404C30.5807 19.3539 30.7676 18.4536 30.8993 17.5443H30.8965ZM25.7469 24.7719C25.6014 24.7719 25.4619 24.8297 25.3591 24.9326C25.2562 25.0354 25.1985 25.1749 25.1985 25.3203V26.3278C25.1985 26.4732 25.2562 26.6127 25.3591 26.7156C25.4619 26.8184 25.6014 26.8762 25.7469 26.8762C25.8923 26.8762 26.0318 26.8184 26.1347 26.7156C26.2375 26.6127 26.2953 26.4732 26.2953 26.3278V25.3203C26.2953 25.1749 26.2375 25.0354 26.1347 24.9326C26.0318 24.8297 25.8923 24.7719 25.7469 24.7719ZM19.4593 4.74207H21.4714C21.6169 4.74207 21.7564 4.68429 21.8592 4.58144C21.9621 4.47859 22.0198 4.3391 22.0198 4.19365C22.0198 4.0482 21.9621 3.90871 21.8592 3.80586C21.7564 3.70301 21.6169 3.64523 21.4714 3.64523H19.4593C19.3138 3.64523 19.1743 3.70301 19.0715 3.80586C18.9686 3.90871 18.9109 4.0482 18.9109 4.19365C18.9109 4.3391 18.9686 4.47859 19.0715 4.58144C19.1743 4.68429 19.3138 4.74207 19.4593 4.74207ZM18.4617 6.79589H22.4684C22.6139 6.79589 22.7534 6.73811 22.8562 6.63526C22.9591 6.53242 23.0169 6.39292 23.0169 6.24748C23.0169 6.10203 22.9591 5.96253 22.8562 5.85968C22.7534 5.75684 22.6139 5.69906 22.4684 5.69906H18.4617C18.3163 5.69906 18.1768 5.75684 18.0739 5.85968C17.9711 5.96253 17.9133 6.10203 17.9133 6.24748C17.9133 6.39292 17.9711 6.53242 18.0739 6.63526C18.1768 6.73811 18.3163 6.79589 18.4617 6.79589ZM18.4617 8.84972H22.4684C22.6139 8.84972 22.7534 8.79194 22.8562 8.68909C22.9591 8.58624 23.0169 8.44675 23.0169 8.3013C23.0169 8.15585 22.9591 8.01636 22.8562 7.91351C22.7534 7.81066 22.6139 7.75288 22.4684 7.75288H18.4617C18.3163 7.75288 18.1768 7.81066 18.0739 7.91351C17.9711 8.01636 17.9133 8.15585 17.9133 8.3013C17.9133 8.44675 17.9711 8.58624 18.0739 8.68909C18.1768 8.79194 18.3163 8.84972 18.4617 8.84972Z" fill="black"/>
</g>
</svg>
