<svg width="136" height="33" viewBox="0 0 136 33" fill="none" xmlns="http://www.w3.org/2000/svg">
<path fill-rule="evenodd" clip-rule="evenodd" d="M15.2357 20.4055L22.9635 5.35658V1.01814H22.9633C22.9632 0.568905 22.5991 0.204737 22.1498 0.204737C21.7006 0.204737 21.3364 0.568933 21.3364 1.01819L21.3366 1.03707V4.74648L17.2015 13.0166H13.3376L9.40588 5.35658H16.4558V5.35656C16.8676 5.35647 17.2013 5.02265 17.2013 4.61089C17.2013 4.19907 16.8675 3.86522 16.4557 3.86522L16.4503 3.86524H9.13473V1.01814H9.13448C9.13445 0.568905 8.77027 0.204737 8.32102 0.204737C7.87177 0.204737 7.50757 0.568933 7.50757 1.01819C7.50757 1.02469 7.50764 1.03117 7.5078 1.03762V5.35658L15.2357 20.4055Z" fill="#7E85FF"/>
<circle r="0.949032" transform="matrix(1 0 0 -1 19.0314 4.54328)" fill="url(#paint0_linear)"/>
<path fill-rule="evenodd" clip-rule="evenodd" d="M15.2357 20.4057L17.1626 13.0376L19.0316 13.0376L15.2357 20.4057Z" fill="#FFE0A9"/>
<path fill-rule="evenodd" clip-rule="evenodd" d="M15.2357 20.4057L17.1626 13.0376L13.3665 13.0376L15.2357 20.4057Z" fill="#FFC357"/>
<path fill-rule="evenodd" clip-rule="evenodd" d="M15.2356 20.4069L11.4393 13.0388L13.3665 13.0388L15.2356 20.4069Z" fill="#F6AA23"/>
<path fill-rule="evenodd" clip-rule="evenodd" d="M15.2357 20.4056L16.1459 16.8209L17.0821 16.8209L15.2357 20.4056Z" fill="#36EDB5"/>
<path fill-rule="evenodd" clip-rule="evenodd" d="M15.2356 20.4056L16.1458 16.8209L14.3156 16.8209L15.2356 20.4056Z" fill="#24C090"/>
<path fill-rule="evenodd" clip-rule="evenodd" d="M15.2355 20.4061L13.3887 16.8215L14.3154 16.8215L15.2355 20.4061Z" fill="#009B6B"/>
<path d="M25.1858 8.01508C27.1672 9.99646 28.5165 12.5209 29.0632 15.2692C29.6098 18.0174 29.3293 20.8661 28.257 23.4549C27.1846 26.0437 25.3687 28.2564 23.0389 29.8132C20.709 31.3699 17.9698 32.2008 15.1677 32.2008C12.3656 32.2008 9.62642 31.3699 7.29655 29.8132C4.96669 28.2564 3.15078 26.0437 2.07846 23.4549C1.00614 20.8661 0.725571 18.0174 1.27223 15.2692C1.8189 12.5209 3.16824 9.99646 5.14963 8.01508" stroke="url(#paint1_linear)" stroke-linecap="round"/>
<path d="M41.4933 14.3005V0.35374H47.5631C48.1917 0.35374 48.7679 0.484695 49.2917 0.746605C49.8286 1.00852 50.287 1.35555 50.6667 1.7877C51.0465 2.20676 51.3411 2.69129 51.5507 3.2413C51.7733 3.77822 51.8846 4.32823 51.8846 4.89134C51.8846 5.36278 51.8191 5.81457 51.6882 6.24673C51.5572 6.67888 51.3739 7.07829 51.1382 7.44497C50.9024 7.81164 50.6143 8.13248 50.2739 8.40749C49.9334 8.6694 49.5602 8.86583 49.1542 8.99679L52.4346 14.3005H49.9399L46.9149 9.44858H43.6934V14.3005H41.4933ZM43.6934 7.5039H47.5434C47.8577 7.5039 48.1393 7.43842 48.3881 7.30746C48.65 7.16341 48.8726 6.97353 49.056 6.73781C49.2393 6.48899 49.3834 6.20744 49.4881 5.89315C49.5929 5.57885 49.6453 5.24492 49.6453 4.89134C49.6453 4.53776 49.5798 4.20382 49.4488 3.88953C49.331 3.57524 49.1673 3.30023 48.9578 3.06451C48.7613 2.82879 48.5256 2.64546 48.2506 2.5145C47.9887 2.37045 47.7137 2.29843 47.4256 2.29843H43.6934V7.5039Z" fill="black"/>
<path d="M64.8321 12.3558V14.3005H55.2659V0.35374H64.6553V2.29843H57.4659V6.26637H63.6928V8.09319H57.4659V12.3558H64.8321Z" fill="black"/>
<path d="M67.8874 14.3005V0.35374H77.1787V2.29843H70.0875V6.4628H76.0198V8.28963H70.0875V14.3005H67.8874Z" fill="black"/>
<path d="M80.0486 14.3005V0.35374H82.2487V14.3005H80.0486Z" fill="black"/>
<path d="M88.3864 4.47883V14.3005H86.1864V0.35374H87.915L95.8902 10.4111V0.373383H98.1099V14.3005H96.283L88.3864 4.47883Z" fill="black"/>
<path d="M102.031 14.3005V0.35374H104.231V14.3005H102.031Z" fill="black"/>
<path d="M110.368 4.47883V14.3005H108.168V0.35374H109.897L117.872 10.4111V0.373383H120.092V14.3005H118.265L110.368 4.47883Z" fill="black"/>
<path d="M133.775 12.5719C132.597 13.7897 131.241 14.3987 129.709 14.3987C128.78 14.3987 127.915 14.2088 127.116 13.829C126.318 13.4362 125.623 12.9123 125.034 12.2576C124.445 11.6028 123.98 10.8433 123.64 9.97895C123.312 9.11465 123.148 8.21105 123.148 7.26818C123.148 6.3253 123.312 5.42826 123.64 4.57705C123.98 3.72584 124.445 2.97939 125.034 2.33771C125.623 1.69603 126.324 1.19185 127.136 0.825179C127.948 0.445409 128.832 0.255524 129.788 0.255524C131.124 0.255524 132.243 0.537077 133.147 1.10018C134.05 1.6502 134.731 2.38355 135.19 3.30023L133.5 4.51812C133.121 3.75858 132.597 3.18892 131.929 2.80915C131.261 2.42938 130.528 2.2395 129.729 2.2395C129.074 2.2395 128.478 2.38355 127.941 2.67165C127.404 2.94665 126.946 3.31988 126.566 3.79131C126.187 4.24966 125.892 4.78657 125.682 5.40206C125.486 6.01755 125.388 6.65923 125.388 7.32711C125.388 8.03426 125.499 8.69559 125.722 9.31108C125.957 9.92657 126.272 10.4635 126.665 10.9218C127.071 11.3802 127.549 11.7468 128.099 12.0219C128.649 12.2838 129.244 12.4147 129.886 12.4147C130.593 12.4147 131.268 12.251 131.909 11.9236C132.564 11.5962 133.186 11.079 133.775 10.3718V8.87893H130.849V7.24853H135.622V14.3005H133.775V12.5719Z" fill="black"/>
<path d="M49.9022 21.431C49.5094 20.9857 48.9856 20.6256 48.3308 20.3506C47.676 20.0756 46.9296 19.9381 46.0914 19.9381C44.8605 19.9381 43.9634 20.1738 43.4003 20.6453C42.8372 21.1036 42.5557 21.7322 42.5557 22.531C42.5557 22.9501 42.6277 23.2971 42.7717 23.5721C42.9289 23.834 43.1646 24.0632 43.4789 24.2596C43.7932 24.456 44.1926 24.6263 44.6771 24.7703C45.1748 24.9144 45.7575 25.0584 46.4254 25.2025C47.1718 25.3596 47.8397 25.5364 48.429 25.7329C49.0314 25.9293 49.5421 26.1781 49.9612 26.4793C50.3802 26.7674 50.7011 27.121 50.9237 27.54C51.1463 27.9591 51.2576 28.4829 51.2576 29.1115C51.2576 29.7532 51.1332 30.3097 50.8844 30.7812C50.6356 31.2526 50.2886 31.6455 49.8433 31.9598C49.3981 32.2741 48.8677 32.5098 48.2522 32.6669C47.6367 32.811 46.9623 32.883 46.229 32.883C44.0682 32.883 42.2021 32.2086 40.6306 30.8598L41.3181 29.7401C41.5669 30.002 41.8616 30.2508 42.2021 30.4865C42.5557 30.7223 42.942 30.9318 43.361 31.1151C43.7932 31.2854 44.2515 31.4229 44.7361 31.5276C45.2206 31.6193 45.7313 31.6651 46.2682 31.6651C47.3814 31.6651 48.2457 31.4687 48.8612 31.0758C49.4897 30.6699 49.804 30.0609 49.804 29.249C49.804 28.8169 49.7124 28.4567 49.529 28.1686C49.3588 27.8674 49.0969 27.6121 48.7433 27.4025C48.3897 27.1799 47.951 26.99 47.4272 26.8329C46.9034 26.6757 46.2944 26.5186 45.6004 26.3614C44.867 26.1912 44.2253 26.0144 43.6753 25.8311C43.1253 25.6477 42.6604 25.4186 42.2807 25.1436C41.9009 24.8686 41.6128 24.5412 41.4163 24.1614C41.233 23.7685 41.1413 23.2905 41.1413 22.7274C41.1413 22.0858 41.2592 21.5161 41.4949 21.0185C41.7437 20.5077 42.0908 20.0887 42.536 19.7613C42.9813 19.4208 43.5051 19.1655 44.1075 18.9952C44.7099 18.8119 45.3777 18.7202 46.1111 18.7202C47.0409 18.7202 47.8659 18.8643 48.5861 19.1524C49.3195 19.4274 49.9808 19.8202 50.5701 20.331L49.9022 21.431Z" fill="black"/>
<path d="M60.1643 32.7652V18.8381H61.5394V26.9311L69.2199 18.8184H70.7324L65.0359 24.9471L71.0271 32.7652H69.5145L64.1716 25.7525L61.5394 28.4829V32.7652H60.1643Z" fill="black"/>
<path d="M79.269 32.7652V18.8184H80.644V32.7652H79.269Z" fill="black"/>
<path d="M90.6237 32.7652V18.8184H91.9987V31.5473H100.052V32.7652H90.6237Z" fill="black"/>
<path d="M108.558 32.7652V18.8184H109.933V31.5473H117.987V32.7652H108.558Z" fill="black"/>
<path d="M134.645 21.431C134.252 20.9857 133.728 20.6256 133.073 20.3506C132.418 20.0756 131.672 19.9381 130.834 19.9381C129.603 19.9381 128.706 20.1738 128.143 20.6453C127.58 21.1036 127.298 21.7322 127.298 22.531C127.298 22.9501 127.37 23.2971 127.514 23.5721C127.671 23.834 127.907 24.0632 128.221 24.2596C128.536 24.456 128.935 24.6263 129.419 24.7703C129.917 24.9144 130.5 25.0584 131.168 25.2025C131.914 25.3596 132.582 25.5364 133.171 25.7329C133.774 25.9293 134.284 26.1781 134.704 26.4793C135.123 26.7674 135.443 27.121 135.666 27.54C135.889 27.9591 136 28.4829 136 29.1115C136 29.7532 135.876 30.3097 135.627 30.7812C135.378 31.2526 135.031 31.6455 134.586 31.9598C134.14 32.2741 133.61 32.5098 132.995 32.6669C132.379 32.811 131.705 32.883 130.971 32.883C128.811 32.883 126.944 32.2086 125.373 30.8598L126.06 29.7401C126.309 30.002 126.604 30.2508 126.944 30.4865C127.298 30.7223 127.684 30.9318 128.103 31.1151C128.536 31.2854 128.994 31.4229 129.478 31.5276C129.963 31.6193 130.474 31.6651 131.011 31.6651C132.124 31.6651 132.988 31.4687 133.604 31.0758C134.232 30.6699 134.546 30.0609 134.546 29.249C134.546 28.8169 134.455 28.4567 134.271 28.1686C134.101 27.8674 133.839 27.6121 133.486 27.4025C133.132 27.1799 132.693 26.99 132.17 26.8329C131.646 26.6757 131.037 26.5186 130.343 26.3614C129.609 26.1912 128.968 26.0144 128.418 25.8311C127.868 25.6477 127.403 25.4186 127.023 25.1436C126.643 24.8686 126.355 24.5412 126.159 24.1614C125.975 23.7685 125.884 23.2905 125.884 22.7274C125.884 22.0858 126.002 21.5161 126.237 21.0185C126.486 20.5077 126.833 20.0887 127.278 19.7613C127.724 19.4208 128.247 19.1655 128.85 18.9952C129.452 18.8119 130.12 18.7202 130.853 18.7202C131.783 18.7202 132.608 18.8643 133.328 19.1524C134.062 19.4274 134.723 19.8202 135.312 20.331L134.645 21.431Z" fill="black"/>
<defs>
<linearGradient id="paint0_linear" x1="1.80102" y1="1.86174" x2="-0.246324" y2="0.458787" gradientUnits="userSpaceOnUse">
<stop stop-color="#FF3F7D"/>
<stop offset="1" stop-color="#FF78A4"/>
</linearGradient>
<linearGradient id="paint1_linear" x1="27.8867" y1="31.738" x2="0.574331" y2="9.81091" gradientUnits="userSpaceOnUse">
<stop stop-color="#FF3F7D"/>
<stop offset="1" stop-color="#FF78A4"/>
</linearGradient>
</defs>
</svg>
