<svg width="56" height="56" viewBox="0 0 56 56" fill="none" xmlns="http://www.w3.org/2000/svg">
<rect width="56" height="56" rx="10" fill="url(#paint0_linear_16683)"/>
<mask id="mask0" mask-type="alpha" maskUnits="userSpaceOnUse" x="0" y="0" width="56" height="56">
<rect width="56" height="56" rx="10" fill="#F05C8C"/>
</mask>
<g mask="url(#mask0)">
<path fill-rule="evenodd" clip-rule="evenodd" d="M54.1748 -38.7779C59.9101 -39.3147 66.9901 -42.8772 70.9841 -37.6956C75.1192 -32.331 71.2819 -23.3266 71.809 -15.9002C72.1773 -10.7117 74.0263 -6.00365 73.6013 -0.822018C73.0799 5.53462 72.398 12.1269 69.1094 17.0132C65.2915 22.6859 60.0628 27.22 54.1748 28.0424C47.9545 28.9114 41.2106 26.8617 36.6058 21.5536C32.1865 16.4594 32.0791 8.15575 30.5991 0.866116C29.2335 -5.86 26.7346 -12.5946 28.3228 -19.2436C29.9278 -25.9626 34.3018 -31.0877 39.0972 -34.7112C43.6094 -38.1207 48.9194 -38.286 54.1748 -38.7779Z" fill="#EF91FF"/>
<path fill-rule="evenodd" clip-rule="evenodd" d="M5.97317 25.2885C11.7084 24.7518 18.7884 21.1892 22.7824 26.3709C26.9175 31.7355 23.0803 40.7398 23.6074 48.1663C23.9757 53.3547 25.8247 58.0628 25.3996 63.2444C24.8782 69.6011 24.1963 76.1933 20.9077 81.0796C17.0899 86.7523 11.8611 91.2864 5.97317 92.1089C-0.247198 92.9778 -6.99107 90.9281 -11.5959 85.6201C-16.0152 80.5258 -16.1226 72.2222 -17.6026 64.9326C-18.9682 58.2065 -21.467 51.4719 -19.8788 44.8229C-18.2739 38.1038 -13.8999 32.9787 -9.10448 29.3552C-4.59228 25.9457 0.717701 25.7804 5.97317 25.2885Z" fill="#EF91FF"/>
</g>
<path d="M25.8503 20.8295H28.2414V27.3235C27.6787 27.6075 27.0546 27.7486 26.4244 27.7343C25.7218 27.7228 25.0355 27.5207 24.4388 27.1497C24.1636 26.9104 23.8592 26.7069 23.5329 26.544C24.0695 26.027 24.4916 25.4031 24.772 24.7127C25.0523 24.0223 25.1846 23.2807 25.1603 22.536C25.1603 19.2232 23.0536 17.0006 19.8935 17.0006C18.9422 16.9867 18.0038 17.2226 17.172 17.6847C16.3403 18.1467 15.6443 18.8189 15.1534 19.634L15.006 19.8815L17.5762 22.7519L17.8342 22.2568C17.9938 21.8647 18.2661 21.5287 18.6168 21.2915C18.9675 21.0543 19.3807 20.9265 19.804 20.9243C20.8205 20.9243 21.4578 21.6722 21.4578 22.8731C21.4578 23.7421 21.1839 25.201 19.3511 25.201H18.0765V29.1195H19.9093C21.4525 29.1195 22.232 29.8147 22.232 31.1893C22.232 32.3164 21.6632 33.5173 20.0726 33.5173C18.2398 33.5173 17.2391 31.9372 16.9757 31.4105L16.7124 30.926L14 33.9965L14.1633 34.2441C14.7951 35.2338 15.6665 36.0481 16.6967 36.6115C17.7269 37.1749 18.8826 37.4693 20.0568 37.4674C23.5118 37.4674 25.9398 34.934 26.0241 31.2789C26.7462 31.5284 27.5275 31.5505 28.2625 31.3421V39H32.1441V20.8295H35.8572V39H39.7388V20.8295H42.7199V17.1428H25.8503V20.8295Z" fill="white"/>
<defs>
<linearGradient id="paint0_linear_16683" x1="55.9174" y1="56.0887" x2="-9.71588" y2="12.5032" gradientUnits="userSpaceOnUse">
<stop stop-color="#E543FF"/>
<stop offset="1" stop-color="#EF8CFF"/>
</linearGradient>
</defs>
</svg>
