<svg width="56" height="56" viewBox="0 0 56 56" fill="none" xmlns="http://www.w3.org/2000/svg">
<rect width="56" height="56" rx="10" fill="url(#paint0_linear_166812)"/>
<mask id="mask0" mask-type="alpha" maskUnits="userSpaceOnUse" x="0" y="0" width="56" height="56">
<rect width="56" height="56" rx="10" fill="#F05C8C"/>
</mask>
<g mask="url(#mask0)">
<path fill-rule="evenodd" clip-rule="evenodd" d="M54.1748 -38.7778C59.9101 -39.3146 66.9901 -42.8772 70.9841 -37.6955C75.1192 -32.3309 71.2819 -23.3266 71.809 -15.9001C72.1773 -10.7117 74.0263 -6.00359 73.6013 -0.82196C73.0799 5.53468 72.398 12.1269 69.1094 17.0133C65.2915 22.6859 60.0628 27.22 54.1748 28.0425C47.9545 28.9114 41.2106 26.8617 36.6058 21.5537C32.1865 16.4594 32.0791 8.15581 30.5991 0.866173C29.2335 -5.85994 26.7346 -12.5945 28.3228 -19.2435C29.9278 -25.9626 34.3018 -31.0877 39.0972 -34.7111C43.6094 -38.1207 48.9194 -38.286 54.1748 -38.7778Z" fill="#FF78A3"/>
<path fill-rule="evenodd" clip-rule="evenodd" d="M5.97317 25.2886C11.7084 24.7518 18.7884 21.1893 22.7824 26.3709C26.9175 31.7355 23.0803 40.7398 23.6074 48.1663C23.9757 53.3547 25.8247 58.0628 25.3996 63.2444C24.8782 69.6011 24.1963 76.1933 20.9077 81.0797C17.0899 86.7523 11.8611 91.2864 5.97317 92.1089C-0.247198 92.9778 -6.99107 90.9281 -11.5959 85.6201C-16.0152 80.5258 -16.1226 72.2222 -17.6026 64.9326C-18.9682 58.2065 -21.467 51.4719 -19.8788 44.8229C-18.2739 38.1038 -13.8999 32.9787 -9.10448 29.3553C-4.59228 25.9457 0.717701 25.7804 5.97317 25.2886Z" fill="#FF78A3"/>
</g>
<path d="M17.087 12C15.9402 12 15 12.9332 15 14.0761V35.5869C15 36.7298 15.9402 37.6521 17.087 37.6521H23.2065L17.1522 43.2173C17.0855 43.2797 17.0392 43.3608 17.0194 43.4499C16.9996 43.539 17.0073 43.6321 17.0414 43.7167C17.0755 43.8014 17.1345 43.8738 17.2105 43.9244C17.2865 43.9749 17.3761 44.0013 17.4674 44H40.9021C41.0217 43.9982 41.1357 43.9493 41.2192 43.8637C41.3027 43.7781 41.349 43.663 41.3478 43.5434L41.3369 38.663L41.3261 22.0326C41.3261 22.029 41.3261 22.0254 41.3261 22.0218C41.3269 21.9588 41.3145 21.8963 41.2898 21.8384C41.2651 21.7804 41.2285 21.7283 41.1824 21.6853C41.1364 21.6424 41.0819 21.6095 41.0224 21.5888C40.9629 21.5681 40.8997 21.5601 40.8369 21.5652C40.7355 21.5734 40.6397 21.6155 40.5652 21.6848L34.1413 27.5978V14.0761C34.1413 12.9332 33.201 12 32.0543 12H17.087V12ZM17.087 12.9022H32.0543C32.7201 12.9022 33.2391 13.423 33.2391 14.0761V28.4239L32.0652 29.5V27.5652C32.0652 27.0303 31.6199 26.5869 31.0869 26.5869H29.5761C29.0431 26.5869 28.6087 27.04 28.6087 27.5652V32.6848L24.1848 36.75H17.087C16.4212 36.75 15.913 36.2399 15.913 35.5869V14.0761C15.913 13.423 16.4212 12.9022 17.087 12.9022ZM18.1413 14.3587C17.5658 14.3587 17.087 14.8362 17.087 15.413V17.587C17.087 18.1638 17.5658 18.6413 18.1413 18.6413H31.0109C31.5863 18.6413 32.0652 18.1638 32.0652 17.587V15.413C32.0652 14.8362 31.5863 14.3587 31.0109 14.3587H18.1413ZM18.1413 15.2609H31.0109C31.1054 15.2609 31.163 15.326 31.163 15.413V17.587C31.163 17.674 31.1054 17.7283 31.0109 17.7283H18.1413C18.0468 17.7283 17.9891 17.674 17.9891 17.587V15.413C17.9891 15.326 18.0468 15.2609 18.1413 15.2609ZM18.0435 21.3913C17.5242 21.3913 17.087 21.8266 17.087 22.3478V23.8696C17.087 24.3908 17.5242 24.8261 18.0435 24.8261H19.587C20.1063 24.8261 20.5435 24.3908 20.5435 23.8696V22.3478C20.5435 21.8266 20.1063 21.3913 19.587 21.3913H18.0435ZM23.8043 21.3913C23.285 21.3913 22.8478 21.8266 22.8478 22.3478V23.8696C22.8478 24.3908 23.285 24.8261 23.8043 24.8261H25.3478C25.8671 24.8261 26.3043 24.3908 26.3043 23.8696V22.3478C26.3043 21.8266 25.8671 21.3913 25.3478 21.3913H23.8043ZM29.5652 21.3913C29.0459 21.3913 28.6087 21.8266 28.6087 22.3478V23.8696C28.6087 24.3908 29.0459 24.8261 29.5652 24.8261H31.1087C31.628 24.8261 32.0652 24.3908 32.0652 23.8696V22.3478C32.0652 21.8266 31.628 21.3913 31.1087 21.3913H29.5652ZM18.0435 22.2935H19.587C19.6253 22.2935 19.6413 22.3165 19.6413 22.3478V23.8696C19.6413 23.9009 19.6253 23.9239 19.587 23.9239H18.0435C18.0051 23.9239 17.9891 23.9009 17.9891 23.8696V22.3478C17.9891 22.3164 18.0051 22.2935 18.0435 22.2935ZM23.8043 22.2935H25.3478C25.3862 22.2935 25.4022 22.3165 25.4022 22.3478V23.8696C25.4022 23.9009 25.3862 23.9239 25.3478 23.9239H23.8043C23.766 23.9239 23.75 23.9009 23.75 23.8696V22.3478C23.75 22.3165 23.766 22.2935 23.8043 22.2935ZM29.5652 22.2935H31.1087C31.1471 22.2935 31.163 22.3165 31.163 22.3478V23.8696C31.163 23.9009 31.1471 23.9239 31.1087 23.9239H29.5652C29.5268 23.9239 29.5109 23.9009 29.5109 23.8696V22.3478C29.5109 22.3165 29.5268 22.2935 29.5652 22.2935ZM40.4239 23.0435L40.4348 38.663L40.4456 43.0869H38.9782V42.3587C38.9794 42.2937 38.9665 42.2291 38.9405 42.1695C38.9145 42.1099 38.8759 42.0567 38.8274 42.0133C38.7789 41.97 38.7217 41.9377 38.6595 41.9185C38.5974 41.8993 38.5318 41.8937 38.4674 41.9022C38.3575 41.9171 38.257 41.9718 38.1849 42.056C38.1127 42.1401 38.074 42.2479 38.0761 42.3587V43.0869H37.9565V41.7283C37.9577 41.6632 37.9448 41.5987 37.9188 41.5391C37.8927 41.4795 37.8542 41.4262 37.8057 41.3829C37.7572 41.3396 37.6999 41.3072 37.6378 41.288C37.5757 41.2689 37.5101 41.2633 37.4456 41.2717C37.3338 41.2842 37.2307 41.3378 37.1563 41.4223C37.0819 41.5067 37.0417 41.6158 37.0435 41.7283V43.0869H36.9239V42.3587C36.9249 42.2947 36.9122 42.2312 36.8869 42.1725C36.8615 42.1137 36.8239 42.061 36.7766 42.0179C36.7294 41.9747 36.6735 41.9421 36.6127 41.9222C36.5519 41.9022 36.4875 41.8954 36.4239 41.9022C36.3121 41.9146 36.2089 41.9683 36.1346 42.0527C36.0602 42.1371 36.02 42.2462 36.0217 42.3587V43.0869H34.4674V42.3587C34.4683 42.2947 34.4557 42.2312 34.4303 42.1725C34.4049 42.1137 34.3674 42.061 34.3201 42.0179C34.2729 41.9747 34.217 41.9421 34.1562 41.9222C34.0954 41.9022 34.031 41.8954 33.9674 41.9022C33.8556 41.9146 33.7524 41.9683 33.678 42.0527C33.6037 42.1371 33.5634 42.2462 33.5652 42.3587V43.0869H33.4456V41.7283C33.4468 41.6632 33.4339 41.5987 33.4079 41.5391C33.3819 41.4795 33.3433 41.4262 33.2948 41.3829C33.2463 41.3396 33.1891 41.3072 33.1269 41.288C33.0648 41.2689 32.9992 41.2633 32.9348 41.2717C32.8249 41.2866 32.7244 41.3414 32.6523 41.4255C32.5801 41.5097 32.5414 41.6174 32.5435 41.7283V43.0869H32.4239V42.3587C32.4251 42.2937 32.4122 42.2291 32.3862 42.1695C32.3601 42.1099 32.3216 42.0567 32.2731 42.0133C32.2246 41.97 32.1673 41.9377 32.1052 41.9185C32.0431 41.8993 31.9775 41.8937 31.913 41.9022C31.8012 41.9146 31.6981 41.9683 31.6237 42.0527C31.5493 42.1371 31.5091 42.2462 31.5109 42.3587V43.0869H29.9565V42.3587C29.9575 42.2947 29.9449 42.2312 29.9195 42.1725C29.8941 42.1137 29.8565 42.061 29.8093 42.0179C29.762 41.9747 29.7061 41.9421 29.6453 41.9222C29.5845 41.9022 29.5201 41.8954 29.4565 41.9022C29.3447 41.9146 29.2415 41.9683 29.1672 42.0527C29.0928 42.1371 29.0526 42.2462 29.0543 42.3587V43.0978H28.9348V41.7283C28.9357 41.6643 28.9231 41.6008 28.8977 41.542C28.8723 41.4833 28.8348 41.4306 28.7875 41.3874C28.7403 41.3443 28.6844 41.3117 28.6236 41.2917C28.5628 41.2718 28.4984 41.265 28.4348 41.2717C28.323 41.2842 28.2198 41.3378 28.1454 41.4223C28.0711 41.5067 28.0308 41.6158 28.0326 41.7283V43.0978H27.913V42.3587C27.9142 42.2937 27.9013 42.2291 27.8753 42.1695C27.8493 42.1099 27.8107 42.0567 27.7622 42.0133C27.7137 41.97 27.6565 41.9377 27.5943 41.9185C27.5322 41.8993 27.4666 41.8937 27.4022 41.9022C27.2923 41.9171 27.1918 41.9718 27.1196 42.056C27.0475 42.1401 27.0088 42.2479 27.0109 42.3587V43.0978H25.4456V42.3587C25.4466 42.2947 25.434 42.2312 25.4086 42.1725C25.3832 42.1137 25.3457 42.061 25.2984 42.0179C25.2511 41.9747 25.1952 41.9421 25.1344 41.9222C25.0736 41.9022 25.0093 41.8954 24.9456 41.9022C24.8338 41.9146 24.7307 41.9683 24.6563 42.0527C24.5819 42.1371 24.5417 42.2462 24.5435 42.3587V43.0978H24.4239V41.7283C24.4249 41.6643 24.4122 41.6008 24.3869 41.542C24.3615 41.4833 24.3239 41.4306 24.2767 41.3874C24.2294 41.3443 24.1735 41.3117 24.1127 41.2917C24.0519 41.2718 23.9875 41.265 23.9239 41.2717C23.8121 41.2842 23.7089 41.3378 23.6346 41.4223C23.5602 41.5067 23.52 41.6158 23.5217 41.7283V43.0978H23.4022V42.3587C23.4031 42.2947 23.3905 42.2312 23.3651 42.1725C23.3397 42.1137 23.3022 42.061 23.2549 42.0179C23.2077 41.9747 23.1518 41.9421 23.091 41.9222C23.0302 41.9022 22.9658 41.8954 22.9022 41.9022C22.7904 41.9146 22.6872 41.9683 22.6128 42.0527C22.5385 42.1371 22.4982 42.2462 22.5 42.3587V43.0978H18.6196L40.4239 23.0435ZM18.0435 26.5869C17.5242 26.5869 17.087 27.0114 17.087 27.5326V29.0652C17.087 29.5864 17.5242 30.0109 18.0435 30.0109H19.587C20.1063 30.0109 20.5435 29.5864 20.5435 29.0652V27.5326C20.5435 27.0114 20.1063 26.5869 19.587 26.5869H18.0435ZM23.8043 26.5869C23.285 26.5869 22.8478 27.0114 22.8478 27.5326V29.0652C22.8478 29.5864 23.285 30.0109 23.8043 30.0109H25.3478C25.8671 30.0109 26.3043 29.5864 26.3043 29.0652V27.5326C26.3043 27.0114 25.8671 26.5869 25.3478 26.5869H23.8043ZM18.0435 27.4891H19.587C19.6253 27.4891 19.6413 27.5013 19.6413 27.5326V29.0652C19.6413 29.0965 19.6253 29.1087 19.587 29.1087H18.0435C18.0051 29.1087 17.9891 29.0965 17.9891 29.0652V27.5326C17.9891 27.5013 18.0051 27.4891 18.0435 27.4891ZM23.8043 27.4891H25.3478C25.3862 27.4891 25.4022 27.5013 25.4022 27.5326V29.0652C25.4022 29.0965 25.3862 29.1087 25.3478 29.1087H23.8043C23.766 29.1087 23.75 29.0965 23.75 29.0652V27.5326C23.75 27.5013 23.766 27.4891 23.8043 27.4891ZM29.5761 27.4891H31.0869C31.1343 27.4891 31.163 27.5252 31.163 27.5652V30.3369L29.5109 31.8478V27.5652C29.5109 27.5155 29.5287 27.4891 29.5761 27.4891ZM37.4348 29.0869C37.3422 29.0966 37.2549 29.1346 37.1848 29.1956L26.6087 38.913C26.5427 38.9747 26.4966 39.0548 26.4765 39.1429C26.4564 39.231 26.4632 39.3231 26.496 39.4073C26.5287 39.4915 26.586 39.564 26.6603 39.6154C26.7346 39.6668 26.8227 39.6947 26.913 39.6956H37.5C37.5601 39.6962 37.6197 39.6848 37.6754 39.662C37.731 39.6393 37.7816 39.6057 37.8241 39.5632C37.8666 39.5207 37.9002 39.4701 37.9229 39.4145C37.9457 39.3588 37.9571 39.2992 37.9565 39.2391L37.9456 37.0326V29.5326C37.9452 29.4685 37.9312 29.4052 37.9045 29.3469C37.8778 29.2886 37.839 29.2367 37.7907 29.1946C37.7424 29.1524 37.6857 29.121 37.6243 29.1025C37.5629 29.0839 37.4983 29.0786 37.4348 29.0869ZM37.0326 30.5652L37.0435 37.0434V38.7826L28.0761 38.7934L29.3152 37.652H32.0543C33.201 37.652 34.1413 36.7297 34.1413 35.5868V33.2173L37.0326 30.5651V30.5652ZM18.0435 31.7826C17.5242 31.7826 17.087 32.207 17.087 32.7282V34.2609C17.087 34.7821 17.5242 35.2065 18.0435 35.2065H19.587C20.1063 35.2065 20.5435 34.7821 20.5435 34.2609V32.7282C20.5435 32.207 20.1063 31.7826 19.587 31.7826H18.0435ZM23.8043 31.7826C23.285 31.7826 22.8478 32.207 22.8478 32.7282V34.2609C22.8478 34.7821 23.285 35.2065 23.8043 35.2065H25.3478C25.8671 35.2065 26.3043 34.7821 26.3043 34.2609V32.7282C26.3043 32.207 25.8671 31.7826 25.3478 31.7826H23.8043ZM18.0435 32.6848H19.587C19.6253 32.6848 19.6413 32.6969 19.6413 32.7282V34.2609C19.6413 34.2922 19.6253 34.3043 19.587 34.3043H18.0435C18.0051 34.3043 17.9891 34.2922 17.9891 34.2609V32.7282C17.9891 32.6969 18.0051 32.6848 18.0435 32.6848ZM23.8043 32.6848H25.3478C25.3862 32.6848 25.4022 32.6969 25.4022 32.7282V34.2609C25.4022 34.2922 25.3862 34.3043 25.3478 34.3043H23.8043C23.766 34.3043 23.75 34.2922 23.75 34.2609V32.7282C23.75 32.6969 23.766 32.6848 23.8043 32.6848ZM33.2391 34.0543V35.5869C33.2391 36.2399 32.7201 36.75 32.0543 36.75H30.3043L33.2391 34.0543Z" fill="white"/>
<defs>
<linearGradient id="paint0_linear_166812" x1="53.1369" y1="54.9282" x2="-7.26746" y2="13.5359" gradientUnits="userSpaceOnUse">
<stop stop-color="#FF3F7D"/>
<stop offset="1" stop-color="#FF78A4"/>
</linearGradient>
</defs>
</svg>
