<svg width="56" height="56" viewBox="0 0 56 56" fill="none" xmlns="http://www.w3.org/2000/svg">
<rect width="56" height="56" rx="10" fill="url(#paint0_linear_1674)"/>
<mask id="mask0" mask-type="alpha" maskUnits="userSpaceOnUse" x="0" y="0" width="56" height="56">
<rect width="56" height="56" rx="10" fill="#F05C8C"/>
</mask>
<g mask="url(#mask0)">
<path fill-rule="evenodd" clip-rule="evenodd" d="M54.1748 -38.7781C59.9101 -39.3149 66.9901 -42.8774 70.9841 -37.6958C75.1192 -32.3311 71.2819 -23.3268 71.809 -15.9004C72.1773 -10.7119 74.0263 -6.00383 73.6013 -0.822205C73.0799 5.53443 72.398 12.1267 69.1094 17.013C65.2915 22.6857 60.0628 27.2198 54.1748 28.0423C47.9545 28.9112 41.2106 26.8615 36.6058 21.5534C32.1865 16.4592 32.0791 8.15557 30.5991 0.865929C29.2335 -5.86018 26.7346 -12.5947 28.3228 -19.2438C29.9278 -25.9628 34.3018 -31.0879 39.0972 -34.7114C43.6094 -38.1209 48.9194 -38.2862 54.1748 -38.7781Z" fill="#FFC46A"/>
<path fill-rule="evenodd" clip-rule="evenodd" d="M5.97317 25.2886C11.7084 24.7518 18.7884 21.1893 22.7824 26.3709C26.9175 31.7355 23.0803 40.7398 23.6074 48.1663C23.9757 53.3547 25.8247 58.0628 25.3996 63.2444C24.8782 69.6011 24.1963 76.1933 20.9077 81.0797C17.0899 86.7523 11.8611 91.2864 5.97317 92.1089C-0.247198 92.9778 -6.99107 90.9281 -11.5959 85.6201C-16.0152 80.5258 -16.1226 72.2222 -17.6026 64.9326C-18.9682 58.2065 -21.467 51.4719 -19.8788 44.8229C-18.2739 38.1038 -13.8999 32.9787 -9.10448 29.3553C-4.59228 25.9457 0.717701 25.7804 5.97317 25.2886Z" fill="#FFC46A"/>
</g>
<path d="M27.9333 24.2667C27.1949 24.2667 26.4731 24.4857 25.8592 24.8959C25.2452 25.3061 24.7667 25.8892 24.4841 26.5714C24.2016 27.2535 24.1276 28.0042 24.2717 28.7284C24.4157 29.4526 24.7713 30.1178 25.2934 30.6399C25.8155 31.162 26.4808 31.5176 27.2049 31.6617C27.9291 31.8057 28.6798 31.7318 29.362 31.4492C30.0441 31.1666 30.6272 30.6881 31.0374 30.0742C31.4477 29.4602 31.6666 28.7384 31.6666 28.0001C31.6666 27.0099 31.2733 26.0603 30.5732 25.3602C29.873 24.6601 28.9234 24.2667 27.9333 24.2667ZM27.9333 30.6667C27.4059 30.6667 26.8903 30.5103 26.4518 30.2173C26.0132 29.9243 25.6714 29.5078 25.4696 29.0205C25.2678 28.5333 25.215 27.9971 25.3179 27.4798C25.4208 26.9625 25.6747 26.4874 26.0477 26.1144C26.4206 25.7415 26.8958 25.4875 27.413 25.3846C27.9303 25.2817 28.4665 25.3345 28.9538 25.5364C29.441 25.7382 29.8575 26.08 30.1505 26.5185C30.4436 26.9571 30.6 27.4726 30.6 28.0001C30.6 28.7073 30.319 29.3856 29.8189 29.8857C29.3188 30.3858 28.6405 30.6667 27.9333 30.6667Z" fill="white"/>
<path d="M41.8 20C40.648 18 37.496 17.4987 33.496 18.3573C33.336 17.824 33.1547 17.3547 32.9627 16.8907C33.3154 16.6192 33.5744 16.2443 33.7034 15.8183C33.8324 15.3924 33.8249 14.9367 33.6821 14.5152C33.5392 14.0937 33.2681 13.7275 32.9067 13.4677C32.5453 13.2079 32.1117 13.0677 31.6667 13.0667C31.3384 13.0679 31.015 13.1465 30.7227 13.296C30.3678 12.9047 29.9381 12.5885 29.4591 12.3659C28.98 12.1433 28.4612 12.0189 27.9333 12C25.6293 12 23.6187 14.4747 22.3653 18.3573C18.376 17.4987 15.2293 18.0053 14.0667 20C12.904 21.9947 14.0667 24.976 16.792 28C16.4347 28.3947 16.0987 28.7893 15.8 29.1787C15.5849 29.1073 15.36 29.0695 15.1333 29.0667C14.5675 29.0667 14.0249 29.2914 13.6248 29.6915C13.2248 30.0916 13 30.6342 13 31.2C13.0026 31.5227 13.0783 31.8405 13.2215 32.1297C13.3647 32.4188 13.5716 32.6717 13.8267 32.8693C13.6525 33.3802 13.584 33.9211 13.6252 34.4593C13.6665 34.9975 13.8167 35.5216 14.0667 36C14.8613 37.376 16.6053 38.0427 18.92 38.0427C20.0758 38.0302 21.227 37.8962 22.3547 37.6427C23.6187 41.5253 25.6293 44 27.9333 44C30.2373 44 32.2533 41.5253 33.5067 37.632C34.1439 37.7724 34.7885 37.8775 35.4373 37.9467C35.5326 38.4624 35.8145 38.925 36.2292 39.246C36.6439 39.5671 37.1623 39.7242 37.6855 39.6872C38.2086 39.6503 38.6998 39.4219 39.0653 39.0458C39.4307 38.6696 39.6448 38.172 39.6667 37.648C40.5559 37.379 41.3151 36.7924 41.8 36C42.952 34.0053 41.8 31.0293 39.08 28C41.8 24.9707 42.9413 21.9947 41.8 20ZM32.7333 15.2C32.7333 15.411 32.6708 15.6172 32.5536 15.7926C32.4364 15.968 32.2698 16.1047 32.0749 16.1855C31.88 16.2662 31.6655 16.2873 31.4586 16.2462C31.2517 16.205 31.0616 16.1034 30.9124 15.9542C30.7632 15.8051 30.6617 15.615 30.6205 15.4081C30.5793 15.2012 30.6005 14.9867 30.6812 14.7918C30.7619 14.5969 30.8986 14.4303 31.0741 14.3131C31.2495 14.1959 31.4557 14.1333 31.6667 14.1333C31.9496 14.1333 32.2209 14.2457 32.4209 14.4458C32.621 14.6458 32.7333 14.9171 32.7333 15.2ZM27.9333 13.0667C28.6893 13.1034 29.4003 13.4369 29.912 13.9947C29.6642 14.3476 29.5319 14.7687 29.5333 15.2C29.5333 15.7658 29.7581 16.3084 30.1582 16.7085C30.5583 17.1086 31.1009 17.3333 31.6667 17.3333C31.7687 17.3306 31.8703 17.3199 31.9707 17.3013C32.1413 17.7173 32.3013 18.1547 32.4507 18.608C30.9043 19.0189 29.3936 19.554 27.9333 20.208C26.4709 19.5547 24.9585 19.0197 23.4107 18.608C24.4987 15.248 26.136 13.0667 27.9333 13.0667ZM33.8 28C33.8 29.1307 33.7467 30.2347 33.6453 31.3013C32.776 31.9147 31.8427 32.5173 30.8667 33.0827C29.8907 33.648 28.904 34.1493 27.9333 34.5973C26.952 34.1493 25.9707 33.6427 25 33.0827C24.0293 32.5227 23.0907 31.9147 22.2213 31.3013C22.12 30.2347 22.0667 29.1307 22.0667 28C22.0667 26.8693 22.12 25.7653 22.2213 24.6987C23.1013 24.0747 24.0293 23.4773 25 22.9173C25.9707 22.3573 26.9627 21.8507 27.9333 21.4027C28.904 21.8507 29.8907 22.352 30.8667 22.9173C31.8427 23.4827 32.776 24.0853 33.6507 24.704C33.7467 25.776 33.8 26.88 33.8 28ZM34.776 25.536C35.7659 26.2948 36.7048 27.118 37.5867 28C36.7097 28.88 35.7742 29.6996 34.7867 30.4533C34.84 29.6533 34.8667 28.8533 34.8667 28C34.8667 27.1467 34.8293 26.3467 34.776 25.536ZM33.4853 32.7093C33.3228 33.9398 33.0805 35.1583 32.76 36.3573C31.5575 36.0392 30.3779 35.6401 29.2293 35.1627C29.9404 34.8071 30.664 34.4213 31.4 34.0053C32.136 33.5893 32.8311 33.1573 33.4853 32.7093ZM26.648 35.1573C25.5034 35.6339 24.3295 36.0365 23.1333 36.3627C22.8134 35.1617 22.5711 33.9414 22.408 32.7093C23.0764 33.1502 23.7716 33.5822 24.4933 34.0053C25.1867 34.4 25.9173 34.8 26.648 35.1573ZM21.08 30.4533C20.0921 29.698 19.1549 28.8784 18.2747 28C19.1544 27.121 20.0916 26.3014 21.08 25.5467C21.0267 26.3467 21 27.1467 21 28.0053C21 28.864 21.0267 29.6533 21.08 30.4533ZM22.3813 23.296C22.5527 22.0615 22.8039 20.8394 23.1333 19.6373C24.3334 19.9598 25.511 20.3607 26.6587 20.8373C25.9387 21.1893 25.2187 21.5787 24.4933 21.9947C23.768 22.4107 23.0533 22.8427 22.3813 23.296ZM31.4 21.9947C30.6747 21.5787 29.9547 21.1893 29.2347 20.8373C30.373 20.3617 31.5418 19.9626 32.7333 19.6427C33.0575 20.8414 33.3034 22.06 33.4693 23.2907C32.8187 22.8462 32.1289 22.4142 31.4 21.9947ZM15 20.5333C15.9013 18.976 18.6107 18.6507 22.0613 19.3867C21.6489 20.9383 21.36 22.5201 21.1973 24.1173C19.9005 25.0552 18.679 26.093 17.544 27.2213C15.176 24.6027 14.104 22.0907 15 20.5333ZM15.1333 30.1333C15.3443 30.1333 15.5505 30.1959 15.7259 30.3131C15.9014 30.4303 16.0381 30.5969 16.1188 30.7918C16.1995 30.9867 16.2207 31.2012 16.1795 31.4081C16.1383 31.615 16.0368 31.8051 15.8876 31.9542C15.7384 32.1034 15.5483 32.205 15.3414 32.2462C15.1345 32.2873 14.92 32.2662 14.7251 32.1855C14.5302 32.1047 14.3636 31.968 14.2464 31.7926C14.1292 31.6172 14.0667 31.411 14.0667 31.2C14.0667 30.9171 14.179 30.6458 14.3791 30.4458C14.5791 30.2457 14.8504 30.1333 15.1333 30.1333ZM15 35.4667C14.659 34.7965 14.5921 34.02 14.8133 33.3013C14.919 33.3204 15.026 33.3311 15.1333 33.3333C15.5474 33.3365 15.9534 33.2191 16.3018 32.9955C16.6503 32.7719 16.9261 32.4517 17.0958 32.0741C17.2654 31.6964 17.3214 31.2775 17.2571 30.8685C17.1927 30.4595 17.0107 30.078 16.7333 29.7707C16.9893 29.44 17.2667 29.1093 17.5653 28.7787C18.6995 29.9116 19.923 30.9514 21.224 31.888C21.3797 33.4829 21.6615 35.0629 22.0667 36.6133C18.6107 37.3493 15.9013 37.024 15 35.4667ZM27.9333 42.9333C26.136 42.9333 24.4987 40.752 23.4107 37.392C24.9637 36.9803 26.4814 36.4452 27.9493 35.792C29.4087 36.4436 30.9174 36.9786 32.4613 37.392C31.3733 40.7413 29.7307 42.9333 27.9333 42.9333ZM37.5333 38.6667C37.3224 38.6667 37.1161 38.6041 36.9407 38.4869C36.7653 38.3697 36.6286 38.2031 36.5479 38.0082C36.4671 37.8133 36.446 37.5988 36.4872 37.3919C36.5283 37.185 36.6299 36.9949 36.7791 36.8458C36.9283 36.6966 37.1183 36.595 37.3252 36.5538C37.5322 36.5127 37.7466 36.5338 37.9415 36.6145C38.1364 36.6953 38.303 36.832 38.4202 37.0074C38.5374 37.1828 38.6 37.389 38.6 37.6C38.6 37.8829 38.4876 38.1542 38.2876 38.3542C38.0875 38.5543 37.8162 38.6667 37.5333 38.6667ZM40.8667 35.4667C40.5261 36.0022 40.0092 36.4021 39.4053 36.5973C39.2085 36.2385 38.9126 35.9438 38.5529 35.7485C38.1932 35.5532 37.7849 35.4655 37.3767 35.4959C36.9685 35.5263 36.5777 35.6734 36.2509 35.9198C35.924 36.1661 35.6749 36.5013 35.5333 36.8853C35 36.8267 34.4027 36.7307 33.8053 36.608C34.2177 35.06 34.5067 33.4817 34.6693 31.888C35.9704 30.9514 37.1939 29.9116 38.328 28.7787C40.6907 31.4027 41.7627 33.9093 40.8667 35.4667ZM38.328 27.2213C37.1885 26.0847 35.9597 25.0414 34.6533 24.1013C34.4946 22.5114 34.2092 20.9366 33.8 19.392C37.2613 18.6507 39.976 18.976 40.8773 20.5333C41.7787 22.0907 40.6907 24.5973 38.328 27.2213Z" fill="white"/>
<defs>
<linearGradient id="paint0_linear_1674" x1="-0.0826451" y1="-7.23812e-07" x2="65.3435" y2="41.6302" gradientUnits="userSpaceOnUse">
<stop stop-color="#FFC670"/>
<stop offset="1" stop-color="#FFB23B"/>
</linearGradient>
</defs>
</svg>
