<svg width="56" height="56" viewBox="0 0 56 56" fill="none" xmlns="http://www.w3.org/2000/svg">
<rect width="56" height="56" rx="10" fill="url(#paint0_linear_16682)"/>
<mask id="mask0" mask-type="alpha" maskUnits="userSpaceOnUse" x="0" y="0" width="56" height="56">
<rect width="56" height="56" rx="10" fill="#F05C8C"/>
</mask>
<g mask="url(#mask0)">
<path fill-rule="evenodd" clip-rule="evenodd" d="M54.1748 -38.7779C59.9101 -39.3147 66.9901 -42.8772 70.9841 -37.6956C75.1192 -32.331 71.2819 -23.3266 71.809 -15.9002C72.1773 -10.7117 74.0263 -6.00365 73.6013 -0.822018C73.0799 5.53462 72.398 12.1269 69.1094 17.0132C65.2915 22.6859 60.0628 27.22 54.1748 28.0424C47.9545 28.9114 41.2106 26.8617 36.6058 21.5536C32.1865 16.4594 32.0791 8.15575 30.5991 0.866116C29.2335 -5.86 26.7346 -12.5946 28.3228 -19.2436C29.9278 -25.9626 34.3018 -31.0877 39.0972 -34.7112C43.6094 -38.1207 48.9194 -38.286 54.1748 -38.7779Z" fill="#50C4C4"/>
<path fill-rule="evenodd" clip-rule="evenodd" d="M5.97317 25.2885C11.7084 24.7518 18.7884 21.1892 22.7824 26.3709C26.9175 31.7355 23.0803 40.7398 23.6074 48.1663C23.9757 53.3547 25.8247 58.0628 25.3996 63.2444C24.8782 69.6011 24.1963 76.1933 20.9077 81.0796C17.0899 86.7523 11.8611 91.2864 5.97317 92.1089C-0.247198 92.9778 -6.99107 90.9281 -11.5959 85.6201C-16.0152 80.5258 -16.1226 72.2222 -17.6026 64.9326C-18.9682 58.2065 -21.467 51.4719 -19.8788 44.8229C-18.2739 38.1038 -13.8999 32.9787 -9.10448 29.3552C-4.59228 25.9457 0.717701 25.7804 5.97317 25.2885Z" fill="#50C4C4"/>
</g>
<path d="M14.1702 34.216C12.8982 34.216 11.9022 33.91 11.1822 33.298C10.4742 32.686 10.1202 31.888 10.1202 30.904C10.1202 29.872 10.5402 29.062 11.3802 28.474L9.72417 28.492V27.25H13.4682C13.6002 27.154 13.7082 27.034 13.7922 26.89C13.8882 26.734 13.9362 26.56 13.9362 26.368C13.9362 26.2 13.9062 26.038 13.8462 25.882C13.7982 25.726 13.7322 25.588 13.6482 25.468H9.72417V24.082H15.0882C15.7362 24.082 16.1922 24.052 16.4562 23.992C16.7202 23.932 16.9122 23.854 17.0322 23.758C17.1882 23.638 17.2902 23.506 17.3382 23.362C17.3982 23.206 17.4282 23.044 17.4282 22.876C17.4282 22.108 17.0382 21.334 16.2582 20.554L17.4282 19.78C17.9922 20.404 18.3762 20.968 18.5802 21.472C18.7842 21.964 18.8862 22.468 18.8862 22.984C18.8862 23.212 18.8382 23.494 18.7422 23.83C18.6582 24.154 18.4602 24.448 18.1482 24.712C17.8482 24.976 17.4882 25.168 17.0682 25.288C16.6602 25.408 16.1082 25.468 15.4122 25.468H15.0882C15.2682 25.804 15.3582 26.11 15.3582 26.386C15.3582 26.578 15.3342 26.746 15.2862 26.89C15.2502 27.022 15.1962 27.142 15.1242 27.25H18.7782V28.492L17.0142 28.474C17.4222 28.702 17.7462 29.026 17.9862 29.446C18.2382 29.866 18.3642 30.34 18.3642 30.868C18.3642 31.864 18.0102 32.674 17.3022 33.298C16.6062 33.91 15.5622 34.216 14.1702 34.216ZM14.2422 32.812C15.2022 32.812 15.8862 32.608 16.2942 32.2C16.7142 31.78 16.9242 31.276 16.9242 30.688C16.9242 30.016 16.6962 29.482 16.2402 29.086C15.7962 28.69 15.1302 28.492 14.2422 28.492C13.3302 28.492 12.6522 28.702 12.2082 29.122C11.7762 29.53 11.5602 30.052 11.5602 30.688C11.5602 31.324 11.7822 31.84 12.2262 32.236C12.6702 32.62 13.3422 32.812 14.2422 32.812ZM28.1061 34.216C27.4701 34.216 26.9421 34.096 26.5221 33.856C26.1141 33.616 25.7661 33.31 25.4781 32.938C25.2021 32.554 24.9441 32.158 24.7041 31.75C24.4041 31.222 24.1461 30.826 23.9301 30.562C23.7141 30.298 23.5101 30.118 23.3181 30.022C23.1381 29.926 22.9281 29.878 22.6881 29.878C22.2801 29.878 21.9621 30.01 21.7341 30.274C21.5181 30.526 21.4101 30.88 21.4101 31.336C21.4101 31.72 21.4941 32.116 21.6621 32.524C21.8301 32.92 22.0521 33.31 22.3281 33.694L20.9241 34.252C20.6481 33.868 20.4201 33.424 20.2401 32.92C20.0601 32.416 19.9701 31.906 19.9701 31.39C19.9701 30.826 20.0901 30.328 20.3301 29.896C20.5701 29.464 20.8941 29.128 21.3021 28.888C21.7101 28.636 22.1661 28.51 22.6701 28.51C23.4141 28.51 24.0021 28.684 24.4341 29.032C24.8661 29.38 25.2861 29.914 25.6941 30.634C25.9701 31.102 26.2221 31.498 26.4501 31.822C26.6781 32.146 26.9301 32.392 27.2061 32.56C27.4941 32.716 27.8481 32.794 28.2681 32.794C28.8921 32.794 29.3301 32.578 29.5821 32.146C29.8461 31.702 29.9781 31.18 29.9781 30.58C29.9781 29.74 29.7981 28.96 29.4381 28.24C29.0901 27.52 28.6161 26.92 28.0161 26.44C27.4281 25.948 26.7621 25.624 26.0181 25.468H20.0061V24.082H27.6561C28.3041 24.082 28.7541 24.052 29.0061 23.992C29.2701 23.932 29.4681 23.854 29.6001 23.758C29.7561 23.638 29.8581 23.506 29.9061 23.362C29.9661 23.206 29.9961 23.044 29.9961 22.876C29.9961 22.108 29.6061 21.334 28.8261 20.554L29.9961 19.78C30.5601 20.404 30.9441 20.968 31.1481 21.472C31.3521 21.964 31.4541 22.468 31.4541 22.984C31.4541 23.212 31.4061 23.494 31.3101 23.83C31.2141 24.154 31.0161 24.448 30.7161 24.712C30.4761 24.916 30.2001 25.078 29.8881 25.198C29.5881 25.318 29.2101 25.396 28.7541 25.432C29.6061 26.02 30.2661 26.74 30.7341 27.592C31.2141 28.444 31.4541 29.392 31.4541 30.436C31.4541 31.612 31.1601 32.536 30.5721 33.208C29.9961 33.88 29.1741 34.216 28.1061 34.216ZM28.969 35.188C29.485 35.188 29.923 35.266 30.283 35.422C30.643 35.59 30.973 35.842 31.273 36.178C31.573 36.526 31.885 36.976 32.209 37.528C32.701 37 32.947 36.34 32.947 35.548C32.947 34.732 32.767 34 32.407 33.352L33.595 32.758C33.835 33.106 34.015 33.52 34.135 34C34.255 34.48 34.315 34.936 34.315 35.368C34.315 36.1 34.177 36.73 33.901 37.258C33.637 37.798 33.283 38.242 32.839 38.59C33.043 38.89 33.247 39.094 33.451 39.202C33.655 39.31 33.919 39.364 34.243 39.364C34.339 39.364 34.459 39.352 34.603 39.328C34.747 39.304 34.843 39.28 34.891 39.256L35.125 40.462C35.017 40.51 34.873 40.546 34.693 40.57C34.525 40.606 34.375 40.624 34.243 40.624C33.655 40.624 33.181 40.51 32.821 40.282C32.461 40.054 32.125 39.7 31.813 39.22C31.441 39.388 31.051 39.508 30.643 39.58C30.223 39.664 29.809 39.706 29.401 39.706C28.729 39.706 28.183 39.592 27.763 39.364C27.331 39.148 27.019 38.86 26.827 38.5C26.635 38.14 26.539 37.756 26.539 37.348C26.539 36.676 26.773 36.148 27.241 35.764C27.697 35.38 28.273 35.188 28.969 35.188ZM27.907 37.348C27.907 37.54 27.949 37.726 28.033 37.906C28.117 38.086 28.279 38.236 28.519 38.356C28.747 38.476 29.077 38.536 29.509 38.536C30.169 38.536 30.751 38.428 31.255 38.212C30.919 37.6 30.577 37.138 30.229 36.826C29.881 36.514 29.485 36.358 29.041 36.358C28.681 36.358 28.405 36.448 28.213 36.628C28.009 36.808 27.907 37.048 27.907 37.348ZM37.9954 34.216C37.0594 34.216 36.3034 33.868 35.7274 33.172C35.1514 32.476 34.8634 31.432 34.8634 30.04C34.8634 29.032 35.0614 28.132 35.4574 27.34C35.8534 26.536 36.4294 25.912 37.1854 25.468H34.8634V24.082H43.4314C44.0674 24.082 44.5174 24.052 44.7814 23.992C45.0574 23.932 45.2554 23.854 45.3754 23.758C45.5434 23.638 45.6514 23.506 45.6994 23.362C45.7474 23.206 45.7714 23.044 45.7714 22.876C45.7714 22.108 45.3814 21.334 44.6014 20.554L45.7714 19.78C46.3354 20.404 46.7194 20.968 46.9234 21.472C47.1274 21.964 47.2294 22.468 47.2294 22.984C47.2294 23.212 47.1814 23.494 47.0854 23.83C46.9894 24.154 46.7914 24.448 46.4914 24.712C46.3354 24.856 46.1374 24.988 45.8974 25.108C45.6694 25.216 45.3934 25.3 45.0694 25.36C45.5854 25.636 45.9634 26.008 46.2034 26.476C46.4434 26.932 46.5634 27.418 46.5634 27.934C46.5634 28.066 46.5574 28.186 46.5454 28.294C47.0014 28.966 47.2294 29.764 47.2294 30.688C47.2294 31.396 47.0854 32.014 46.7974 32.542C46.5214 33.07 46.1434 33.484 45.6634 33.784C45.1834 34.072 44.6314 34.216 44.0074 34.216C43.2754 34.216 42.6814 34.096 42.2254 33.856C41.7694 33.604 41.3554 33.19 40.9834 32.614C40.5754 33.274 40.1194 33.706 39.6154 33.91C39.1114 34.114 38.5714 34.216 37.9954 34.216ZM38.1934 32.794C38.7934 32.794 39.2674 32.596 39.6154 32.2C39.9634 31.792 40.1914 31.288 40.2994 30.688H41.6674C41.7874 31.42 42.0454 31.954 42.4414 32.29C42.8494 32.626 43.3234 32.794 43.8634 32.794C44.3914 32.794 44.8594 32.632 45.2674 32.308C45.6754 31.984 45.8794 31.438 45.8794 30.67C45.8794 30.346 45.8434 30.028 45.7714 29.716C45.5554 29.956 45.2854 30.148 44.9614 30.292C44.6494 30.436 44.2834 30.508 43.8634 30.508C43.2754 30.508 42.7594 30.352 42.3154 30.04C41.8834 29.728 41.6674 29.242 41.6674 28.582C41.6674 27.958 41.8714 27.502 42.2794 27.214C42.6994 26.914 43.1794 26.764 43.7194 26.764C44.0074 26.764 44.2594 26.794 44.4754 26.854C44.7034 26.902 44.9074 26.968 45.0874 27.052C44.8474 26.56 44.4034 26.17 43.7554 25.882C43.1194 25.582 42.3694 25.432 41.5054 25.432H40.8754C39.8914 25.432 39.0574 25.636 38.3734 26.044C37.7014 26.44 37.1914 26.986 36.8434 27.682C36.5074 28.366 36.3394 29.152 36.3394 30.04C36.3394 31.036 36.5014 31.744 36.8254 32.164C37.1494 32.584 37.6054 32.794 38.1934 32.794ZM43.0174 28.582C43.0174 29.11 43.3294 29.374 43.9534 29.374C44.1814 29.374 44.4214 29.314 44.6734 29.194C44.9254 29.062 45.1054 28.834 45.2134 28.51C45.0574 28.318 44.8654 28.162 44.6374 28.042C44.4214 27.922 44.1694 27.862 43.8814 27.862C43.6294 27.862 43.4194 27.928 43.2514 28.06C43.0954 28.18 43.0174 28.354 43.0174 28.582Z" fill="white"/>
<defs>
<linearGradient id="paint0_linear_16682" x1="53.2914" y1="56.1774" x2="-9.3999" y2="14.0905" gradientUnits="userSpaceOnUse">
<stop stop-color="#0C9FA3"/>
<stop offset="1" stop-color="#5FCCCB"/>
</linearGradient>
</defs>
</svg>
