<svg width="56" height="56" viewBox="0 0 56 56" fill="none" xmlns="http://www.w3.org/2000/svg">
<rect width="56" height="56" rx="10" fill="url(#paint0_linear_16685)"/>
<mask id="mask0" mask-type="alpha" maskUnits="userSpaceOnUse" x="0" y="0" width="56" height="56">
<rect width="56" height="56" rx="10" fill="#F05C8C"/>
</mask>
<g mask="url(#mask0)">
<path fill-rule="evenodd" clip-rule="evenodd" d="M54.1748 -38.7778C59.9101 -39.3146 66.9901 -42.8772 70.9841 -37.6955C75.1192 -32.3309 71.2819 -23.3266 71.809 -15.9001C72.1773 -10.7117 74.0263 -6.00359 73.6013 -0.82196C73.0799 5.53468 72.398 12.1269 69.1094 17.0133C65.2915 22.6859 60.0628 27.22 54.1748 28.0425C47.9545 28.9114 41.2106 26.8617 36.6058 21.5537C32.1865 16.4594 32.0791 8.15581 30.5991 0.866173C29.2335 -5.85994 26.7346 -12.5945 28.3228 -19.2435C29.9278 -25.9626 34.3018 -31.0877 39.0972 -34.7111C43.6094 -38.1207 48.9194 -38.286 54.1748 -38.7778Z" fill="#8BE2FF"/>
<path fill-rule="evenodd" clip-rule="evenodd" d="M5.97317 25.2886C11.7084 24.7518 18.7884 21.1893 22.7824 26.3709C26.9175 31.7355 23.0803 40.7398 23.6074 48.1663C23.9757 53.3547 25.8247 58.0628 25.3996 63.2444C24.8782 69.6011 24.1963 76.1933 20.9077 81.0797C17.0899 86.7523 11.8611 91.2864 5.97317 92.1089C-0.247198 92.9778 -6.99107 90.9281 -11.5959 85.6201C-16.0152 80.5258 -16.1226 72.2222 -17.6026 64.9326C-18.9682 58.2065 -21.467 51.4719 -19.8788 44.8229C-18.2739 38.1038 -13.8999 32.9787 -9.10448 29.3553C-4.59228 25.9457 0.717701 25.7804 5.97317 25.2886Z" fill="#8BE2FF"/>
<path d="M40.2359 14.3088C40.2359 14.8782 39.7812 15.3375 39.2175 15.3375C39.7812 15.3375 40.2359 15.7969 40.2359 16.3662C40.2359 15.7969 40.6907 15.3375 41.2543 15.3375C40.6907 15.331 40.2359 14.8717 40.2359 14.3088Z" stroke="#FDFEFF" stroke-width="0.3" stroke-miterlimit="10" stroke-linecap="round" stroke-linejoin="round"/>
<path d="M26.494 -2.11377C26.494 -1.54444 26.0392 -1.08509 25.4756 -1.08509C26.0392 -1.08509 26.494 -0.625749 26.494 -0.0564193C26.494 -0.625749 26.9487 -1.08509 27.5124 -1.08509C26.9487 -1.09156 26.494 -1.55091 26.494 -2.11377Z" stroke="#FDFEFF" stroke-width="0.3" stroke-miterlimit="10" stroke-linecap="round" stroke-linejoin="round"/>
<path d="M19.5368 65.8188L21.8517 59.5961L25.8513 60.9928L28.1207 54.2233L32.9653 55.8043L34.1437 51.8086L32.7916 51.9543L35.1909 48.9912L35.6085 52.8161L34.5588 51.9334L33.2463 56.3525L28.3896 54.7734L26.1081 61.5448L22.1066 60.1358L19.9314 65.9719L19.5368 65.8188Z" fill="#FDFEFF"/>
<path d="M20.9082 9.24474C20.9851 8.77892 21.0683 8.26782 21.126 7.91846" stroke="#FDFEFF" stroke-width="0.3" stroke-miterlimit="10" stroke-linecap="round" stroke-linejoin="round"/>
<path d="M21.7793 8.00903C21.7216 8.35193 21.6384 8.86303 21.5615 9.33531" stroke="#FDFEFF" stroke-width="0.3" stroke-miterlimit="10" stroke-linecap="round" stroke-linejoin="round"/>
<path d="M20.1267 9.89806L20.9081 9.27051L21.555 9.38049L22.0482 10.2215L20.1267 9.89806Z" stroke="#FDFEFF" stroke-width="0.3" stroke-miterlimit="10" stroke-linecap="round" stroke-linejoin="round"/>
<path d="M23.387 7.07736C24.4438 6.92209 25.0203 5.52465 25.2188 4.95532C25.2188 4.95532 24.3734 4.81298 24.0211 4.75475M24.0852 4.29541C24.7192 4.39892 25.7953 4.58008 25.7953 4.58008L25.7312 4.82592C25.7248 4.85827 25.5327 5.5764 25.1035 6.26866C24.5207 7.20676 23.7713 7.64022 22.9451 7.53024L24.0852 4.29541Z" stroke="#FDFEFF" stroke-width="0.3" stroke-miterlimit="10" stroke-linecap="round" stroke-linejoin="round"/>
<path d="M20.0755 7.04497C19.3005 6.85088 18.7689 6.20392 18.5255 5.16877C18.3398 4.373 18.391 3.62899 18.391 3.59665L18.4102 3.34433C18.4102 3.34433 19.4542 3.51901 20.0883 3.62252M20.0371 4.08834C19.6912 4.03011 18.8393 3.88778 18.8393 3.88778C18.8393 4.5024 18.9482 6.05512 19.9474 6.52093L20.0371 4.08834Z" stroke="#FDFEFF" stroke-width="0.3" stroke-miterlimit="10" stroke-linecap="round" stroke-linejoin="round"/>
<path d="M20.2419 3.07251C20.1202 3.77123 19.8512 5.47922 19.9089 6.04208C20.0242 7.19368 20.6326 7.78242 21.382 7.90534L21.4589 7.91828L21.5357 7.93122C22.2851 8.05415 23.0473 7.69832 23.5277 6.64376C23.7647 6.11972 24.0721 4.35351 24.181 3.67419" stroke="#FDFEFF" stroke-width="0.3" stroke-miterlimit="10" stroke-linecap="round" stroke-linejoin="round"/>
<path d="M22.0866 10.2281L20.1267 9.89816C19.8449 9.85287 19.5759 10.047 19.5247 10.3316L22.5094 10.8298C22.5606 10.5451 22.3685 10.2734 22.0866 10.2281Z" stroke="#FDFEFF" stroke-width="0.3" stroke-miterlimit="10" stroke-linecap="round" stroke-linejoin="round"/>
<path d="M19.2805 10.2884L18.9854 12.0884L22.4735 12.6719L22.7687 10.8719L19.2805 10.2884Z" stroke="#FDFEFF" stroke-width="0.3" stroke-miterlimit="10" stroke-linecap="round" stroke-linejoin="round"/>
<path d="M18.6909 12.04L18.603 12.5762L22.6789 13.258L22.7668 12.7219L18.6909 12.04Z" stroke="#FDFEFF" stroke-width="0.3" stroke-miterlimit="10" stroke-linecap="round" stroke-linejoin="round"/>
<path d="M24.5718 3.40903C24.5462 3.57724 24.3861 3.68722 24.226 3.66135L20.2933 3.00144C20.1268 2.97556 20.0179 2.81382 20.0435 2.65208C20.0691 2.48387 20.2293 2.37388 20.3894 2.39976L24.322 3.05967C24.4886 3.08555 24.6039 3.24729 24.5718 3.40903Z" stroke="#FDFEFF" stroke-width="0.3" stroke-miterlimit="10" stroke-linecap="round" stroke-linejoin="round"/>
<path d="M27.5665 36.3585L29.1155 43.1978L17.2494 45.9424L27.5665 36.3585ZM27.6215 42.2451L26.8329 38.7501L21.5556 43.6476L27.6215 42.2451Z" stroke="#FDFEFF" stroke-width="0.3" stroke-miterlimit="10" stroke-linecap="round" stroke-linejoin="round"/>
<path d="M27.9017 42.8044L28.0467 43.3899" stroke="#FDFEFF" stroke-width="0.3" stroke-miterlimit="10" stroke-linecap="round" stroke-linejoin="round"/>
<path d="M26.888 43.0136L27.033 43.5992" stroke="#FDFEFF" stroke-width="0.3" stroke-miterlimit="10" stroke-linecap="round" stroke-linejoin="round"/>
<path d="M25.9092 43.2404L26.0543 43.826" stroke="#FDFEFF" stroke-width="0.3" stroke-miterlimit="10" stroke-linecap="round" stroke-linejoin="round"/>
<path d="M24.9017 43.4516L25.0448 44.0434" stroke="#FDFEFF" stroke-width="0.3" stroke-miterlimit="10" stroke-linecap="round" stroke-linejoin="round"/>
<path d="M23.8538 43.7518L23.9927 44.3355" stroke="#FDFEFF" stroke-width="0.3" stroke-miterlimit="10" stroke-linecap="round" stroke-linejoin="round"/>
<path d="M22.8401 43.9611L22.9833 44.5529" stroke="#FDFEFF" stroke-width="0.3" stroke-miterlimit="10" stroke-linecap="round" stroke-linejoin="round"/>
<path d="M21.8614 44.1879L22.0064 44.7735" stroke="#FDFEFF" stroke-width="0.3" stroke-miterlimit="10" stroke-linecap="round" stroke-linejoin="round"/>
<path d="M20.8538 44.3989L20.997 44.9906" stroke="#FDFEFF" stroke-width="0.3" stroke-miterlimit="10" stroke-linecap="round" stroke-linejoin="round"/>
<path d="M19.7708 44.6613L19.914 45.2531" stroke="#FDFEFF" stroke-width="0.3" stroke-miterlimit="10" stroke-linecap="round" stroke-linejoin="round"/>
<path d="M11.0487 9.96118L10.9846 12.8725C10.9846 12.8725 10.6452 12.7949 10.3569 13.0084C9.94703 13.3125 10.0687 13.7265 10.3377 13.83C10.7284 13.9853 11.228 13.7071 11.2408 13.2284C11.26 12.5167 11.3049 10.3752 11.3049 10.3752L13.2392 10.0582L13.22 12.4649C13.22 12.4649 12.9189 12.3873 12.5987 12.5685C12.0735 12.8725 12.3041 13.5454 12.7844 13.4871C13.0278 13.4548 13.3224 13.2542 13.3801 12.8272C13.489 12.0056 13.489 9.52124 13.489 9.52124L11.0487 9.96118Z" fill="#FDFEFF"/>
<path d="M36.9207 -0.240084L39.5551 4.61486C39.5551 4.61486 38.9231 4.81299 38.6495 5.44125C38.2607 6.3355 38.8508 6.90039 39.3911 6.81252C40.1805 6.69302 40.7412 5.75528 40.3118 4.95472C39.6737 3.76454 37.7322 0.195653 37.7322 0.195653L40.6186 -2.1836L42.8519 1.79743C42.8519 1.79743 42.2832 1.95866 41.9264 2.56442C41.3478 3.56936 42.3607 4.45578 43.0968 3.89866C43.4671 3.6117 43.7635 2.99859 43.4565 2.2402C42.8626 0.782836 40.5246 -3.30757 40.5246 -3.30757L36.9207 -0.240084Z" fill="#FDFEFF"/>
<path d="M11.689 27.5974C11.6826 27.358 11.7723 27.1122 12.0029 27.0022L12.0477 26.9828C12.3039 26.8599 12.605 27.0151 12.7779 27.2222" stroke="#FDFEFF" stroke-width="0.3" stroke-miterlimit="10" stroke-linecap="round" stroke-linejoin="round"/>
<path d="M2.09448 22.8551C2.10729 22.6352 2.13291 22.1694 2.13291 22.1694C2.13291 22.1694 2.8887 21.93 3.29862 21.6194C4.57321 20.6619 5.79656 19.5103 7.42342 19.3098C8.10235 19.2257 8.48024 19.5362 8.64677 19.7432" stroke="#FDFEFF" stroke-width="0.3" stroke-miterlimit="10" stroke-linecap="round" stroke-linejoin="round"/>
<path d="M15.2822 16.7025C15.1029 16.5666 14.7634 16.3079 14.7634 16.3079C14.7634 16.3079 14.1357 16.9225 13.6425 17.0454C12.0989 17.4206 10.3568 17.3559 9.15904 18.4881C8.68507 18.941 8.65945 19.4004 8.69788 19.6721" stroke="#FDFEFF" stroke-width="0.3" stroke-miterlimit="10" stroke-linecap="round" stroke-linejoin="round"/>
<path d="M15.8523 16.8642L15.5449 16.6119L9.81881 19.8079C9.53058 19.5168 8.85166 19.672 8.69153 19.7432L8.6467 19.7626C8.44174 19.8791 8.03822 20.222 8.07665 20.6296L1.87023 22.9651L1.85742 23.3662" stroke="#FDFEFF" stroke-width="0.3" stroke-miterlimit="10" stroke-linecap="round" stroke-linejoin="round"/>
<path d="M8.51853 20.8883C8.51212 20.6489 8.64663 20.416 8.87721 20.3125L8.92204 20.2931C9.17824 20.1702 9.47928 20.2478 9.65221 20.4484" stroke="#FDFEFF" stroke-width="0.3" stroke-miterlimit="10" stroke-linecap="round" stroke-linejoin="round"/>
<path d="M12.8483 27.3386L18.5743 23.9874L15.8522 16.8643L9.67139 20.429L12.8483 27.3386Z" stroke="#FDFEFF" stroke-width="0.3" stroke-miterlimit="10" stroke-linecap="round" stroke-linejoin="round"/>
<path d="M5.52747 30.0429L11.7915 27.8367L8.56984 20.953L1.85742 23.3662L5.52747 30.0429Z" stroke="#FDFEFF" stroke-width="0.3" stroke-miterlimit="10" stroke-linecap="round" stroke-linejoin="round"/>
<path d="M11.2983 21.6517L11.7467 22.6222L16.1853 20.1119L15.7178 19.1091L11.2983 21.6517Z" stroke="#FDFEFF" stroke-width="0.3" stroke-miterlimit="10" stroke-linecap="round" stroke-linejoin="round"/>
<path d="M12.0989 23.2821L16.5311 20.7654" stroke="#FDFEFF" stroke-width="0.3" stroke-miterlimit="10" stroke-linecap="round" stroke-linejoin="round"/>
<path d="M13.7964 23.7735L15.8204 22.5896" stroke="#FDFEFF" stroke-width="0.3" stroke-miterlimit="10" stroke-linecap="round" stroke-linejoin="round"/>
<path d="M5.33529 3.61433L3.07433 2.51449L3.13838 2.37863C3.19603 2.2557 3.14479 2.11337 3.02309 2.05515C2.9014 1.99692 2.76049 2.04868 2.70284 2.1716L2.04954 3.54964C1.99189 3.67256 2.04313 3.81489 2.16482 3.87312C2.28652 3.93135 2.42743 3.87959 2.48507 3.75667L2.54912 3.6208L4.81008 4.72064C4.66917 5.63287 5.11752 6.57097 5.9886 6.99149C7.04542 7.5026 8.3136 7.05619 8.81959 5.9887C9.32559 4.9212 8.88364 3.64021 7.82682 3.12911C6.95575 2.70211 5.95017 2.92855 5.33529 3.61433Z" stroke="#FDFEFF" stroke-width="0.3" stroke-miterlimit="10" stroke-linecap="round" stroke-linejoin="round"/>
<path d="M7.5193 3.498C7.17984 3.16805 6.58417 3.31685 6.40484 3.68562C6.34079 3.82148 6.31517 3.97029 6.32798 4.11262C6.17426 4.12556 6.02694 4.2226 5.95649 4.37141C5.89884 4.48786 5.89884 4.61078 5.93727 4.72077C5.81558 4.77899 5.7131 4.88251 5.64905 5.01837C5.51454 5.30304 5.60421 5.63946 5.85401 5.81414C5.61062 6.05998 5.8476 6.47404 6.09099 6.5905C6.09099 6.5905 5.88603 6.93986 5.98851 6.98515C7.04533 7.49625 8.31352 7.04984 8.81951 5.98235C9.3255 4.91486 8.88356 3.63386 7.82674 3.12276C7.71786 3.071 7.5193 3.498 7.5193 3.498Z" stroke="#FDFEFF" stroke-width="0.3" stroke-miterlimit="10" stroke-linecap="round" stroke-linejoin="round"/>
<path d="M6.77563 37.582C7.15705 37.969 7.64246 38.2547 8.20204 38.3892C9.78288 38.7541 11.359 37.761 11.7203 36.1642C11.73 36.1054 11.7485 36.0487 11.7527 35.9932" stroke="#FDFEFF" stroke-width="0.3" stroke-miterlimit="10" stroke-linecap="round" stroke-linejoin="round"/>
<path d="M11.7379 34.9061C11.5122 33.804 10.6741 32.8794 9.5176 32.6105C7.93676 32.2456 6.36064 33.2387 5.99932 34.8355C5.84133 35.5217 5.93598 36.2049 6.21812 36.7886" stroke="#FDFEFF" stroke-width="0.3" stroke-miterlimit="10" stroke-linecap="round" stroke-linejoin="round"/>
<path d="M5.93413 35.314C5.91211 35.6148 5.9384 35.9087 6.00968 36.1903C5.55581 36.4449 5.30281 36.6599 5.3417 36.7874C5.38607 36.9115 5.72003 36.9192 6.24262 36.8419C6.32496 36.8294 6.41278 36.8135 6.50608 36.7943C7.19986 36.6654 8.13592 36.4035 9.15407 36.0537C9.92864 35.7847 10.6416 35.5003 11.2097 35.2365C11.4038 35.1481 11.5837 35.0609 11.7459 34.9694C12.3282 34.6666 12.6667 34.4069 12.6178 34.2628C12.5723 34.1243 12.156 34.1291 11.5215 34.2445C11.3998 33.9787 11.2363 33.7307 11.0466 33.5139C12.8775 33.1213 14.2243 33.1454 14.3996 33.6507C14.5727 34.1649 13.4949 35.0275 11.7798 35.8635C11.6416 35.9328 11.5002 35.9966 11.3532 36.0637C10.7654 36.332 10.1193 36.5906 9.42259 36.8272C8.53063 37.1377 7.66479 37.3794 6.88766 37.5441C6.84267 37.5565 6.79984 37.56 6.76033 37.569C5.01283 37.9258 3.73411 37.8904 3.56543 37.3961C3.40337 36.913 4.36501 36.1062 5.93413 35.314Z" stroke="#FDFEFF" stroke-width="0.3" stroke-miterlimit="10" stroke-linecap="round" stroke-linejoin="round"/>
<path d="M45.2767 14.1341C45.1422 13.8235 44.6042 13.7653 44.2968 13.6488C44.0918 13.5712 43.7652 13.4742 43.5218 13.3189C43.304 14.8328 43.8741 16.282 44.9373 17.2589C44.9757 16.8837 44.8732 16.4114 44.8732 16.1202C44.8604 15.4539 45.5714 14.8198 45.2767 14.1341Z" stroke="#FDFEFF" stroke-width="0.3" stroke-miterlimit="10" stroke-linecap="round" stroke-linejoin="round"/>
<path d="M52.0019 14.6193C51.9251 14.6645 51.9635 14.7228 51.9315 14.7875C51.8546 14.9298 51.8226 15.1109 51.7521 15.2468C51.5408 15.635 51.3358 15.5056 50.9131 15.6156C50.4647 15.732 50.4775 16.0167 50.6441 16.379C50.7978 16.7154 50.8682 17.0389 50.9003 17.4077C50.9067 17.453 50.9195 17.5306 50.9323 17.6082C51.8994 16.9289 52.604 15.9002 52.8282 14.6775C52.5335 14.6128 52.1364 14.5287 52.0019 14.6193Z" stroke="#FDFEFF" stroke-width="0.3" stroke-miterlimit="10" stroke-linecap="round" stroke-linejoin="round"/>
<path d="M50.9324 10.1549C50.4712 10.2584 50.0101 10.3167 49.9076 10.3231C49.2735 10.3749 47.9605 10.1161 47.922 11.0413C47.9092 11.4165 48.1206 11.7982 48.0565 12.167C48.0181 12.374 47.9605 12.3934 47.7619 12.4517C47.5698 12.5034 47.3776 12.5228 47.1791 12.5358C47.1022 12.5422 46.8908 12.5293 46.7307 12.5487C46.6539 12.5616 46.5834 12.5746 46.5514 12.6069C46.4233 12.7363 46.5193 13.0145 46.5898 13.1374C46.7884 13.4868 47.2367 13.6421 47.6274 13.7715C47.6851 13.7909 47.7427 13.8103 47.7939 13.8297C48.3512 14.0303 48.6906 14.1661 48.5882 14.7872C48.5753 14.8648 48.5625 14.9489 48.5433 15.0201C48.5177 15.1042 48.4857 15.1819 48.4152 15.2401C48.2615 15.3759 48.0117 15.3242 47.858 15.4406C47.4481 15.7447 47.826 16.4111 48.1718 16.6052C48.4024 16.7346 48.6714 16.7475 48.838 16.9675C48.9917 17.181 48.9596 17.4398 49.0237 17.6791C49.0813 17.9185 49.2287 18.1385 49.4336 18.3002C49.8435 18.1838 50.2342 18.022 50.5929 17.8085C50.7082 17.7438 50.8171 17.6727 50.926 17.595C50.9132 17.5174 50.9004 17.4462 50.8939 17.3945C50.8619 17.0257 50.7851 16.7022 50.6377 16.3658C50.4712 16.0035 50.4584 15.7188 50.9068 15.6024C51.3295 15.4924 51.5408 15.6218 51.7458 15.2336C51.8227 15.0913 51.8547 14.9166 51.9252 14.7743C51.9572 14.7096 51.9187 14.6513 51.9956 14.6061C52.1365 14.522 52.5272 14.5996 52.8154 14.6643C52.8154 14.6513 52.8218 14.6319 52.8283 14.619C53.1485 12.8463 52.3543 11.1319 50.9324 10.1549Z" stroke="#FDFEFF" stroke-width="0.3" stroke-miterlimit="10" stroke-linecap="round" stroke-linejoin="round"/>
<path d="M46.9613 10.362C47.0062 10.1873 46.9293 9.92201 46.8525 9.76674C46.814 9.69558 46.7756 9.62441 46.7308 9.55972C46.1607 9.74734 45.6355 10.0385 45.1808 10.4137C44.8477 10.6854 44.5467 11.0024 44.2969 11.3583C44.5595 11.2677 44.8477 11.2483 45.0911 11.0995C45.2256 11.0154 45.3857 10.9572 45.5458 10.9119C45.6547 10.8795 45.7636 10.8536 45.8597 10.8342C46.2248 10.7695 46.8525 10.8213 46.9613 10.362Z" stroke="#FDFEFF" stroke-width="0.3" stroke-miterlimit="10" stroke-linecap="round" stroke-linejoin="round"/>
<path d="M48.9843 9.37879C48.2028 9.25587 47.4343 9.33351 46.7233 9.55995C46.7681 9.62464 46.813 9.69581 46.845 9.76697C46.9283 9.92224 46.9987 10.181 46.9539 10.3622C46.845 10.8215 46.2173 10.7698 45.8522 10.8409C45.7497 10.8603 45.6409 10.8862 45.5384 10.9186C45.3783 10.9639 45.2181 11.0221 45.0836 11.1062C44.8402 11.255 44.552 11.2744 44.2894 11.365C43.9179 11.8955 43.6553 12.5036 43.5336 13.1765C43.5272 13.2282 43.5208 13.2735 43.5144 13.3253C43.7578 13.4806 44.0844 13.5711 44.2894 13.6552C44.5968 13.7717 45.1413 13.8299 45.2694 14.1405C45.564 14.8262 44.8595 15.4538 44.8659 16.1266C44.8659 16.4178 44.9683 16.8901 44.9299 17.2653C45.5832 17.867 46.4223 18.281 47.3766 18.4363C48.0812 18.5463 48.7793 18.4945 49.4262 18.3134C49.2276 18.1581 49.0739 17.9317 49.0163 17.6923C48.9522 17.4529 48.9843 17.1941 48.8305 16.9806C48.6704 16.7542 48.4014 16.7413 48.1644 16.6183C47.8186 16.4243 47.4407 15.7579 47.8506 15.4538C48.0043 15.3373 48.2541 15.3891 48.4078 15.2532C48.4783 15.1885 48.5167 15.1109 48.5359 15.0333C48.5551 14.9556 48.5679 14.878 48.5807 14.8004C48.6832 14.1793 48.3502 14.0434 47.7865 13.8429C47.7353 13.8234 47.6776 13.804 47.62 13.7846C47.2357 13.6552 46.7873 13.5 46.5824 13.1506C46.5119 13.0212 46.4095 12.743 46.544 12.6201C46.576 12.5877 46.64 12.5748 46.7233 12.5619C46.8834 12.5425 47.1012 12.5489 47.1716 12.5489C47.3702 12.536 47.5624 12.523 47.7545 12.4648C47.9531 12.4066 48.0107 12.3872 48.0491 12.1802C48.1132 11.8114 47.9018 11.4297 47.9146 11.0544C47.9466 10.1293 49.2597 10.3816 49.9002 10.3363C50.0026 10.3298 50.4574 10.2716 50.925 10.1681C50.3677 9.76697 49.7144 9.48878 48.9843 9.37879Z" stroke="#FDFEFF" stroke-width="0.3" stroke-miterlimit="10" stroke-linecap="round" stroke-linejoin="round"/>
<path d="M40.0865 34.3353C41.7261 35.3316 42.2449 37.486 41.2586 39.1358C40.3491 40.6562 38.4724 41.2255 36.9032 40.5268L36.5189 40.2939L36.1346 40.0609C34.796 38.9805 34.4181 37.0396 35.3276 35.5192C36.3203 33.8695 38.4532 33.339 40.0865 34.3353ZM36.8712 39.7051C38.1714 40.5009 39.8623 40.0804 40.6501 38.767C41.4379 37.4537 41.0216 35.7457 39.7214 34.9499C38.4212 34.1541 36.7303 34.5747 35.9424 35.888C35.1546 37.2078 35.5774 38.9158 36.8712 39.7051Z" stroke="#FDFEFF" stroke-width="0.3" stroke-miterlimit="10" stroke-linecap="round" stroke-linejoin="round"/>
<path d="M35.2506 40.4234L35.3915 40.184C35.5325 39.9511 35.8335 39.8734 36.0641 40.0158L36.1409 40.0611L36.5252 40.294L36.9095 40.5269L36.9864 40.5722C37.217 40.7145 37.2938 41.0186 37.1529 41.2515L37.012 41.4909C36.8711 41.7238 36.5701 41.7949 36.3395 41.6591C36.5701 41.8014 36.6469 42.1055 36.506 42.3384L34.6614 45.4244C34.5205 45.6573 34.2194 45.7285 33.9889 45.5926L33.5277 45.3144L33.0665 45.0362C32.836 44.8939 32.7591 44.5898 32.9 44.3569L34.7446 41.2709C34.8855 41.038 35.1802 40.9603 35.4172 41.1027C35.1866 40.9603 35.1097 40.6563 35.2506 40.4234Z" stroke="#FDFEFF" stroke-width="0.3" stroke-miterlimit="10" stroke-linecap="round" stroke-linejoin="round"/>
<path d="M53.5775 4.70775L53.2381 3.98315L52.2261 4.13843L52.8217 5.40001L53.5775 4.70775Z" stroke="#FDFEFF" stroke-width="0.3" stroke-miterlimit="10" stroke-linecap="round" stroke-linejoin="round"/>
<path d="M54.3656 3.91846L53.2383 3.99609L53.5713 4.69482L54.3656 3.91846Z" stroke="#FDFEFF" stroke-width="0.3" stroke-miterlimit="10" stroke-linecap="round" stroke-linejoin="round"/>
<path d="M48.5176 6.44165L48.7098 6.84924L48.9148 7.27623L52.8218 5.40003L52.6232 4.97303L52.4311 4.56545L52.2261 4.13845L48.3191 6.01465L48.5176 6.44165Z" stroke="#FDFEFF" stroke-width="0.3" stroke-miterlimit="10" stroke-linecap="round" stroke-linejoin="round"/>
<path d="M52.4377 4.83716L48.7036 6.64219" stroke="#FDFEFF" stroke-width="0.3" stroke-miterlimit="10" stroke-linecap="round" stroke-linejoin="round"/>
<path d="M52.1538 38.4064C52.4935 38.5757 52.7064 38.6809 52.7064 38.6809C53.0053 38.8273 53.123 39.1841 52.9781 39.4861L50.7317 44.1157C50.5868 44.4176 50.2335 44.5366 49.9346 44.3902L44.69 41.7917C44.3911 41.6453 44.2734 41.2885 44.4183 40.9866L46.6647 36.3569C46.8096 36.055 47.1629 35.9361 47.4618 36.0824C47.4618 36.0824 47.6611 36.1831 47.9826 36.3432" stroke="#FDFEFF" stroke-width="0.3" stroke-miterlimit="10" stroke-linecap="round" stroke-linejoin="round"/>
<path d="M48.8069 36.7459C49.5995 37.1347 50.6004 37.6334 51.3839 38.0222" stroke="#FDFEFF" stroke-width="0.3" stroke-miterlimit="10" stroke-linecap="round" stroke-linejoin="round"/>
<path d="M48.6256 37.0113C48.526 37.2217 48.2724 37.304 48.064 37.2034C47.8557 37.1027 47.7742 36.8466 47.8738 36.6361L48.1954 35.9728C48.295 35.7623 48.5532 35.6754 48.757 35.7806C48.9653 35.8813 49.0514 36.1421 48.9472 36.3479L48.6256 37.0113Z" stroke="#FDFEFF" stroke-width="0.3" stroke-miterlimit="10" stroke-linecap="round" stroke-linejoin="round"/>
<path d="M52.0132 38.6948C51.9136 38.9052 51.6554 38.9921 51.4516 38.8869C51.2433 38.7863 51.1572 38.5255 51.2614 38.3197L51.5875 37.6517C51.6871 37.4413 51.9453 37.3544 52.1491 37.4596C52.3574 37.5602 52.4435 37.821 52.3393 38.0269L52.0132 38.6948Z" stroke="#FDFEFF" stroke-width="0.3" stroke-miterlimit="10" stroke-linecap="round" stroke-linejoin="round"/>
<path d="M47.987 38.7818C48.0595 38.8001 48.1365 38.8321 48.1909 38.8596C48.2497 38.8916 48.3086 38.9236 48.3765 38.9739L47.4164 40.9502C47.3666 41.0463 47.3258 41.1241 47.2805 41.2156C47.3394 41.2476 47.4662 41.3025 47.516 41.3254L47.7878 41.4626C47.7742 41.5221 47.747 41.5861 47.7153 41.6456C47.6881 41.7005 47.6564 41.76 47.6157 41.8103L46.1302 41.0692C46.1483 41.0051 46.1709 40.9457 46.1981 40.8908C46.2298 40.8313 46.2615 40.7718 46.3023 40.7215L46.6646 40.9045C46.7144 40.9274 46.8322 40.9914 46.8865 41.0189C46.9318 40.9274 46.968 40.845 47.0088 40.7489L47.4481 39.8386C47.4934 39.7379 47.6111 39.5275 47.7017 39.3628C47.4617 39.4772 47.1628 39.5229 46.9227 39.5092C46.8593 39.4177 46.8412 39.2896 46.8729 39.1752C47.3802 39.1295 47.7651 38.9694 47.987 38.7818Z" fill="#FDFEFF"/>
<path d="M50.795 40.3828C50.7361 40.5064 50.641 40.5384 50.5233 40.4743L49.8394 40.1312L49.6899 40.0535L49.5903 40.2547L49.4408 40.5246L49.3774 40.6253C49.5042 40.6344 49.631 40.6619 49.7579 40.7259C50.2379 40.9638 50.41 41.4396 50.1564 41.952C49.8439 42.597 49.2461 42.6702 48.7887 42.446C48.4761 42.2951 48.2678 42.0572 48.1682 41.8193C48.2271 41.7415 48.3629 41.65 48.4761 41.6272C48.5803 41.8147 48.7117 41.984 48.9245 42.0892C49.1917 42.2219 49.5178 42.1578 49.7126 41.7598C49.9118 41.3573 49.7126 41.1102 49.4816 40.9958C49.3276 40.9227 49.1419 40.8998 48.9517 40.9455C48.8838 40.8952 48.8294 40.7854 48.8249 40.7076L49.4635 39.5319L49.5042 39.5182L50.8448 40.1861C50.8403 40.2639 50.8131 40.3371 50.795 40.3828Z" fill="#FDFEFF"/>
<path d="M48.7994 22.8616C48.9019 23.1139 48.7866 23.3986 48.5368 23.5085L47.448 23.9614C47.1982 24.0649 46.9163 23.9485 46.8075 23.6962L46.3591 22.5963C46.2566 22.344 46.3719 22.0593 46.6217 21.9494L47.7106 21.4965C47.9604 21.393 48.2422 21.5094 48.3511 21.7617L48.7994 22.8616Z" stroke="#FDFEFF" stroke-width="0.3" stroke-miterlimit="10" stroke-linecap="round" stroke-linejoin="round"/>
<path d="M47.2429 22.2406C47.2749 22.2147 47.3134 22.2018 47.3518 22.1824C47.3966 22.163 47.4351 22.15 47.4735 22.1436L47.6016 22.4476C47.6144 22.4864 47.6336 22.5317 47.6464 22.5706C47.6849 22.5576 47.7297 22.5317 47.7681 22.5188L48.0499 22.4023C48.0756 22.4347 48.0884 22.467 48.1076 22.5059C48.1268 22.5511 48.1396 22.5835 48.146 22.6223L47.8642 22.7388C47.8258 22.7582 47.7809 22.7711 47.7425 22.784C47.7617 22.8229 47.7809 22.8682 47.7937 22.9005L47.9218 23.211C47.8898 23.2305 47.8514 23.2499 47.813 23.2693C47.7681 23.2887 47.7297 23.3016 47.6913 23.3081L47.5632 22.9975C47.5504 22.9652 47.5311 22.9199 47.5183 22.8746C47.4799 22.894 47.4351 22.9134 47.3966 22.9264L47.1148 23.0428C47.0956 23.0105 47.0764 22.9781 47.0572 22.9328C47.038 22.8876 47.0316 22.8552 47.0251 22.8164L47.307 22.6999C47.3454 22.687 47.3902 22.6676 47.4287 22.6547C47.4094 22.6158 47.3902 22.5706 47.3774 22.5317L47.2429 22.2406Z" fill="#FDFEFF"/>
<path d="M51.2782 21.82C51.3806 22.0724 51.2654 22.357 51.0156 22.467L49.9267 22.9199C49.6769 23.0234 49.3951 22.9069 49.2862 22.6546L48.8379 21.5548C48.7354 21.3025 48.8507 21.0178 49.1005 20.9078L50.1893 20.4549C50.4391 20.3514 50.7209 20.4679 50.8298 20.7202L51.2782 21.82Z" stroke="#FDFEFF" stroke-width="0.3" stroke-miterlimit="10" stroke-linecap="round" stroke-linejoin="round"/>
<path d="M49.7987 21.93C49.773 21.8977 49.7538 21.8589 49.741 21.8265C49.7282 21.7942 49.709 21.7489 49.709 21.7101L50.3175 21.4578C50.3431 21.4901 50.3623 21.5289 50.3751 21.5677C50.3879 21.6001 50.4007 21.6454 50.4071 21.6842L49.7987 21.93Z" fill="#FDFEFF"/>
<path d="M49.7857 25.2619C49.8882 25.5143 49.7729 25.7989 49.5231 25.9089L48.4343 26.3618C48.1845 26.4653 47.9027 26.3488 47.7938 26.0965L47.3454 24.9967C47.243 24.7444 47.3582 24.4597 47.608 24.3497L48.6969 23.8968C48.9467 23.7933 49.2285 23.9098 49.3374 24.1621L49.7857 25.2619Z" stroke="#FDFEFF" stroke-width="0.3" stroke-miterlimit="10" stroke-linecap="round" stroke-linejoin="round"/>
<path d="M52.2645 24.2268C52.367 24.4791 52.2517 24.7638 52.0019 24.8737L50.913 25.3266C50.6633 25.4301 50.3814 25.3137 50.2725 25.0614L49.8242 23.9615C49.7217 23.7092 49.837 23.4245 50.0868 23.3146L51.1757 22.8617C51.4254 22.7582 51.7073 22.8746 51.8161 23.1269L52.2645 24.2268Z" stroke="#FDFEFF" stroke-width="0.3" stroke-miterlimit="10" stroke-linecap="round" stroke-linejoin="round"/>
<path d="M50.9259 24.7119C50.8811 24.7119 50.8427 24.699 50.8042 24.686C50.7722 24.6731 50.7338 24.6472 50.7018 24.6213L50.8491 24.2784C50.8619 24.2461 50.8811 24.2073 50.8939 24.1749L50.7914 24.1296L50.4456 23.9873C50.4456 23.9485 50.452 23.9032 50.4712 23.8644C50.484 23.8256 50.5096 23.7867 50.5352 23.7609L50.8811 23.9032C50.9131 23.9161 50.9516 23.9355 50.9836 23.955C51.0028 23.9161 51.0156 23.8773 51.0284 23.845L51.1693 23.4956C51.2077 23.4956 51.2526 23.5021 51.291 23.5215C51.3294 23.5344 51.3679 23.5603 51.3999 23.5927L51.259 23.9355C51.2462 23.9679 51.227 24.0132 51.2142 24.0455C51.2462 24.0585 51.291 24.0714 51.323 24.0843L51.6689 24.2267C51.6689 24.272 51.6625 24.3108 51.6433 24.3496C51.6305 24.3884 51.6049 24.4272 51.5728 24.4531L51.2334 24.3043L51.1245 24.259L51.0861 24.3625L50.9259 24.7119Z" fill="#FDFEFF"/>
<path d="M48.0949 25.456C48.0756 25.4237 48.0564 25.3849 48.0372 25.3525C48.0244 25.3202 48.0116 25.2749 47.9988 25.2361L49.03 24.8026C49.0556 24.8349 49.0684 24.8737 49.0876 24.9126C49.1004 24.9449 49.1197 24.9902 49.1197 25.029L48.0949 25.456ZM48.2101 24.6344C48.2358 24.602 48.2806 24.5697 48.3254 24.5503C48.3703 24.5309 48.4343 24.5179 48.4663 24.5244C48.492 24.5438 48.5176 24.5891 48.5304 24.6214C48.5432 24.6538 48.556 24.7055 48.5496 24.7379C48.5304 24.7638 48.4792 24.8026 48.4343 24.822C48.3895 24.8414 48.3318 24.8543 48.2934 24.8479C48.2678 24.8285 48.2422 24.7896 48.2294 24.7508C48.2166 24.7185 48.2101 24.6667 48.2101 24.6344ZM48.5752 25.5207C48.6008 25.4884 48.6457 25.456 48.6905 25.4366C48.7354 25.4172 48.7994 25.4043 48.8314 25.4107C48.857 25.4301 48.8827 25.4754 48.8955 25.5078C48.9083 25.5466 48.9211 25.5919 48.9147 25.6242C48.8955 25.6501 48.8442 25.6889 48.7994 25.7083C48.7546 25.7277 48.6905 25.7407 48.6585 25.7342C48.6329 25.7148 48.6073 25.676 48.5944 25.6372C48.5816 25.6048 48.5688 25.5531 48.5752 25.5207Z" fill="#FDFEFF"/>
<path d="M16.6851 0.437917C17.1591 2.19119 16.1407 4.0027 14.405 4.48145C12.6692 4.96021 10.8758 3.93153 10.4019 2.17825C9.92789 0.424977 10.9463 -1.38653 12.682 -1.86528C14.4114 -2.34404 16.2048 -1.31536 16.6851 0.437917Z" stroke="#FDFEFF" stroke-width="0.3" stroke-miterlimit="10" stroke-linecap="round" stroke-linejoin="round"/>
<path d="M11.5355 1.86115C11.5611 1.96467 11.5034 2.06818 11.4009 2.09406C11.2985 2.11994 11.196 2.06171 11.1704 1.9582C11.1447 1.85468 11.2024 1.75117 11.3049 1.72529C11.4074 1.69941 11.5098 1.76411 11.5355 1.86115Z" fill="#FDFEFF"/>
<path d="M15.91 0.651357C15.9356 0.754871 15.8779 0.858384 15.7755 0.884263C15.673 0.910142 15.5705 0.851916 15.5449 0.748402C15.5193 0.644887 15.5769 0.541372 15.6794 0.515494C15.7755 0.489615 15.8779 0.554312 15.91 0.651357Z" fill="#FDFEFF"/>
<path d="M14.1871 3.69838C14.0846 3.72426 13.9821 3.66603 13.9565 3.56252C13.9309 3.459 13.9885 3.35549 14.091 3.32961C14.1935 3.30373 14.296 3.36196 14.3216 3.46547C14.3472 3.56899 14.2896 3.6725 14.1871 3.69838Z" fill="#FDFEFF"/>
<path d="M14.9173 -0.616945C14.9109 -0.655763 14.8853 -0.694581 14.8468 -0.72046C14.8212 -0.733399 14.7892 -0.746338 14.7636 -0.746338C14.7059 -0.746338 14.6547 -0.72046 14.6291 -0.668703L13.4954 1.15574L12.2592 0.709335C12.24 0.702865 12.2208 0.702865 12.208 0.702865C12.1375 0.702865 12.0799 0.748153 12.0607 0.81285C12.0479 0.851668 12.0479 0.896955 12.0671 0.935773C12.0863 0.974591 12.1183 1.00694 12.1568 1.01988L13.5018 1.5051C13.521 1.51157 13.5466 1.51804 13.5659 1.51804C13.5723 1.51804 13.5787 1.51804 13.5915 1.51804H13.5979C13.6043 1.51804 13.6107 1.51804 13.6171 1.51157C13.6235 1.51157 13.6363 1.5051 13.6427 1.49863C13.6427 1.49863 13.6491 1.49863 13.6491 1.49216C13.6747 1.47922 13.7004 1.45335 13.7132 1.421L14.9045 -0.500492C14.9237 -0.53284 14.9301 -0.578127 14.9173 -0.616945Z" fill="#FDFEFF"/>
<path d="M0.666027 15.7905L0.781316 16.0687C0.858176 16.2563 1.06954 16.3468 1.25528 16.2627L1.44743 16.1851C1.55632 16.3274 1.68442 16.4568 1.82533 16.5603L1.74847 16.7544C1.67161 16.9421 1.76128 17.1556 1.94702 17.2332L2.22244 17.3496C2.40818 17.4273 2.61954 17.3367 2.6964 17.1491L2.77326 16.955C2.9462 16.9809 3.12554 16.9809 3.30488 16.955L3.38174 17.1491C3.4586 17.3367 3.66996 17.4273 3.8557 17.3432L4.13112 17.2267C4.31686 17.1491 4.40653 16.9356 4.32327 16.748L4.24641 16.5539C4.38732 16.4439 4.51542 16.3145 4.6179 16.1722L4.81005 16.2498C4.99579 16.3274 5.20715 16.2369 5.28401 16.0492L5.3993 15.7711C5.47616 15.5834 5.38649 15.3699 5.20075 15.2923L5.0086 15.2147C5.03422 15.04 5.03422 14.8588 5.0086 14.6777L5.20075 14.6C5.38649 14.5224 5.47616 14.3089 5.3929 14.1213L5.27761 13.8431C5.20075 13.6555 4.98938 13.5649 4.80364 13.649L4.61149 13.7266C4.50261 13.5843 4.37451 13.4549 4.2336 13.3514L4.31046 13.1573C4.38732 12.9697 4.29765 12.7562 4.1119 12.6786L3.83649 12.5621C3.65075 12.4845 3.43938 12.575 3.36252 12.7627L3.28566 12.9567C3.11273 12.9309 2.93339 12.9309 2.75405 12.9567L2.67719 12.7627C2.60033 12.575 2.38896 12.4845 2.20322 12.5686L1.92781 12.685C1.74206 12.7627 1.6588 12.9762 1.73566 13.1638L1.81252 13.3579C1.67161 13.4678 1.54351 13.5972 1.44103 13.7396L1.24888 13.6619C1.06314 13.5843 0.851771 13.6749 0.774911 13.8625L0.659622 14.1407C0.582762 14.3283 0.672431 14.5418 0.858176 14.6194L1.05033 14.6971C1.02471 14.8718 1.02471 15.0529 1.05033 15.2341L0.858176 15.3117C0.678836 15.3893 0.589167 15.6028 0.666027 15.7905ZM1.78049 15.4864C1.49227 14.7877 1.81892 13.9854 2.51066 13.7008C3.2024 13.4096 3.99661 13.7396 4.28484 14.4383C4.57306 15.137 4.24641 15.9393 3.55467 16.2239C2.85653 16.5086 2.06872 16.1786 1.78049 15.4864Z" stroke="#FDFEFF" stroke-width="0.3" stroke-miterlimit="10" stroke-linecap="round" stroke-linejoin="round"/>
<path d="M4.97026 11.2682L4.96385 11.5075C4.95745 11.6693 5.08555 11.7987 5.24567 11.8051L5.4058 11.8116C5.43782 11.9539 5.48906 12.0833 5.55952 12.2063L5.44423 12.3162C5.32894 12.4262 5.32253 12.6138 5.43142 12.7303L5.59154 12.905C5.70043 13.0214 5.88617 13.0279 6.00146 12.9179L6.11675 12.8079C6.23844 12.8791 6.36654 12.9373 6.50105 12.9826L6.49464 13.1444C6.48824 13.3061 6.61634 13.4355 6.77646 13.442L7.01345 13.4484C7.17357 13.4549 7.30167 13.3255 7.30807 13.1638L7.31448 13.002C7.45539 12.9697 7.58349 12.9179 7.70518 12.8468L7.81407 12.9632C7.92295 13.0797 8.1087 13.0861 8.22399 12.9761L8.39692 12.8144C8.51221 12.7044 8.51861 12.5168 8.40973 12.4068L8.30085 12.2904C8.3713 12.1674 8.42894 12.038 8.46737 11.9022L8.6275 11.9087C8.78762 11.9151 8.91572 11.7857 8.92213 11.624L8.92853 11.3846C8.93494 11.2229 8.80684 11.0935 8.64671 11.087L8.48659 11.0805C8.45457 10.9382 8.40333 10.8088 8.33287 10.6859L8.44816 10.5694C8.56345 10.4594 8.56985 10.2718 8.46097 10.1618L8.30085 9.98716C8.19196 9.87071 8.00622 9.86424 7.89093 9.97422L7.77564 10.0907C7.66035 10.0195 7.52584 9.96129 7.39134 9.916L7.39774 9.75426C7.40415 9.59252 7.27605 9.46312 7.11593 9.45665L6.87894 9.45018C6.71882 9.44371 6.59072 9.5731 6.58431 9.73485L6.57791 9.89659C6.437 9.92894 6.3089 9.98069 6.1872 10.0519L6.07832 9.93541C5.96943 9.81895 5.78369 9.81248 5.6684 9.92247L5.49547 10.0907C5.38018 10.2007 5.37377 10.3883 5.48266 10.5047L5.59795 10.6212C5.52749 10.7441 5.46985 10.8735 5.42501 11.0094L5.26489 11.0029C5.10476 10.977 4.97026 11.1064 4.97026 11.2682ZM5.86696 11.4105C5.87977 10.8088 6.37295 10.3365 6.96861 10.3495C7.56427 10.3624 8.03184 10.8606 8.01903 11.4622C8.00622 12.0639 7.51303 12.5362 6.91737 12.5233C6.32171 12.5039 5.85415 12.0057 5.86696 11.4105Z" stroke="#FDFEFF" stroke-width="0.3" stroke-miterlimit="10" stroke-linecap="round" stroke-linejoin="round"/>
<path d="M41.501 57.537L41.4946 57.7763C41.4882 57.9381 41.6163 58.0675 41.7764 58.0739L41.9366 58.0804C41.9686 58.2227 42.0198 58.3521 42.0903 58.4751L41.975 58.585C41.8597 58.695 41.8533 58.8826 41.9622 58.9991L42.1223 59.1738C42.2312 59.2902 42.4169 59.2967 42.5322 59.1867L42.6475 59.0767C42.7692 59.1479 42.8973 59.2061 43.0318 59.2514L43.0254 59.4132C43.019 59.5749 43.1471 59.7043 43.3072 59.7108L43.5442 59.7172C43.7043 59.7237 43.8324 59.5943 43.8388 59.4326L43.8452 59.2708C43.9862 59.2385 44.1143 59.1867 44.2359 59.1156L44.3448 59.232C44.4537 59.3485 44.6395 59.3549 44.7547 59.2449L44.9277 59.0832C45.043 58.9732 45.0494 58.7856 44.9405 58.6756L44.8316 58.5592C44.9021 58.4362 44.9597 58.3068 44.9981 58.171L45.1583 58.1775C45.3184 58.1839 45.4465 58.0545 45.4529 57.8928L45.4593 57.6534C45.4657 57.4917 45.3376 57.3623 45.1775 57.3558L45.0174 57.3493C44.9853 57.207 44.9341 57.0776 44.8636 56.9547L44.9789 56.8382C45.0942 56.7282 45.1006 56.5406 44.9917 56.4306L44.8316 56.256C44.7227 56.1395 44.537 56.133 44.4217 56.243L44.3064 56.3595C44.1911 56.2883 44.0566 56.2301 43.9221 56.1848L43.9285 56.0231C43.9349 55.8613 43.8068 55.7319 43.6467 55.7255L43.4097 55.719C43.2496 55.7125 43.1215 55.8419 43.1151 56.0036L43.1087 56.1654C42.9678 56.1977 42.8397 56.2495 42.718 56.3207L42.6091 56.2042C42.5002 56.0878 42.3145 56.0813 42.1992 56.1913L42.0262 56.3595C41.9109 56.4695 41.9045 56.6571 42.0134 56.7735L42.1287 56.89C42.0583 57.0129 42.0006 57.1423 41.9558 57.2782L41.7956 57.2717C41.6355 57.2458 41.501 57.3752 41.501 57.537ZM42.3977 57.6793C42.4105 57.0776 42.9037 56.6053 43.4994 56.6183C44.095 56.6312 44.5626 57.1294 44.5498 57.731C44.537 58.3327 44.0438 58.805 43.4481 58.7921C42.8525 58.7727 42.3849 58.2745 42.3977 57.6793Z" stroke="#FDFEFF" stroke-width="0.3" stroke-miterlimit="10" stroke-linecap="round" stroke-linejoin="round"/>
<path d="M7.27047 50.7169C7.27047 50.7169 7.33884 50.1415 7.2249 49.7847C6.98563 49.0021 5.48164 47.9318 5.51582 46.4586C5.55 44.974 6.46151 42.5916 9.34416 43.0405C12.0445 43.4548 12.6826 45.9868 12.1926 47.3794C11.5546 49.1402 10.1303 49.0942 9.50367 49.9459C9.38973 50.0955 9.19604 51.0162 9.19604 51.0162L7.27047 50.7169Z" stroke="#FDFEFF" stroke-width="0.3" stroke-miterlimit="10" stroke-linecap="round" stroke-linejoin="round"/>
<path d="M6.80343 51.1082C6.76925 51.3614 6.94016 51.5916 7.17943 51.6261L9.07081 51.9138C9.32148 51.9483 9.54935 51.7757 9.58354 51.534C9.61772 51.2808 9.44681 51.0506 9.20754 51.0161L7.31616 50.7284C7.07689 50.6824 6.83762 50.855 6.80343 51.1082Z" stroke="#FDFEFF" stroke-width="0.3" stroke-miterlimit="10" stroke-linecap="round" stroke-linejoin="round"/>
<path d="M6.66647 52.0176C6.63229 52.2708 6.8032 52.501 7.04247 52.5355L8.93385 52.8232C9.18451 52.8578 9.41239 52.6851 9.44657 52.4434C9.48075 52.1902 9.30984 51.9601 9.07057 51.9255L7.17919 51.6378C6.93992 51.5918 6.70065 51.7644 6.66647 52.0176Z" stroke="#FDFEFF" stroke-width="0.3" stroke-miterlimit="10" stroke-linecap="round" stroke-linejoin="round"/>
<path d="M7.88561 53.41C7.38428 53.3295 7.03107 52.9497 7.09943 52.5469L8.89966 52.8231C8.8313 53.2259 8.37554 53.4791 7.88561 53.41Z" stroke="#FDFEFF" stroke-width="0.3" stroke-miterlimit="10" stroke-linecap="round" stroke-linejoin="round"/>
<path d="M8.44415 50.7975L10.3469 46.2515L9.26451 46.7003L8.99106 45.5955L8.48972 46.5162L7.53264 45.676L7.977 50.7975" stroke="#FDFEFF" stroke-width="0.3" stroke-miterlimit="10" stroke-linecap="round" stroke-linejoin="round"/>
<path d="M16.9079 33.0369H21.1416C21.5579 33.0369 21.8974 33.3798 21.8974 33.8003V36.5434C21.8974 36.9639 21.5579 37.3068 21.1416 37.3068H18.5348L17.2858 38.5684V37.3133H16.9079C16.4916 37.3133 16.1521 36.9704 16.1521 36.5499V33.8068C16.1521 33.3798 16.4916 33.0369 16.9079 33.0369Z" stroke="#FDFEFF" stroke-width="0.3" stroke-miterlimit="10" stroke-linecap="round" stroke-linejoin="round"/>
<path d="M20.0718 35.2235C20.0718 35.4888 20.2831 35.6958 20.5393 35.6958C20.8019 35.6958 21.0069 35.4823 21.0069 35.2235C21.0069 34.9583 20.7955 34.7512 20.5393 34.7512C20.2831 34.7512 20.0718 34.9647 20.0718 35.2235Z" stroke="#FDFEFF" stroke-width="0.3" stroke-miterlimit="10" stroke-linecap="round" stroke-linejoin="round"/>
<path d="M18.554 35.2235C18.554 35.4888 18.7653 35.6958 19.0215 35.6958C19.2841 35.6958 19.4891 35.4823 19.4891 35.2235C19.4891 34.9583 19.2777 34.7512 19.0215 34.7512C18.7653 34.7512 18.554 34.9647 18.554 35.2235Z" stroke="#FDFEFF" stroke-width="0.3" stroke-miterlimit="10" stroke-linecap="round" stroke-linejoin="round"/>
<path d="M17.0359 35.2237C17.0359 35.489 17.2473 35.696 17.5035 35.696C17.7661 35.696 17.971 35.4825 17.971 35.2237C17.971 34.9585 17.7597 34.7514 17.5035 34.7514C17.2473 34.7514 17.0359 34.9649 17.0359 35.2237Z" stroke="#FDFEFF" stroke-width="0.3" stroke-miterlimit="10" stroke-linecap="round" stroke-linejoin="round"/>
<path d="M24.243 24.7961L23.2758 26.4459L24.2814 27.908L22.4303 27.6363L21.1622 28.9044L20.938 27.1187L19.356 26.2842L20.97 25.5207L21.3671 23.6704L22.3791 25.1326L24.243 24.7961Z" stroke="#FDFEFF" stroke-width="0.3" stroke-miterlimit="10" stroke-linecap="round" stroke-linejoin="round"/>
<path d="M46.9655 46.846L45.8051 48.8111L47.0116 50.5526L44.7908 50.229L43.2693 51.7394L43.0003 49.6125L41.1023 48.6184L43.0388 47.7091L43.5152 45.5051L44.7293 47.2467L46.9655 46.846Z" stroke="#FDFEFF" stroke-width="0.3" stroke-miterlimit="10" stroke-linecap="round" stroke-linejoin="round"/>
<path d="M52.2389 -2.16298L50.9579 -0.746127L51.6496 0.890695L49.8882 0.2502L48.3895 1.22712L48.5368 -0.571447L47.1533 -1.70364L48.8891 -2.12417L49.6513 -3.85156L50.343 -2.21474L52.2389 -2.16298Z" stroke="#FDFEFF" stroke-width="0.3" stroke-miterlimit="10" stroke-linecap="round" stroke-linejoin="round"/>
<path d="M34.1 26.2905C34.2665 26.1287 34.5291 26.1352 34.6892 26.3034C34.8493 26.4716 34.8429 26.7369 34.6764 26.8986C34.5099 27.0604 34.2473 27.0539 34.0871 26.8857C33.927 26.7175 33.9334 26.4522 34.1 26.2905Z" stroke="#FDFEFF" stroke-width="0.3" stroke-miterlimit="10" stroke-linecap="round" stroke-linejoin="round"/>
<path d="M32.7228 27.6298C32.8893 27.4681 33.1519 27.4745 33.312 27.6428C33.4721 27.811 33.4657 28.0762 33.2992 28.238C33.1327 28.3997 32.8701 28.3932 32.7099 28.225C32.5498 28.0568 32.5562 27.7916 32.7228 27.6298Z" stroke="#FDFEFF" stroke-width="0.3" stroke-miterlimit="10" stroke-linecap="round" stroke-linejoin="round"/>
<path d="M30.0327 30.2436C30.1992 30.0818 30.4618 30.0883 30.6219 30.2565C30.782 30.4247 30.7756 30.69 30.6091 30.8517C30.4426 31.0135 30.18 31.007 30.0198 30.8388C29.8661 30.6706 29.8725 30.4053 30.0327 30.2436Z" stroke="#FDFEFF" stroke-width="0.3" stroke-miterlimit="10" stroke-linecap="round" stroke-linejoin="round"/>
<path d="M31.8197 23.8969C31.9862 23.7352 32.2488 23.7416 32.4089 23.9099C32.5691 24.0781 32.5627 24.3433 32.3961 24.5051C32.2296 24.6668 31.967 24.6603 31.8069 24.4921C31.6467 24.3239 31.6532 24.0587 31.8197 23.8969Z" stroke="#FDFEFF" stroke-width="0.3" stroke-miterlimit="10" stroke-linecap="round" stroke-linejoin="round"/>
<path d="M33.6452 24.382C33.8117 24.2203 34.0743 24.2267 34.2345 24.395C34.3946 24.5632 34.3882 24.8284 34.2217 24.9902C34.0551 25.1519 33.7925 25.1454 33.6324 24.9772C33.4787 24.809 33.4851 24.5438 33.6452 24.382Z" stroke="#FDFEFF" stroke-width="0.3" stroke-miterlimit="10" stroke-linecap="round" stroke-linejoin="round"/>
<path d="M30.7949 27.1511C30.9614 26.9893 31.224 26.9958 31.3841 27.164C31.5442 27.3322 31.5378 27.5975 31.3713 27.7592C31.2048 27.921 30.9422 27.9145 30.7821 27.7463C30.6283 27.5781 30.6347 27.3128 30.7949 27.1511Z" stroke="#FDFEFF" stroke-width="0.3" stroke-miterlimit="10" stroke-linecap="round" stroke-linejoin="round"/>
<path d="M29.4754 28.4384C29.642 28.2767 29.9046 28.2831 30.0647 28.4514C30.2248 28.6196 30.2184 28.8848 30.0519 29.0466C29.8854 29.2083 29.6228 29.2018 29.4626 29.0336C29.3025 28.8654 29.3089 28.6002 29.4754 28.4384Z" stroke="#FDFEFF" stroke-width="0.3" stroke-miterlimit="10" stroke-linecap="round" stroke-linejoin="round"/>
<path d="M30.4427 25.236C30.6093 25.0743 30.8719 25.0808 31.032 25.249C31.1921 25.4172 31.1857 25.6824 31.0192 25.8442C30.8526 26.0059 30.59 25.9994 30.4299 25.8312C30.2698 25.663 30.2762 25.3978 30.4427 25.236Z" stroke="#FDFEFF" stroke-width="0.3" stroke-miterlimit="10" stroke-linecap="round" stroke-linejoin="round"/>
<path d="M27.7526 27.8497C27.9192 27.6879 28.1818 27.6944 28.3419 27.8626C28.502 28.0308 28.4956 28.2961 28.3291 28.4578C28.1625 28.6196 27.8999 28.6131 27.7398 28.4449C27.5861 28.2767 27.5925 28.0114 27.7526 27.8497Z" stroke="#FDFEFF" stroke-width="0.3" stroke-miterlimit="10" stroke-linecap="round" stroke-linejoin="round"/>
<path d="M29.3155 28.6067C28.9248 28.4902 28.4124 28.335 28.4124 28.335" stroke="#FDFEFF" stroke-width="0.3" stroke-miterlimit="10" stroke-linecap="round" stroke-linejoin="round"/>
<path d="M30.2056 30.1401C30.2056 30.1401 30.0263 29.5773 29.8982 29.1697" stroke="#FDFEFF" stroke-width="0.3" stroke-miterlimit="10" stroke-linecap="round" stroke-linejoin="round"/>
<path d="M30.8333 25.9541C30.9165 26.2776 31.0318 26.724 31.1087 27.0345" stroke="#FDFEFF" stroke-width="0.3" stroke-miterlimit="10" stroke-linecap="round" stroke-linejoin="round"/>
<path d="M31.8069 24.4919C31.5764 24.7184 31.2945 24.9901 31.064 25.2165" stroke="#FDFEFF" stroke-width="0.3" stroke-miterlimit="10" stroke-linecap="round" stroke-linejoin="round"/>
<path d="M33.5107 24.5696C33.2097 24.4919 32.8382 24.3949 32.5308 24.3108" stroke="#FDFEFF" stroke-width="0.3" stroke-miterlimit="10" stroke-linecap="round" stroke-linejoin="round"/>
<path d="M34.2793 26.1482C34.2024 25.8312 34.1063 25.4106 34.0359 25.1001" stroke="#FDFEFF" stroke-width="0.3" stroke-miterlimit="10" stroke-linecap="round" stroke-linejoin="round"/>
<path d="M33.3506 27.604C33.5748 27.384 33.863 27.1058 34.0808 26.8923" stroke="#FDFEFF" stroke-width="0.3" stroke-miterlimit="10" stroke-linecap="round" stroke-linejoin="round"/>
<path d="M31.5378 27.4875C31.8389 27.5781 32.2744 27.7075 32.5947 27.8046" stroke="#FDFEFF" stroke-width="0.3" stroke-miterlimit="10" stroke-linecap="round" stroke-linejoin="round"/>
<path d="M30.0583 28.4515L30.7885 27.7463" stroke="#FDFEFF" stroke-width="0.3" stroke-miterlimit="10" stroke-linecap="round" stroke-linejoin="round"/>
<path d="M19.2839 51.6319C18.6821 51.8143 18.2006 51.8751 18.2006 51.8751C18.0803 51.8837 17.8138 51.8664 17.1862 51.7535C16.2233 51.5798 14.8649 52.5177 14.9767 54.3326C15.0541 55.7308 16.4984 57.9799 17.5988 57.9191C17.8482 57.9017 18.3812 57.5891 18.5875 57.5804C18.7938 57.5718 19.3613 57.8149 19.6192 57.7975C20.711 57.7281 21.8802 55.3226 21.7943 53.9158C21.6825 52.1008 20.2296 51.3453 19.2839 51.6319Z" stroke="#FDFEFF" stroke-width="0.3" stroke-miterlimit="10" stroke-linecap="round" stroke-linejoin="round"/>
<path d="M18.2952 51.8491C18.2952 51.8491 18.6305 50.4596 17.573 49.4436" stroke="#FDFEFF" stroke-width="0.3" stroke-miterlimit="10" stroke-linecap="round" stroke-linejoin="round"/>
<path d="M18.2952 50.6419L19.0947 49.9646C19.0947 49.9646 18.8798 49.4175 19.2237 48.8878C19.7051 48.1323 21.0463 48.1583 21.0463 48.1583C21.0463 48.1583 21.1752 49.5217 20.2381 49.9385C19.6707 50.1904 19.1033 49.9733 19.1033 49.9733" stroke="#FDFEFF" stroke-width="0.3" stroke-miterlimit="10" stroke-linecap="round" stroke-linejoin="round"/>
<path d="M24.1719 20.2625L23.3359 21.4183C23.144 21.4044 22.9384 21.3348 22.7329 21.2651C22.5136 21.1816 22.2257 21.0423 22.075 20.917L22.0613 20.8334L26.0907 15.5278C26.3374 15.5696 26.6937 15.681 26.9267 15.7646C27.1597 15.8481 27.5161 16.0013 27.7079 16.1127L27.5161 22.8109C27.2831 22.8526 26.913 22.783 26.6526 22.6855C26.2003 22.5184 26.0359 22.2817 26.077 21.5993L26.1181 20.9448C25.9948 20.917 25.8577 20.8613 25.7755 20.8334L24.5283 20.3878C24.4049 20.36 24.2816 20.3182 24.1719 20.2625ZM24.8846 19.2599C24.9943 19.3016 25.145 19.3434 25.2409 19.3713L25.8851 19.608C25.9673 19.6359 26.0907 19.6916 26.2003 19.7333L26.2414 19.1206C26.2826 18.5636 26.3374 17.742 26.4059 17.1014L26.3511 17.0875C26.0907 17.561 25.6384 18.2015 25.3369 18.6471L24.8846 19.2599Z" stroke="#FDFEFF" stroke-width="0.3" stroke-miterlimit="10" stroke-linecap="round" stroke-linejoin="round"/>
<path d="M31.7305 7.22107C33.0188 6.81356 34.0618 7.06054 34.4176 8.24602C34.5894 8.80172 34.3931 9.4315 33.9881 9.77727C34.6753 9.78962 35.3747 10.3083 35.6078 11.0492C36.0127 12.3582 35.2765 13.2102 33.8654 13.6548C33.1538 13.8771 32.3808 14.0993 31.5709 14.334L31.4851 14.2846L29.5464 8.01139L29.5955 7.92495C30.3439 7.67798 31.0679 7.431 31.7305 7.22107ZM31.7795 10.0119L32.4421 9.80197C33.0679 9.60439 33.1292 9.15983 33.0188 8.78937C32.9084 8.43125 32.6139 8.11018 32.0004 8.30776C31.8286 8.35716 31.5709 8.4436 31.3255 8.50534L31.7795 10.0119ZM32.1108 11.0739L32.6752 12.8892C32.9697 12.7904 33.2519 12.6916 33.4483 12.6422C34.209 12.4076 34.2335 11.8519 34.1108 11.4567C33.9881 11.0492 33.62 10.6046 32.8838 10.8393L32.1108 11.0739Z" stroke="#FDFEFF" stroke-width="0.3" stroke-miterlimit="10" stroke-linecap="round" stroke-linejoin="round"/>
<path d="M44.5338 26.1999C44.1431 26.297 44.0791 26.7046 44.252 27.4033C44.4057 28.0567 44.7132 28.3284 45.1103 28.2314C45.4241 28.1538 45.6355 27.9273 45.8084 27.7268C45.975 27.7915 46.1799 27.9532 46.2568 28.1214C46.0582 28.4449 45.6355 28.7878 45.1359 28.9107C44.1752 29.1436 43.682 28.3802 43.4898 27.5909C43.2144 26.4328 43.6948 25.7859 44.4186 25.6112C45.1231 25.4365 45.6867 25.7406 45.8148 26.2776C45.8853 26.5687 45.7572 26.724 45.501 26.7887C45.3921 26.8145 45.3024 26.8145 45.2128 26.8145C45.1231 26.4328 44.931 26.1029 44.5338 26.1999Z" stroke="#FDFEFF" stroke-width="0.3" stroke-miterlimit="10" stroke-linecap="round" stroke-linejoin="round"/>
<path d="M17.2038 27.5649C17.2038 28.3801 16.5505 29.0465 15.7371 29.0465C16.5441 29.0465 17.2038 29.7064 17.2038 30.528C17.2038 29.7129 17.8571 29.0465 18.6705 29.0465C17.8571 29.0465 17.2038 28.3801 17.2038 27.5649Z" stroke="#FDFEFF" stroke-width="0.3" stroke-miterlimit="10" stroke-linecap="round" stroke-linejoin="round"/>
<path d="M50.1855 53.4639C50.1855 54.279 49.5322 54.9454 48.7188 54.9454C49.5258 54.9454 50.1855 55.6053 50.1855 56.427C50.1855 55.6118 50.8388 54.9454 51.6522 54.9454C50.8388 54.9454 50.1855 54.279 50.1855 53.4639Z" stroke="#FDFEFF" stroke-width="0.3" stroke-miterlimit="10" stroke-linecap="round" stroke-linejoin="round"/>
<path d="M51.1758 30.3535C51.8231 30.3535 52.3479 29.8234 52.3479 29.1695C52.3479 28.5157 51.8231 27.9856 51.1758 27.9856C50.5284 27.9856 50.0037 28.5157 50.0037 29.1695C50.0037 29.8234 50.5284 30.3535 51.1758 30.3535Z" stroke="#FDFEFF" stroke-width="0.3" stroke-miterlimit="10" stroke-linecap="round" stroke-linejoin="round"/>
</g>
<defs>
<linearGradient id="paint0_linear_16685" x1="53.1369" y1="54.9282" x2="-7.26746" y2="13.5359" gradientUnits="userSpaceOnUse">
<stop stop-color="#39C6FF"/>
<stop offset="1" stop-color="#92E4FF"/>
</linearGradient>
</defs>
</svg>
