<svg width="450" height="130" viewBox="0 0 450 130" fill="none" xmlns="http://www.w3.org/2000/svg">
<g filter="url(#filter0_d)">
<rect x="5" y="3.00006" width="440" height="120" rx="15" fill="white"/>
<path d="M72.1729 62.6875C69.2623 63.4813 54.5769 66.7888 54.5769 66.7888C51.6663 67.4503 48.7557 68.1118 45.7128 68.5087C42.8022 68.9056 39.7592 69.4348 36.7163 69.5671C36.0548 69.5671 35.3933 69.0379 35.3933 68.3764C35.3933 67.7149 35.7902 67.318 36.3194 67.0534C39.23 66.2596 42.1406 65.7304 45.1836 65.2012C48.0942 64.672 51.1371 64.4074 54.18 64.0105C54.18 64.0105 69.13 62.4229 72.1729 62.2906C72.3052 62.2906 72.3052 62.2906 72.3052 62.4229C72.3052 62.6875 72.1729 62.6875 72.1729 62.6875Z" fill="#CD9F52"/>
<path d="M83.0214 104.362C81.4338 105.685 79.7139 107.008 78.1263 108.331C76.5387 109.654 74.8187 110.977 73.0988 112.168C71.3789 113.491 69.7913 114.814 67.9391 115.872C66.2192 117.063 64.367 118.121 62.3825 119.047C61.721 119.312 61.0595 119.047 60.6626 118.386C60.398 117.857 60.5303 117.328 60.9272 116.931C62.5148 115.475 64.2347 114.285 65.9546 113.094C67.6745 111.903 69.5267 110.977 71.3789 109.919C73.2311 108.86 75.0834 107.802 76.9356 106.876C78.7878 105.95 80.64 104.891 82.6245 103.965C82.7568 103.965 82.7568 103.965 82.8891 104.097C83.0214 104.23 83.0214 104.362 83.0214 104.362Z" fill="#CD9F52"/>
<path d="M89.1072 33.8459C86.7258 31.8614 75.2157 22.0711 75.2157 22.0711C72.9665 20.0866 70.5851 18.1021 68.4683 15.9853C66.3515 13.8685 64.1024 11.7517 62.1179 9.37025C61.721 8.84104 61.721 8.04726 62.2502 7.65035C62.6471 7.25345 63.3086 7.25345 63.8378 7.65035C66.2192 9.50256 68.4683 11.6194 70.7174 13.7362C72.9665 15.853 74.9511 18.1021 77.0679 20.3512C77.0679 20.3512 87.3873 31.5968 89.3718 33.8459C89.3718 33.9782 89.3718 33.9782 89.3718 34.1105C89.2395 33.9782 89.1072 33.9782 89.1072 33.8459Z" fill="#CD9F52"/>
<path d="M68.9973 47.8696C67.0128 47.4727 65.1606 46.9435 63.1761 46.4143L57.4872 44.8267C55.635 44.2975 53.6504 43.7683 51.7982 43.1068C49.946 42.4453 48.0938 41.7838 46.2416 40.8577C45.7124 40.5931 45.5801 40.0639 45.8447 39.5347C46.1093 39.1378 46.5062 38.8732 46.9031 39.0055C48.8876 39.4024 50.7398 40.0639 52.592 40.5931C54.4443 41.2546 56.2965 42.0484 58.1487 42.8422L63.573 45.2236C65.4252 46.0174 67.1451 46.8113 68.9973 47.6051C69.1296 47.6051 69.1296 47.7373 68.9973 47.7373C69.1296 47.8696 68.9973 47.8696 68.9973 47.8696Z" fill="#CD9F52"/>
<path d="M49.2847 94.043C47.9616 94.5722 46.5063 95.1014 45.1833 95.6306C43.8603 96.1598 42.405 96.689 40.9497 97.0859C39.4944 97.6151 38.1714 98.1444 36.7161 98.409C35.2608 98.8059 33.8055 99.0705 32.3502 99.2028C31.8209 99.2028 31.2917 98.8058 31.2917 98.2766C31.2917 97.8797 31.5564 97.4829 31.821 97.2183C33.144 96.5568 34.5993 96.1598 36.0546 95.7629C37.5099 95.366 38.9652 95.2337 40.4205 94.9691C41.8758 94.7045 43.3311 94.4399 44.7864 94.3076C46.2417 94.043 47.697 93.9107 49.1523 93.7784C49.2846 93.7784 49.2847 93.7784 49.2847 93.9107C49.2847 94.043 49.2847 94.043 49.2847 94.043Z" fill="#CD9F52"/>
<path d="M75.8771 97.8792L68.4683 94.8363L61.5886 99.2022L62.2501 91.1318L56.032 86.1044L63.97 84.2522L66.8806 76.7111L70.982 83.5907L79.0523 83.9876L73.7603 90.2057L75.8771 97.8792Z" fill="#CD9F52"/>
<path d="M110.804 15.1913L109.746 20.0864L113.054 23.7908L108.026 24.32L105.645 28.6859L103.66 24.0554L98.6328 22.997L102.47 19.6895L101.94 14.662L106.174 17.3081L110.804 15.1913Z" fill="#CD9F52"/>
<path d="M74.2896 28.9509L75.348 32.1261L78.7878 33.1845L76.0095 35.169L76.1418 38.6089L73.2312 36.6244L70.0559 37.8151L70.9821 34.5075L68.8652 31.8615L72.3051 31.7293L74.2896 28.9509Z" fill="#CD9F52"/>
<path d="M102.469 106.612L99.5588 103.569L95.3252 104.23L97.3097 100.393L95.3252 96.5567L99.5588 97.3505L102.602 94.3076L103.263 98.5412L107.1 100.526L103.131 102.378L102.469 106.612Z" fill="#CD9F52"/>
<path d="M131.708 35.1687L133.56 37.947L137 38.0793L134.883 40.7253L135.942 44.0328L132.634 42.8421L129.856 44.8266L129.988 41.3868L127.21 39.27L130.517 38.3439L131.708 35.1687Z" fill="#CD9F52"/>
<path d="M349.227 70.9788C352.443 70.4427 368.792 68.5666 368.792 68.5666C372.008 68.1646 375.358 67.7625 378.575 67.6285C381.925 67.4945 385.141 67.2265 388.491 67.3605C389.161 67.3605 389.697 68.0306 389.697 68.7006C389.697 69.3707 389.161 69.7727 388.625 69.9067C385.409 70.4427 382.059 70.7107 378.843 70.9788C375.626 71.2468 372.276 71.2468 368.926 71.2468C368.926 71.2468 352.443 71.3808 349.227 71.3808C349.093 71.3808 349.093 71.2468 349.093 71.2468C349.093 70.9788 349.227 70.9788 349.227 70.9788Z" fill="#CD9F52"/>
<path d="M341.722 100.193C344.268 101.399 346.68 102.739 349.226 103.945C351.638 105.151 354.185 106.491 356.597 107.831C359.009 109.171 361.555 110.377 363.833 111.852C366.246 113.326 368.524 114.8 370.668 116.542C371.204 116.944 371.338 117.748 370.936 118.284C370.534 118.82 369.864 118.954 369.462 118.686C366.916 117.48 364.503 116.14 362.091 114.666C359.679 113.192 357.401 111.584 355.123 109.975C352.845 108.367 350.566 106.893 348.288 105.151C346.01 103.543 343.732 101.935 341.588 100.193C341.454 100.193 341.454 100.059 341.588 99.9247C341.588 100.193 341.722 100.193 341.722 100.193Z" fill="#CD9F52"/>
<path d="M365.977 52.2169C367.854 51.4128 369.73 50.6088 371.606 49.9388L377.234 47.7946C379.11 47.1246 380.986 46.3205 382.863 45.7845C384.739 45.2484 386.749 44.7124 388.759 44.3104C389.295 44.1763 389.831 44.5784 389.965 45.1144C390.099 45.5164 389.831 46.0525 389.429 46.1865C387.553 46.9905 385.677 47.6606 383.801 48.3306C381.925 49.0007 379.914 49.4027 378.038 49.9388L372.142 51.4128C370.132 51.8148 368.256 52.3509 366.245 52.7529C366.111 52.7529 366.111 52.7529 366.111 52.6189C365.843 52.3509 365.843 52.2169 365.977 52.2169Z" fill="#CD9F52"/>
<path d="M350.566 87.9976C352.04 88.3996 353.515 88.8016 354.989 89.0697C356.463 89.4717 357.937 89.8737 359.277 90.2757C360.751 90.6778 362.225 91.0798 363.565 91.6158C364.905 92.1519 366.379 92.8219 367.586 93.492C368.122 93.76 368.256 94.4301 367.988 94.8321C367.72 95.2341 367.318 95.3681 366.916 95.3681C365.441 95.1001 363.967 94.5641 362.627 94.028C361.287 93.492 359.947 92.8219 358.607 92.1519C357.267 91.4819 355.927 90.8118 354.587 90.1418C353.247 89.4717 351.906 88.8017 350.566 87.9976C350.566 87.9976 350.432 87.8636 350.566 87.8636C350.432 87.9976 350.566 87.9976 350.566 87.9976Z" fill="#CD9F52"/>
<path d="M352.443 41.0943C354.453 39.2182 356.597 37.342 358.741 35.4659C360.885 33.5898 362.895 31.8477 365.039 29.9715C367.184 28.2294 369.194 26.3533 371.472 24.6112C373.75 23.0031 376.028 21.3949 378.44 19.9208C378.976 19.5188 379.78 19.7869 380.182 20.3229C380.451 20.8589 380.451 21.529 379.914 21.931C377.904 23.8071 375.76 25.5492 373.482 27.2913C371.338 29.0335 368.926 30.5076 366.648 32.1157C364.369 33.7238 362.091 35.1979 359.679 36.806C357.401 38.2801 354.989 39.8882 352.577 41.3623C352.443 41.3623 352.443 41.3623 352.309 41.3623C352.309 41.2283 352.309 41.0943 352.443 41.0943Z" fill="#CD9F52"/>
<path d="M343.33 31.1777L339.712 24.7453L332.342 24.2092L337.3 18.7149L335.692 11.4784L342.392 14.5606L348.691 10.6743L347.887 18.0448L353.515 22.8692L346.278 24.4773L343.33 31.1777Z" fill="#CD9F52"/>
<path d="M376.966 77.4104L380.987 81.2967L386.481 80.2246L384.069 85.3169L386.883 90.1413L381.255 89.3372L377.502 93.4915L376.43 87.9971L371.338 85.5849L376.296 83.0388L376.966 77.4104Z" fill="#CD9F52"/>
<path d="M315.054 26.0853L317.064 28.8995L320.548 29.0335L318.27 31.7137L319.342 35.0639L316.126 33.8579L313.178 35.868L313.312 32.3837L310.498 30.2396L313.982 29.3015L315.054 26.0853Z" fill="#CD9F52"/>
<path d="M331.001 106.089L332.877 109.037H336.362L334.217 111.851L335.289 115.202L331.939 113.995L329.125 116.006L329.259 112.521L326.445 110.377L329.795 109.439L331.001 106.089Z" fill="#CD9F52"/>
<path d="M354.721 49.8055L356.731 52.7537L360.215 52.8877L358.071 55.5679L359.009 58.9181L355.793 57.712L352.845 59.7221L353.113 56.2379L350.299 54.0937L353.649 53.1557L354.721 49.8055Z" fill="#CD9F52"/>
</g>
<defs>
<filter id="filter0_d" x="0" y="6.10352e-05" width="450" height="130" filterUnits="userSpaceOnUse" color-interpolation-filters="sRGB">
<feFlood flood-opacity="0" result="BackgroundImageFix"/>
<feColorMatrix in="SourceAlpha" type="matrix" values="0 0 0 0 0 0 0 0 0 0 0 0 0 0 0 0 0 0 127 0"/>
<feOffset dy="2"/>
<feGaussianBlur stdDeviation="2.5"/>
<feColorMatrix type="matrix" values="0 0 0 0 0 0 0 0 0 0 0 0 0 0 0 0 0 0 0.1 0"/>
<feBlend mode="normal" in2="BackgroundImageFix" result="effect1_dropShadow"/>
<feBlend mode="normal" in="SourceGraphic" in2="effect1_dropShadow" result="shape"/>
</filter>
</defs>
</svg>
