<svg width="56" height="56" viewBox="0 0 56 56" fill="none" xmlns="http://www.w3.org/2000/svg">
<rect width="56" height="56" rx="10" fill="url(#paint0_linear_16684)"/>
<mask id="mask0" mask-type="alpha" maskUnits="userSpaceOnUse" x="0" y="0" width="56" height="56">
<rect width="56" height="56" rx="10" fill="#F05C8C"/>
</mask>
<g mask="url(#mask0)">
<path fill-rule="evenodd" clip-rule="evenodd" d="M54.1748 -38.778C59.9101 -39.3148 66.9901 -42.8773 70.9841 -37.6957C75.1192 -32.3311 71.2819 -23.3267 71.809 -15.9003C72.1773 -10.7118 74.0263 -6.00374 73.6013 -0.822113C73.0799 5.53452 72.398 12.1268 69.1094 17.0131C65.2915 22.6858 60.0628 27.2199 54.1748 28.0424C47.9545 28.9113 41.2106 26.8616 36.6058 21.5535C32.1865 16.4593 32.0791 8.15566 30.5991 0.86602C29.2335 -5.86009 26.7346 -12.5946 28.3228 -19.2437C29.9278 -25.9627 34.3018 -31.0878 39.0972 -34.7113C43.6094 -38.1208 48.9194 -38.2861 54.1748 -38.778Z" fill="#FFA88D"/>
<path fill-rule="evenodd" clip-rule="evenodd" d="M5.97317 25.2885C11.7084 24.7518 18.7884 21.1892 22.7824 26.3709C26.9175 31.7355 23.0803 40.7398 23.6074 48.1663C23.9757 53.3547 25.8247 58.0628 25.3996 63.2444C24.8782 69.6011 24.1963 76.1933 20.9077 81.0796C17.0899 86.7523 11.8611 91.2864 5.97317 92.1089C-0.247198 92.9778 -6.99107 90.9281 -11.5959 85.6201C-16.0152 80.5258 -16.1226 72.2222 -17.6026 64.9326C-18.9682 58.2065 -21.467 51.4719 -19.8788 44.8229C-18.2739 38.1038 -13.8999 32.9787 -9.10448 29.3552C-4.59228 25.9457 0.717701 25.7804 5.97317 25.2885Z" fill="#FFA88D"/>
</g>
<path d="M25.3411 20.1787L25.3411 20.1787C25.1926 20.0302 25.1599 19.8018 25.2666 19.6161L25.2666 19.6162L25.3534 19.6659L25.2667 19.616L25.3411 20.1787ZM25.3411 20.1787L25.3429 20.1805C25.434 20.267 25.5497 20.3139 25.6712 20.3139C25.7447 20.3139 25.8309 20.2974 25.8999 20.2511L25.3411 20.1787ZM26.6287 18.9752L26.5883 19.0667L26.6292 18.9754L26.6289 18.9753C26.6289 18.9752 26.6288 18.9752 26.6287 18.9752ZM26.6713 19.8036L26.6714 19.8035L26.6212 19.717L26.6711 19.8037C26.6712 19.8037 26.6712 19.8036 26.6713 19.8036Z" fill="white" stroke="white" stroke-width="0.2"/>
<path d="M15.6687 29.7309L15.6687 29.731C16.8994 32.9698 19.4714 35.5014 22.7289 36.6769C24.0441 37.1521 25.4038 37.388 26.76 37.388C28.4775 37.388 30.1909 37.0084 31.7898 36.2605L31.79 36.2604C34.6566 34.9118 36.8235 32.5312 37.8994 29.554L37.8995 29.5539C38.3378 28.3346 38.5774 27.0634 38.6032 25.7808C38.6474 23.7796 38.172 21.7825 37.2362 20.003L37.2361 20.0028C36.2929 18.2158 34.9037 16.6903 33.2158 15.5957C32.4567 15.1019 31.6351 14.6929 30.7728 14.3834C30.1021 14.1402 29.4095 13.9597 28.7132 13.8418L28.7131 13.8418C25.3266 13.2706 21.8628 14.203 19.2026 16.3953C18.0566 17.3386 17.1132 18.4736 16.3946 19.7669C16.0849 20.3201 15.8196 20.9096 15.6024 21.5099L15.6023 21.51C14.6443 24.1704 14.6664 27.0888 15.6687 29.7309ZM19.7975 17.1123L19.7975 17.1122C21.7745 15.4792 24.2329 14.6067 26.7491 14.6067C27.3499 14.6067 27.9544 14.6574 28.5588 14.7624L28.5592 14.7624C29.2002 14.8711 29.8411 15.0377 30.4601 15.2621L30.4602 15.2621C31.2533 15.5482 32.0136 15.9248 32.7121 16.3808L32.7124 16.381C35.8547 18.4191 37.7558 22.0148 37.6761 25.7655C37.6508 26.9494 37.4336 28.1188 37.0281 29.2412C36.036 31.9822 34.0376 34.1761 31.398 35.4181C28.7585 36.6564 25.7935 36.794 23.0489 35.8055C20.0473 34.7193 17.6759 32.3876 16.5426 29.4006L16.4491 29.436L16.5426 29.4005C15.6194 26.9677 15.5976 24.2776 16.481 21.8265C16.6839 21.2722 16.9302 20.7289 17.2125 20.2185C17.8714 19.0275 18.7438 17.9813 19.7975 17.1123Z" fill="white" stroke="white" stroke-width="0.2"/>
<path d="M19.7301 31.7928L19.6553 31.8591C20.3158 32.6044 21.0831 33.2501 21.9278 33.7775L21.9278 33.7776L21.9301 33.7789C22.0065 33.8239 22.0897 33.8475 22.1745 33.8475C22.3284 33.8475 22.4813 33.7686 22.5695 33.6293L22.5695 33.6293L22.5701 33.6283C22.7044 33.4107 22.6404 33.1222 22.4208 32.9866C21.651 32.5095 20.9533 31.9203 20.3495 31.2406C20.1813 31.0493 19.884 31.0308 19.6928 31.2029C19.5017 31.3712 19.4834 31.6687 19.6559 31.8598L19.7301 31.7928ZM19.7301 31.7928C19.5949 31.6429 19.6095 31.4091 19.7593 31.2776L22.3681 33.0716C22.5398 33.1775 22.591 33.4041 22.485 33.5758C22.4156 33.6854 22.295 33.7475 22.1745 33.7475C22.1087 33.7475 22.0429 33.7293 21.9808 33.6927C21.1441 33.1702 20.3841 32.5308 19.7301 31.7928Z" fill="white" stroke="white" stroke-width="0.2"/>
<path d="M19.2611 29.7401L19.2609 29.7398C19.1164 29.494 18.9827 29.2412 18.8636 28.9849C18.7564 28.7522 18.4775 28.6496 18.2444 28.761C18.0118 28.8685 17.9095 29.1476 18.0214 29.3807L18.1115 29.3375L18.0211 29.3803C18.1537 29.6601 18.2975 29.9368 18.4563 30.2064C18.541 30.352 18.6992 30.4349 18.8569 30.4349C18.938 30.4349 19.0141 30.4112 19.0813 30.3836L19.0817 30.3845L19.0936 30.3775C19.3168 30.2473 19.3912 29.9632 19.2611 29.7401Z" fill="white" stroke="white" stroke-width="0.2"/>
<path d="M24.7633 31.3871L24.7637 31.3864L25.1869 30.6895C25.2187 30.6343 25.2332 30.5784 25.2282 30.523L25.2279 30.5199L25.228 30.5199L25.1001 28.4008L25.1 28.3996L25.1 28.3996C25.0946 28.2892 25.0279 28.1946 24.9236 28.1507L24.9227 28.1503L24.9227 28.1503L23.4472 27.5112C23.4471 27.5112 23.447 27.5111 23.4469 27.5111C23.3145 27.4549 23.1913 27.3712 23.0883 27.2722C23.0882 27.2721 23.0882 27.2721 23.0881 27.272L21.9412 26.1799L21.9411 26.1798C21.6788 25.9294 21.5394 25.5792 21.5633 25.2131C21.5633 25.2131 21.5633 25.2131 21.5633 25.2131L21.6838 23.3534L21.6839 23.3529L21.6839 23.3529C21.7117 22.9554 21.9303 22.5934 22.2727 22.3864L22.2727 22.3863L24.9247 20.7864C24.9248 20.7863 24.9249 20.7863 24.9251 20.7862C25.2039 20.615 25.5343 20.5675 25.8514 20.6464M24.7633 31.3871L25.8526 20.6467C25.8522 20.6466 25.8518 20.6465 25.8514 20.6464M24.7633 31.3871C24.6407 31.5927 24.5766 31.8275 24.5885 32.0713C24.5885 32.0714 24.5885 32.0716 24.5885 32.0717L24.6725 34.08C24.6725 34.0801 24.6725 34.0802 24.6725 34.0803C24.6925 34.6256 25.0634 35.0795 25.5917 35.2145L26.3871 35.4189C26.4881 35.447 26.5919 35.4588 26.6906 35.4588C26.9453 35.4588 27.1913 35.3793 27.4011 35.2331C27.4285 35.2148 27.4575 35.1909 27.4827 35.1608L28.7529 33.7133C28.7702 33.7042 28.7851 33.6978 28.7975 33.6947L28.7976 33.6948L28.8021 33.6935L29.5913 33.456L29.5915 33.4559C29.9857 33.3364 30.2917 33.0261 30.4109 32.6329L30.411 32.6324L30.7727 31.4194L30.7728 31.4194L30.7732 31.4178C30.7919 31.3511 30.8346 31.2944 30.895 31.256L32.7102 30.1018C32.7104 30.1017 32.7105 30.1017 32.7106 30.1016C32.9015 29.9822 33.053 29.8147 33.1525 29.6118C33.1526 29.6117 33.1526 29.6117 33.1526 29.6116L33.4886 28.9323L33.4886 28.9323C33.6635 28.5786 33.6594 28.1799 33.4807 27.8304C33.3017 27.4803 32.975 27.2454 32.59 27.1817C32.4849 27.1632 32.3974 27.0888 32.3619 26.9882L32.2494 24.4499C32.2491 24.4204 32.2444 24.3924 32.2411 24.3726L32.2407 24.3701L32.2409 24.3701M24.7633 31.3871L32.2409 24.3701M25.8514 20.6464C25.8923 20.6556 25.9313 20.67 25.9705 20.6941M25.8514 20.6464C25.8509 20.6463 25.8505 20.6462 25.8501 20.6461L25.9705 20.6941M25.9705 20.6941L27.7565 21.6924C28.0509 21.7819 28.3012 21.9833 28.4544 22.2504C28.4544 22.2504 28.4545 22.2505 28.4545 22.2505L29.0682 23.3135L29.0684 23.3139C29.0985 23.3666 29.1446 23.4097 29.1993 23.4353L31.2469 23.4389L25.9705 20.6941ZM32.2409 24.3701L32.2396 24.3646M32.2409 24.3701L32.2396 24.3646M32.2396 24.3646C32.1404 23.9238 31.8075 23.5784 31.3723 23.4581M32.2396 24.3646L31.3723 23.4581M25.4124 21.5857L25.4123 21.5857L22.7597 23.186L22.7595 23.1862C22.6793 23.2343 22.6264 23.3212 22.6178 23.4186L22.4973 25.277C22.4973 25.277 22.4973 25.2771 22.4973 25.2771C22.4918 25.3649 22.5247 25.4493 22.5871 25.509C22.5871 25.509 22.5872 25.509 22.5872 25.5091L23.7343 26.6014L23.7361 26.6031L23.736 26.6031C23.7586 26.6257 23.7879 26.6448 23.8192 26.6591L25.2942 27.2981C25.2943 27.2981 25.2944 27.2981 25.2944 27.2982L25.2945 27.2982L25.2547 27.3899L25.4124 21.5857ZM25.4124 21.5857L25.415 21.584M25.4124 21.5857L25.415 21.584M25.415 21.584C25.4597 21.5551 25.51 21.5416 25.5616 21.5416C25.5732 21.5416 25.5824 21.5416 25.5926 21.5424L27.3597 22.5289C27.3988 22.553 27.4378 22.5674 27.4786 22.5766C27.5521 22.5953 27.6181 22.6462 27.6604 22.7164L28.2738 23.7789L28.2738 23.7789M25.415 21.584L28.2738 23.7789M28.2738 23.7789C28.436 24.0597 28.6972 24.2625 29.01 24.3468M28.2738 23.7789L29.01 24.3468M31.3723 23.4581C31.3291 23.4428 31.2849 23.4389 31.2471 23.4389L31.3723 23.4581ZM29.01 24.3468C29.053 24.362 29.0971 24.366 29.1348 24.366L29.01 24.3468ZM25.5594 31.8739L25.9831 31.1762L30.4113 30.4697C30.1609 30.6287 29.9778 30.8714 29.8942 31.154C29.8941 31.154 29.8941 31.1541 29.8941 31.1542L29.5324 32.367L29.5323 32.3674C29.5051 32.46 29.4314 32.5358 29.3377 32.5625L29.3377 32.5625L29.3364 32.5629L28.5472 32.8004L28.5462 32.8007C28.4225 32.8394 28.2991 32.8945 28.1896 32.9752C28.1625 32.9934 28.134 33.017 28.1092 33.0466L26.8281 34.5014C26.7663 34.5331 26.6927 34.5419 26.6201 34.5238C26.6201 34.5238 26.62 34.5238 26.6199 34.5237L25.8244 34.3194C25.8243 34.3194 25.8243 34.3194 25.8243 34.3193C25.698 34.2864 25.6085 34.1772 25.6031 34.0466L25.6031 34.0466L25.5191 32.037L25.519 32.0364C25.5163 31.9785 25.5301 31.9218 25.5593 31.8741L25.5594 31.8739ZM32.2266 29.3156L30.4114 30.4697L29.135 24.366L31.1829 24.3696C31.2554 24.4026 31.3102 24.4627 31.3376 24.54L31.4502 27.0782C31.4504 27.1076 31.4551 27.1356 31.4584 27.1554L31.4588 27.1579L31.4587 27.158L31.46 27.1637C31.5712 27.6525 31.9611 28.0189 32.4543 28.0987C32.5483 28.1155 32.6234 28.1698 32.667 28.2543C32.7106 28.3387 32.711 28.4333 32.6697 28.5188C32.6697 28.519 32.6696 28.5191 32.6695 28.5192L32.334 29.1977C32.3339 29.1978 32.3339 29.1979 32.3338 29.1979C32.3096 29.2463 32.2749 29.2842 32.2269 29.3153C32.2268 29.3154 32.2267 29.3155 32.2266 29.3156Z" fill="white" stroke="white" stroke-width="0.2"/>
<path d="M16.0161 30.031L16.016 30.031L16.0198 30.0317C16.0421 30.0354 16.0747 30.0403 16.1056 30.0403C16.2306 30.0403 16.3566 29.9896 16.4461 29.891C16.4462 29.8908 16.4464 29.8907 16.4465 29.8905L16.9754 29.3215L16.9756 29.3217L16.9803 29.3159C16.9976 29.2942 17.0143 29.2692 17.028 29.2485L17.0292 29.2468L17.0293 29.2468L17.0318 29.2428L17.9187 27.7645L18.8495 26.33L18.8496 26.3298C18.943 26.1851 18.9475 25.9993 18.8638 25.8504C18.8638 25.8504 18.8637 25.8503 18.8637 25.8502L18.0853 24.4599L17.7129 22.8296L17.2641 19.9289C17.2356 19.7311 17.0809 19.5789 16.888 19.5421L16.888 19.5421L16.8857 19.5417C16.6909 19.5093 16.4961 19.602 16.3987 19.7737L16.3984 19.7742C16.0886 20.3274 15.8233 20.917 15.606 21.5173L15.606 21.5174C14.648 24.1776 14.67 27.0957 15.6721 29.7377C15.7286 29.8922 15.8599 29.9988 16.0161 30.031ZM17.1354 27.269C17.1335 27.2715 17.1318 27.2739 17.1304 27.2761L17.1296 27.2769L17.1233 27.2875L16.2923 28.6771C15.6221 26.4459 15.6839 24.0455 16.481 21.8375C16.5124 21.7512 16.5444 21.6656 16.5774 21.5805L16.7949 22.9845C16.795 22.9886 16.7953 22.9937 16.7958 22.999C16.7965 23.0057 16.798 23.0175 16.8026 23.031L17.1917 24.7364C17.2003 24.7791 17.2143 24.8232 17.2398 24.8649L17.9144 26.0673L17.1354 27.269ZM17.1233 27.2886C17.1231 27.2891 17.1232 27.2887 17.1237 27.2878C17.1236 27.288 17.1235 27.2881 17.1235 27.2883L17.1233 27.2886Z" fill="white" stroke="white" stroke-width="0.2"/>
<path d="M27.9087 16.9001C27.944 16.8948 27.9749 16.8845 28.0043 16.8701L29.748 16.1056C29.9221 16.0473 30.0606 15.9078 30.1176 15.7332C30.1835 15.5356 30.14 15.3156 30.0028 15.1605C30.0027 15.1604 30.0027 15.1603 30.0026 15.1603L29.0091 14.028L29.0091 14.0279L29.0078 14.0265C28.9172 13.9273 28.7952 13.8568 28.6617 13.8345L28.6616 13.8345C25.3597 13.2891 21.9624 14.1809 19.3352 16.2811C19.1847 16.4007 19.1063 16.5856 19.115 16.7731L19.115 16.7731L19.1151 16.7754C19.1283 16.9637 19.229 17.1351 19.3876 17.2364L19.3879 17.2366C19.5174 17.3186 19.6756 17.3456 19.8229 17.3139L21.7382 17.2636L22.4535 17.6355L22.4535 17.6355L22.4549 17.6362C22.5413 17.6794 22.6333 17.7015 22.7262 17.7015C22.8353 17.7015 22.9414 17.6712 23.0274 17.617L24.0268 17.0043C24.0595 16.9854 24.0867 16.9627 24.1071 16.9457L24.1092 16.9439L24.1093 16.9441L24.1133 16.9404L24.8395 16.2654C24.8877 16.4536 25.0226 16.6096 25.21 16.6763C25.21 16.6763 25.2101 16.6763 25.2101 16.6764L25.545 16.7965C25.605 16.8194 25.663 16.8277 25.7188 16.8317L25.7188 16.8317L25.722 16.8319L27.7644 16.9122L27.7644 16.9123H27.7684C27.8174 16.9123 27.8631 16.9083 27.9087 16.9001ZM27.9087 16.9001C27.9093 16.9 27.9099 16.8998 27.9105 16.8997L27.8926 16.8014L27.9067 16.9003C27.9074 16.9003 27.9081 16.9002 27.9087 16.9001ZM24.7119 15.1377C24.7864 15.0984 24.8644 15.0771 24.9445 15.0687L24.9487 15.0682L24.9487 15.0683L25.5874 15.0282C25.5875 15.0282 25.5876 15.0282 25.5878 15.0281C25.8404 15.0106 26.0729 15.1612 26.169 15.3929C26.2409 15.5661 26.2232 15.7579 26.1314 15.9133L27.7165 15.9771L28.9913 15.42L28.3895 14.7352C25.7527 14.3296 23.0552 14.9191 20.8197 16.3595L21.6753 16.3363C21.7229 16.3253 21.7644 16.3214 21.8054 16.3214C21.8979 16.3214 21.9906 16.3434 22.0747 16.3876C22.0748 16.3876 22.0748 16.3877 22.0749 16.3877L22.7112 16.7194L23.5167 16.2244L24.6117 15.2092C24.641 15.1802 24.6746 15.1564 24.7119 15.1377ZM24.7119 15.1377C24.7122 15.1375 24.7126 15.1373 24.7129 15.1371L24.7577 15.2266L24.7109 15.1382C24.7112 15.138 24.7115 15.1379 24.7119 15.1377ZM24.8919 16.2166L24.8312 16.2283C24.8312 16.2284 24.8312 16.2285 24.8313 16.2287C24.8313 16.2288 24.8313 16.2289 24.8313 16.2291L24.8915 16.217L24.8919 16.2166Z" fill="white" stroke="white" stroke-width="0.2"/>
<path d="M36.0744 29.2318L36.0744 29.2317C35.9063 29.1239 35.7966 28.9419 35.7874 28.7438L35.682 27.1192L35.4381 26.0236L35.4086 26.0171L35.3693 26.3873C35.3693 26.3875 35.3693 26.3877 35.3693 26.3879C35.3558 26.5295 35.2899 26.6593 35.1959 26.7576L35.1952 26.7583L33.9238 28.0626C33.7798 28.2109 33.5755 28.2754 33.3733 28.2453L33.3717 28.245L33.3717 28.245L32.049 28.0258L32.0484 28.0257C31.7975 27.9824 31.5971 27.7958 31.5404 27.5475L31.5398 27.5448L31.5398 27.5448C31.5395 27.5432 31.5391 27.5412 31.5387 27.5391C31.5358 27.5257 31.5312 27.5038 31.5307 27.4791L31.239 24.1326C31.2185 24.0084 31.2357 23.8791 31.2922 23.7656L31.508 23.3108L30.965 23.1951C30.9364 23.1901 30.9063 23.1813 30.8828 23.1735L30.8804 23.1726L30.8804 23.1726L30.0035 22.8547L30.0013 22.8539L30.0013 22.8539C29.9294 22.826 29.8538 22.7872 29.7894 22.7234L28.9214 21.9246C28.9213 21.9246 28.9213 21.9246 28.9213 21.9246C28.8687 21.8764 28.8254 21.8198 28.7911 21.7555L28.791 21.7554L28.3881 20.9979L27.8156 20.9311L26.5619 21.6597L26.5609 21.6603L26.5609 21.6603C26.456 21.7196 26.3304 21.7393 26.2116 21.7063L25.4123 21.4983L25.4115 21.4981C25.1865 21.4375 25.0124 21.2597 24.96 21.0331L36.0744 29.2318ZM36.0744 29.2318L36.078 29.2339C36.1792 29.2929 36.2951 29.3279 36.4134 29.3279C36.4832 29.3279 36.5661 29.3173 36.6313 29.2821C36.7883 29.2204 36.9107 29.0972 36.9752 28.9455L38.5248 26.0103C38.5391 25.986 38.5485 25.9624 38.5552 25.9456L38.556 25.9438L38.5565 25.9439L38.5593 25.9341C38.575 25.8793 38.5886 25.8183 38.5887 25.7505M36.0744 29.2318L24.96 21.0331L24.8687 20.6385L24.8685 20.6377C24.8343 20.4835 24.8551 20.3226 24.9343 20.1861C24.9343 20.186 24.9344 20.1859 24.9345 20.1858L25.5479 19.1121L25.5482 19.1117C25.7086 18.8343 26.0518 18.7205 26.344 18.8511C26.3441 18.8512 26.3442 18.8512 26.3443 18.8513L26.5886 18.9589C26.5826 18.7963 26.6434 18.6418 26.7467 18.5226C26.8612 18.3905 27.0272 18.3171 27.1997 18.3128L27.1999 18.3128L28.5091 18.2825L28.4514 17.8675L28.4514 17.867C28.4125 17.5775 28.5763 17.2944 28.8519 17.1936C28.8521 17.1935 28.8522 17.1935 28.8523 17.1934L30.6597 16.518C30.6598 16.5179 30.6599 16.5179 30.6599 16.5179C30.8783 16.435 31.1216 16.4835 31.2945 16.6348L31.2951 16.6354L32.007 17.2685L32.5117 17.0441L32.4916 16.3072L32.4916 16.3063C32.4873 16.0703 32.6078 15.8514 32.8187 15.7412C33.0268 15.6288 33.2787 15.6419 33.474 15.7764L33.4741 15.7764C35.0772 16.882 36.3963 18.3891 37.288 20.132C38.1759 21.8672 38.6254 23.8124 38.5887 25.7505M38.5887 25.7505C38.5887 25.7502 38.5887 25.7498 38.5887 25.7495H38.4887L38.5887 25.7514C38.5887 25.7511 38.5887 25.7508 38.5887 25.7505ZM26.6922 19.0045L26.6907 18.9864C26.6761 18.8402 26.7272 18.6977 26.8222 18.5881C26.9172 18.4785 27.0561 18.4164 27.2022 18.4127L26.6922 19.0045ZM26.6922 19.0045L26.6584 18.9896L26.6922 19.0045ZM35.2766 25.0343L35.2766 25.0343L35.8245 25.1549L35.8247 25.1549L35.8032 25.2526L35.2766 25.0343ZM35.2766 25.0343L35.273 25.0336C35.2279 25.0254 35.1853 25.0211 35.1419 25.0211C35.0116 25.0211 34.8853 25.0603 34.7732 25.142C34.6294 25.2426 34.5338 25.4036 34.5163 25.5821C34.5162 25.5823 34.5162 25.5825 34.5162 25.5827L34.4506 26.1868L33.3638 27.3048L32.4323 27.1506L32.1637 24.0944L35.2766 25.0343ZM26.5911 18.9955L26.5975 19.072L26.3034 18.9425L26.5911 18.9955Z" fill="white" stroke="white" stroke-width="0.2"/>
<path d="M22.1844 38.4856L22.1842 38.4855C21.5441 38.2538 20.9148 37.9741 20.3185 37.6539C20.0906 37.5326 20.0068 37.2488 20.1281 37.0249C20.2486 36.8023 20.5315 36.7128 20.7567 36.8347C21.3116 37.1321 21.899 37.3967 22.4968 37.6104L22.497 37.6105C23.4217 37.9441 24.3824 38.1725 25.3501 38.2849L25.3502 38.2849C26.2783 38.3936 27.2246 38.4009 28.1527 38.3067C33.0215 37.8027 37.2346 34.5069 38.8913 29.9101L38.8914 29.9101C39.3664 28.5938 39.6237 27.2198 39.6527 25.8351V25.835C39.747 21.4376 37.5171 17.2208 33.8339 14.8282L33.8339 14.8282C33.0146 14.2953 32.1264 13.853 31.1948 13.5195L31.1943 13.5193C30.5964 13.3019 29.98 13.1315 29.3597 13.0045C29.3597 13.0045 29.3596 13.0045 29.3596 13.0045L29.3797 12.9065C29.1824 12.8663 29.0545 12.6727 29.0947 12.4753C29.1349 12.278 29.3285 12.1502 29.5258 12.1904L22.1844 38.4856ZM22.1844 38.4856C23.1741 38.8425 24.2046 39.0891 25.2428 39.2106M22.1844 38.4856L25.2428 39.2106M25.2428 39.2106C25.2429 39.2106 25.2429 39.2106 25.2429 39.2106L25.2546 39.1113L25.2428 39.2106ZM31.5145 12.6443C30.8709 12.4126 30.2121 12.2249 29.5455 12.0923L39.6796 30.1925C40.1875 28.7894 40.4615 27.3279 40.4908 25.8518L40.5908 25.8539C40.5908 25.8538 40.5908 25.8538 40.5908 25.8538C40.6386 23.5349 40.0902 21.22 39.0045 19.159L39.0044 19.1589C37.9114 17.0869 36.2994 15.3202 34.3449 14.0504C33.465 13.476 32.5117 13.005 31.5146 12.6444L31.5145 12.6443ZM33.8884 14.7443C33.0627 14.2072 32.1675 13.7615 31.2285 13.4253L25.3386 38.3842C26.274 38.4938 27.2276 38.5011 28.163 38.4061C33.07 37.8983 37.3157 34.577 38.9854 29.944C39.4641 28.6177 39.7235 27.2329 39.7527 25.8372C39.8477 21.4052 37.6006 17.1558 33.8884 14.7443Z" fill="white" stroke="white" stroke-width="0.2"/>
<path d="M21.8443 39.1321L21.8445 39.1322C21.8959 39.1509 21.9513 39.1601 22.0029 39.1601C22.1936 39.1601 22.3707 39.0436 22.4403 38.8534L22.4404 38.8529L23.3245 36.398C23.3245 36.3979 23.3246 36.3978 23.3246 36.3977C23.4131 36.1551 23.2866 35.8901 23.0457 35.8021C22.803 35.7134 22.5378 35.8398 22.4497 36.0809L22.4497 36.0809L22.4496 36.0813L21.5655 38.5362C21.5655 38.5363 21.5655 38.5364 21.5654 38.5365C21.4769 38.7791 21.6034 39.0441 21.8443 39.1321Z" fill="white" stroke="white" stroke-width="0.2"/>
<path d="M30.4562 15.2584L30.4563 15.2585C30.5077 15.2772 30.5632 15.2864 30.6147 15.2864C30.8049 15.2864 30.9864 15.1666 31.0524 14.9787L31.9363 12.5242C31.9363 12.5242 31.9364 12.5241 31.9364 12.524C32.0249 12.2814 31.8985 12.0164 31.6575 11.9283C31.4148 11.8396 31.1496 11.9661 31.0615 12.2071L31.0615 12.2071L31.0614 12.2076L30.1773 14.6625C30.1773 14.6625 30.1773 14.6626 30.1772 14.6627C30.0887 14.9053 30.2152 15.1703 30.4562 15.2584Z" fill="white" stroke="white" stroke-width="0.2"/>
<path d="M21.4437 44.1H32.0579C32.3184 44.1 32.5233 43.8901 32.5233 43.6346V42.4435C32.5233 41.2336 31.5395 40.2498 30.3297 40.2498H23.172C21.9622 40.2498 20.9784 41.2336 20.9784 42.4435V43.6346C20.9784 43.8908 21.1876 44.1 21.4437 44.1ZM31.5926 42.4435V43.1692H21.9091V42.4435C21.9091 41.746 22.4745 41.1806 23.172 41.1806H30.3297C31.0272 41.1806 31.5926 41.746 31.5926 42.4435Z" fill="white" stroke="white" stroke-width="0.2"/>
<path d="M25.354 38.2848L25.354 38.2848L25.353 38.2847C25.2237 38.2708 25.0896 38.3119 24.9911 38.4005C24.8887 38.4894 24.8331 38.6157 24.8331 38.7495V40.7152C24.8331 40.9714 25.0423 41.1806 25.2985 41.1806H28.2032C28.4637 41.1806 28.6686 40.9707 28.6686 40.7152V38.7677C28.6686 38.637 28.6126 38.5114 28.5151 38.4232C28.4173 38.3347 28.2869 38.2927 28.1566 38.3065C27.2285 38.4008 26.2821 38.3935 25.354 38.2848ZM27.7378 39.2771V40.2498H25.7639V39.2636C26.4179 39.315 27.0804 39.3213 27.7378 39.2771Z" fill="white" stroke="white" stroke-width="0.2"/>
<defs>
<linearGradient id="paint0_linear_16684" x1="53.2914" y1="56.1774" x2="-9.3999" y2="14.0905" gradientUnits="userSpaceOnUse">
<stop stop-color="#FF8058"/>
<stop offset="1" stop-color="#FFA589"/>
</linearGradient>
</defs>
</svg>
