<svg width="56" height="56" viewBox="0 0 56 56" fill="none" xmlns="http://www.w3.org/2000/svg">
<rect width="56" height="56" rx="10" fill="url(#paint0_linear_16681)"/>
<mask id="mask0" mask-type="alpha" maskUnits="userSpaceOnUse" x="0" y="0" width="56" height="56">
<rect width="56" height="56" rx="10" fill="#F05C8C"/>
</mask>
<g mask="url(#mask0)">
<path fill-rule="evenodd" clip-rule="evenodd" d="M54.1748 -38.7781C59.9101 -39.3149 66.9901 -42.8774 70.9841 -37.6958C75.1192 -32.3311 71.2819 -23.3268 71.809 -15.9004C72.1773 -10.7119 74.0263 -6.00383 73.6013 -0.822205C73.0799 5.53443 72.398 12.1267 69.1094 17.013C65.2915 22.6857 60.0628 27.2198 54.1748 28.0423C47.9545 28.9112 41.2106 26.8615 36.6058 21.5534C32.1865 16.4592 32.0791 8.15557 30.5991 0.865929C29.2335 -5.86018 26.7346 -12.5947 28.3228 -19.2438C29.9278 -25.9628 34.3018 -31.0879 39.0972 -34.7114C43.6094 -38.1209 48.9194 -38.2862 54.1748 -38.7781Z" fill="#F29DA4"/>
<path fill-rule="evenodd" clip-rule="evenodd" d="M5.97317 25.2886C11.7084 24.7518 18.7884 21.1893 22.7824 26.3709C26.9175 31.7355 23.0803 40.7398 23.6074 48.1663C23.9757 53.3547 25.8247 58.0628 25.3996 63.2444C24.8782 69.6011 24.1963 76.1933 20.9077 81.0797C17.0899 86.7523 11.8611 91.2864 5.97317 92.1089C-0.247198 92.9778 -6.99107 90.9281 -11.5959 85.6201C-16.0152 80.5258 -16.1226 72.2222 -17.6026 64.9326C-18.9682 58.2065 -21.467 51.4719 -19.8788 44.8229C-18.2739 38.1038 -13.8999 32.9787 -9.10448 29.3553C-4.59228 25.9457 0.717701 25.7804 5.97317 25.2886Z" fill="#F29DA4"/>
</g>
<path d="M22.76 32.328H15.608L14.312 36H11.384L17.624 19.32H20.768L26.984 36H24.056L22.76 32.328ZM21.992 30.216L19.184 22.296L16.376 30.216H21.992ZM34.3194 22.608C35.5194 22.608 36.5434 22.904 37.3914 23.496C38.2394 24.088 38.8394 24.872 39.1914 25.848V22.776H41.9274V36H39.1914V32.928C38.8394 33.904 38.2394 34.688 37.3914 35.28C36.5434 35.872 35.5194 36.168 34.3194 36.168C33.1674 36.168 32.1354 35.896 31.2234 35.352C30.3274 34.808 29.6234 34.024 29.1114 33C28.5994 31.976 28.3434 30.768 28.3434 29.376C28.3434 28 28.5994 26.8 29.1114 25.776C29.6234 24.752 30.3274 23.968 31.2234 23.424C32.1354 22.88 33.1674 22.608 34.3194 22.608ZM35.1594 25.008C33.9434 25.008 32.9674 25.4 32.2314 26.184C31.5114 26.952 31.1514 28.016 31.1514 29.376C31.1514 30.736 31.5114 31.808 32.2314 32.592C32.9674 33.36 33.9434 33.744 35.1594 33.744C35.9274 33.744 36.6154 33.568 37.2234 33.216C37.8314 32.848 38.3114 32.336 38.6634 31.68C39.0154 31.024 39.1914 30.256 39.1914 29.376C39.1914 28.512 39.0154 27.752 38.6634 27.096C38.3114 26.424 37.8314 25.912 37.2234 25.56C36.6154 25.192 35.9274 25.008 35.1594 25.008Z" fill="white"/>
<defs>
<linearGradient id="paint0_linear_16681" x1="53.2914" y1="56.1774" x2="-9.3999" y2="14.0905" gradientUnits="userSpaceOnUse">
<stop stop-color="#ED7685"/>
<stop offset="1" stop-color="#F19DA4"/>
</linearGradient>
</defs>
</svg>
